<?xml version="1.0" encoding="UTF-8"?>
<svg width="24px" height="24px" viewBox="0 0 24 24" version="1.1" xmlns="http://www.w3.org/2000/svg" xmlns:xlink="http://www.w3.org/1999/xlink">
    <!-- Generator: Sketch 51.3 (57544) - http://www.bohemiancoding.com/sketch -->
    <title>icon_zfb</title>
    <desc>Created with Sketch.</desc>
    <defs></defs>
    <g id="icon_zfb" stroke="none" stroke-width="1" fill="none" fill-rule="evenodd">
        <circle id="Oval-4" fill="#6190E8" fill-rule="nonzero" cx="12" cy="12" r="12"></circle>
        <path d="M7.02002947,17.7859197 L5.5,16.9083302 C4.88119785,16.5510647 4.5,15.8908106 4.5,15.1762794 L4.5,11.117253 L4.5,9.96255247 L4.5,8.82542648 C4.5,8.1108953 4.88119785,7.45064126 5.5,7.09337567 L11,3.91794919 C11.6188022,3.5606836 12.3811978,3.5606836 13,3.91794919 L16.5358689,5.95938406 L16.9648932,6.20708135 L18.5,7.09337567 C19.1188022,7.45064126 19.5,8.1108953 19.5,8.82542648 L19.5,12.9023027 L19.5,14.0570032 L19.5,15.1762794 C19.5,15.8908106 19.1188022,16.5510647 18.5,16.9083302 L13,20.0837567 C12.3811978,20.4410223 11.6188022,20.4410223 11,20.0837567 L7.49997053,18.0630138 L7.02002947,17.7859197 Z M15.9692921,12.0185481 L12.0051905,9.72987298 L8.05108891,12.0127746 L12.0151905,14.3014497 L15.9692921,12.0185481 Z M16.9692921,12.5958984 L8.59526999,17.4306423 L11,18.8190139 C11.6188022,19.1762794 12.3811978,19.1762794 13,18.8190139 L17.5,16.2209376 C18.1188022,15.8636721 18.5,15.203418 18.5,14.4888868 L18.5,13.479653 L16.9692921,12.5958984 Z M7.59526999,16.8532921 L11.0151905,14.8788 L5.5,11.6946033 L5.5,14.4888868 C5.5,15.203418 5.88119785,15.8636721 6.5,16.2209376 L7.59526999,16.8532921 Z M15.6311684,6.48171316 L13,4.96260739 C12.3811978,4.6053418 11.6188022,4.6053418 11,4.96260739 L6.5,7.5606836 C5.88119785,7.91794919 5.5,8.57820323 5.5,9.29273441 L5.5,10.5399027 L7.05108891,11.4354243 L15.6311684,6.48171316 Z M16.6311684,7.05906343 L13.0051905,9.15252271 L18.5,12.3249524 L18.5,9.29273441 C18.5,8.57820323 18.1188022,7.91794919 17.5,7.5606836 L16.6311684,7.05906343 Z" id="Combined-Shape" fill="#FFFFFF" fill-rule="nonzero"></path>
    </g>
</svg>