<?xml version="1.0" encoding="UTF-8"?>
<svg width="100px" height="73px" viewBox="0 0 100 73" version="1.1" xmlns="http://www.w3.org/2000/svg" xmlns:xlink="http://www.w3.org/1999/xlink">
    <!-- Generator: Sketch 54.1 (76490) - https://sketchapp.com -->
    <title>banner_2_bottom</title>
    <desc>Created with Sketch.</desc>
    <defs>
        <linearGradient x1="100%" y1="77.7436485%" x2="0%" y2="22.2563515%" id="linearGradient-1">
            <stop stop-color="#533BF5" offset="0%"></stop>
            <stop stop-color="#14EAFB" offset="100%"></stop>
        </linearGradient>
    </defs>
    <g id="页面" stroke="none" stroke-width="1" fill="none" fill-rule="evenodd">
        <g id="banner_2" transform="translate(-200.000000, 0.000000)">
            <g id="编组-7" transform="translate(22.000000, 0.000000)">
                <g id="banner_2_bottom" transform="translate(179.000000, 0.000000)">
                    <path d="M97.9848581,28.0915631 C98.0259229,27.2617106 97.5697491,26.4853715 96.819739,26.1087058 L52.2184117,0.682303345 C50.4470518,-0.327831461 47.3495401,-0.20156461 45.3034773,0.962896347 L1.68729137,25.8047301 C0.43691966,26.5202422 0.0248653465,27.3900805 0.0248653465,28.3066844 C-0.00828844884,28.4937464 -0.00828844884,44.7260515 0.0248653465,44.9084369 C-0.0161994638,45.7382894 0.439974344,46.5146285 1.18998444,46.8912942 L45.7913117,72.3176967 C47.5626716,73.3278315 50.6601834,73.2015646 52.7015099,72.0371037 L96.3129595,47.1765637 C97.5633313,46.4610516 97.9753856,45.5771836 97.9753856,44.6746094 C98.0180119,44.5109302 97.9943306,28.4610105 97.9848581,28.0915631 Z" id="Shape" fill="url(#linearGradient-1)" fill-rule="nonzero"></path>
                    <path d="M45.7848585,55.3303278 L1.19792254,30.3009664 C-0.573618308,29.3066051 -0.350991517,27.566473 1.67159657,26.4201954 L45.2875008,1.94786042 C47.3290358,0.801582883 50.4268639,0.677287728 52.1984048,1.67164897 L96.8042877,26.7010104 C98.5758285,27.6953716 98.3532017,29.4309003 96.30693,30.5771778 L52.6957625,55.0495128 C50.6542275,56.1957904 47.5563993,56.324689 45.7848585,55.3303278 Z" id="Shape" fill="#D9F1FF" fill-rule="nonzero"></path>
                    <path d="M45.7848585,55.3303278 L1.19792254,30.3009664 C-0.573618308,29.3066051 -0.350991517,27.566473 1.67159657,26.4201954 L45.2875008,1.94786042 C47.3290358,0.801582883 50.4268639,0.677287728 52.1984048,1.67164897 L96.8042877,26.7010104 C98.5758285,27.6953716 98.3532017,29.4309003 96.30693,30.5771778 L52.6957625,55.0495128 C50.6542275,56.1957904 47.5563993,56.324689 45.7848585,55.3303278 Z" id="Shape" stroke="#FFFFFF" stroke-width="0.5" opacity="0.22" style="mix-blend-mode: overlay;"></path>
                </g>
            </g>
        </g>
    </g>
</svg>