<?xml version="1.0" encoding="UTF-8"?>
<svg width="156px" height="91px" viewBox="0 0 156 91" version="1.1" xmlns="http://www.w3.org/2000/svg" xmlns:xlink="http://www.w3.org/1999/xlink">
    <!-- Generator: Sketch 54.1 (76490) - https://sketchapp.com -->
    <title>banner_2_left</title>
    <desc>Created with Sketch.</desc>
    <defs>
        <radialGradient cx="49.991986%" cy="50.0677188%" fx="49.991986%" fy="50.0677188%" r="70.8730349%" gradientTransform="translate(0.499920,0.500677),scale(1.000000,0.577487),rotate(29.995444),translate(-0.499920,-0.500677)" id="radialGradient-1">
            <stop stop-color="#BFA8FB" offset="0%"></stop>
            <stop stop-color="#9DCCFC" offset="100%"></stop>
        </radialGradient>
        <radialGradient cx="50.1281335%" cy="49.9544812%" fx="50.1281335%" fy="49.9544812%" r="70.8730127%" gradientTransform="translate(0.501281,0.499545),scale(1.000000,0.577488),rotate(29.995412),translate(-0.501281,-0.499545)" id="radialGradient-2">
            <stop stop-color="#BFA8FB" offset="0%"></stop>
            <stop stop-color="#9DCCFC" offset="100%"></stop>
        </radialGradient>
        <radialGradient cx="90.4883767%" cy="16.1482492%" fx="90.4883767%" fy="16.1482492%" r="143.526362%" gradientTransform="translate(0.904884,0.161482),scale(0.914244,1.000000),rotate(180.000000),translate(-0.904884,-0.161482)" id="radialGradient-3">
            <stop stop-color="#FFFFFF" offset="0%"></stop>
            <stop stop-color="#FFFFFF" stop-opacity="0" offset="78%"></stop>
            <stop stop-color="#FFFFFF" stop-opacity="0" offset="100%"></stop>
        </radialGradient>
        <radialGradient cx="90.4930034%" cy="16.1416895%" fx="90.4930034%" fy="16.1416895%" r="160.336885%" gradientTransform="translate(0.904930,0.161417),scale(0.818182,1.000000),rotate(180.000000),translate(-0.904930,-0.161417)" id="radialGradient-4">
            <stop stop-color="#FFFFFF" offset="0%"></stop>
            <stop stop-color="#FFFFFF" stop-opacity="0" offset="78%"></stop>
            <stop stop-color="#FFFFFF" stop-opacity="0" offset="100%"></stop>
        </radialGradient>
    </defs>
    <g id="页面" stroke="none" stroke-width="1" fill="none" fill-rule="evenodd">
        <g id="banner_2" transform="translate(-83.000000, -43.000000)">
            <g id="编组-7" transform="translate(22.000000, 0.000000)">
                <g id="banner_2_left" transform="translate(61.000000, 42.971412)">
                    <ellipse id="Oval" fill="url(#radialGradient-1)" fill-rule="nonzero" transform="translate(127.892471, 2.588809) rotate(-30.000000) translate(-127.892471, -2.588809) " cx="127.892471" cy="2.58880894" rx="1" ry="1.58880894"></ellipse>
                    <ellipse id="Oval" stroke="#FFFFFF" stroke-width="0.5" opacity="0.22" style="mix-blend-mode: overlay;" transform="translate(127.892471, 2.588809) rotate(-30.000000) translate(-127.892471, -2.588809) " cx="127.892471" cy="2.58880894" rx="1" ry="1.58880894"></ellipse>
                    <ellipse id="Oval" fill="url(#radialGradient-2)" fill-rule="nonzero" transform="translate(153.755242, 17.480232) rotate(-29.886527) translate(-153.755242, -17.480232) " cx="153.755242" cy="17.4802316" rx="1" ry="1.5942799"></ellipse>
                    <ellipse id="Oval" stroke="#FFFFFF" stroke-width="0.501722035" opacity="0.22" style="mix-blend-mode: overlay;" transform="translate(153.755242, 17.480232) rotate(-29.886527) translate(-153.755242, -17.480232) " cx="153.755242" cy="17.4802316" rx="1" ry="1.5942799"></ellipse>
                    <path d="M25,90.0285879 L153,17.0285879" id="Shape" stroke="#FFFFFF" opacity="0.199907" style="mix-blend-mode: overlay;"></path>
                    <path d="M144.573882,21.3467134 C144.626409,21.3029581 144.683161,21.2676303 144.742793,21.2415671 C144.794941,21.1983901 144.851835,21.1648381 144.911704,21.1419547 C144.964787,21.0959822 145.023264,21.0605137 145.085061,21.0368084 C145.137072,20.9919598 145.193946,20.9565559 145.253972,20.931662 C145.307312,20.8873899 152.686064,16.3882322 152.748294,16.3660962 C152.799788,16.3201679 152.856797,16.2846797 152.917206,16.2609498 C152.970288,16.2149772 153.028766,16.1795087 153.090562,16.1558034 C153.337689,15.96952 153.651003,15.9892428 153.881777,16.2056096 C154.505604,16.7128937 154.89838,17.5594027 154.939695,18.4856255 C154.975841,18.8474087 154.826727,19.1988086 154.566312,19.3655346 C154.522251,19.4211579 154.46923,19.4645365 154.410736,19.492817 C154.363202,19.5470751 154.309226,19.5918745 154.250715,19.6256335 C154.203005,19.6781449 154.149018,19.7210868 154.090694,19.7529159 C154.04534,19.8091985 153.990755,19.8526166 153.930673,19.8801984 C153.886612,19.9358217 153.83359,19.9792003 153.775097,20.0074808 C153.728723,20.0635549 153.674487,20.108571 153.615076,20.1402973 C153.567365,20.1928087 153.513378,20.2357506 153.455054,20.2675797 C153.409283,20.323211 153.354816,20.366535 153.295033,20.3948621 C153.249864,20.4501992 153.197196,20.4951627 153.139457,20.5276786 C153.091747,20.58019 153.03776,20.6231319 152.979436,20.654961 C152.932885,20.7093564 152.878625,20.7525156 152.819415,20.7822435 C152.77052,20.8375837 148.267703,24.4900364 148.209918,24.5232405 C148.166148,24.5700565 148.11846,24.6108741 148.067677,24.6449889 C148.018318,24.7004501 147.962957,24.7470204 147.90321,24.7833394 C147.796592,24.8682105 147.689974,24.9530468 147.583309,25.0378898 C147.536963,25.0914216 147.484543,25.136173 147.427733,25.1707062 C147.321033,25.2555756 147.214375,25.3404346 147.107701,25.4252839 C147.062353,25.4789212 147.009665,25.5220275 146.952125,25.5525664 C146.903431,25.6049548 146.849675,25.6495718 146.792104,25.6853829 C146.743303,25.7360667 146.689533,25.7788358 146.632083,25.8126653 C146.285059,26.1190872 145.818085,26.1078637 145.48082,25.7849952 C144.612037,25.0782967 144.065627,23.8986065 144.009514,22.6084682 C143.949235,22.077942 144.179881,21.5622888 144.573882,21.3467134 Z" id="Shape" fill="url(#radialGradient-3)" fill-rule="nonzero" opacity="0.9" style="mix-blend-mode: soft-light;"></path>
                    <path d="M118.579659,5.807506 C118.631918,5.76721333 118.689063,5.73540599 118.749375,5.71304089 C118.803714,5.67367675 118.862219,5.64194741 118.923557,5.61857579 C118.975816,5.57828311 119.032961,5.54647578 119.093273,5.52411068 C119.145224,5.48445037 119.202512,5.45424186 119.262989,5.43461742 C119.316583,5.39484264 126.730489,1.34775863 126.793016,1.33284309 C126.845334,1.28964205 126.904392,1.2576125 126.967198,1.23837798 C127.017039,1.19372074 127.074917,1.16150542 127.136914,1.14391288 C127.384899,0.975146264 127.700471,0.99290858 127.931899,1.18865951 C128.558547,1.64225736 128.953374,2.40127327 128.994857,3.2320889 C129.02998,3.55688074 128.882906,3.87249491 128.624162,4.02758453 C128.576224,4.07476161 128.52198,4.11334126 128.463378,4.14193703 C128.416605,4.19080663 128.362086,4.22958155 128.302595,4.25628952 C128.257025,4.30685465 128.202179,4.34586213 128.141811,4.37064202 C128.096427,4.42035764 128.043507,4.4607536 127.985494,4.48996637 C127.937556,4.53714344 127.883312,4.57572309 127.82471,4.60431886 C127.777937,4.65318847 127.723419,4.69196338 127.663927,4.71867136 C127.617737,4.76960351 127.563142,4.81012086 127.503143,4.8379957 C127.457579,4.88618423 127.40464,4.92491157 127.346826,4.9523482 C127.239778,5.02848652 127.132598,5.10477755 127.025395,5.18102216 C126.978382,5.23081961 126.923986,5.27118945 126.864612,5.30034651 C126.819949,5.35006498 122.29568,8.6265126 122.233153,8.65634369 C122.191906,8.69994282 122.145286,8.73677354 122.094701,8.76572434 C122.043888,8.81616452 121.986708,8.85804164 121.924985,8.89002053 C121.877047,8.9371976 121.822803,8.97577726 121.764201,9.00437303 C121.718817,9.05408864 121.665898,9.0944846 121.607884,9.12369737 C121.558851,9.16923251 121.504825,9.20765692 121.447101,9.23804987 C121.399163,9.28522694 121.344919,9.3238066 121.286317,9.35240236 C121.23975,9.40049618 121.187081,9.44070147 121.13,9.47172671 C121.080966,9.51726185 121.02694,9.55568626 120.969216,9.5860792 C120.920183,9.63161434 120.866157,9.67003875 120.808433,9.7004317 C120.761352,9.74644721 120.70874,9.78493481 120.652116,9.8147842 C120.307399,10.0998557 119.835618,10.0998557 119.490901,9.8147842 C118.616357,9.18158552 118.066824,8.12073036 118.012586,6.96094363 C117.941717,6.47720814 118.175448,6.00179426 118.579659,5.807506 L118.579659,5.807506 Z" id="Shape" fill="url(#radialGradient-4)" fill-rule="nonzero" opacity="0.9" style="mix-blend-mode: soft-light;"></path>
                    <path d="M0,77.0285879 L128,4.02858785" id="Shape" stroke="#FFFFFF" opacity="0.199907" style="mix-blend-mode: overlay;"></path>
                </g>
            </g>
        </g>
    </g>
</svg>