<?xml version="1.0" encoding="UTF-8"?>
<svg width="50px" height="50px" viewBox="0 0 50 50" version="1.1" xmlns="http://www.w3.org/2000/svg" xmlns:xlink="http://www.w3.org/1999/xlink">
    <!-- Generator: Sketch 51.3 (57544) - http://www.bohemiancoding.com/sketch -->
    <title>Group 33</title>
    <desc>Created with Sketch.</desc>
    <defs></defs>
    <g id="页面" stroke="none" stroke-width="1" fill="none" fill-rule="evenodd">
        <g id="Artboard-2" transform="translate(-1180.000000, -249.000000)" fill-rule="nonzero">
            <g id="Group-33" transform="translate(1180.000000, 249.000000)">
                <circle id="Oval-4" fill="#FB8E17" cx="25" cy="25" r="25"></circle>
                <path d="M14.6250614,37.0539993 L10.375,34.6002252 C9.75619785,34.2429596 9.375,33.5827056 9.375,32.8681744 L9.375,23.1609438 L9.375,20.7553177 L9.375,17.1353796 C9.375,16.4208484 9.75619785,15.7605944 10.375,15.4033288 L24,7.53693136 C24.6188022,7.17966577 25.3811978,7.17966577 26,7.53693136 L34.4497269,12.4153835 L35.3435275,12.9314195 L39.625,15.4033288 C40.2438022,15.7605944 40.625,16.4208484 40.625,17.1353796 L40.625,26.8797973 L40.625,29.2854234 L40.625,32.8681744 C40.625,33.5827056 40.2438022,34.2429596 39.625,34.6002252 L26,42.4666226 C25.3811978,42.8238882 24.6188022,42.8238882 24,42.4666226 L15.6249386,37.6312787 L14.6250614,37.0539993 Z M33.2693586,25.0386419 L25.0108136,20.2705687 L16.7731019,25.0266138 L25.0316469,29.794687 L33.2693586,25.0386419 Z M35.352692,26.241455 L17.9068125,36.3138382 L24,39.8317416 C24.6188022,40.1890072 25.3811978,40.1890072 26,39.8317416 L37.5416667,33.1681573 C38.1604688,32.8108917 38.5416667,32.1506377 38.5416667,31.4361065 L38.5416667,28.0826104 L35.352692,26.241455 Z M15.8234791,35.1110251 L22.9483136,30.9975 L11.4583333,24.3637568 L11.4583333,31.4361065 C11.4583333,32.1506377 11.8395312,32.8108917 12.4583333,33.1681573 L15.8234791,35.1110251 Z M32.5649341,13.5035691 L26,9.71330261 C25.3811978,9.35603702 24.6188022,9.35603702 24,9.71330261 L12.4583333,16.376887 C11.8395312,16.7341526 11.4583333,17.3944066 11.4583333,18.1089378 L11.4583333,21.9581307 L14.6897686,23.8238007 L32.5649341,13.5035691 Z M34.6482674,14.7063821 L27.0941469,19.0677556 L38.5416667,25.6769842 L38.5416667,18.1089378 C38.5416667,17.3944066 38.1604688,16.7341526 37.5416667,16.376887 L34.6482674,14.7063821 Z" id="Combined-Shape" fill="#FFFFFF"></path>
            </g>
        </g>
    </g>
</svg>