<?xml version="1.0" encoding="UTF-8"?>
<svg width="500px" height="500px" viewBox="0 0 500 500" version="1.1" xmlns="http://www.w3.org/2000/svg" xmlns:xlink="http://www.w3.org/1999/xlink">
    <!-- Generator: Sketch 54.1 (76490) - https://sketchapp.com -->
    <title>banner_4</title>
    <desc>Created with Sketch.</desc>
    <defs>
        <linearGradient x1="100%" y1="54.0861621%" x2="0%" y2="54.0861621%" id="linearGradient-1">
            <stop stop-color="#5736FC" offset="0%"></stop>
            <stop stop-color="#00A5FE" offset="100%"></stop>
        </linearGradient>
        <linearGradient x1="100%" y1="79.0176236%" x2="0%" y2="20.9823764%" id="linearGradient-2">
            <stop stop-color="#533BF5" offset="0%"></stop>
            <stop stop-color="#14EAFB" offset="100%"></stop>
        </linearGradient>
        <linearGradient x1="100%" y1="73.7835365%" x2="0%" y2="26.2164635%" id="linearGradient-3">
            <stop stop-color="#533BF5" offset="0%"></stop>
            <stop stop-color="#14EAFB" offset="100%"></stop>
        </linearGradient>
        <linearGradient x1="100%" y1="54.0861621%" x2="0%" y2="54.0861621%" id="linearGradient-4">
            <stop stop-color="#0028B4" offset="0%"></stop>
            <stop stop-color="#157EFF" offset="100%"></stop>
        </linearGradient>
        <radialGradient cx="77.9792442%" cy="50.68915%" fx="77.9792442%" fy="50.68915%" r="86.585696%" gradientTransform="translate(0.779792,0.506891),scale(1.000000,0.746623),translate(-0.779792,-0.506891)" id="radialGradient-5">
            <stop stop-color="#BFA8FB" offset="0%"></stop>
            <stop stop-color="#9DCCFC" offset="100%"></stop>
        </radialGradient>
        <radialGradient cx="-452.2694%" cy="127.965698%" fx="-452.2694%" fy="127.965698%" r="1154.61201%" gradientTransform="translate(-4.522694,1.279657),scale(1.000000,0.324724),translate(4.522694,-1.279657)" id="radialGradient-6">
            <stop stop-color="#683FCE" offset="0%"></stop>
            <stop stop-color="#72BEED" offset="100%"></stop>
        </radialGradient>
        <linearGradient x1="55.267265%" y1="100%" x2="44.732735%" y2="0%" id="linearGradient-7">
            <stop stop-color="#533BF5" offset="0%"></stop>
            <stop stop-color="#14EAFB" offset="100%"></stop>
        </linearGradient>
        <linearGradient x1="100%" y1="54.0861621%" x2="0%" y2="54.0861621%" id="linearGradient-8">
            <stop stop-color="#0028B4" offset="0%"></stop>
            <stop stop-color="#157EFF" offset="100%"></stop>
        </linearGradient>
        <linearGradient x1="100%" y1="54.0861621%" x2="0%" y2="54.0861621%" id="linearGradient-9">
            <stop stop-color="#0028B4" offset="0%"></stop>
            <stop stop-color="#157EFF" offset="100%"></stop>
        </linearGradient>
        <radialGradient cx="-452.2694%" cy="127.921348%" fx="-452.2694%" fy="127.921348%" r="1179.79502%" gradientTransform="translate(-4.522694,1.279213),scale(1.000000,0.191459),translate(4.522694,-1.279213)" id="radialGradient-10">
            <stop stop-color="#683FCE" offset="0%"></stop>
            <stop stop-color="#72BEED" offset="100%"></stop>
        </radialGradient>
        <linearGradient x1="51.8382076%" y1="100%" x2="48.1617924%" y2="0%" id="linearGradient-11">
            <stop stop-color="#533BF5" offset="0%"></stop>
            <stop stop-color="#14EAFB" offset="100%"></stop>
        </linearGradient>
        <linearGradient x1="100%" y1="54.0861621%" x2="0%" y2="54.0861621%" id="linearGradient-12">
            <stop stop-color="#0028B4" offset="0%"></stop>
            <stop stop-color="#157EFF" offset="100%"></stop>
        </linearGradient>
        <linearGradient x1="100%" y1="54.0861621%" x2="0%" y2="54.0861621%" id="linearGradient-13">
            <stop stop-color="#0028B4" offset="0%"></stop>
            <stop stop-color="#157EFF" offset="100%"></stop>
        </linearGradient>
        <radialGradient cx="-451.608187%" cy="127.913043%" fx="-451.608187%" fy="127.913043%" r="1238.15789%" gradientTransform="translate(-4.516082,1.279130),scale(1.000000,0.118712),translate(4.516082,-1.279130)" id="radialGradient-14">
            <stop stop-color="#683FCE" offset="0%"></stop>
            <stop stop-color="#72BEED" offset="100%"></stop>
        </radialGradient>
        <linearGradient x1="50.7025675%" y1="100%" x2="49.2974325%" y2="0%" id="linearGradient-15">
            <stop stop-color="#533BF5" offset="0%"></stop>
            <stop stop-color="#14EAFB" offset="100%"></stop>
        </linearGradient>
        <linearGradient x1="100%" y1="54.0861621%" x2="0%" y2="54.0861621%" id="linearGradient-16">
            <stop stop-color="#0028B4" offset="0%"></stop>
            <stop stop-color="#157EFF" offset="100%"></stop>
        </linearGradient>
        <radialGradient cx="-452.2694%" cy="127.915684%" fx="-452.2694%" fy="127.915684%" r="1293.26501%" gradientTransform="translate(-4.522694,1.279157),scale(1.000000,0.094522),translate(4.522694,-1.279157)" id="radialGradient-17">
            <stop stop-color="#683FCE" offset="0%"></stop>
            <stop stop-color="#72BEED" offset="100%"></stop>
        </radialGradient>
        <linearGradient x1="50.4468412%" y1="100%" x2="49.5531588%" y2="0%" id="linearGradient-18">
            <stop stop-color="#533BF5" offset="0%"></stop>
            <stop stop-color="#14EAFB" offset="100%"></stop>
        </linearGradient>
        <linearGradient x1="100%" y1="54.0861621%" x2="0%" y2="54.0861621%" id="linearGradient-19">
            <stop stop-color="#0028B4" offset="0%"></stop>
            <stop stop-color="#157EFF" offset="100%"></stop>
        </linearGradient>
        <linearGradient x1="72.3778341%" y1="100%" x2="27.6221659%" y2="0%" id="linearGradient-20">
            <stop stop-color="#533BF5" offset="0%"></stop>
            <stop stop-color="#14EAFB" offset="100%"></stop>
        </linearGradient>
        <linearGradient x1="100%" y1="54.0861621%" x2="0%" y2="54.0861621%" id="linearGradient-21">
            <stop stop-color="#5736FC" offset="0%"></stop>
            <stop stop-color="#00A5FE" offset="100%"></stop>
        </linearGradient>
        <linearGradient x1="88.7262162%" y1="100%" x2="11.2737838%" y2="0%" id="linearGradient-22">
            <stop stop-color="#533BF5" offset="0%"></stop>
            <stop stop-color="#14EAFB" offset="100%"></stop>
        </linearGradient>
        <linearGradient x1="100%" y1="54.0861621%" x2="0%" y2="54.0861621%" id="linearGradient-23">
            <stop stop-color="#5736FC" offset="0%"></stop>
            <stop stop-color="#00A5FE" offset="100%"></stop>
        </linearGradient>
        <linearGradient x1="97.7095595%" y1="100%" x2="2.29044052%" y2="0%" id="linearGradient-24">
            <stop stop-color="#533BF5" offset="0%"></stop>
            <stop stop-color="#14EAFB" offset="100%"></stop>
        </linearGradient>
        <linearGradient x1="84.4953641%" y1="100%" x2="15.5046359%" y2="0%" id="linearGradient-25">
            <stop stop-color="#533BF5" offset="0%"></stop>
            <stop stop-color="#14EAFB" offset="100%"></stop>
        </linearGradient>
        <linearGradient x1="100%" y1="54.0861621%" x2="0%" y2="54.0861621%" id="linearGradient-26">
            <stop stop-color="#5736FC" offset="0%"></stop>
            <stop stop-color="#00A5FE" offset="100%"></stop>
        </linearGradient>
        <linearGradient x1="50.7195018%" y1="100%" x2="49.2804982%" y2="0%" id="linearGradient-27">
            <stop stop-color="#533BF5" offset="0%"></stop>
            <stop stop-color="#14EAFB" offset="100%"></stop>
        </linearGradient>
        <radialGradient cx="146.118647%" cy="99.4421854%" fx="146.118647%" fy="99.4421854%" r="167.323092%" gradientTransform="translate(1.461186,0.994422),scale(1.000000,0.823525),translate(-1.461186,-0.994422)" id="radialGradient-28">
            <stop stop-color="#BFA8FB" offset="0%"></stop>
            <stop stop-color="#9DCCFC" offset="100%"></stop>
        </radialGradient>
        <linearGradient x1="83.909673%" y1="100%" x2="16.090327%" y2="0%" id="linearGradient-29">
            <stop stop-color="#533BF5" offset="0%"></stop>
            <stop stop-color="#14EAFB" offset="100%"></stop>
        </linearGradient>
        <linearGradient x1="100%" y1="54.0861621%" x2="0%" y2="54.0861621%" id="linearGradient-30">
            <stop stop-color="#5736FC" offset="0%"></stop>
            <stop stop-color="#00A5FE" offset="100%"></stop>
        </linearGradient>
        <linearGradient x1="100%" y1="54.0861621%" x2="0%" y2="54.0861621%" id="linearGradient-31">
            <stop stop-color="#5736FC" offset="0%"></stop>
            <stop stop-color="#00A5FE" offset="100%"></stop>
        </linearGradient>
        <radialGradient cx="50%" cy="50.0328759%" fx="50%" fy="50.0328759%" r="72.3144531%" gradientTransform="translate(0.500000,0.500329),scale(1.000000,0.558834),translate(-0.500000,-0.500329)" id="radialGradient-32">
            <stop stop-color="#BFA8FB" offset="0%"></stop>
            <stop stop-color="#9DCCFC" offset="100%"></stop>
        </radialGradient>
        <radialGradient cx="-10.5263158%" cy="50.6509978%" fx="-10.5263158%" fy="50.6509978%" r="120.844875%" gradientTransform="translate(-0.105263,0.506510),scale(1.000000,0.399167),translate(0.105263,-0.506510)" id="radialGradient-33">
            <stop stop-color="#683FCE" offset="0%"></stop>
            <stop stop-color="#72BEED" offset="100%"></stop>
        </radialGradient>
        <linearGradient x1="9.46859859%" y1="22.0310593%" x2="105.196705%" y2="83.6394815%" id="linearGradient-34">
            <stop stop-color="#FFFFFF" offset="0%"></stop>
            <stop stop-color="#FFFFFF" stop-opacity="0" offset="66%"></stop>
            <stop stop-color="#FFFFFF" stop-opacity="0" offset="100%"></stop>
        </linearGradient>
        <radialGradient cx="50%" cy="50.0022678%" fx="50%" fy="50.0022678%" r="66.117029%" gradientTransform="translate(0.500000,0.500023),scale(1.000000,0.623699),translate(-0.500000,-0.500023)" id="radialGradient-35">
            <stop stop-color="#BFA8FB" offset="0%"></stop>
            <stop stop-color="#9DCCFC" offset="100%"></stop>
        </radialGradient>
        <linearGradient x1="69.4500282%" y1="100%" x2="30.5499718%" y2="0%" id="linearGradient-36">
            <stop stop-color="#157EFF" offset="0%"></stop>
            <stop stop-color="#74CAFF" offset="100%"></stop>
        </linearGradient>
        <radialGradient cx="249.85126%" cy="42.2441785%" fx="249.85126%" fy="42.2441785%" r="278.049162%" gradientTransform="translate(2.498513,0.422442),scale(1.000000,0.360359),translate(-2.498513,-0.422442)" id="radialGradient-37">
            <stop stop-color="#BFA8FB" offset="0%"></stop>
            <stop stop-color="#9DCCFC" offset="100%"></stop>
        </radialGradient>
        <linearGradient x1="100%" y1="54.0861621%" x2="0%" y2="54.0861621%" id="linearGradient-38">
            <stop stop-color="#5736FC" offset="0%"></stop>
            <stop stop-color="#00A5FE" offset="100%"></stop>
        </linearGradient>
    </defs>
    <g id="banner_4" stroke="none" stroke-width="1" fill="none" fill-rule="evenodd">
        <g id="编组-2" transform="translate(50.000000, 30.000000)">
            <g id="编组-16">
                <g id="编组-4" transform="translate(192.000000, 0.000000)">
                    <g id="Group">
                        <path d="M75.6770597,41.2036006 L41.0643953,21.1805946 L6.45173089,1.15758857 C5.87431008,0.802089786 5.22423089,0.581839401 4.54999603,0.513270402 C4.01256168,0.461092213 3.47249456,0.581566863 3.00790156,0.857270778 L2.96430879,0.884572395 L2.92616511,0.884572395 L2.22868069,1.32139827 L1.53119627,1.75822414 L1.48760349,1.78552576 L1.44945981,1.78552576 C0.988400703,2.05709597 0.62283748,2.46538609 0.403233181,2.95403497 C0.136244983,3.57024274 0.00609568759,4.23723475 0.0217963882,4.90883076 L0.0217963882,59.2772711 C0.207887124,62.6604736 1.99059764,65.7526808 4.82245088,67.6042643 L39.4296662,87.6272703 L74.0423306,107.650276 C74.6197514,108.005775 75.2698306,108.226025 75.9440654,108.294594 C76.4832371,108.346808 77.0250459,108.22637 77.491609,107.950594 L77.5297527,107.950594 L77.5678963,107.950594 L77.60604,107.950594 L77.6441837,107.950594 L77.6823274,107.950594 L77.7204711,107.950594 L77.7586147,107.950594 L77.8022075,107.923292 L77.8403512,107.923292 L77.8784949,107.923292 L77.9166385,107.923292 L77.9547822,107.923292 L77.9929259,107.923292 L78.0310696,107.895991 L78.0746624,107.895991 L78.112806,107.895991 L78.1509497,107.868689 L78.1890934,107.868689 L78.2272371,107.841388 L78.2653808,107.841388 L78.3035244,107.841388 L78.3416681,107.841388 L78.3852609,107.841388 L78.4234046,107.841388 L78.4615482,107.841388 L78.4996919,107.841388 L78.5378356,107.841388 L78.5759793,107.814086 L78.614123,107.814086 L78.6522666,107.814086 L78.6958594,107.814086 L78.7340031,107.814086 L78.7721468,107.814086 L78.8102905,107.814086 L78.8484341,107.814086 L78.8865778,107.786784 L78.9247215,107.786784 L78.9628652,107.786784 L79.011907,107.022339 L79.0500507,107.022339 C79.5111098,106.750769 79.8766731,106.342479 80.0962774,105.85383 C80.363875,105.23589 80.4940336,104.566987 80.4777142,103.893574 L80.4777142,49.5305938 C80.2911289,46.1489185 78.5109762,43.0576391 75.6825088,41.2036006 L75.6770597,41.2036006 Z" id="Shape" fill="#D9F1FF" fill-rule="nonzero"></path>
                        <path d="M75.6770597,41.2036006 L41.0643953,21.1805946 L6.45173089,1.15758857 C5.87431008,0.802089786 5.22423089,0.581839401 4.54999603,0.513270402 C4.01256168,0.461092213 3.47249456,0.581566863 3.00790156,0.857270778 L2.96430879,0.884572395 L2.92616511,0.884572395 L2.22868069,1.32139827 L1.53119627,1.75822414 L1.48760349,1.78552576 L1.44945981,1.78552576 C0.988400703,2.05709597 0.62283748,2.46538609 0.403233181,2.95403497 C0.136244983,3.57024274 0.00609568759,4.23723475 0.0217963882,4.90883076 L0.0217963882,59.2772711 C0.207887124,62.6604736 1.99059764,65.7526808 4.82245088,67.6042643 L39.4296662,87.6272703 L74.0423306,107.650276 C74.6197514,108.005775 75.2698306,108.226025 75.9440654,108.294594 C76.4832371,108.346808 77.0250459,108.22637 77.491609,107.950594 L77.5297527,107.950594 L77.5678963,107.950594 L77.60604,107.950594 L77.6441837,107.950594 L77.6823274,107.950594 L77.7204711,107.950594 L77.7586147,107.950594 L77.8022075,107.923292 L77.8403512,107.923292 L77.8784949,107.923292 L77.9166385,107.923292 L77.9547822,107.923292 L77.9929259,107.923292 L78.0310696,107.895991 L78.0746624,107.895991 L78.112806,107.895991 L78.1509497,107.868689 L78.1890934,107.868689 L78.2272371,107.841388 L78.2653808,107.841388 L78.3035244,107.841388 L78.3416681,107.841388 L78.3852609,107.841388 L78.4234046,107.841388 L78.4615482,107.841388 L78.4996919,107.841388 L78.5378356,107.841388 L78.5759793,107.814086 L78.614123,107.814086 L78.6522666,107.814086 L78.6958594,107.814086 L78.7340031,107.814086 L78.7721468,107.814086 L78.8102905,107.814086 L78.8484341,107.814086 L78.8865778,107.786784 L78.9247215,107.786784 L78.9628652,107.786784 L79.011907,107.022339 L79.0500507,107.022339 C79.5111098,106.750769 79.8766731,106.342479 80.0962774,105.85383 C80.363875,105.23589 80.4940336,104.566987 80.4777142,103.893574 L80.4777142,49.5305938 C80.2911289,46.1489185 78.5109762,43.0576391 75.6825088,41.2036006 L75.6770597,41.2036006 Z" id="Shape" stroke="#FFFFFF" stroke-width="0.5" opacity="0.22" style="mix-blend-mode: overlay;"></path>
                        <path d="M74.0423306,107.693959 L4.83879817,67.6424866 C2.18508791,66.1081357 0.0381436793,62.3841951 0.0381436793,59.3154934 L0.0381436793,4.95251335 C0.0381436793,1.8892719 2.18508791,0.644318164 4.83879817,2.17866905 L74.0423306,42.224681 C76.6905917,43.7590319 78.842985,47.4884328 78.842985,50.5516743 L78.842985,104.914654 C78.842985,107.983356 76.6905917,109.206468 74.0423306,107.693959 Z" id="Shape" fill="url(#linearGradient-1)" fill-rule="nonzero"></path>
                        <path d="M74.0423306,107.693959 L4.83879817,67.6424866 C2.18508791,66.1081357 0.0381436793,62.3841951 0.0381436793,59.3154934 L0.0381436793,4.95251335 C0.0381436793,1.8892719 2.18508791,0.644318164 4.83879817,2.17866905 L74.0423306,42.224681 C76.6905917,43.7590319 78.842985,47.4884328 78.842985,50.5516743 L78.842985,104.914654 C78.842985,107.983356 76.6905917,109.206468 74.0423306,107.693959 Z" id="Shape" stroke="#000000" opacity="0.5" style="mix-blend-mode: overlay;"></path>
                    </g>
                    <path d="M7.98292716,59.8724463 C7.98292716,59.8724463 11.7972951,47.6850045 16.0857345,50.158531 C20.3741738,52.6320575 20.9899218,57.8466664 24.1885418,59.714097 C27.3871617,61.5815276 29.0164417,47.0952895 32.2858999,48.9845614 C35.5553582,50.8738333 37.6205659,61.4013369 40.3887072,63.0012117 C43.1568485,64.6010864 45.2928946,48.1873542 48.4860654,50.0384039 C51.6792363,51.8894535 52.8453431,62.1384806 56.5888727,64.289848 C60.3324024,66.4412154 61.7164731,64.5519435 64.69168,66.2774057 C67.666887,68.0028679 68.0755693,94.8403576 69.4269454,95.6266441 C70.7783214,96.4129307 7.98292716,59.8724463 7.98292716,59.8724463 Z" id="Shape" fill="url(#linearGradient-2)" fill-rule="nonzero"></path>
                    <path d="M7.98292716,59.8724463 C7.98292716,59.8724463 11.7972951,47.6850045 16.0857345,50.158531 C20.3741738,52.6320575 20.9899218,57.8466664 24.1885418,59.714097 C27.3871617,61.5815276 29.0164417,47.0952895 32.2858999,48.9845614 C35.5553582,50.8738333 37.6205659,61.4013369 40.3887072,63.0012117 C43.1568485,64.6010864 45.2928946,48.1873542 48.4860654,50.0384039 C51.6792363,51.8894535 52.8453431,62.1384806 56.5888727,64.289848 C60.3324024,66.4412154 61.7164731,64.5519435 64.69168,66.2774057 C67.666887,68.0028679 68.0755693,94.8403576 69.4269454,95.6266441 C70.7783214,96.4129307 7.98292716,59.8724463 7.98292716,59.8724463 Z" id="Shape" stroke="#FFFFFF" stroke-width="0.5" opacity="0.22" style="mix-blend-mode: overlay;"></path>
                    <path d="M7.98292716,59.8724463 C7.98292716,59.8724463 10.0753804,48.6023388 14.3529216,51.0813256 C18.6304628,53.5603125 19.2298634,58.769461 22.4502798,60.6314313 C25.6706961,62.4934016 27.2836289,48.0126239 30.5530871,49.9018958 C33.8225453,51.7911677 35.8877531,62.3241316 38.6558944,63.9240063 C41.4240357,65.5238811 43.5600817,49.1101489 46.7532526,50.9611985 C49.9464234,52.8122482 51.1397757,63.0612752 54.8560599,65.2071823 C58.5723441,67.3530894 59.9782111,65.4747382 62.9588672,67.1947401 C65.9395233,68.9147419 68.0755693,94.8403576 69.4269454,95.6266441 C70.7783214,96.4129307 7.98292716,59.8724463 7.98292716,59.8724463 Z" id="Shape" fill="#D9F1FF" fill-rule="nonzero"></path>
                    <path d="M7.98292716,59.8724463 C7.98292716,59.8724463 10.0753804,48.6023388 14.3529216,51.0813256 C18.6304628,53.5603125 19.2298634,58.769461 22.4502798,60.6314313 C25.6706961,62.4934016 27.2836289,48.0126239 30.5530871,49.9018958 C33.8225453,51.7911677 35.8877531,62.3241316 38.6558944,63.9240063 C41.4240357,65.5238811 43.5600817,49.1101489 46.7532526,50.9611985 C49.9464234,52.8122482 51.1397757,63.0612752 54.8560599,65.2071823 C58.5723441,67.3530894 59.9782111,65.4747382 62.9588672,67.1947401 C65.9395233,68.9147419 68.0755693,94.8403576 69.4269454,95.6266441 C70.7783214,96.4129307 7.98292716,59.8724463 7.98292716,59.8724463 Z" id="Shape" stroke="#FFFFFF" stroke-width="0.5" opacity="0.22" style="mix-blend-mode: overlay;"></path>
                    <path d="M7.68867592,59.9598115 C7.68867592,59.9598115 11.5030438,51.1686908 15.7914832,53.6422173 C20.0799226,56.1157438 20.6684251,61.707115 23.8942905,63.5690853 C27.120156,65.4310556 28.7221905,67.1619781 31.9916487,69.0294087 C35.2611069,70.8968393 37.3317638,64.1751812 40.094456,65.7532147 C42.8571482,67.3312481 44.9986433,63.9840699 48.1972633,65.8351195 C51.3958833,67.6861692 52.5565409,74.0911285 56.2946215,76.2370356 C60.0327021,78.3829428 61.4222218,74.014684 64.3974288,75.7401462 C67.3726358,77.4656084 67.7813181,94.796675 69.1326941,95.5829615 C70.4840702,96.3692481 7.68867592,59.9598115 7.68867592,59.9598115 Z" id="Shape" fill="url(#linearGradient-3)" fill-rule="nonzero"></path>
                    <path d="M7.12741893,59.7905415 C7.12741893,59.7905415 10.1353205,51.8512312 14.4128617,54.3302181 C18.6904028,56.8092049 19.2898035,62.3951158 22.515669,64.2570861 C25.7415344,66.1190563 27.349018,67.8499789 30.6184763,69.7174095 C33.8879345,71.5848401 35.9531423,64.863182 38.7158345,66.4412154 C41.4785267,68.0192489 43.6200218,64.6720706 46.8186417,66.5231203 C50.0172617,68.3741699 51.2215122,74.8064309 54.921449,76.9905603 C58.6213859,79.1746896 60.0436003,74.7682086 63.0188072,76.4882105 C65.9940142,78.2082124 67.6287433,94.8676592 68.9801194,95.6539457 L7.12741893,59.7905415 Z" id="Shape" fill="url(#linearGradient-4)" fill-rule="nonzero"></path>
                </g>
                <g id="编组-5">
                    <g id="Group">
                        <path d="M75.6879579,41.1107751 L41.0752935,21.0877691 L6.46262909,1.05930274 C5.8841073,0.706162436 5.23457587,0.486097638 4.56089422,0.41498458 C4.02270088,0.361720103 3.4817497,0.48430739 3.01879976,0.764445279 L2.97520698,0.764445279 L2.9370633,0.764445279 L2.23957888,1.20127115 L1.54209446,1.63809703 L1.50395078,1.63809703 L1.46035801,1.63809703 C0.999692691,1.90854848 0.635586314,2.31734061 0.419580472,2.80660624 C0.146950755,3.42120261 0.0147702973,4.0890631 0.0326945822,4.76140203 L0.0326945822,59.124382 C0.215313189,62.5086198 1.99886639,65.6022887 4.83334907,67.4513753 L39.4405644,87.4743813 L74.0532287,107.502848 C74.6336858,107.856088 75.2850084,108.076129 75.9604127,108.147166 C76.4986061,108.20043 77.0395572,108.077843 77.5025072,107.797705 L77.5406508,107.797705 L77.5787945,107.797705 L77.6169382,107.797705 L77.6550819,107.797705 L77.6932256,107.797705 L77.7313692,107.797705 L77.774962,107.770403 L77.8131057,107.770403 L77.8512494,107.770403 L77.8893931,107.770403 L77.9275367,107.770403 L77.9656804,107.770403 L78.0038241,107.770403 L78.0474169,107.770403 L78.0855606,107.770403 L78.1237042,107.743102 L78.1618479,107.743102 L78.1999916,107.7158 L78.2381353,107.7158 L78.2762789,107.7158 L78.3144226,107.7158 L78.3580154,107.7158 L78.3961591,107.7158 L78.4343028,107.688499 L78.4724464,107.688499 L78.5105901,107.688499 L78.5487338,107.688499 L78.5868775,107.688499 L78.6304703,107.661197 L78.6686139,107.661197 L78.7067576,107.661197 L78.7449013,107.661197 L78.783045,107.661197 L78.8211887,107.661197 L78.8593323,107.633895 L78.897476,107.633895 L78.9410688,107.633895 C78.9513944,107.621839 78.9644827,107.612471 78.9792125,107.606594 L79.0173561,107.606594 L79.0554998,107.606594 C79.5177213,107.33645 79.8836633,106.927737 80.1017265,106.438085 C80.3698925,105.822244 80.5000932,105.154989 80.4831632,104.483289 L80.4831632,49.4377683 C80.3000392,46.0550616 78.5190484,42.9623268 75.6879579,41.1107751 L75.6879579,41.1107751 Z" id="Shape" fill="url(#radialGradient-5)" fill-rule="nonzero"></path>
                        <path d="M75.6879579,41.1107751 L41.0752935,21.0877691 L6.46262909,1.05930274 C5.8841073,0.706162436 5.23457587,0.486097638 4.56089422,0.41498458 C4.02270088,0.361720103 3.4817497,0.48430739 3.01879976,0.764445279 L2.97520698,0.764445279 L2.9370633,0.764445279 L2.23957888,1.20127115 L1.54209446,1.63809703 L1.50395078,1.63809703 L1.46035801,1.63809703 C0.999692691,1.90854848 0.635586314,2.31734061 0.419580472,2.80660624 C0.146950755,3.42120261 0.0147702973,4.0890631 0.0326945822,4.76140203 L0.0326945822,59.124382 C0.215313189,62.5086198 1.99886639,65.6022887 4.83334907,67.4513753 L39.4405644,87.4743813 L74.0532287,107.502848 C74.6336858,107.856088 75.2850084,108.076129 75.9604127,108.147166 C76.4986061,108.20043 77.0395572,108.077843 77.5025072,107.797705 L77.5406508,107.797705 L77.5787945,107.797705 L77.6169382,107.797705 L77.6550819,107.797705 L77.6932256,107.797705 L77.7313692,107.797705 L77.774962,107.770403 L77.8131057,107.770403 L77.8512494,107.770403 L77.8893931,107.770403 L77.9275367,107.770403 L77.9656804,107.770403 L78.0038241,107.770403 L78.0474169,107.770403 L78.0855606,107.770403 L78.1237042,107.743102 L78.1618479,107.743102 L78.1999916,107.7158 L78.2381353,107.7158 L78.2762789,107.7158 L78.3144226,107.7158 L78.3580154,107.7158 L78.3961591,107.7158 L78.4343028,107.688499 L78.4724464,107.688499 L78.5105901,107.688499 L78.5487338,107.688499 L78.5868775,107.688499 L78.6304703,107.661197 L78.6686139,107.661197 L78.7067576,107.661197 L78.7449013,107.661197 L78.783045,107.661197 L78.8211887,107.661197 L78.8593323,107.633895 L78.897476,107.633895 L78.9410688,107.633895 C78.9513944,107.621839 78.9644827,107.612471 78.9792125,107.606594 L79.0173561,107.606594 L79.0554998,107.606594 C79.5177213,107.33645 79.8836633,106.927737 80.1017265,106.438085 C80.3698925,105.822244 80.5000932,105.154989 80.4831632,104.483289 L80.4831632,49.4377683 C80.3000392,46.0550616 78.5190484,42.9623268 75.6879579,41.1107751 L75.6879579,41.1107751 Z" id="Shape" stroke="#FFFFFF" stroke-width="0.5" opacity="0.22" style="mix-blend-mode: overlay;"></path>
                        <path d="M74.0532287,107.595673 L4.84969636,67.5496611 C2.19598611,66.0153102 0.0490418733,62.2859093 0.0490418733,59.2226679 L0.0490418733,4.85968785 C0.0490418733,1.79098608 2.19598611,0.546032342 4.84969636,2.08038322 L74.0532287,42.1318555 C76.7014899,43.6607461 78.8538832,47.390147 78.8538832,50.4588488 L78.8538832,104.83821 C78.8538832,107.88507 76.7014899,109.130024 74.0532287,107.595673 Z" id="Shape" fill="#D9F1FF" fill-rule="nonzero"></path>
                        <path d="M74.0532287,107.595673 L4.84969636,67.5496611 C2.19598611,66.0153102 0.0490418733,62.2859093 0.0490418733,59.2226679 L0.0490418733,4.85968785 C0.0490418733,1.79098608 2.19598611,0.546032342 4.84969636,2.08038322 L74.0532287,42.1318555 C76.7014899,43.6607461 78.8538832,47.390147 78.8538832,50.4588488 L78.8538832,104.83821 C78.8538832,107.88507 76.7014899,109.130024 74.0532287,107.595673 Z" id="Shape" stroke="#000000" opacity="0.5" style="mix-blend-mode: overlay;"></path>
                    </g>
                    <polygon id="Shape" fill="url(#radialGradient-6)" fill-rule="nonzero" points="42.731819 74.6808435 39.0100857 72.529476 39.0100857 63.2196246 42.731819 65.3764524"></polygon>
                    <polygon id="Shape" fill="url(#linearGradient-7)" fill-rule="nonzero" points="41.1733772 75.1777329 37.4516439 73.0209051 37.4516439 63.7110537 41.1733772 65.8678815"></polygon>
                    <polygon id="Shape" fill="url(#linearGradient-8)" fill-rule="nonzero" points="41.1733772 65.8678815 37.4516439 63.7110537 39.0100857 63.2196246 42.731819 65.3764524"></polygon>
                    <polygon id="Shape" fill="url(#linearGradient-8)" fill-rule="nonzero" points="41.1733772 65.8678815 37.4516439 63.7110537 39.0100857 63.2196246 42.731819 65.3764524"></polygon>
                    <polygon id="Shape" fill="url(#linearGradient-9)" fill-rule="nonzero" points="41.1733772 75.1777329 41.1733772 65.8678815 42.731819 65.3764524 42.731819 74.6808435"></polygon>
                    <polygon id="Shape" fill="url(#linearGradient-9)" fill-rule="nonzero" points="41.1733772 75.1777329 41.1733772 65.8678815 42.731819 65.3764524 42.731819 74.6808435"></polygon>
                    <polygon id="Shape" fill="url(#radialGradient-10)" fill-rule="nonzero" points="49.3633701 78.2573553 45.6416368 76.1005276 45.6416368 58.8186039 49.3633701 60.9699714"></polygon>
                    <polygon id="Shape" fill="url(#linearGradient-11)" fill-rule="nonzero" points="47.8049283 78.7487844 44.0777459 76.5919567 44.0777459 59.310033 47.8049283 61.4668608"></polygon>
                    <polygon id="Shape" fill="url(#linearGradient-12)" fill-rule="nonzero" points="47.8049283 61.4668608 44.0777459 59.310033 45.6416368 58.8186039 49.3633701 60.9699714"></polygon>
                    <polygon id="Shape" fill="url(#linearGradient-12)" fill-rule="nonzero" points="47.8049283 61.4668608 44.0777459 59.310033 45.6416368 58.8186039 49.3633701 60.9699714"></polygon>
                    <polygon id="Shape" fill="url(#linearGradient-13)" fill-rule="nonzero" points="47.8049283 78.7487844 47.8049283 61.4668608 49.3633701 60.9699714 49.3633701 78.2573553"></polygon>
                    <polygon id="Shape" fill="url(#linearGradient-13)" fill-rule="nonzero" points="47.8049283 78.7487844 47.8049283 61.4668608 49.3633701 60.9699714 49.3633701 78.2573553"></polygon>
                    <polygon id="Shape" fill="url(#radialGradient-14)" fill-rule="nonzero" points="56.2292323 82.2925343 52.50205 80.1357066 52.50205 50.8956746 56.2292323 53.0470421"></polygon>
                    <polygon id="Shape" fill="url(#linearGradient-15)" fill-rule="nonzero" points="54.6653415 82.7839634 50.9436082 80.632596 50.9436082 51.3871037 54.6653415 53.5439315"></polygon>
                    <polygon id="Shape" fill="url(#linearGradient-12)" fill-rule="nonzero" points="54.6653415 53.5439315 50.9436082 51.3871037 52.50205 50.8956746 56.2292323 53.0470421"></polygon>
                    <polygon id="Shape" fill="url(#linearGradient-12)" fill-rule="nonzero" points="54.6653415 53.5439315 50.9436082 51.3871037 52.50205 50.8956746 56.2292323 53.0470421"></polygon>
                    <polygon id="Shape" fill="url(#linearGradient-16)" fill-rule="nonzero" points="54.6653415 82.7839634 54.6653415 53.5439315 56.2292323 53.0470421 56.2292323 82.2925343"></polygon>
                    <polygon id="Shape" fill="url(#linearGradient-16)" fill-rule="nonzero" points="54.6653415 82.7839634 54.6653415 53.5439315 56.2292323 53.0470421 56.2292323 82.2925343"></polygon>
                    <polygon id="Shape" fill="url(#radialGradient-17)" fill-rule="nonzero" points="63.00246 86.0929194 59.2807267 83.9360917 59.2807267 46.7185272 63.00246 48.875355"></polygon>
                    <polygon id="Shape" fill="url(#linearGradient-18)" fill-rule="nonzero" points="61.4440182 86.5843485 57.7222849 84.4329811 57.7222849 47.2154166 61.4440182 49.3667841"></polygon>
                    <polygon id="Shape" fill="url(#linearGradient-8)" fill-rule="nonzero" points="61.4440182 49.3667841 57.7222849 47.2154166 59.2807267 46.7185272 63.00246 48.875355"></polygon>
                    <polygon id="Shape" fill="url(#linearGradient-8)" fill-rule="nonzero" points="61.4440182 49.3667841 57.7222849 47.2154166 59.2807267 46.7185272 63.00246 48.875355"></polygon>
                    <polygon id="Shape" fill="url(#linearGradient-19)" fill-rule="nonzero" points="61.4440182 86.5843485 61.4440182 49.3667841 63.00246 48.875355 63.00246 86.0929194"></polygon>
                    <polygon id="Shape" fill="url(#linearGradient-19)" fill-rule="nonzero" points="61.4440182 86.5843485 61.4440182 49.3667841 63.00246 48.875355 63.00246 86.0929194"></polygon>
                    <path d="M32.291349,60.0198751 C34.3020659,58.8622865 35.5608073,56.3559981 35.5608073,52.7958672 C35.5608073,45.6974467 30.6566199,37.1028977 24.537284,33.5809891 C24.537284,33.613751 22.9025549,34.5747679 22.9025549,34.558387 C22.9025549,42.2028397 22.9025549,40.3081075 22.9025549,47.3956073 L22.9025549,47.3956073 L22.9025549,47.3956073 L16.7287279,54.4612658 C18.3679914,56.7848642 20.4632355,58.7487896 22.8862076,60.2328277 C25.9540492,62.0074328 28.7276396,62.1494012 30.7220091,60.9535904 L30.8037456,60.9044475 L32.291349,60.0198751 Z" id="Shape" fill="url(#linearGradient-20)" fill-rule="nonzero"></path>
                    <path d="M32.291349,60.0198751 C34.3020659,58.8622865 35.5608073,56.3559981 35.5608073,52.7958672 C35.5608073,45.6974467 30.6566199,37.1028977 24.537284,33.5809891 C24.537284,33.613751 22.9025549,34.5747679 22.9025549,34.558387 C22.9025549,42.2028397 22.9025549,40.3081075 22.9025549,47.3956073 L22.9025549,47.3956073 L22.9025549,47.3956073 L16.7287279,54.4612658 C18.3679914,56.7848642 20.4632355,58.7487896 22.8862076,60.2328277 C25.9540492,62.0074328 28.7276396,62.1494012 30.7220091,60.9535904 L30.8037456,60.9044475 L32.291349,60.0198751 Z" id="Shape" fill="url(#linearGradient-20)" fill-rule="nonzero"></path>
                    <path d="M22.8862076,34.558387 C22.8862076,42.2028397 22.8862076,40.3081075 22.8862076,47.3956073 L22.8862076,47.3956073 L22.8862076,47.3956073 L16.7123806,54.4612658 C18.3564075,56.7865296 20.4573383,58.750571 22.8862076,60.2328277 C28.972849,63.7547363 33.9097309,60.8607649 33.9097309,53.7732651 C33.9097309,46.6857653 28.9673999,38.0802956 22.8862076,34.558387 Z" id="Shape" fill="url(#linearGradient-21)" fill-rule="nonzero"></path>
                    <path d="M8.89292637,39.860361 C8.89292637,39.8931229 7.32903552,40.8104573 7.32903552,40.8432192 L7.25274816,40.7940763 C7.25274816,45.2223986 9.17627941,50.2349755 12.1024445,54.2373926 C12.1024445,54.2373926 13.7371736,53.2982169 13.7371736,53.3036773 L19.9055515,46.2380188 L19.9055515,46.2380188 L8.89292637,39.860361 Z" id="Shape" fill="url(#linearGradient-22)" fill-rule="nonzero"></path>
                    <path d="M8.89292637,39.860361 C8.89292637,39.8931229 7.32903552,40.8104573 7.32903552,40.8432192 L7.25274816,40.7940763 C7.25274816,45.2223986 9.17627941,50.2349755 12.1024445,54.2373926 C12.1024445,54.2373926 13.7371736,53.2982169 13.7371736,53.3036773 L19.9055515,46.2380188 L19.9055515,46.2380188 L8.89292637,39.860361 Z" id="Shape" fill="url(#linearGradient-22)" fill-rule="nonzero"></path>
                    <path d="M7.25274816,40.772235 C7.25274816,45.2005573 9.17627941,50.2131342 12.1024445,54.2155513 L18.2708224,47.1498928 L18.2708224,47.1498928 C14.712562,45.0804302 12.1569355,43.6116032 7.25274816,40.772235 Z" id="Shape" fill="url(#linearGradient-23)" fill-rule="nonzero"></path>
                    <polygon id="Shape" fill="url(#linearGradient-24)" fill-rule="nonzero" points="13.7480718 53.281836 12.1024445 54.2155513 18.2708224 47.1498928 19.9164497 46.2161775"></polygon>
                    <polygon id="Shape" fill="url(#linearGradient-24)" fill-rule="nonzero" points="13.7480718 53.281836 12.1024445 54.2155513 18.2708224 47.1498928 19.9164497 46.2161775"></polygon>
                    <path d="M20.2869883,42.0827126 C20.2869883,34.9842922 20.2869883,36.9117863 20.2869883,29.2454923 C17.2300448,27.4763475 14.4673526,27.3234584 12.4729831,28.5083486 L12.4402885,28.5083486 L10.9690323,29.3874607 L10.9363378,29.3874607 L10.9036432,29.3874607 L10.8709486,29.3874607 C8.87112998,30.5505096 7.62873585,33.0513377 7.62873585,36.6005479 L18.6740555,42.983666 C18.6740555,42.983666 20.2760901,42.0772523 20.2869883,42.0827126 Z" id="Shape" fill="url(#linearGradient-25)" fill-rule="nonzero"></path>
                    <path d="M20.2869883,42.0827126 C20.2869883,34.9842922 20.2869883,36.9117863 20.2869883,29.2454923 C17.2300448,27.4763475 14.4673526,27.3234584 12.4729831,28.5083486 L12.4402885,28.5083486 L10.9690323,29.3874607 L10.9363378,29.3874607 L10.9036432,29.3874607 L10.8709486,29.3874607 C8.87112998,30.5505096 7.62873585,33.0513377 7.62873585,36.6005479 L18.6740555,42.983666 C18.6740555,42.983666 20.2760901,42.0772523 20.2869883,42.0827126 Z" id="Shape" fill="url(#linearGradient-25)" fill-rule="nonzero"></path>
                    <path d="M18.6522592,43.0382692 L7.62873585,36.6551511 C7.62873585,29.5567307 12.5656178,26.6791402 18.6522592,30.2010489 C18.6304628,37.8673429 18.6522592,35.9453091 18.6522592,43.0382692 Z" id="Shape" fill="url(#linearGradient-26)" fill-rule="nonzero"></path>
                    <polygon id="Shape" fill="url(#linearGradient-27)" fill-rule="nonzero" points="20.2869883 42.0827126 18.6522592 43.0546502 18.6304628 30.2010489 20.2651919 29.2454923"></polygon>
                    <polygon id="Shape" fill="url(#linearGradient-27)" fill-rule="nonzero" points="20.2869883 42.0827126 18.6522592 43.0546502 18.6304628 30.2010489 20.2651919 29.2454923"></polygon>
                </g>
            </g>
            <g id="编组-15" transform="translate(139.000000, 71.000000)">
                <g id="编组-11" transform="translate(227.788162, 54.500000) scale(-1, 1) translate(-227.788162, -54.500000) translate(193.788162, 0.000000)">
                    <path d="M64.4487448,33.5073764 C64.2770734,33.3861824 54.1927665,27.5523483 54.0044818,27.4476809 C53.8281448,27.3292204 53.6430198,27.2242512 53.4507032,27.1336785 C51.8779722,26.0649685 49.7514627,26.0704773 47.4145173,27.414628 L8.80507855,49.5876047 C3.9429031,52.3805734 0,59.8725606 0,66.317873 L0,94.3081574 C0,98.0045716 1.29584175,100.549644 3.32267115,101.530213 C3.49988028,101.651407 14.132428,107.804752 14.3207127,107.892893 C15.8989815,108.961603 18.0199532,108.956094 20.3624364,107.611943 L58.9663374,85.4389667 C63.8285128,82.645998 67.7714159,75.1540108 67.7714159,68.7086983 L67.7714159,40.7294316 C67.7658781,37.0330174 66.4700364,34.4824364 64.4487448,33.5073764 Z" id="Shape" fill="url(#radialGradient-28)" fill-rule="nonzero"></path>
                    <path d="M64.4487448,33.5073764 C64.2770734,33.3861824 54.1927665,27.5523483 54.0044818,27.4476809 C53.8281448,27.3292204 53.6430198,27.2242512 53.4507032,27.1336785 C51.8779722,26.0649685 49.7514627,26.0704773 47.4145173,27.414628 L8.80507855,49.5876047 C3.9429031,52.3805734 0,59.8725606 0,66.317873 L0,94.3081574 C0,98.0045716 1.29584175,100.549644 3.32267115,101.530213 C3.49988028,101.651407 14.132428,107.804752 14.3207127,107.892893 C15.8989815,108.961603 18.0199532,108.956094 20.3624364,107.611943 L58.9663374,85.4389667 C63.8285128,82.645998 67.7714159,75.1540108 67.7714159,68.7086983 L67.7714159,40.7294316 C67.7658781,37.0330174 66.4700364,34.4824364 64.4487448,33.5073764 Z" id="Shape" fill="url(#linearGradient-29)" fill-rule="nonzero"></path>
                    <path d="M58.9044655,85.3367411 L20.0293012,107.604491 C15.1329601,110.409397 11.1623509,107.432988 11.1623509,100.965659 L11.1623509,72.8889308 C11.1623509,66.410537 15.1329601,58.8865272 20.0293012,56.0816206 L58.9044655,33.813871 C63.8008067,31.0089644 67.7714159,33.9853741 67.7714159,40.4527031 L67.7714159,68.5515604 C67.7714159,75.0078247 63.8008067,82.5318345 58.9044655,85.3367411 Z" id="Shape" fill="url(#linearGradient-30)" fill-rule="nonzero"></path>
                    <path d="M48.1164684,1.64902553 C45.5345936,0.161629896 40.0273327,-1.6562981 32.1487361,2.87750415 C21.2727269,9.11905694 12.7569724,23.8112205 12.7569724,36.2833083 L12.7569724,52.3086191 L12.7569724,52.3086191 C12.8154048,52.9375932 13.2119167,53.4857458 13.7930466,53.740926 C15.3612728,54.5266488 17.211274,54.5266488 18.7795002,53.740926 C19.6826023,53.223092 19.9928705,52.4959208 19.7158453,51.834856 L19.7158453,36.2833083 C19.7158453,26.3673374 27.001608,13.8291431 35.6281726,8.87666654 C39.1685546,6.84389251 42.4485329,6.39767382 44.6259509,7.64818793 C46.803369,8.89870203 48.0555228,11.9506175 48.0555228,16.0106567 L48.0555228,31.0058083 C47.9283937,31.3070931 47.9283937,31.6465407 48.0555228,31.9478255 L48.0555228,32.0359675 L48.0943064,32.0359675 C48.3021494,32.4079894 48.6138908,32.7122109 48.991868,32.9118782 C50.5600942,33.697601 52.4100954,33.697601 53.9783215,32.9118782 C54.3583447,32.713068 54.6720935,32.4087658 54.8814237,32.0359675 L55.0143958,32.0359675 L55.0143958,16.0106567 C55.0310173,6.96508771 50.7038837,3.13091229 48.1164684,1.64902553 Z" id="Shape" fill="url(#linearGradient-31)" fill-rule="nonzero"></path>
                    <path d="M49.4332681,64.7129471 C49.4332681,61.1462239 46.9315498,59.7042409 43.8520926,61.4848715 C40.7726355,63.265502 38.2709172,67.6242234 38.2709172,71.1909466 C38.2709172,73.6707204 39.4808986,75.1236275 41.2522678,75.1782481 L41.2522678,78.4172478 C41.2522678,80.3344298 42.4186462,81.213821 43.8520926,80.3835883 C45.2855391,79.5533557 46.4464672,77.3302985 46.4464672,75.4131165 L46.4464672,72.1741168 C48.2178363,70.0657628 49.4332681,67.2145691 49.4332681,64.7129471 Z" id="Shape" fill="url(#radialGradient-32)" fill-rule="nonzero"></path>
                    <path d="M49.4332681,64.7129471 C49.4332681,61.1462239 46.9315498,59.7042409 43.8520926,61.4848715 C40.7726355,63.265502 38.2709172,67.6242234 38.2709172,71.1909466 C38.2709172,73.6707204 39.4808986,75.1236275 41.2522678,75.1782481 L41.2522678,78.4172478 C41.2522678,80.3344298 42.4186462,81.213821 43.8520926,80.3835883 C45.2855391,79.5533557 46.4464672,77.3302985 46.4464672,75.4131165 L46.4464672,72.1741168 C48.2178363,70.0657628 49.4332681,67.2145691 49.4332681,64.7129471 Z" id="Shape" stroke="#FFFFFF" stroke-width="0.5" opacity="0.22" style="mix-blend-mode: overlay;"></path>
                    <path d="M39.3074212,73.7053326 L39.3074212,73.5055892 L39.068228,73.5055892 C39.1479591,73.5774968 39.2276901,73.6573942 39.3074212,73.7053326 Z" id="Shape" fill="#4D4D4D" fill-rule="nonzero"></path>
                    <path d="M46.5675874,60.7220084 C47.3761497,61.6007805 47.7887898,62.7676355 47.7105467,63.9540453 C47.7105467,66.4368621 46.4792427,69.2915545 44.6847413,71.4024956 L44.6847413,74.6509388 C44.6847413,76.5650046 43.5086527,78.7962584 42.0564869,79.6220411 C41.869683,79.7313809 41.6691944,79.8159579 41.4601603,79.873604 C41.9074053,80.7048555 42.7742875,80.9673559 43.7792083,80.3767299 C45.231374,79.5454785 46.4074626,77.3196934 46.4074626,75.4001588 L46.4074626,72.1571844 C48.201964,70.0462433 49.4332681,67.1860821 49.4332681,64.7032653 C49.4332681,62.2204485 48.2737441,60.8641962 46.5675874,60.7220084 Z" id="Shape" fill="url(#radialGradient-33)" fill-rule="nonzero"></path>
                    <path d="M63.6391136,70.4841545 L63.4114017,70.3464715 C63.3409194,70.302413 47.9324103,61.209831 47.8565063,61.1712798 C46.8426459,60.5048943 45.4113136,60.5544602 43.8227516,61.4907043 C40.7540619,63.2860899 38.2709172,67.6589004 38.2709172,71.255179 C38.2709172,73.1056378 38.9269445,74.3833356 39.9841786,74.9505894 C40.0576893,74.9987723 40.1337036,75.0428948 40.2118906,75.082765 C40.2828436,75.1320651 40.3571238,75.1762327 40.4341808,75.2149406 L40.6618928,75.3526236 L40.8896047,75.4847992 L41.111895,75.6169748 L41.2365944,75.68857 L41.2365944,78.5413607 C41.2365944,79.6428243 41.6269577,80.4303707 42.2341896,80.7167513 C42.3062827,80.7672629 42.3824591,80.8114796 42.4619016,80.8489269 C42.5323838,80.9040001 57.713181,89.8533918 57.789085,89.891943 C57.8599268,89.944446 57.9363009,89.9887774 58.016797,90.0241186 C58.5730156,90.3898519 59.2939673,90.3679257 59.8276492,89.9690454 C61.2535598,89.1319331 62.4083847,86.8904547 62.4083847,84.9573861 L62.4083847,81.6915465 C64.1758632,79.5657218 65.3794836,76.6909018 65.3794836,74.1850722 C65.3794836,72.3235987 64.7071911,71.0403936 63.6391136,70.4841545 Z" id="Shape" fill="url(#linearGradient-34)" fill-rule="nonzero" opacity="0.9" style="mix-blend-mode: overlay;"></path>
                </g>
                <g id="编组-12" fill-rule="nonzero">
                    <path d="M36.1899163,18.5005016 C36.1899163,18.5005016 20.6439269,26.1655684 4.61336138,0 C4.61336138,0.175574174 0.0741697971,3.51148348 0,3.39610617 L0,48.0872581 C0,78.1305075 31.5814996,107.897855 31.5814996,107.897855 C31.5814996,107.897855 45.9209937,111.178584 55.2663881,104.130535 L59.6621848,100.89997 C64.3002694,97.50888 67.7714159,91.649719 67.7714159,81.6871387 L67.7714159,36.9959867 C52.5962754,43.7681334 36.1899163,18.5005016 36.1899163,18.5005016 Z" id="Shape" fill="url(#radialGradient-35)"></path>
                    <path d="M36.1899163,18.5005016 C36.1899163,18.5005016 20.6439269,26.1655684 4.61336138,0 C4.61336138,0.175574174 0.0741697971,3.51148348 0,3.39610617 L0,48.0872581 C0,78.1305075 31.5814996,107.897855 31.5814996,107.897855 C31.5814996,107.897855 45.9209937,111.178584 55.2663881,104.130535 L59.6621848,100.89997 C64.3002694,97.50888 67.7714159,91.649719 67.7714159,81.6871387 L67.7714159,36.9959867 C52.5962754,43.7681334 36.1899163,18.5005016 36.1899163,18.5005016 Z" id="Shape" fill="url(#linearGradient-36)"></path>
                    <path d="M31.4937756,107.902029 C31.4937756,107.902029 0,78.3054711 0,48.4345941 L0,3.99486898 C15.9860374,30.010313 31.4937756,22.3892243 31.4937756,22.3892243 C31.4937756,22.3892243 47.8545628,47.5019085 62.9875513,40.7785921 L62.9875513,85.2133296 C62.9875513,115.089194 31.4937756,107.902029 31.4937756,107.902029 Z" id="Shape" fill="#D9F1FF"></path>
                    <path d="M31.892431,22.3712663 L31.892431,107.901871 C31.892431,107.901871 62.9875513,115.090532 62.9875513,85.2084489 L62.9875513,40.7644619 C48.0509881,47.4891779 31.892431,22.3712663 31.892431,22.3712663 Z" id="Shape" fill="url(#radialGradient-37)"></path>
                    <path d="M31.892431,22.3712663 L31.892431,107.901871 C31.892431,107.901871 62.9875513,115.090532 62.9875513,85.2084489 L62.9875513,40.7644619 C48.0509881,47.4891779 31.892431,22.3712663 31.892431,22.3712663 Z" id="Shape" fill="#D9F1FF" opacity="0.503371466"></path>
                    <path d="M48.1800034,46.4644829 C50.8104262,48.061122 53.6797792,49.2149873 56.6759757,49.8810049 L56.6759757,81.4825873 C56.6759757,91.208453 52.371284,97.2534527 43.855588,99.4380318 C39.0528735,100.67995 34.1416788,100.315853 31.5282921,99.9717075 C27.0608621,95.3288924 22.949722,90.3484617 19.2305816,85.0736762 C10.7346093,72.9637264 6.41019388,61.8912023 6.41019388,52.1553612 L6.41019388,20.8530363 C9.06643702,23.5377994 12.0488183,25.8706974 15.2858469,27.7958082 C22.2976129,31.8906471 28.0717183,32.1250654 31.710736,31.586402 C35.4878195,36.1899785 41.3063032,42.449446 48.1800034,46.4644829 Z M48.1109705,38.9980105 C38.781673,33.5515257 31.5085684,22.3892243 31.5085684,22.3892243 C31.5085684,22.3892243 24.6052827,25.7758207 15.2858469,20.3293359 C10.6211982,17.6011058 5.34511551,12.6683462 0,3.99486898 L0,48.4345941 C0,78.3054711 31.4937756,107.902029 31.4937756,107.902029 C31.4937756,107.902029 62.9875513,115.089194 62.9875513,85.2133296 L62.9875513,40.7785921 C57.9530836,43.018035 52.7756193,41.7212529 48.1109705,38.9980105 Z" id="Shape" fill="url(#linearGradient-38)"></path>
                </g>
            </g>
        </g>
    </g>
</svg>