<?xml version="1.0" encoding="UTF-8"?>
<svg width="82px" height="109px" viewBox="0 0 82 109" version="1.1" xmlns="http://www.w3.org/2000/svg" xmlns:xlink="http://www.w3.org/1999/xlink">
    <!-- Generator: Sketch 54.1 (76490) - https://sketchapp.com -->
    <title>banner_4_pie</title>
    <desc>Created with Sketch.</desc>
    <defs>
        <radialGradient cx="77.9792442%" cy="50.68915%" fx="77.9792442%" fy="50.68915%" r="86.585696%" gradientTransform="translate(0.779792,0.506891),scale(1.000000,0.746623),translate(-0.779792,-0.506891)" id="radialGradient-1">
            <stop stop-color="#BFA8FB" offset="0%"></stop>
            <stop stop-color="#9DCCFC" offset="100%"></stop>
        </radialGradient>
        <radialGradient cx="-452.2694%" cy="127.965698%" fx="-452.2694%" fy="127.965698%" r="1154.61201%" gradientTransform="translate(-4.522694,1.279657),scale(1.000000,0.324724),translate(4.522694,-1.279657)" id="radialGradient-2">
            <stop stop-color="#683FCE" offset="0%"></stop>
            <stop stop-color="#72BEED" offset="100%"></stop>
        </radialGradient>
        <linearGradient x1="55.267265%" y1="100%" x2="44.732735%" y2="0%" id="linearGradient-3">
            <stop stop-color="#533BF5" offset="0%"></stop>
            <stop stop-color="#14EAFB" offset="100%"></stop>
        </linearGradient>
        <linearGradient x1="100%" y1="54.0861621%" x2="0%" y2="54.0861621%" id="linearGradient-4">
            <stop stop-color="#0028B4" offset="0%"></stop>
            <stop stop-color="#157EFF" offset="100%"></stop>
        </linearGradient>
        <linearGradient x1="100%" y1="54.0861621%" x2="0%" y2="54.0861621%" id="linearGradient-5">
            <stop stop-color="#0028B4" offset="0%"></stop>
            <stop stop-color="#157EFF" offset="100%"></stop>
        </linearGradient>
        <radialGradient cx="-452.2694%" cy="127.921348%" fx="-452.2694%" fy="127.921348%" r="1179.79502%" gradientTransform="translate(-4.522694,1.279213),scale(1.000000,0.191459),translate(4.522694,-1.279213)" id="radialGradient-6">
            <stop stop-color="#683FCE" offset="0%"></stop>
            <stop stop-color="#72BEED" offset="100%"></stop>
        </radialGradient>
        <linearGradient x1="51.8382076%" y1="100%" x2="48.1617924%" y2="0%" id="linearGradient-7">
            <stop stop-color="#533BF5" offset="0%"></stop>
            <stop stop-color="#14EAFB" offset="100%"></stop>
        </linearGradient>
        <linearGradient x1="100%" y1="54.0861621%" x2="0%" y2="54.0861621%" id="linearGradient-8">
            <stop stop-color="#0028B4" offset="0%"></stop>
            <stop stop-color="#157EFF" offset="100%"></stop>
        </linearGradient>
        <linearGradient x1="100%" y1="54.0861621%" x2="0%" y2="54.0861621%" id="linearGradient-9">
            <stop stop-color="#0028B4" offset="0%"></stop>
            <stop stop-color="#157EFF" offset="100%"></stop>
        </linearGradient>
        <radialGradient cx="-451.608187%" cy="127.913043%" fx="-451.608187%" fy="127.913043%" r="1238.15789%" gradientTransform="translate(-4.516082,1.279130),scale(1.000000,0.118712),translate(4.516082,-1.279130)" id="radialGradient-10">
            <stop stop-color="#683FCE" offset="0%"></stop>
            <stop stop-color="#72BEED" offset="100%"></stop>
        </radialGradient>
        <linearGradient x1="50.7025675%" y1="100%" x2="49.2974325%" y2="0%" id="linearGradient-11">
            <stop stop-color="#533BF5" offset="0%"></stop>
            <stop stop-color="#14EAFB" offset="100%"></stop>
        </linearGradient>
        <linearGradient x1="100%" y1="54.0861621%" x2="0%" y2="54.0861621%" id="linearGradient-12">
            <stop stop-color="#0028B4" offset="0%"></stop>
            <stop stop-color="#157EFF" offset="100%"></stop>
        </linearGradient>
        <radialGradient cx="-452.2694%" cy="127.915684%" fx="-452.2694%" fy="127.915684%" r="1293.26501%" gradientTransform="translate(-4.522694,1.279157),scale(1.000000,0.094522),translate(4.522694,-1.279157)" id="radialGradient-13">
            <stop stop-color="#683FCE" offset="0%"></stop>
            <stop stop-color="#72BEED" offset="100%"></stop>
        </radialGradient>
        <linearGradient x1="50.4468412%" y1="100%" x2="49.5531588%" y2="0%" id="linearGradient-14">
            <stop stop-color="#533BF5" offset="0%"></stop>
            <stop stop-color="#14EAFB" offset="100%"></stop>
        </linearGradient>
        <linearGradient x1="100%" y1="54.0861621%" x2="0%" y2="54.0861621%" id="linearGradient-15">
            <stop stop-color="#0028B4" offset="0%"></stop>
            <stop stop-color="#157EFF" offset="100%"></stop>
        </linearGradient>
        <linearGradient x1="72.3778341%" y1="100%" x2="27.6221659%" y2="0%" id="linearGradient-16">
            <stop stop-color="#533BF5" offset="0%"></stop>
            <stop stop-color="#14EAFB" offset="100%"></stop>
        </linearGradient>
        <linearGradient x1="100%" y1="54.0861621%" x2="0%" y2="54.0861621%" id="linearGradient-17">
            <stop stop-color="#5736FC" offset="0%"></stop>
            <stop stop-color="#00A5FE" offset="100%"></stop>
        </linearGradient>
        <linearGradient x1="88.7262162%" y1="100%" x2="11.2737838%" y2="0%" id="linearGradient-18">
            <stop stop-color="#533BF5" offset="0%"></stop>
            <stop stop-color="#14EAFB" offset="100%"></stop>
        </linearGradient>
        <linearGradient x1="100%" y1="54.0861621%" x2="0%" y2="54.0861621%" id="linearGradient-19">
            <stop stop-color="#5736FC" offset="0%"></stop>
            <stop stop-color="#00A5FE" offset="100%"></stop>
        </linearGradient>
        <linearGradient x1="97.7095595%" y1="100%" x2="2.29044052%" y2="0%" id="linearGradient-20">
            <stop stop-color="#533BF5" offset="0%"></stop>
            <stop stop-color="#14EAFB" offset="100%"></stop>
        </linearGradient>
        <linearGradient x1="84.4953641%" y1="100%" x2="15.5046359%" y2="0%" id="linearGradient-21">
            <stop stop-color="#533BF5" offset="0%"></stop>
            <stop stop-color="#14EAFB" offset="100%"></stop>
        </linearGradient>
        <linearGradient x1="100%" y1="54.0861621%" x2="0%" y2="54.0861621%" id="linearGradient-22">
            <stop stop-color="#5736FC" offset="0%"></stop>
            <stop stop-color="#00A5FE" offset="100%"></stop>
        </linearGradient>
        <linearGradient x1="50.7195018%" y1="100%" x2="49.2804982%" y2="0%" id="linearGradient-23">
            <stop stop-color="#533BF5" offset="0%"></stop>
            <stop stop-color="#14EAFB" offset="100%"></stop>
        </linearGradient>
    </defs>
    <g id="页面" stroke="none" stroke-width="1" fill="none" fill-rule="evenodd">
        <g id="banner_4" transform="translate(-49.000000, -30.000000)">
            <g id="编组-2" transform="translate(50.000000, 30.000000)">
                <g id="banner_4_pie">
                    <g id="Group">
                        <path d="M75.6879579,41.1107751 L41.0752935,21.0877691 L6.46262909,1.05930274 C5.8841073,0.706162436 5.23457587,0.486097638 4.56089422,0.41498458 C4.02270088,0.361720103 3.4817497,0.48430739 3.01879976,0.764445279 L2.97520698,0.764445279 L2.9370633,0.764445279 L2.23957888,1.20127115 L1.54209446,1.63809703 L1.50395078,1.63809703 L1.46035801,1.63809703 C0.999692691,1.90854848 0.635586314,2.31734061 0.419580472,2.80660624 C0.146950755,3.42120261 0.0147702973,4.0890631 0.0326945822,4.76140203 L0.0326945822,59.124382 C0.215313189,62.5086198 1.99886639,65.6022887 4.83334907,67.4513753 L39.4405644,87.4743813 L74.0532287,107.502848 C74.6336858,107.856088 75.2850084,108.076129 75.9604127,108.147166 C76.4986061,108.20043 77.0395572,108.077843 77.5025072,107.797705 L77.5406508,107.797705 L77.5787945,107.797705 L77.6169382,107.797705 L77.6550819,107.797705 L77.6932256,107.797705 L77.7313692,107.797705 L77.774962,107.770403 L77.8131057,107.770403 L77.8512494,107.770403 L77.8893931,107.770403 L77.9275367,107.770403 L77.9656804,107.770403 L78.0038241,107.770403 L78.0474169,107.770403 L78.0855606,107.770403 L78.1237042,107.743102 L78.1618479,107.743102 L78.1999916,107.7158 L78.2381353,107.7158 L78.2762789,107.7158 L78.3144226,107.7158 L78.3580154,107.7158 L78.3961591,107.7158 L78.4343028,107.688499 L78.4724464,107.688499 L78.5105901,107.688499 L78.5487338,107.688499 L78.5868775,107.688499 L78.6304703,107.661197 L78.6686139,107.661197 L78.7067576,107.661197 L78.7449013,107.661197 L78.783045,107.661197 L78.8211887,107.661197 L78.8593323,107.633895 L78.897476,107.633895 L78.9410688,107.633895 C78.9513944,107.621839 78.9644827,107.612471 78.9792125,107.606594 L79.0173561,107.606594 L79.0554998,107.606594 C79.5177213,107.33645 79.8836633,106.927737 80.1017265,106.438085 C80.3698925,105.822244 80.5000932,105.154989 80.4831632,104.483289 L80.4831632,49.4377683 C80.3000392,46.0550616 78.5190484,42.9623268 75.6879579,41.1107751 L75.6879579,41.1107751 Z" id="Shape" fill="url(#radialGradient-1)" fill-rule="nonzero"></path>
                        <path d="M75.6879579,41.1107751 L41.0752935,21.0877691 L6.46262909,1.05930274 C5.8841073,0.706162436 5.23457587,0.486097638 4.56089422,0.41498458 C4.02270088,0.361720103 3.4817497,0.48430739 3.01879976,0.764445279 L2.97520698,0.764445279 L2.9370633,0.764445279 L2.23957888,1.20127115 L1.54209446,1.63809703 L1.50395078,1.63809703 L1.46035801,1.63809703 C0.999692691,1.90854848 0.635586314,2.31734061 0.419580472,2.80660624 C0.146950755,3.42120261 0.0147702973,4.0890631 0.0326945822,4.76140203 L0.0326945822,59.124382 C0.215313189,62.5086198 1.99886639,65.6022887 4.83334907,67.4513753 L39.4405644,87.4743813 L74.0532287,107.502848 C74.6336858,107.856088 75.2850084,108.076129 75.9604127,108.147166 C76.4986061,108.20043 77.0395572,108.077843 77.5025072,107.797705 L77.5406508,107.797705 L77.5787945,107.797705 L77.6169382,107.797705 L77.6550819,107.797705 L77.6932256,107.797705 L77.7313692,107.797705 L77.774962,107.770403 L77.8131057,107.770403 L77.8512494,107.770403 L77.8893931,107.770403 L77.9275367,107.770403 L77.9656804,107.770403 L78.0038241,107.770403 L78.0474169,107.770403 L78.0855606,107.770403 L78.1237042,107.743102 L78.1618479,107.743102 L78.1999916,107.7158 L78.2381353,107.7158 L78.2762789,107.7158 L78.3144226,107.7158 L78.3580154,107.7158 L78.3961591,107.7158 L78.4343028,107.688499 L78.4724464,107.688499 L78.5105901,107.688499 L78.5487338,107.688499 L78.5868775,107.688499 L78.6304703,107.661197 L78.6686139,107.661197 L78.7067576,107.661197 L78.7449013,107.661197 L78.783045,107.661197 L78.8211887,107.661197 L78.8593323,107.633895 L78.897476,107.633895 L78.9410688,107.633895 C78.9513944,107.621839 78.9644827,107.612471 78.9792125,107.606594 L79.0173561,107.606594 L79.0554998,107.606594 C79.5177213,107.33645 79.8836633,106.927737 80.1017265,106.438085 C80.3698925,105.822244 80.5000932,105.154989 80.4831632,104.483289 L80.4831632,49.4377683 C80.3000392,46.0550616 78.5190484,42.9623268 75.6879579,41.1107751 L75.6879579,41.1107751 Z" id="Shape" stroke="#FFFFFF" stroke-width="0.5" opacity="0.22" style="mix-blend-mode: overlay;"></path>
                        <path d="M74.0532287,107.595673 L4.84969636,67.5496611 C2.19598611,66.0153102 0.0490418733,62.2859093 0.0490418733,59.2226679 L0.0490418733,4.85968785 C0.0490418733,1.79098608 2.19598611,0.546032342 4.84969636,2.08038322 L74.0532287,42.1318555 C76.7014899,43.6607461 78.8538832,47.390147 78.8538832,50.4588488 L78.8538832,104.83821 C78.8538832,107.88507 76.7014899,109.130024 74.0532287,107.595673 Z" id="Shape" fill="#D9F1FF" fill-rule="nonzero"></path>
                        <path d="M74.0532287,107.595673 L4.84969636,67.5496611 C2.19598611,66.0153102 0.0490418733,62.2859093 0.0490418733,59.2226679 L0.0490418733,4.85968785 C0.0490418733,1.79098608 2.19598611,0.546032342 4.84969636,2.08038322 L74.0532287,42.1318555 C76.7014899,43.6607461 78.8538832,47.390147 78.8538832,50.4588488 L78.8538832,104.83821 C78.8538832,107.88507 76.7014899,109.130024 74.0532287,107.595673 Z" id="Shape" stroke="#000000" opacity="0.5" style="mix-blend-mode: overlay;"></path>
                    </g>
                    <polygon id="Shape" fill="url(#radialGradient-2)" fill-rule="nonzero" points="42.731819 74.6808435 39.0100857 72.529476 39.0100857 63.2196246 42.731819 65.3764524"></polygon>
                    <polygon id="Shape" fill="url(#linearGradient-3)" fill-rule="nonzero" points="41.1733772 75.1777329 37.4516439 73.0209051 37.4516439 63.7110537 41.1733772 65.8678815"></polygon>
                    <polygon id="Shape" fill="url(#linearGradient-4)" fill-rule="nonzero" points="41.1733772 65.8678815 37.4516439 63.7110537 39.0100857 63.2196246 42.731819 65.3764524"></polygon>
                    <polygon id="Shape" fill="url(#linearGradient-4)" fill-rule="nonzero" points="41.1733772 65.8678815 37.4516439 63.7110537 39.0100857 63.2196246 42.731819 65.3764524"></polygon>
                    <polygon id="Shape" fill="url(#linearGradient-5)" fill-rule="nonzero" points="41.1733772 75.1777329 41.1733772 65.8678815 42.731819 65.3764524 42.731819 74.6808435"></polygon>
                    <polygon id="Shape" fill="url(#linearGradient-5)" fill-rule="nonzero" points="41.1733772 75.1777329 41.1733772 65.8678815 42.731819 65.3764524 42.731819 74.6808435"></polygon>
                    <polygon id="Shape" fill="url(#radialGradient-6)" fill-rule="nonzero" points="49.3633701 78.2573553 45.6416368 76.1005276 45.6416368 58.8186039 49.3633701 60.9699714"></polygon>
                    <polygon id="Shape" fill="url(#linearGradient-7)" fill-rule="nonzero" points="47.8049283 78.7487844 44.0777459 76.5919567 44.0777459 59.310033 47.8049283 61.4668608"></polygon>
                    <polygon id="Shape" fill="url(#linearGradient-8)" fill-rule="nonzero" points="47.8049283 61.4668608 44.0777459 59.310033 45.6416368 58.8186039 49.3633701 60.9699714"></polygon>
                    <polygon id="Shape" fill="url(#linearGradient-8)" fill-rule="nonzero" points="47.8049283 61.4668608 44.0777459 59.310033 45.6416368 58.8186039 49.3633701 60.9699714"></polygon>
                    <polygon id="Shape" fill="url(#linearGradient-9)" fill-rule="nonzero" points="47.8049283 78.7487844 47.8049283 61.4668608 49.3633701 60.9699714 49.3633701 78.2573553"></polygon>
                    <polygon id="Shape" fill="url(#linearGradient-9)" fill-rule="nonzero" points="47.8049283 78.7487844 47.8049283 61.4668608 49.3633701 60.9699714 49.3633701 78.2573553"></polygon>
                    <polygon id="Shape" fill="url(#radialGradient-10)" fill-rule="nonzero" points="56.2292323 82.2925343 52.50205 80.1357066 52.50205 50.8956746 56.2292323 53.0470421"></polygon>
                    <polygon id="Shape" fill="url(#linearGradient-11)" fill-rule="nonzero" points="54.6653415 82.7839634 50.9436082 80.632596 50.9436082 51.3871037 54.6653415 53.5439315"></polygon>
                    <polygon id="Shape" fill="url(#linearGradient-8)" fill-rule="nonzero" points="54.6653415 53.5439315 50.9436082 51.3871037 52.50205 50.8956746 56.2292323 53.0470421"></polygon>
                    <polygon id="Shape" fill="url(#linearGradient-8)" fill-rule="nonzero" points="54.6653415 53.5439315 50.9436082 51.3871037 52.50205 50.8956746 56.2292323 53.0470421"></polygon>
                    <polygon id="Shape" fill="url(#linearGradient-12)" fill-rule="nonzero" points="54.6653415 82.7839634 54.6653415 53.5439315 56.2292323 53.0470421 56.2292323 82.2925343"></polygon>
                    <polygon id="Shape" fill="url(#linearGradient-12)" fill-rule="nonzero" points="54.6653415 82.7839634 54.6653415 53.5439315 56.2292323 53.0470421 56.2292323 82.2925343"></polygon>
                    <polygon id="Shape" fill="url(#radialGradient-13)" fill-rule="nonzero" points="63.00246 86.0929194 59.2807267 83.9360917 59.2807267 46.7185272 63.00246 48.875355"></polygon>
                    <polygon id="Shape" fill="url(#linearGradient-14)" fill-rule="nonzero" points="61.4440182 86.5843485 57.7222849 84.4329811 57.7222849 47.2154166 61.4440182 49.3667841"></polygon>
                    <polygon id="Shape" fill="url(#linearGradient-4)" fill-rule="nonzero" points="61.4440182 49.3667841 57.7222849 47.2154166 59.2807267 46.7185272 63.00246 48.875355"></polygon>
                    <polygon id="Shape" fill="url(#linearGradient-4)" fill-rule="nonzero" points="61.4440182 49.3667841 57.7222849 47.2154166 59.2807267 46.7185272 63.00246 48.875355"></polygon>
                    <polygon id="Shape" fill="url(#linearGradient-15)" fill-rule="nonzero" points="61.4440182 86.5843485 61.4440182 49.3667841 63.00246 48.875355 63.00246 86.0929194"></polygon>
                    <polygon id="Shape" fill="url(#linearGradient-15)" fill-rule="nonzero" points="61.4440182 86.5843485 61.4440182 49.3667841 63.00246 48.875355 63.00246 86.0929194"></polygon>
                    <path d="M32.291349,60.0198751 C34.3020659,58.8622865 35.5608073,56.3559981 35.5608073,52.7958672 C35.5608073,45.6974467 30.6566199,37.1028977 24.537284,33.5809891 C24.537284,33.613751 22.9025549,34.5747679 22.9025549,34.558387 C22.9025549,42.2028397 22.9025549,40.3081075 22.9025549,47.3956073 L22.9025549,47.3956073 L22.9025549,47.3956073 L16.7287279,54.4612658 C18.3679914,56.7848642 20.4632355,58.7487896 22.8862076,60.2328277 C25.9540492,62.0074328 28.7276396,62.1494012 30.7220091,60.9535904 L30.8037456,60.9044475 L32.291349,60.0198751 Z" id="Shape" fill="url(#linearGradient-16)" fill-rule="nonzero"></path>
                    <path d="M32.291349,60.0198751 C34.3020659,58.8622865 35.5608073,56.3559981 35.5608073,52.7958672 C35.5608073,45.6974467 30.6566199,37.1028977 24.537284,33.5809891 C24.537284,33.613751 22.9025549,34.5747679 22.9025549,34.558387 C22.9025549,42.2028397 22.9025549,40.3081075 22.9025549,47.3956073 L22.9025549,47.3956073 L22.9025549,47.3956073 L16.7287279,54.4612658 C18.3679914,56.7848642 20.4632355,58.7487896 22.8862076,60.2328277 C25.9540492,62.0074328 28.7276396,62.1494012 30.7220091,60.9535904 L30.8037456,60.9044475 L32.291349,60.0198751 Z" id="Shape" fill="url(#linearGradient-16)" fill-rule="nonzero"></path>
                    <path d="M22.8862076,34.558387 C22.8862076,42.2028397 22.8862076,40.3081075 22.8862076,47.3956073 L22.8862076,47.3956073 L22.8862076,47.3956073 L16.7123806,54.4612658 C18.3564075,56.7865296 20.4573383,58.750571 22.8862076,60.2328277 C28.972849,63.7547363 33.9097309,60.8607649 33.9097309,53.7732651 C33.9097309,46.6857653 28.9673999,38.0802956 22.8862076,34.558387 Z" id="Shape" fill="url(#linearGradient-17)" fill-rule="nonzero"></path>
                    <path d="M8.89292637,39.860361 C8.89292637,39.8931229 7.32903552,40.8104573 7.32903552,40.8432192 L7.25274816,40.7940763 C7.25274816,45.2223986 9.17627941,50.2349755 12.1024445,54.2373926 C12.1024445,54.2373926 13.7371736,53.2982169 13.7371736,53.3036773 L19.9055515,46.2380188 L19.9055515,46.2380188 L8.89292637,39.860361 Z" id="Shape" fill="url(#linearGradient-18)" fill-rule="nonzero"></path>
                    <path d="M8.89292637,39.860361 C8.89292637,39.8931229 7.32903552,40.8104573 7.32903552,40.8432192 L7.25274816,40.7940763 C7.25274816,45.2223986 9.17627941,50.2349755 12.1024445,54.2373926 C12.1024445,54.2373926 13.7371736,53.2982169 13.7371736,53.3036773 L19.9055515,46.2380188 L19.9055515,46.2380188 L8.89292637,39.860361 Z" id="Shape" fill="url(#linearGradient-18)" fill-rule="nonzero"></path>
                    <path d="M7.25274816,40.772235 C7.25274816,45.2005573 9.17627941,50.2131342 12.1024445,54.2155513 L18.2708224,47.1498928 L18.2708224,47.1498928 C14.712562,45.0804302 12.1569355,43.6116032 7.25274816,40.772235 Z" id="Shape" fill="url(#linearGradient-19)" fill-rule="nonzero"></path>
                    <polygon id="Shape" fill="url(#linearGradient-20)" fill-rule="nonzero" points="13.7480718 53.281836 12.1024445 54.2155513 18.2708224 47.1498928 19.9164497 46.2161775"></polygon>
                    <polygon id="Shape" fill="url(#linearGradient-20)" fill-rule="nonzero" points="13.7480718 53.281836 12.1024445 54.2155513 18.2708224 47.1498928 19.9164497 46.2161775"></polygon>
                    <path d="M20.2869883,42.0827126 C20.2869883,34.9842922 20.2869883,36.9117863 20.2869883,29.2454923 C17.2300448,27.4763475 14.4673526,27.3234584 12.4729831,28.5083486 L12.4402885,28.5083486 L10.9690323,29.3874607 L10.9363378,29.3874607 L10.9036432,29.3874607 L10.8709486,29.3874607 C8.87112998,30.5505096 7.62873585,33.0513377 7.62873585,36.6005479 L18.6740555,42.983666 C18.6740555,42.983666 20.2760901,42.0772523 20.2869883,42.0827126 Z" id="Shape" fill="url(#linearGradient-21)" fill-rule="nonzero"></path>
                    <path d="M20.2869883,42.0827126 C20.2869883,34.9842922 20.2869883,36.9117863 20.2869883,29.2454923 C17.2300448,27.4763475 14.4673526,27.3234584 12.4729831,28.5083486 L12.4402885,28.5083486 L10.9690323,29.3874607 L10.9363378,29.3874607 L10.9036432,29.3874607 L10.8709486,29.3874607 C8.87112998,30.5505096 7.62873585,33.0513377 7.62873585,36.6005479 L18.6740555,42.983666 C18.6740555,42.983666 20.2760901,42.0772523 20.2869883,42.0827126 Z" id="Shape" fill="url(#linearGradient-21)" fill-rule="nonzero"></path>
                    <path d="M18.6522592,43.0382692 L7.62873585,36.6551511 C7.62873585,29.5567307 12.5656178,26.6791402 18.6522592,30.2010489 C18.6304628,37.8673429 18.6522592,35.9453091 18.6522592,43.0382692 Z" id="Shape" fill="url(#linearGradient-22)" fill-rule="nonzero"></path>
                    <polygon id="Shape" fill="url(#linearGradient-23)" fill-rule="nonzero" points="20.2869883 42.0827126 18.6522592 43.0546502 18.6304628 30.2010489 20.2651919 29.2454923"></polygon>
                    <polygon id="Shape" fill="url(#linearGradient-23)" fill-rule="nonzero" points="20.2869883 42.0827126 18.6522592 43.0546502 18.6304628 30.2010489 20.2651919 29.2454923"></polygon>
                </g>
            </g>
        </g>
    </g>
</svg>