<?xml version="1.0" encoding="UTF-8"?>
<svg width="144px" height="180px" viewBox="0 0 144 180" version="1.1" xmlns="http://www.w3.org/2000/svg" xmlns:xlink="http://www.w3.org/1999/xlink">
    <!-- Generator: Sketch 54.1 (76490) - https://sketchapp.com -->
    <title>banner_1_back</title>
    <desc>Created with Sketch.</desc>
    <defs>
        <radialGradient cx="50%" cy="49.9986462%" fx="50%" fy="49.9986462%" r="56.9163113%" gradientTransform="translate(0.500000,0.499986),scale(1.000000,0.790527),translate(-0.500000,-0.499986)" id="radialGradient-1">
            <stop stop-color="#683FCE" offset="0%"></stop>
            <stop stop-color="#72BEED" offset="100%"></stop>
        </radialGradient>
        <linearGradient x1="81.087007%" y1="100%" x2="18.912993%" y2="0%" id="linearGradient-2">
            <stop stop-color="#533BF5" offset="0%"></stop>
            <stop stop-color="#14EAFB" offset="100%"></stop>
        </linearGradient>
    </defs>
    <g id="页面" stroke="none" stroke-width="1" fill="none" fill-rule="evenodd" opacity="0.797363281">
        <g id="banner_1" transform="translate(-177.000000, -16.000000)">
            <g id="编组-13" transform="translate(150.000000, -0.000000)">
                <g id="banner_1_back" transform="translate(28.236271, 16.471158)">
                    <path d="M140.014637,179.247828 C139.472921,178.950976 5.33815644e-06,98.2323936 5.33815644e-06,98.2323936 L5.33815644e-06,2.93014853 C5.33815644e-06,0.81428584 1.21571633,-0.859456285 3.65343732,0.479537415 L138.937504,78.7980369 C140.518558,79.713858 141.803559,82.1707852 141.803559,84.2866478 L141.803559,178.53412 C141.803559,179.077296 140.726426,179.639421 140.014637,179.247828 Z" id="Shape" fill="url(#radialGradient-1)" fill-rule="nonzero"></path>
                    <path d="M139.825666,179.159404 L0.396843639,98.4408218 C0.150553833,98.2997602 -0.00103664002,98.0367773 5.33726231e-06,97.7523769 L5.33726231e-06,2.93014853 C5.33726231e-06,0.81428584 1.25980947,-0.158379395 2.86605974,0.757441768 L138.169024,79.0759412 C139.750078,79.9917624 141.035078,82.4486895 141.035078,84.5645522 L141.035078,178.445695 C141.048501,178.740337 140.898302,179.018257 140.644794,179.16786 C140.391286,179.317462 140.076049,179.314208 139.825666,179.159404 L139.825666,179.159404 Z" id="Shape" fill="url(#linearGradient-2)" fill-rule="nonzero"></path>
                    <path d="M139.825666,179.159404 L0.396843639,98.4408218 C0.150553833,98.2997602 -0.00103664002,98.0367773 5.33726231e-06,97.7523769 L5.33726231e-06,2.93014853 C5.33726231e-06,0.81428584 1.25980947,-0.158379395 2.86605974,0.757441768 L138.169024,79.0759412 C139.750078,79.9917624 141.035078,82.4486895 141.035078,84.5645522 L141.035078,178.445695 C141.048501,178.740337 140.898302,179.018257 140.644794,179.16786 C140.391286,179.317462 140.076049,179.314208 139.825666,179.159404 L139.825666,179.159404 Z" id="Shape" stroke="#FFFFFF" stroke-width="0.5" opacity="0.22" style="mix-blend-mode: overlay;"></path>
                </g>
            </g>
        </g>
    </g>
</svg>