<?xml version="1.0" encoding="UTF-8"?>
<svg width="68px" height="109px" viewBox="0 0 68 109" version="1.1" xmlns="http://www.w3.org/2000/svg" xmlns:xlink="http://www.w3.org/1999/xlink">
    <!-- Generator: Sketch 54.1 (76490) - https://sketchapp.com -->
    <title>banner_4_lock</title>
    <desc>Created with Sketch.</desc>
    <defs>
        <radialGradient cx="146.118647%" cy="99.4421854%" fx="146.118647%" fy="99.4421854%" r="167.323092%" gradientTransform="translate(1.461186,0.994422),scale(1.000000,0.823525),translate(-1.461186,-0.994422)" id="radialGradient-1">
            <stop stop-color="#BFA8FB" offset="0%"></stop>
            <stop stop-color="#9DCCFC" offset="100%"></stop>
        </radialGradient>
        <linearGradient x1="83.909673%" y1="100%" x2="16.090327%" y2="0%" id="linearGradient-2">
            <stop stop-color="#533BF5" offset="0%"></stop>
            <stop stop-color="#14EAFB" offset="100%"></stop>
        </linearGradient>
        <linearGradient x1="100%" y1="54.0861621%" x2="0%" y2="54.0861621%" id="linearGradient-3">
            <stop stop-color="#5736FC" offset="0%"></stop>
            <stop stop-color="#00A5FE" offset="100%"></stop>
        </linearGradient>
        <linearGradient x1="100%" y1="54.0861621%" x2="0%" y2="54.0861621%" id="linearGradient-4">
            <stop stop-color="#5736FC" offset="0%"></stop>
            <stop stop-color="#00A5FE" offset="100%"></stop>
        </linearGradient>
        <radialGradient cx="50%" cy="50.0328759%" fx="50%" fy="50.0328759%" r="72.3144531%" gradientTransform="translate(0.500000,0.500329),scale(1.000000,0.558834),translate(-0.500000,-0.500329)" id="radialGradient-5">
            <stop stop-color="#BFA8FB" offset="0%"></stop>
            <stop stop-color="#9DCCFC" offset="100%"></stop>
        </radialGradient>
        <radialGradient cx="-10.5263158%" cy="50.6509978%" fx="-10.5263158%" fy="50.6509978%" r="120.844875%" gradientTransform="translate(-0.105263,0.506510),scale(1.000000,0.399167),translate(0.105263,-0.506510)" id="radialGradient-6">
            <stop stop-color="#683FCE" offset="0%"></stop>
            <stop stop-color="#72BEED" offset="100%"></stop>
        </radialGradient>
        <linearGradient x1="9.46859859%" y1="22.0310593%" x2="105.196705%" y2="83.6394815%" id="linearGradient-7">
            <stop stop-color="#FFFFFF" offset="0%"></stop>
            <stop stop-color="#FFFFFF" stop-opacity="0" offset="66%"></stop>
            <stop stop-color="#FFFFFF" stop-opacity="0" offset="100%"></stop>
        </linearGradient>
    </defs>
    <g id="页面" stroke="none" stroke-width="1" fill="none" fill-rule="evenodd">
        <g id="banner_4" transform="translate(-383.000000, -101.000000)">
            <g id="编组-2" transform="translate(50.000000, 30.000000)">
                <g id="banner_4_lock" transform="translate(366.788162, 125.500000) scale(-1, 1) translate(-366.788162, -125.500000) translate(332.788162, 71.000000)">
                    <path d="M64.4487448,33.5073764 C64.2770734,33.3861824 54.1927665,27.5523483 54.0044818,27.4476809 C53.8281448,27.3292204 53.6430198,27.2242512 53.4507032,27.1336785 C51.8779722,26.0649685 49.7514627,26.0704773 47.4145173,27.414628 L8.80507855,49.5876047 C3.9429031,52.3805734 0,59.8725606 0,66.317873 L0,94.3081574 C0,98.0045716 1.29584175,100.549644 3.32267115,101.530213 C3.49988028,101.651407 14.132428,107.804752 14.3207127,107.892893 C15.8989815,108.961603 18.0199532,108.956094 20.3624364,107.611943 L58.9663374,85.4389667 C63.8285128,82.645998 67.7714159,75.1540108 67.7714159,68.7086983 L67.7714159,40.7294316 C67.7658781,37.0330174 66.4700364,34.4824364 64.4487448,33.5073764 Z" id="Shape" fill="url(#radialGradient-1)" fill-rule="nonzero"></path>
                    <path d="M64.4487448,33.5073764 C64.2770734,33.3861824 54.1927665,27.5523483 54.0044818,27.4476809 C53.8281448,27.3292204 53.6430198,27.2242512 53.4507032,27.1336785 C51.8779722,26.0649685 49.7514627,26.0704773 47.4145173,27.414628 L8.80507855,49.5876047 C3.9429031,52.3805734 0,59.8725606 0,66.317873 L0,94.3081574 C0,98.0045716 1.29584175,100.549644 3.32267115,101.530213 C3.49988028,101.651407 14.132428,107.804752 14.3207127,107.892893 C15.8989815,108.961603 18.0199532,108.956094 20.3624364,107.611943 L58.9663374,85.4389667 C63.8285128,82.645998 67.7714159,75.1540108 67.7714159,68.7086983 L67.7714159,40.7294316 C67.7658781,37.0330174 66.4700364,34.4824364 64.4487448,33.5073764 Z" id="Shape" fill="url(#linearGradient-2)" fill-rule="nonzero"></path>
                    <path d="M58.9044655,85.3367411 L20.0293012,107.604491 C15.1329601,110.409397 11.1623509,107.432988 11.1623509,100.965659 L11.1623509,72.8889308 C11.1623509,66.410537 15.1329601,58.8865272 20.0293012,56.0816206 L58.9044655,33.813871 C63.8008067,31.0089644 67.7714159,33.9853741 67.7714159,40.4527031 L67.7714159,68.5515604 C67.7714159,75.0078247 63.8008067,82.5318345 58.9044655,85.3367411 Z" id="Shape" fill="url(#linearGradient-3)" fill-rule="nonzero"></path>
                    <path d="M48.1164684,1.64902553 C45.5345936,0.161629896 40.0273327,-1.6562981 32.1487361,2.87750415 C21.2727269,9.11905694 12.7569724,23.8112205 12.7569724,36.2833083 L12.7569724,52.3086191 L12.7569724,52.3086191 C12.8154048,52.9375932 13.2119167,53.4857458 13.7930466,53.740926 C15.3612728,54.5266488 17.211274,54.5266488 18.7795002,53.740926 C19.6826023,53.223092 19.9928705,52.4959208 19.7158453,51.834856 L19.7158453,36.2833083 C19.7158453,26.3673374 27.001608,13.8291431 35.6281726,8.87666654 C39.1685546,6.84389251 42.4485329,6.39767382 44.6259509,7.64818793 C46.803369,8.89870203 48.0555228,11.9506175 48.0555228,16.0106567 L48.0555228,31.0058083 C47.9283937,31.3070931 47.9283937,31.6465407 48.0555228,31.9478255 L48.0555228,32.0359675 L48.0943064,32.0359675 C48.3021494,32.4079894 48.6138908,32.7122109 48.991868,32.9118782 C50.5600942,33.697601 52.4100954,33.697601 53.9783215,32.9118782 C54.3583447,32.713068 54.6720935,32.4087658 54.8814237,32.0359675 L55.0143958,32.0359675 L55.0143958,16.0106567 C55.0310173,6.96508771 50.7038837,3.13091229 48.1164684,1.64902553 Z" id="Shape" fill="url(#linearGradient-4)" fill-rule="nonzero"></path>
                    <path d="M49.4332681,64.7129471 C49.4332681,61.1462239 46.9315498,59.7042409 43.8520926,61.4848715 C40.7726355,63.265502 38.2709172,67.6242234 38.2709172,71.1909466 C38.2709172,73.6707204 39.4808986,75.1236275 41.2522678,75.1782481 L41.2522678,78.4172478 C41.2522678,80.3344298 42.4186462,81.213821 43.8520926,80.3835883 C45.2855391,79.5533557 46.4464672,77.3302985 46.4464672,75.4131165 L46.4464672,72.1741168 C48.2178363,70.0657628 49.4332681,67.2145691 49.4332681,64.7129471 Z" id="Shape" fill="url(#radialGradient-5)" fill-rule="nonzero"></path>
                    <path d="M49.4332681,64.7129471 C49.4332681,61.1462239 46.9315498,59.7042409 43.8520926,61.4848715 C40.7726355,63.265502 38.2709172,67.6242234 38.2709172,71.1909466 C38.2709172,73.6707204 39.4808986,75.1236275 41.2522678,75.1782481 L41.2522678,78.4172478 C41.2522678,80.3344298 42.4186462,81.213821 43.8520926,80.3835883 C45.2855391,79.5533557 46.4464672,77.3302985 46.4464672,75.4131165 L46.4464672,72.1741168 C48.2178363,70.0657628 49.4332681,67.2145691 49.4332681,64.7129471 Z" id="Shape" stroke="#FFFFFF" stroke-width="0.5" opacity="0.22" style="mix-blend-mode: overlay;"></path>
                    <path d="M39.3074212,73.7053326 L39.3074212,73.5055892 L39.068228,73.5055892 C39.1479591,73.5774968 39.2276901,73.6573942 39.3074212,73.7053326 Z" id="Shape" fill="#4D4D4D" fill-rule="nonzero"></path>
                    <path d="M46.5675874,60.7220084 C47.3761497,61.6007805 47.7887898,62.7676355 47.7105467,63.9540453 C47.7105467,66.4368621 46.4792427,69.2915545 44.6847413,71.4024956 L44.6847413,74.6509388 C44.6847413,76.5650046 43.5086527,78.7962584 42.0564869,79.6220411 C41.869683,79.7313809 41.6691944,79.8159579 41.4601603,79.873604 C41.9074053,80.7048555 42.7742875,80.9673559 43.7792083,80.3767299 C45.231374,79.5454785 46.4074626,77.3196934 46.4074626,75.4001588 L46.4074626,72.1571844 C48.201964,70.0462433 49.4332681,67.1860821 49.4332681,64.7032653 C49.4332681,62.2204485 48.2737441,60.8641962 46.5675874,60.7220084 Z" id="Shape" fill="url(#radialGradient-6)" fill-rule="nonzero"></path>
                    <path d="M63.6391136,70.4841545 L63.4114017,70.3464715 C63.3409194,70.302413 47.9324103,61.209831 47.8565063,61.1712798 C46.8426459,60.5048943 45.4113136,60.5544602 43.8227516,61.4907043 C40.7540619,63.2860899 38.2709172,67.6589004 38.2709172,71.255179 C38.2709172,73.1056378 38.9269445,74.3833356 39.9841786,74.9505894 C40.0576893,74.9987723 40.1337036,75.0428948 40.2118906,75.082765 C40.2828436,75.1320651 40.3571238,75.1762327 40.4341808,75.2149406 L40.6618928,75.3526236 L40.8896047,75.4847992 L41.111895,75.6169748 L41.2365944,75.68857 L41.2365944,78.5413607 C41.2365944,79.6428243 41.6269577,80.4303707 42.2341896,80.7167513 C42.3062827,80.7672629 42.3824591,80.8114796 42.4619016,80.8489269 C42.5323838,80.9040001 57.713181,89.8533918 57.789085,89.891943 C57.8599268,89.944446 57.9363009,89.9887774 58.016797,90.0241186 C58.5730156,90.3898519 59.2939673,90.3679257 59.8276492,89.9690454 C61.2535598,89.1319331 62.4083847,86.8904547 62.4083847,84.9573861 L62.4083847,81.6915465 C64.1758632,79.5657218 65.3794836,76.6909018 65.3794836,74.1850722 C65.3794836,72.3235987 64.7071911,71.0403936 63.6391136,70.4841545 Z" id="Shape" fill="url(#linearGradient-7)" fill-rule="nonzero" opacity="0.9" style="mix-blend-mode: overlay;"></path>
                </g>
            </g>
        </g>
    </g>
</svg>