<?xml version="1.0" encoding="UTF-8"?>
<svg width="143px" height="181px" viewBox="0 0 143 181" version="1.1" xmlns="http://www.w3.org/2000/svg" xmlns:xlink="http://www.w3.org/1999/xlink">
    <!-- Generator: Sketch 54.1 (76490) - https://sketchapp.com -->
    <title>banner_1_front</title>
    <desc>Created with Sketch.</desc>
    <defs>
        <radialGradient cx="50%" cy="49.9986462%" fx="50%" fy="49.9986462%" r="56.9163113%" gradientTransform="translate(0.500000,0.499986),scale(1.000000,0.790527),translate(-0.500000,-0.499986)" id="radialGradient-1">
            <stop stop-color="#683FCE" offset="0%"></stop>
            <stop stop-color="#72BEED" offset="100%"></stop>
        </radialGradient>
        <linearGradient x1="81.087007%" y1="100%" x2="18.912993%" y2="0%" id="linearGradient-2">
            <stop stop-color="#533BF5" offset="0%"></stop>
            <stop stop-color="#14EAFB" offset="100%"></stop>
        </linearGradient>
        <radialGradient cx="50.1286359%" cy="49.8342806%" fx="50.1286359%" fy="49.8342806%" r="71.0162611%" gradientTransform="translate(0.501286,0.498343),scale(1.000000,0.576317),rotate(30.033374),translate(-0.501286,-0.498343)" id="radialGradient-3">
            <stop stop-color="#FFFFFF" offset="52%"></stop>
            <stop stop-color="#FFFFFF" stop-opacity="0.11" offset="87%"></stop>
            <stop stop-color="#FFFFFF" stop-opacity="0" offset="100%"></stop>
        </radialGradient>
        <radialGradient cx="-6254.67625%" cy="-164.364424%" fx="-6254.67625%" fy="-164.364424%" r="9725.93729%" gradientTransform="translate(-62.546763,-1.643644),scale(1.000000,0.101182),translate(62.546763,1.643644)" id="radialGradient-4">
            <stop stop-color="#BFA8FB" offset="0%"></stop>
            <stop stop-color="#9DCCFC" offset="100%"></stop>
        </radialGradient>
        <radialGradient cx="-6464.56235%" cy="-166.449646%" fx="-6464.56235%" fy="-166.449646%" r="9678.14053%" gradientTransform="translate(-64.645623,-1.664496),scale(1.000000,0.139883),translate(64.645623,1.664496)" id="radialGradient-5">
            <stop stop-color="#BFA8FB" offset="0%"></stop>
            <stop stop-color="#9DCCFC" offset="100%"></stop>
        </radialGradient>
        <radialGradient cx="-6249.71337%" cy="-168.05235%" fx="-6249.71337%" fy="-168.05235%" r="9238.15224%" gradientTransform="translate(-62.497134,-1.680523),scale(1.000000,0.178521),translate(62.497134,1.680523)" id="radialGradient-6">
            <stop stop-color="#BFA8FB" offset="0%"></stop>
            <stop stop-color="#9DCCFC" offset="100%"></stop>
        </radialGradient>
        <radialGradient cx="-6190.19742%" cy="-166.597253%" fx="-6190.19742%" fy="-166.597253%" r="9243.13817%" gradientTransform="translate(-61.901974,-1.665973),scale(1.000000,0.150614),translate(61.901974,1.665973)" id="radialGradient-7">
            <stop stop-color="#BFA8FB" offset="0%"></stop>
            <stop stop-color="#9DCCFC" offset="100%"></stop>
        </radialGradient>
        <radialGradient cx="-6323.83846%" cy="-167.274543%" fx="-6323.83846%" fy="-167.274543%" r="9387.54309%" gradientTransform="translate(-63.238385,-1.672745),scale(1.000000,0.161579),translate(63.238385,1.672745)" id="radialGradient-8">
            <stop stop-color="#BFA8FB" offset="0%"></stop>
            <stop stop-color="#9DCCFC" offset="100%"></stop>
        </radialGradient>
        <radialGradient cx="-6463.17093%" cy="-168.534371%" fx="-6463.17093%" fy="-168.534371%" r="9521.86631%" gradientTransform="translate(-64.631709,-1.685344),scale(1.000000,0.182479),translate(64.631709,1.685344)" id="radialGradient-9">
            <stop stop-color="#BFA8FB" offset="0%"></stop>
            <stop stop-color="#9DCCFC" offset="100%"></stop>
        </radialGradient>
        <radialGradient cx="-6184.0164%" cy="-165.85834%" fx="-6184.0164%" fy="-165.85834%" r="9332.39544%" gradientTransform="translate(-61.840164,-1.658583),scale(1.000000,0.133468),translate(61.840164,1.658583)" id="radialGradient-10">
            <stop stop-color="#BFA8FB" offset="0%"></stop>
            <stop stop-color="#9DCCFC" offset="100%"></stop>
        </radialGradient>
        <radialGradient cx="-6392.98217%" cy="-167.317519%" fx="-6392.98217%" fy="-167.317519%" r="9483.88253%" gradientTransform="translate(-63.929822,-1.673175),scale(1.000000,0.161703),translate(63.929822,1.673175)" id="radialGradient-11">
            <stop stop-color="#BFA8FB" offset="0%"></stop>
            <stop stop-color="#9DCCFC" offset="100%"></stop>
        </radialGradient>
        <radialGradient cx="-6320.97839%" cy="-167.320938%" fx="-6320.97839%" fy="-167.320938%" r="9379.0473%" gradientTransform="translate(-63.209784,-1.673209),scale(1.000000,0.163549),translate(63.209784,1.673209)" id="radialGradient-12">
            <stop stop-color="#BFA8FB" offset="0%"></stop>
            <stop stop-color="#9DCCFC" offset="100%"></stop>
        </radialGradient>
        <radialGradient cx="-6250.7932%" cy="-167.305387%" fx="-6250.7932%" fy="-167.305387%" r="9277.88995%" gradientTransform="translate(-62.507932,-1.673054),scale(1.000000,0.165293),translate(62.507932,1.673054)" id="radialGradient-13">
            <stop stop-color="#BFA8FB" offset="0%"></stop>
            <stop stop-color="#9DCCFC" offset="100%"></stop>
        </radialGradient>
        <radialGradient cx="-6325.36698%" cy="-159.65928%" fx="-6325.36698%" fy="-159.65928%" r="9380.33719%" gradientTransform="translate(-63.253670,-1.596593),scale(1.000000,0.156005),translate(63.253670,1.596593)" id="radialGradient-14">
            <stop stop-color="#BFA8FB" offset="0%"></stop>
            <stop stop-color="#9DCCFC" offset="100%"></stop>
        </radialGradient>
        <radialGradient cx="-6185.08469%" cy="-159.631862%" fx="-6185.08469%" fy="-159.631862%" r="9241.59052%" gradientTransform="translate(-61.850847,-1.596319),scale(1.000000,0.144345),translate(61.850847,1.596319)" id="radialGradient-15">
            <stop stop-color="#BFA8FB" offset="0%"></stop>
            <stop stop-color="#9DCCFC" offset="100%"></stop>
        </radialGradient>
        <radialGradient cx="-6461.88352%" cy="-164.64132%" fx="-6461.88352%" fy="-164.64132%" r="9992.67898%" gradientTransform="translate(-64.618835,-1.646413),scale(1.000000,0.102228),translate(64.618835,1.646413)" id="radialGradient-16">
            <stop stop-color="#BFA8FB" offset="0%"></stop>
            <stop stop-color="#9DCCFC" offset="100%"></stop>
        </radialGradient>
        <radialGradient cx="-6251.87303%" cy="-163.176539%" fx="-6251.87303%" fy="-163.176539%" r="10266.7973%" gradientTransform="translate(-62.518730,-1.631765),scale(1.000000,0.075292),translate(62.518730,1.631765)" id="radialGradient-17">
            <stop stop-color="#BFA8FB" offset="0%"></stop>
            <stop stop-color="#9DCCFC" offset="100%"></stop>
        </radialGradient>
        <radialGradient cx="-6190.19742%" cy="-165.709986%" fx="-6190.19742%" fy="-165.709986%" r="9373.91915%" gradientTransform="translate(-61.901974,-1.657100),scale(1.000000,0.127515),translate(61.901974,1.657100)" id="radialGradient-18">
            <stop stop-color="#BFA8FB" offset="0%"></stop>
            <stop stop-color="#9DCCFC" offset="100%"></stop>
        </radialGradient>
        <radialGradient cx="-6536.1782%" cy="-164.494991%" fx="-6536.1782%" fy="-164.494991%" r="10114.9556%" gradientTransform="translate(-65.361782,-1.644950),scale(1.000000,0.100341),translate(65.361782,1.644950)" id="radialGradient-19">
            <stop stop-color="#BFA8FB" offset="0%"></stop>
            <stop stop-color="#9DCCFC" offset="100%"></stop>
        </radialGradient>
        <radialGradient cx="-1580.82524%" cy="-36.1875888%" fx="-1580.82524%" fy="-36.1875888%" r="5501.45631%" gradientTransform="translate(-15.808252,-0.361876),scale(1.000000,0.090088),translate(15.808252,0.361876)" id="radialGradient-20">
            <stop stop-color="#683FCE" offset="0%"></stop>
            <stop stop-color="#72BEED" offset="100%"></stop>
        </radialGradient>
        <radialGradient cx="-1809.20097%" cy="-43.7684014%" fx="-1809.20097%" fy="-43.7684014%" r="5488.13559%" gradientTransform="translate(-18.092010,-0.437684),scale(1.000000,0.128999),translate(18.092010,0.437684)" id="radialGradient-21">
            <stop stop-color="#683FCE" offset="0%"></stop>
            <stop stop-color="#72BEED" offset="100%"></stop>
        </radialGradient>
        <radialGradient cx="-2041.40436%" cy="-43.6978598%" fx="-2041.40436%" fy="-43.6978598%" r="5488.13559%" gradientTransform="translate(-20.414044,-0.436979),scale(1.000000,0.159410),translate(20.414044,0.436979)" id="radialGradient-22">
            <stop stop-color="#683FCE" offset="0%"></stop>
            <stop stop-color="#72BEED" offset="100%"></stop>
        </radialGradient>
        <radialGradient cx="-2279.36893%" cy="-18.5191108%" fx="-2279.36893%" fy="-18.5191108%" r="5501.45631%" gradientTransform="translate(-22.793689,-0.185191),scale(1.000000,0.132676),translate(22.793689,0.185191)" id="radialGradient-23">
            <stop stop-color="#683FCE" offset="0%"></stop>
            <stop stop-color="#72BEED" offset="100%"></stop>
        </radialGradient>
        <radialGradient cx="-3676.21359%" cy="-178.4838%" fx="-3676.21359%" fy="-178.4838%" r="5501.45631%" gradientTransform="translate(-36.762136,-1.784838),scale(1.000000,0.145480),translate(36.762136,1.784838)" id="radialGradient-24">
            <stop stop-color="#683FCE" offset="0%"></stop>
            <stop stop-color="#72BEED" offset="100%"></stop>
        </radialGradient>
        <radialGradient cx="-3899.75787%" cy="-288.008274%" fx="-3899.75787%" fy="-288.008274%" r="5488.13559%" gradientTransform="translate(-38.997579,-2.880083),scale(1.000000,0.168325),translate(38.997579,2.880083)" id="radialGradient-25">
            <stop stop-color="#683FCE" offset="0%"></stop>
            <stop stop-color="#72BEED" offset="100%"></stop>
        </radialGradient>
        <radialGradient cx="-4131.96126%" cy="-217.2937%" fx="-4131.96126%" fy="-217.2937%" r="5488.13559%" gradientTransform="translate(-41.319613,-2.172937),scale(1.000000,0.117818),translate(41.319613,2.172937)" id="radialGradient-26">
            <stop stop-color="#683FCE" offset="0%"></stop>
            <stop stop-color="#72BEED" offset="100%"></stop>
        </radialGradient>
        <radialGradient cx="-4375%" cy="-278.299665%" fx="-4375%" fy="-278.299665%" r="5501.45631%" gradientTransform="translate(-43.750000,-2.782997),scale(1.000000,0.147274),translate(43.750000,2.782997)" id="radialGradient-27">
            <stop stop-color="#683FCE" offset="0%"></stop>
            <stop stop-color="#72BEED" offset="100%"></stop>
        </radialGradient>
        <radialGradient cx="-4596.61017%" cy="-253.887818%" fx="-4596.61017%" fy="-253.887818%" r="5488.13559%" gradientTransform="translate(-45.966102,-2.538878),scale(1.000000,0.147609),translate(45.966102,2.538878)" id="radialGradient-28">
            <stop stop-color="#683FCE" offset="0%"></stop>
            <stop stop-color="#72BEED" offset="100%"></stop>
        </radialGradient>
        <radialGradient cx="-4829.29782%" cy="-230.557414%" fx="-4829.29782%" fy="-230.557414%" r="5488.13559%" gradientTransform="translate(-48.292978,-2.305574),scale(1.000000,0.147632),translate(48.292978,2.305574)" id="radialGradient-29">
            <stop stop-color="#683FCE" offset="0%"></stop>
            <stop stop-color="#72BEED" offset="100%"></stop>
        </radialGradient>
        <radialGradient cx="-5073.54369%" cy="-211.773681%" fx="-5073.54369%" fy="-211.773681%" r="5501.45631%" gradientTransform="translate(-50.735437,-2.117737),scale(1.000000,0.147222),translate(50.735437,2.117737)" id="radialGradient-30">
            <stop stop-color="#683FCE" offset="0%"></stop>
            <stop stop-color="#72BEED" offset="100%"></stop>
        </radialGradient>
        <radialGradient cx="-3435.10896%" cy="-86.0957735%" fx="-3435.10896%" fy="-86.0957735%" r="5488.13559%" gradientTransform="translate(-34.351090,-0.860958),scale(1.000000,0.133040),translate(34.351090,0.860958)" id="radialGradient-31">
            <stop stop-color="#683FCE" offset="0%"></stop>
            <stop stop-color="#72BEED" offset="100%"></stop>
        </radialGradient>
        <radialGradient cx="-2505.0837%" cy="-25.8534274%" fx="-2505.0837%" fy="-25.8534274%" r="5488.1333%" gradientTransform="translate(-25.050837,-0.258534),scale(1.000000,0.094276),translate(25.050837,0.258534)" id="radialGradient-32">
            <stop stop-color="#683FCE" offset="0%"></stop>
            <stop stop-color="#72BEED" offset="100%"></stop>
        </radialGradient>
        <radialGradient cx="-2738.25666%" cy="-28.7475869%" fx="-2738.25666%" fy="-28.7475869%" r="5488.13559%" gradientTransform="translate(-27.382567,-0.287476),scale(1.000000,0.067182),translate(27.382567,0.287476)" id="radialGradient-33">
            <stop stop-color="#683FCE" offset="0%"></stop>
            <stop stop-color="#72BEED" offset="100%"></stop>
        </radialGradient>
        <radialGradient cx="-2977.91262%" cy="-63.3102197%" fx="-2977.91262%" fy="-63.3102197%" r="5501.45631%" gradientTransform="translate(-29.779126,-0.633102),scale(1.000000,0.112297),translate(29.779126,0.633102)" id="radialGradient-34">
            <stop stop-color="#683FCE" offset="0%"></stop>
            <stop stop-color="#72BEED" offset="100%"></stop>
        </radialGradient>
        <radialGradient cx="-3202.90557%" cy="-32.8894337%" fx="-3202.90557%" fy="-32.8894337%" r="5488.13559%" gradientTransform="translate(-32.029056,-0.328894),scale(1.000000,0.093615),translate(32.029056,0.328894)" id="radialGradient-35">
            <stop stop-color="#683FCE" offset="0%"></stop>
            <stop stop-color="#72BEED" offset="100%"></stop>
        </radialGradient>
    </defs>
    <g id="页面" stroke="none" stroke-width="1" fill="none" fill-rule="evenodd">
        <g id="banner_1" transform="translate(-149.000000, -25.000000)">
            <g id="编组-13" transform="translate(150.000000, -0.000000)">
                <g id="banner_1_front" transform="translate(0.000000, 25.883249)">
                    <path d="M140.014637,179.247828 C139.472921,178.950976 5.33815644e-06,98.2323936 5.33815644e-06,98.2323936 L5.33815644e-06,2.93014853 C5.33815644e-06,0.81428584 1.21571633,-0.859456285 3.65343732,0.479537415 L138.937504,78.7980369 C140.518558,79.713858 141.803559,82.1707852 141.803559,84.2866478 L141.803559,178.53412 C141.803559,179.077296 140.726426,179.639421 140.014637,179.247828 Z" id="Shape" fill="url(#radialGradient-1)" fill-rule="nonzero"></path>
                    <path d="M139.825666,179.159404 L0.396843639,98.4408218 C0.150553833,98.2997602 -0.00103664002,98.0367773 5.33726231e-06,97.7523769 L5.33726231e-06,2.93014853 C5.33726231e-06,0.81428584 1.25980947,-0.158379395 2.86605974,0.757441768 L138.169024,79.0759412 C139.750078,79.9917624 141.035078,82.4486895 141.035078,84.5645522 L141.035078,178.445695 C141.048501,178.740337 140.898302,179.018257 140.644794,179.16786 C140.391286,179.317462 140.076049,179.314208 139.825666,179.159404 L139.825666,179.159404 Z" id="Shape" fill="url(#linearGradient-2)" fill-rule="nonzero"></path>
                    <path d="M139.825666,179.159404 L0.396843639,98.4408218 C0.150553833,98.2997602 -0.00103664002,98.0367773 5.33726231e-06,97.7523769 L5.33726231e-06,2.93014853 C5.33726231e-06,0.81428584 1.25980947,-0.158379395 2.86605974,0.757441768 L138.169024,79.0759412 C139.750078,79.9917624 141.035078,82.4486895 141.035078,84.5645522 L141.035078,178.445695 C141.048501,178.740337 140.898302,179.018257 140.644794,179.16786 C140.391286,179.317462 140.076049,179.314208 139.825666,179.159404 L139.825666,179.159404 Z" id="Shape" stroke="#FFFFFF" stroke-width="0.5" opacity="0.22" style="mix-blend-mode: overlay;"></path>
                    <polygon id="Shape" fill="#D9F1FF" fill-rule="nonzero" points="136.084048 172.55286 3.38257943 95.7312544 3.38257943 7.51557035 136.084048 84.3434919"></polygon>
                    <polygon id="Shape" stroke="#FFFFFF" stroke-width="0.5" opacity="0.22" style="mix-blend-mode: overlay;" points="136.084048 172.55286 3.38257943 95.7312544 3.38257943 7.51557035 136.084048 84.3434919"></polygon>
                    <ellipse id="Oval" fill="url(#radialGradient-3)" fill-rule="nonzero" opacity="0.3" style="mix-blend-mode: overlay;" transform="translate(70.803121, 43.322584) rotate(-30.000000) translate(-70.803121, -43.322584) " cx="70.8031206" cy="43.3225839" rx="1" ry="1.43277012"></ellipse>
                    <path d="M23.2496906,66.8355177 L22.0339796,66.1344408 C21.8877236,66.0270242 21.688912,66.0270242 21.542656,66.1344408 L21.5111609,66.1344408 C21.5111609,66.1344408 21.5111609,66.1344408 21.5111609,66.1344408 L21.5111609,66.1344408 L21.4796658,66.1344408 L21.4796658,66.1344408 L21.4796658,66.1344408 L21.4796658,66.1344408 L21.4796658,66.1344408 L21.4796658,66.1344408 L21.4796658,66.1344408 L21.4796658,66.1344408 L21.4796658,66.1344408 C21.4796658,66.1344408 21.4796658,66.1344408 21.4796658,66.1344408 L21.4796658,66.1344408 L21.4796658,66.1344408 L21.4481707,66.1344408 L21.4481707,66.1344408 L21.4481707,66.1344408 L21.4481707,66.1344408 L21.4481707,66.1344408 L21.4166756,66.1344408 L21.4166756,66.1344408 L21.4166756,66.1344408 L21.3851805,66.1344408 L21.3851805,66.1344408 L21.3851805,66.1344408 L21.3851805,66.1344408 L21.3851805,66.1344408 L21.3851805,66.1344408 L21.3851805,66.1344408 L21.3851805,66.1344408 L21.3851805,66.1344408 L21.3851805,66.1344408 L21.3851805,66.1344408 L21.3851805,66.1344408 L21.3851805,66.1344408 L21.3851805,66.1344408 L21.3851805,66.1344408 L21.3851805,66.1344408 L21.3851805,66.1344408 L21.3536854,66.1344408 C21.3536854,66.1344408 21.3536854,66.1344408 21.3536854,66.1344408 L21.3536854,66.1344408 L21.3221903,66.1344408 L21.3221903,66.1344408 L21.3221903,66.1344408 L21.3221903,66.1344408 L21.3221903,66.1344408 L21.3221903,66.1344408 L21.3221903,66.1344408 C21.1599545,66.2682345 21.0749095,66.4743144 21.0954255,66.6839335 L21.0954255,92.7690466 C21.1022884,93.2966477 21.3596701,93.789338 21.7883178,94.0954083 L22.9977298,94.7964852 C23.1471918,94.9011189 23.3458904,94.9011189 23.4953524,94.7964852 L23.4953524,94.7964852 L23.5268475,94.7964852 C23.5268475,94.7964852 23.5268475,94.7964852 23.5268475,94.7964852 L23.5268475,94.7964852 L23.5268475,94.7964852 L23.5268475,94.7964852 L23.5268475,94.7964852 L23.5268475,94.7964852 L23.5268475,94.7964852 L23.5268475,94.7964852 L23.5268475,94.7964852 L23.5268475,94.7964852 L23.5268475,94.7964852 L23.5583426,94.7964852 L23.5583426,94.7964852 L23.5583426,94.7964852 L23.5898377,94.7964852 L23.5898377,94.7964852 L23.6213328,94.7964852 L23.6213328,94.7964852 L23.6213328,94.7964852 L23.6528279,94.7964852 L23.6528279,94.7964852 L23.6528279,94.7964852 C23.6528279,94.7964852 23.6528279,94.7964852 23.6528279,94.7964852 L23.6528279,94.7964852 L23.6528279,94.7964852 L23.6528279,94.7964852 L23.6528279,94.7964852 L23.6528279,94.7964852 L23.6528279,94.7964852 L23.6528279,94.7964852 L23.6528279,94.7964852 L23.684323,94.7964852 L23.684323,94.7964852 L23.684323,94.7964852 L23.7158181,94.7964852 L23.7158181,94.7964852 L23.7473132,94.7964852 L23.7473132,94.7964852 L23.7473132,94.7964852 L23.7788084,94.7964852 C23.7788084,94.7964852 23.7788084,94.7964852 23.7788084,94.7964852 L23.7788084,94.7964852 L23.7788084,94.7964852 L23.7788084,94.7964852 L23.7788084,94.7964852 L23.7788084,94.7964852 L23.7788084,94.7964852 L23.7788084,94.7964852 C23.9410441,94.6626915 24.0260892,94.4566116 24.0055731,94.2469925 L24.0055731,68.1681954 C23.9843001,67.627275 23.7024625,67.1303741 23.2496906,66.8355177 Z" id="Shape" fill="url(#radialGradient-4)" fill-rule="nonzero"></path>
                    <path d="M29.2904514,65.2438837 L28.0810395,64.5364908 C27.9304797,64.4354168 27.7339766,64.4354168 27.5834168,64.5364908 L27.5834168,64.5364908 L27.5834168,64.5364908 L27.5834168,64.5364908 L27.5834168,64.5364908 L27.5834168,64.5364908 L27.5834168,64.5364908 L27.5834168,64.5364908 L27.5834168,64.5364908 L27.5834168,64.5364908 L27.5834168,64.5364908 L27.5834168,64.5364908 L27.5519217,64.5364908 L27.5519217,64.5364908 C27.5519217,64.5364908 27.5519217,64.5364908 27.5519217,64.5364908 L27.5204266,64.5364908 L27.5204266,64.5364908 L27.5204266,64.5364908 L27.5204266,64.5364908 L27.5204266,64.5364908 L27.4889315,64.5364908 L27.4889315,64.5364908 L27.4889315,64.5364908 L27.4889315,64.5364908 L27.4889315,64.5364908 L27.4889315,64.5364908 L27.4889315,64.5364908 L27.4889315,64.5364908 L27.4889315,64.5364908 L27.4889315,64.5364908 L27.4889315,64.5364908 L27.4889315,64.5364908 L27.4574364,64.5364908 L27.4574364,64.5364908 L27.4574364,64.5364908 L27.4259413,64.5364908 L27.4259413,64.5364908 L27.3944462,64.5364908 L27.3944462,64.5364908 L27.3944462,64.5364908 L27.3629511,64.5364908 L27.3629511,64.5364908 L27.3629511,64.5364908 C27.3629511,64.5364908 27.3629511,64.5364908 27.3629511,64.5364908 L27.3629511,64.5364908 L27.3629511,64.5364908 L27.3629511,64.5364908 L27.3629511,64.5364908 L27.3629511,64.5364908 L27.3629511,64.5364908 L27.3629511,64.5364908 C27.2007154,64.6702845 27.1156703,64.8763644 27.1361864,65.0859835 L27.1361864,82.5181656 C27.1440785,83.0472379 27.4010111,83.5414105 27.8290786,83.8508433 L29.0447896,84.5519202 C29.1910457,84.6593368 29.3898572,84.6593368 29.5361132,84.5519202 L29.5361132,84.5519202 L29.5361132,84.5519202 L29.5676083,84.5519202 L29.5676083,84.5519202 L29.5676083,84.5519202 L29.5991034,84.5519202 L29.5991034,84.5519202 L29.5991034,84.5519202 C29.5991034,84.5519202 29.5991034,84.5519202 29.5991034,84.5519202 L29.5991034,84.5519202 L29.5991034,84.5519202 L29.5991034,84.5519202 L29.5991034,84.5519202 L29.5991034,84.5519202 L29.5991034,84.5519202 L29.5991034,84.5519202 L29.5991034,84.5519202 L29.5991034,84.5519202 L29.5991034,84.5519202 L29.5991034,84.5519202 L29.5991034,84.5519202 L29.5991034,84.5519202 L29.6305986,84.5519202 L29.6305986,84.5519202 L29.6305986,84.5519202 L29.6620937,84.5519202 C29.6620937,84.5519202 29.6620937,84.5519202 29.6620937,84.5519202 L29.6620937,84.5519202 L29.6620937,84.5519202 L29.6620937,84.5519202 L29.6620937,84.5519202 L29.6620937,84.5519202 L29.6620937,84.5519202 L29.6620937,84.5519202 L29.6620937,84.5519202 L29.6620937,84.5519202 L29.6620937,84.5519202 L29.6620937,84.5519202 L29.6620937,84.5519202 L29.6620937,84.5519202 L29.6620937,84.5519202 L29.6620937,84.5519202 L29.6935888,84.5519202 L29.6935888,84.5519202 C29.6935888,84.5519202 29.6935888,84.5519202 29.6935888,84.5519202 L29.7250839,84.5519202 L29.7250839,84.5519202 L29.7250839,84.5519202 L29.7250839,84.5519202 L29.7250839,84.5519202 C29.8873196,84.4181265 29.9723647,84.2120466 29.9518486,84.0024275 L29.9518486,66.5702453 C29.9523454,66.0482753 29.7072025,65.5566671 29.2904514,65.2438837 Z" id="Shape" fill="url(#radialGradient-5)" fill-rule="nonzero"></path>
                    <path d="M35.3312123,63.5448775 L34.1218003,62.8627486 C33.9735684,62.7542643 33.7724095,62.7542643 33.6241777,62.8627486 L33.6241777,62.8627486 L33.6241777,62.8627486 L33.5926825,62.8627486 L33.5926825,62.8627486 L33.5611874,62.8627486 L33.5611874,62.8627486 L33.5611874,62.8627486 L33.5296923,62.8627486 L33.5296923,62.8627486 L33.5296923,62.8627486 L33.5296923,62.8627486 C33.5296923,62.8627486 33.5296923,62.8627486 33.5296923,62.8627486 L33.5296923,62.8627486 L33.5296923,62.8627486 L33.5296923,62.8627486 L33.5296923,62.8627486 L33.5296923,62.8627486 L33.5296923,62.8627486 L33.5296923,62.8627486 L33.4981972,62.8627486 L33.4981972,62.8627486 L33.4981972,62.8627486 L33.4667021,62.8627486 L33.4667021,62.8627486 L33.435207,62.8627486 L33.435207,62.8627486 L33.435207,62.8627486 L33.4037119,62.8627486 L33.4037119,62.8627486 L33.4037119,62.8627486 L33.4037119,62.8627486 L33.4037119,62.8627486 L33.4037119,62.8627486 C33.4037119,62.8627486 33.4037119,62.8627486 33.4037119,62.8627486 L33.4037119,62.8627486 L33.4037119,62.8627486 L33.4037119,62.8627486 L33.4037119,62.8627486 L33.4037119,62.8627486 L33.3722168,62.8627486 C33.3722168,62.8627486 33.3722168,62.8627486 33.3722168,62.8627486 L33.3722168,62.8627486 L33.3407217,62.8627486 L33.3407217,62.8627486 L33.3092266,62.8627486 L33.3092266,62.8627486 L33.3092266,62.8627486 L33.2777315,62.8627486 L33.2777315,62.8627486 L33.2777315,62.8627486 C33.1178376,62.9978669 33.0352383,63.203739 33.0572658,63.4122413 L33.0572658,77.0042906 C33.0641563,77.5336164 33.3213097,78.0282137 33.7501581,78.3369683 L34.95957,79.0380452 C35.1078019,79.1465295 35.3089608,79.1465295 35.4571927,79.0380452 L35.4571927,79.0380452 L35.4571927,79.0380452 L35.4571927,79.0380452 L35.4571927,79.0380452 L35.4571927,79.0380452 C35.4571927,79.0380452 35.4571927,79.0380452 35.4571927,79.0380452 L35.4886878,79.0380452 L35.4886878,79.0380452 L35.4886878,79.0380452 L35.5201829,79.0380452 L35.5201829,79.0380452 L35.551678,79.0380452 C35.551678,79.0380452 35.551678,79.0380452 35.551678,79.0380452 L35.551678,79.0380452 L35.5831731,79.0380452 L35.5831731,79.0380452 L35.5831731,79.0380452 L35.5831731,79.0380452 L35.5831731,79.0380452 L35.5831731,79.0380452 L35.5831731,79.0380452 L35.5831731,79.0380452 L35.5831731,79.0380452 C35.5831731,79.0380452 35.5831731,79.0380452 35.5831731,79.0380452 L35.5831731,79.0380452 L35.5831731,79.0380452 L35.6146682,79.0380452 L35.6146682,79.0380452 L35.6146682,79.0380452 L35.6461633,79.0380452 C35.6461633,79.0380452 35.6461633,79.0380452 35.6461633,79.0380452 L35.6776584,79.0380452 L35.6776584,79.0380452 L35.6776584,79.0380452 L35.7091535,79.0380452 L35.7091535,79.0380452 L35.7091535,79.0380452 L35.7091535,79.0380452 L35.7091535,79.0380452 L35.7091535,79.0380452 L35.7091535,79.0380452 L35.7091535,79.0380452 L35.7091535,79.0380452 L35.7091535,79.0380452 L35.7091535,79.0380452 L35.7091535,79.0380452 L35.7406486,79.0380452 L35.7406486,79.0380452 L35.7406486,79.0380452 L35.7406486,79.0380452 C35.9028844,78.9042515 35.9879294,78.6981716 35.9674133,78.4885525 L35.9674133,64.8712392 C35.9729161,64.353901 35.7377056,63.8635308 35.3312123,63.5448775 Z" id="Shape" fill="url(#radialGradient-6)" fill-rule="nonzero"></path>
                    <path d="M41.3782721,60.0521251 L40.1625611,59.3510482 C40.0163051,59.2436316 39.8174935,59.2436316 39.6712375,59.3510482 L39.6712375,59.3510482 L39.6712375,59.3510482 L39.6712375,59.3510482 L39.6712375,59.3510482 L39.6712375,59.3510482 L39.6712375,59.3510482 L39.6712375,59.3510482 L39.6712375,59.3510482 L39.6712375,59.3510482 L39.6712375,59.3510482 L39.6397424,59.3510482 L39.6397424,59.3510482 L39.6397424,59.3510482 L39.6397424,59.3510482 C39.6397424,59.3510482 39.6397424,59.3510482 39.6397424,59.3510482 L39.6082473,59.3510482 L39.6082473,59.3510482 L39.6082473,59.3510482 L39.5767522,59.3510482 L39.5767522,59.3510482 L39.5767522,59.3510482 L39.5767522,59.3510482 L39.5767522,59.3510482 L39.5767522,59.3510482 L39.5767522,59.3510482 L39.5767522,59.3510482 L39.5767522,59.3510482 L39.5767522,59.3510482 L39.5767522,59.3510482 L39.5767522,59.3510482 L39.5767522,59.3510482 L39.5767522,59.3510482 C39.5767522,59.3510482 39.5767522,59.3510482 39.5767522,59.3510482 L39.5767522,59.3510482 L39.5767522,59.3510482 L39.5452571,59.3510482 C39.5452571,59.3510482 39.5452571,59.3510482 39.5452571,59.3510482 L39.5452571,59.3510482 L39.513762,59.3510482 L39.513762,59.3510482 L39.513762,59.3510482 L39.513762,59.3510482 L39.513762,59.3510482 L39.513762,59.3510482 L39.513762,59.3510482 L39.513762,59.3510482 L39.513762,59.3510482 L39.513762,59.3510482 L39.513762,59.3510482 L39.513762,59.3510482 C39.3515262,59.4848419 39.2664811,59.6909218 39.2869972,59.9005409 L39.2869972,76.7327022 C39.2938601,77.2603033 39.5512418,77.7529936 39.9798895,78.0590639 L41.1893015,78.7601408 C41.3375333,78.8686252 41.5386922,78.8686252 41.6869241,78.7601408 C41.6869241,78.7601408 41.6869241,78.7601408 41.6869241,78.7601408 L41.7184192,78.7601408 L41.7184192,78.7601408 L41.7184192,78.7601408 L41.7184192,78.7601408 L41.7184192,78.7601408 L41.7499143,78.7601408 L41.7499143,78.7601408 L41.7499143,78.7601408 L41.7499143,78.7601408 L41.7499143,78.7601408 L41.7499143,78.7601408 L41.7499143,78.7601408 L41.7499143,78.7601408 L41.7499143,78.7601408 L41.7499143,78.7601408 L41.7499143,78.7601408 L41.7499143,78.7601408 L41.7814094,78.7601408 L41.7814094,78.7601408 L41.7814094,78.7601408 L41.8129045,78.7601408 L41.8129045,78.7601408 L41.8443996,78.7601408 L41.8443996,78.7601408 L41.8443996,78.7601408 L41.8758947,78.7601408 L41.8758947,78.7601408 L41.8758947,78.7601408 C41.8758947,78.7601408 41.8758947,78.7601408 41.8758947,78.7601408 L41.8758947,78.7601408 L41.8758947,78.7601408 L41.8758947,78.7601408 L41.8758947,78.7601408 L41.8758947,78.7601408 L41.8758947,78.7601408 L41.8758947,78.7601408 L41.8758947,78.7601408 L41.9073898,78.7601408 L41.9073898,78.7601408 L41.9073898,78.7601408 L41.9388849,78.7601408 L41.9388849,78.7601408 L41.97038,78.7601408 L41.97038,78.7601408 L41.97038,78.7601408 L42.0018751,78.7601408 C42.0018751,78.7601408 42.0018751,78.7601408 42.0018751,78.7601408 L42.0018751,78.7601408 L42.0018751,78.7601408 C42.1641109,78.6263471 42.249156,78.4202672 42.2286399,78.2106481 L42.2286399,61.3784868 C42.1869793,60.8206689 41.8670846,60.3217129 41.3782721,60.0521251 L41.3782721,60.0521251 Z" id="Shape" fill="url(#radialGradient-7)" fill-rule="nonzero"></path>
                    <path d="M77.635435,88.2531009 L76.4386211,87.552024 C76.2923651,87.4446074 76.0935535,87.4446074 75.9472975,87.552024 L75.9158024,87.552024 L75.9158024,87.552024 L75.9158024,87.552024 L75.9158024,87.552024 C75.9158024,87.552024 75.9158024,87.552024 75.9158024,87.552024 L75.8843073,87.552024 L75.8843073,87.552024 L75.8843073,87.552024 L75.8528122,87.552024 L75.8528122,87.552024 L75.8528122,87.552024 C75.8528122,87.552024 75.8528122,87.552024 75.8528122,87.552024 L75.8528122,87.552024 L75.8528122,87.552024 L75.8528122,87.552024 L75.8528122,87.552024 L75.8528122,87.552024 L75.8528122,87.552024 L75.8528122,87.552024 L75.8528122,87.552024 L75.8528122,87.552024 L75.8528122,87.552024 C75.8528122,87.552024 75.8528122,87.552024 75.8528122,87.552024 L75.8528122,87.552024 L75.8528122,87.552024 L75.8213171,87.552024 L75.8213171,87.552024 L75.8213171,87.552024 L75.789822,87.552024 L75.789822,87.552024 L75.789822,87.552024 L75.789822,87.552024 L75.789822,87.552024 L75.789822,87.552024 L75.789822,87.552024 L75.789822,87.552024 L75.789822,87.552024 L75.789822,87.552024 L75.789822,87.552024 L75.789822,87.552024 L75.789822,87.552024 L75.789822,87.552024 L75.789822,87.552024 L75.789822,87.552024 L75.789822,87.552024 L75.7583269,87.552024 L75.7583269,87.552024 L75.7583269,87.552024 L75.7268318,87.552024 L75.7268318,87.552024 C75.564596,87.6858177 75.4795509,87.8918976 75.500067,88.1015167 L75.500067,103.215724 C75.5069299,103.743325 75.7643116,104.236015 76.1929593,104.542086 L77.4023713,105.243162 C77.5506032,105.351647 77.751762,105.351647 77.8999939,105.243162 C77.8999939,105.243162 77.8999939,105.243162 77.8999939,105.243162 L77.8999939,105.243162 L77.8999939,105.243162 L77.8999939,105.243162 L77.8999939,105.243162 L77.8999939,105.243162 L77.8999939,105.243162 L77.8999939,105.243162 L77.931489,105.243162 L77.931489,105.243162 L77.931489,105.243162 L77.9629841,105.243162 L77.9629841,105.243162 L77.9629841,105.243162 L77.9629841,105.243162 L77.9629841,105.243162 L77.9944792,105.243162 L77.9944792,105.243162 L77.9944792,105.243162 L77.9944792,105.243162 L77.9944792,105.243162 L77.9944792,105.243162 L77.9944792,105.243162 L77.9944792,105.243162 L77.9944792,105.243162 L77.9944792,105.243162 L77.9944792,105.243162 L77.9944792,105.243162 L78.0259743,105.243162 C78.0259743,105.243162 78.0259743,105.243162 78.0259743,105.243162 L78.0259743,105.243162 L78.0574694,105.243162 L78.0574694,105.243162 L78.0889645,105.243162 L78.0889645,105.243162 L78.0889645,105.243162 L78.1204596,105.243162 L78.1204596,105.243162 L78.1204596,105.243162 L78.1204596,105.243162 L78.1204596,105.243162 L78.1204596,105.243162 L78.1204596,105.243162 L78.1204596,105.243162 L78.1204596,105.243162 L78.1204596,105.243162 L78.1204596,105.243162 C78.1204596,105.243162 78.1204596,105.243162 78.1204596,105.243162 L78.1519547,105.243162 L78.1519547,105.243162 C78.3141905,105.109369 78.3992356,104.903289 78.3787195,104.69367 L78.3787195,89.5794626 C78.3603562,89.0425783 78.0832203,88.5480401 77.635435,88.2531009 L77.635435,88.2531009 Z" id="Shape" fill="url(#radialGradient-8)" fill-rule="nonzero"></path>
                    <path d="M83.6761959,100.923013 L82.4667839,100.221936 C82.3162241,100.120862 82.1197211,100.120862 81.9691613,100.221936 L81.9691613,100.221936 L81.9691613,100.221936 L81.9691613,100.221936 L81.9691613,100.221936 L81.9691613,100.221936 C81.9691613,100.221936 81.9691613,100.221936 81.9691613,100.221936 L81.9691613,100.221936 L81.9691613,100.221936 L81.9691613,100.221936 L81.9691613,100.221936 L81.9691613,100.221936 L81.9691613,100.221936 L81.9691613,100.221936 L81.9376662,100.221936 L81.9376662,100.221936 L81.9376662,100.221936 L81.9061711,100.221936 L81.9061711,100.221936 L81.9061711,100.221936 L81.9061711,100.221936 L81.9061711,100.221936 L81.874676,100.221936 L81.874676,100.221936 L81.874676,100.221936 L81.874676,100.221936 L81.874676,100.221936 L81.874676,100.221936 C81.874676,100.221936 81.874676,100.221936 81.874676,100.221936 L81.874676,100.221936 L81.874676,100.221936 L81.874676,100.221936 L81.874676,100.221936 L81.874676,100.221936 L81.8431809,100.221936 L81.8431809,100.221936 L81.8431809,100.221936 L81.8116857,100.221936 L81.8116857,100.221936 L81.7801906,100.221936 L81.7801906,100.221936 L81.7801906,100.221936 L81.7486955,100.221936 L81.7486955,100.221936 L81.7486955,100.221936 L81.7486955,100.221936 C81.7486955,100.221936 81.7486955,100.221936 81.7486955,100.221936 L81.7486955,100.221936 L81.7486955,100.221936 L81.7486955,100.221936 L81.7486955,100.221936 C81.5844845,100.35702 81.4992272,100.565989 81.5219308,100.777745 L81.5219308,113.504501 C81.5317976,114.031335 81.7885143,114.522753 82.2148231,114.830863 L83.4305341,115.53194 C83.5767901,115.639356 83.7756016,115.639356 83.9218577,115.53194 L83.9533528,115.53194 L83.9533528,115.53194 L83.9533528,115.53194 L83.9533528,115.53194 L83.9533528,115.53194 L83.9533528,115.53194 C83.9533528,115.53194 83.9533528,115.53194 83.9533528,115.53194 L83.9533528,115.53194 L83.9533528,115.53194 L83.9533528,115.53194 L83.9533528,115.53194 L83.9533528,115.53194 L83.9848479,115.53194 L83.9848479,115.53194 L83.9848479,115.53194 L83.9848479,115.53194 L83.9848479,115.53194 L84.016343,115.53194 L84.016343,115.53194 L84.016343,115.53194 L84.0478381,115.53194 L84.0478381,115.53194 L84.0478381,115.53194 L84.0478381,115.53194 L84.0478381,115.53194 L84.0478381,115.53194 L84.0478381,115.53194 L84.0478381,115.53194 L84.0478381,115.53194 L84.0478381,115.53194 L84.0478381,115.53194 L84.0478381,115.53194 L84.0478381,115.53194 L84.0478381,115.53194 L84.0478381,115.53194 L84.0478381,115.53194 L84.0478381,115.53194 L84.0793332,115.53194 L84.0793332,115.53194 L84.0793332,115.53194 L84.1108283,115.53194 L84.1108283,115.53194 L84.1108283,115.53194 L84.1108283,115.53194 L84.1108283,115.53194 L84.1108283,115.53194 L84.1108283,115.53194 L84.1108283,115.53194 L84.1108283,115.53194 L84.1108283,115.53194 C84.273064,115.398146 84.3581091,115.192066 84.337593,114.982447 L84.337593,102.255691 C84.3380901,101.731966 84.0931559,101.238438 83.6761959,100.923013 Z" id="Shape" fill="url(#radialGradient-9)" fill-rule="nonzero"></path>
                    <path d="M89.7169567,104.396817 L88.5075447,103.69574 C88.3580827,103.591107 88.1593841,103.591107 88.0099221,103.69574 L88.0099221,103.69574 L88.0099221,103.69574 L88.0099221,103.69574 L88.0099221,103.69574 L87.978427,103.69574 L87.978427,103.69574 L87.978427,103.69574 L87.9469319,103.69574 L87.9469319,103.69574 L87.9154368,103.69574 L87.9154368,103.69574 L87.9154368,103.69574 L87.8839417,103.69574 C87.8839417,103.69574 87.8839417,103.69574 87.8839417,103.69574 L87.8839417,103.69574 L87.8839417,103.69574 L87.8839417,103.69574 L87.8839417,103.69574 L87.8839417,103.69574 L87.8839417,103.69574 L87.8839417,103.69574 L87.8839417,103.69574 L87.8839417,103.69574 L87.8839417,103.69574 L87.8524466,103.69574 L87.8524466,103.69574 L87.8524466,103.69574 L87.8209515,103.69574 L87.8209515,103.69574 L87.7894564,103.69574 L87.7894564,103.69574 C87.7894564,103.69574 87.7894564,103.69574 87.7894564,103.69574 L87.7579613,103.69574 L87.7579613,103.69574 L87.7579613,103.69574 L87.7579613,103.69574 L87.7579613,103.69574 L87.7579613,103.69574 L87.7579613,103.69574 L87.7579613,103.69574 L87.7579613,103.69574 L87.7579613,103.69574 L87.7579613,103.69574 L87.7579613,103.69574 L87.7264662,103.69574 L87.7264662,103.69574 L87.7264662,103.69574 L87.7264662,103.69574 L87.7264662,103.69574 L87.6949711,103.69574 C87.5350772,103.830859 87.4524778,104.036731 87.4745053,104.245233 L87.4745053,123.597482 C87.4813682,124.125083 87.7387499,124.617773 88.1673976,124.923843 L89.3768096,125.62492 C89.5250414,125.733405 89.7262003,125.733405 89.8744322,125.62492 C89.8744322,125.62492 89.8744322,125.62492 89.8744322,125.62492 L89.8744322,125.62492 L89.8744322,125.62492 L89.9059273,125.62492 L89.9059273,125.62492 L89.9059273,125.62492 L89.9374224,125.62492 L89.9374224,125.62492 L89.9689175,125.62492 L89.9689175,125.62492 C89.9689175,125.62492 89.9689175,125.62492 89.9689175,125.62492 L90.0004126,125.62492 L90.0004126,125.62492 L90.0004126,125.62492 L90.0004126,125.62492 L90.0004126,125.62492 L90.0004126,125.62492 C90.0004126,125.62492 90.0004126,125.62492 90.0004126,125.62492 L90.0004126,125.62492 L90.0004126,125.62492 L90.0004126,125.62492 L90.0004126,125.62492 L90.0004126,125.62492 L90.0319077,125.62492 L90.0319077,125.62492 L90.0319077,125.62492 L90.0634028,125.62492 L90.0634028,125.62492 L90.0948979,125.62492 L90.0948979,125.62492 L90.0948979,125.62492 L90.126393,125.62492 L90.126393,125.62492 L90.126393,125.62492 L90.126393,125.62492 L90.126393,125.62492 L90.126393,125.62492 L90.126393,125.62492 L90.126393,125.62492 C90.126393,125.62492 90.126393,125.62492 90.126393,125.62492 L90.126393,125.62492 L90.126393,125.62492 L90.126393,125.62492 L90.1578881,125.62492 L90.1578881,125.62492 L90.1578881,125.62492 L90.1578881,125.62492 L90.1578881,125.62492 L90.1893832,125.62492 C90.351619,125.491127 90.4366641,125.285047 90.416148,125.075428 L90.416148,105.723179 C90.4068142,105.194698 90.1472028,104.702216 89.7169567,104.396817 L89.7169567,104.396817 Z" id="Shape" fill="url(#radialGradient-10)" fill-rule="nonzero"></path>
                    <path d="M95.7640165,105.451591 L94.5483055,104.750514 C94.4020495,104.643097 94.2032379,104.643097 94.0569819,104.750514 L94.0254868,104.750514 L94.0254868,104.750514 L94.0254868,104.750514 L93.9939917,104.750514 L93.9939917,104.750514 L93.9939917,104.750514 L93.9939917,104.750514 L93.9939917,104.750514 L93.9939917,104.750514 L93.9939917,104.750514 L93.9939917,104.750514 L93.9939917,104.750514 C93.9939917,104.750514 93.9939917,104.750514 93.9939917,104.750514 L93.9939917,104.750514 L93.9939917,104.750514 L93.9939917,104.750514 L93.9939917,104.750514 L93.9939917,104.750514 L93.9939917,104.750514 L93.9939917,104.750514 L93.9624966,104.750514 L93.9624966,104.750514 L93.9624966,104.750514 L93.9310015,104.750514 L93.9310015,104.750514 L93.9310015,104.750514 L93.9310015,104.750514 L93.9310015,104.750514 L93.9310015,104.750514 L93.9310015,104.750514 L93.9310015,104.750514 L93.9310015,104.750514 L93.9310015,104.750514 L93.9310015,104.750514 C93.9310015,104.750514 93.9310015,104.750514 93.9310015,104.750514 L93.9310015,104.750514 L93.9310015,104.750514 L93.9310015,104.750514 L93.9310015,104.750514 L93.9310015,104.750514 L93.8995064,104.750514 C93.8995064,104.750514 93.8995064,104.750514 93.8995064,104.750514 L93.8995064,104.750514 L93.8680113,104.750514 L93.8680113,104.750514 L93.8680113,104.750514 L93.8680113,104.750514 L93.8680113,104.750514 L93.8365162,104.750514 L93.8365162,104.750514 C93.6742804,104.884308 93.5892354,105.090387 93.6097515,105.300007 L93.6097515,120.199469 C93.616642,120.728795 93.8737954,121.223393 94.3026437,121.532147 L95.5120557,122.233224 C95.6602876,122.341708 95.8614465,122.341708 96.0096783,122.233224 L96.0096783,122.233224 L96.0096783,122.233224 L96.0096783,122.233224 L96.0096783,122.233224 L96.0096783,122.233224 C96.0096783,122.233224 96.0096783,122.233224 96.0096783,122.233224 L96.0096783,122.233224 L96.0096783,122.233224 L96.0096783,122.233224 L96.0096783,122.233224 L96.0096783,122.233224 L96.0096783,122.233224 L96.0096783,122.233224 L96.0411734,122.233224 L96.0411734,122.233224 L96.0411734,122.233224 L96.0726685,122.233224 L96.0726685,122.233224 L96.0726685,122.233224 L96.0726685,122.233224 L96.0726685,122.233224 L96.1041636,122.233224 L96.1041636,122.233224 L96.1041636,122.233224 L96.1041636,122.233224 L96.1041636,122.233224 L96.1041636,122.233224 L96.1041636,122.233224 L96.1041636,122.233224 L96.1041636,122.233224 L96.1041636,122.233224 L96.1041636,122.233224 L96.1041636,122.233224 L96.1356587,122.233224 C96.1356587,122.233224 96.1356587,122.233224 96.1356587,122.233224 L96.1356587,122.233224 L96.1671538,122.233224 L96.1671538,122.233224 L96.198649,122.233224 L96.198649,122.233224 L96.198649,122.233224 L96.2301441,122.233224 L96.2301441,122.233224 L96.2301441,122.233224 L96.2301441,122.233224 C96.2301441,122.233224 96.2301441,122.233224 96.2301441,122.233224 L96.2301441,122.233224 L96.2301441,122.233224 L96.2301441,122.233224 L96.2301441,122.233224 C96.3923798,122.09943 96.4774249,121.89335 96.4569088,121.683731 L96.4569088,106.784268 C96.4500182,106.254943 96.1928648,105.760345 95.7640165,105.451591 L95.7640165,105.451591 Z" id="Shape" fill="url(#radialGradient-11)" fill-rule="nonzero"></path>
                    <path d="M101.804777,101.131441 L100.595365,100.430364 C100.445903,100.325731 100.247205,100.325731 100.097743,100.430364 L100.097743,100.430364 L100.097743,100.430364 L100.097743,100.430364 L100.097743,100.430364 L100.097743,100.430364 L100.097743,100.430364 L100.097743,100.430364 L100.097743,100.430364 L100.066248,100.430364 L100.066248,100.430364 L100.066248,100.430364 L100.034753,100.430364 L100.034753,100.430364 L100.034753,100.430364 L100.034753,100.430364 L100.034753,100.430364 L100.003257,100.430364 L100.003257,100.430364 L100.003257,100.430364 L100.003257,100.430364 L100.003257,100.430364 L100.003257,100.430364 L100.003257,100.430364 L100.003257,100.430364 L100.003257,100.430364 L100.003257,100.430364 L100.003257,100.430364 C100.003257,100.430364 100.003257,100.430364 100.003257,100.430364 L99.9717623,100.430364 L99.9717623,100.430364 L99.9717623,100.430364 L99.9402672,100.430364 L99.9402672,100.430364 L99.9087721,100.430364 C99.9087721,100.430364 99.9087721,100.430364 99.9087721,100.430364 L99.9087721,100.430364 L99.877277,100.430364 L99.877277,100.430364 L99.877277,100.430364 L99.877277,100.430364 L99.877277,100.430364 L99.877277,100.430364 L99.877277,100.430364 L99.877277,100.430364 L99.877277,100.430364 C99.877277,100.430364 99.877277,100.430364 99.877277,100.430364 L99.877277,100.430364 L99.877277,100.430364 L99.8457819,100.430364 L99.8457819,100.430364 C99.6815709,100.565449 99.5963136,100.774417 99.6190172,100.986173 L99.6190172,115.87932 C99.6288846,116.407889 99.8853842,116.901229 100.311909,117.211998 L101.52762,117.913075 C101.673876,118.020491 101.872688,118.020491 102.018944,117.913075 L102.050439,117.913075 C102.050439,117.913075 102.050439,117.913075 102.050439,117.913075 L102.081934,117.913075 L102.081934,117.913075 L102.081934,117.913075 L102.113429,117.913075 L102.113429,117.913075 L102.113429,117.913075 L102.113429,117.913075 L102.113429,117.913075 L102.113429,117.913075 L102.113429,117.913075 L102.113429,117.913075 L102.113429,117.913075 L102.113429,117.913075 L102.113429,117.913075 L102.113429,117.913075 L102.144924,117.913075 L102.144924,117.913075 L102.144924,117.913075 L102.144924,117.913075 L102.144924,117.913075 L102.17642,117.913075 L102.17642,117.913075 L102.17642,117.913075 L102.207915,117.913075 L102.207915,117.913075 L102.207915,117.913075 L102.207915,117.913075 L102.207915,117.913075 L102.207915,117.913075 L102.207915,117.913075 L102.207915,117.913075 L102.207915,117.913075 L102.207915,117.913075 L102.207915,117.913075 L102.207915,117.913075 L102.207915,117.913075 L102.207915,117.913075 L102.207915,117.913075 L102.207915,117.913075 C102.207915,117.913075 102.207915,117.913075 102.207915,117.913075 L102.23941,117.913075 L102.23941,117.913075 L102.23941,117.913075 L102.270905,117.913075 L102.270905,117.913075 L102.270905,117.913075 C102.270905,117.913075 102.270905,117.913075 102.270905,117.913075 L102.270905,117.913075 C102.433141,117.779281 102.518186,117.573201 102.49767,117.363582 L102.49767,102.464119 C102.490779,101.934793 102.233626,101.440196 101.804777,101.131441 Z" id="Shape" fill="url(#radialGradient-12)" fill-rule="nonzero"></path>
                    <path d="M107.845538,97.038668 L106.636126,96.3375911 C106.487894,96.2291068 106.286735,96.2291068 106.138504,96.3375911 L106.138504,96.3375911 L106.138504,96.3375911 L106.107008,96.3375911 L106.107008,96.3375911 L106.075513,96.3375911 L106.075513,96.3375911 L106.075513,96.3375911 L106.044018,96.3375911 L106.044018,96.3375911 L106.044018,96.3375911 L106.044018,96.3375911 L106.044018,96.3375911 L106.044018,96.3375911 L106.044018,96.3375911 L106.044018,96.3375911 L106.044018,96.3375911 L106.044018,96.3375911 L106.044018,96.3375911 L106.044018,96.3375911 L106.012523,96.3375911 L106.012523,96.3375911 L106.012523,96.3375911 L105.981028,96.3375911 C105.981028,96.3375911 105.981028,96.3375911 105.981028,96.3375911 L105.949533,96.3375911 L105.949533,96.3375911 L105.949533,96.3375911 L105.918038,96.3375911 L105.918038,96.3375911 L105.918038,96.3375911 L105.918038,96.3375911 L105.918038,96.3375911 L105.918038,96.3375911 L105.918038,96.3375911 L105.918038,96.3375911 L105.918038,96.3375911 L105.918038,96.3375911 L105.918038,96.3375911 L105.918038,96.3375911 L105.886543,96.3375911 L105.886543,96.3375911 L105.886543,96.3375911 L105.886543,96.3375911 L105.886543,96.3375911 L105.855048,96.3375911 L105.855048,96.3375911 L105.855048,96.3375911 L105.823553,96.3375911 L105.823553,96.3375911 L105.823553,96.3375911 C105.663659,96.4727094 105.581059,96.6785815 105.603087,96.8870838 L105.603087,111.786547 C105.609977,112.315873 105.867131,112.81047 106.295979,113.119224 L107.505391,113.820301 C107.653623,113.928786 107.854782,113.928786 108.003014,113.820301 L108.003014,113.820301 L108.003014,113.820301 L108.003014,113.820301 L108.003014,113.820301 L108.003014,113.820301 C108.003014,113.820301 108.003014,113.820301 108.003014,113.820301 L108.003014,113.820301 L108.003014,113.820301 L108.003014,113.820301 L108.034509,113.820301 L108.034509,113.820301 L108.034509,113.820301 L108.066004,113.820301 L108.066004,113.820301 L108.097499,113.820301 L108.097499,113.820301 C108.097499,113.820301 108.097499,113.820301 108.097499,113.820301 L108.128994,113.820301 L108.128994,113.820301 L108.128994,113.820301 L108.128994,113.820301 L108.128994,113.820301 L108.128994,113.820301 C108.128994,113.820301 108.128994,113.820301 108.128994,113.820301 L108.128994,113.820301 L108.128994,113.820301 L108.128994,113.820301 L108.128994,113.820301 L108.128994,113.820301 L108.160489,113.820301 L108.160489,113.820301 L108.160489,113.820301 L108.191984,113.820301 L108.191984,113.820301 L108.223479,113.820301 L108.223479,113.820301 L108.223479,113.820301 L108.254975,113.820301 L108.254975,113.820301 L108.254975,113.820301 L108.254975,113.820301 L108.254975,113.820301 L108.254975,113.820301 L108.254975,113.820301 L108.254975,113.820301 C108.254975,113.820301 108.254975,113.820301 108.254975,113.820301 L108.254975,113.820301 L108.254975,113.820301 L108.254975,113.820301 L108.28647,113.820301 C108.448705,113.686508 108.53375,113.480428 108.513234,113.270809 L108.513234,98.3713457 C108.511257,97.846747 108.264094,97.3534258 107.845538,97.038668 Z" id="Shape" fill="url(#radialGradient-13)" fill-rule="nonzero"></path>
                    <path d="M113.892598,93.7480279 L112.676887,93.046951 C112.530631,92.9395343 112.331819,92.9395343 112.185563,93.046951 L112.185563,93.046951 L112.185563,93.046951 L112.185563,93.046951 L112.185563,93.046951 L112.185563,93.046951 L112.185563,93.046951 L112.185563,93.046951 L112.185563,93.046951 L112.185563,93.046951 L112.185563,93.046951 L112.185563,93.046951 L112.185563,93.046951 L112.185563,93.046951 L112.185563,93.046951 L112.185563,93.046951 L112.154068,93.046951 L112.154068,93.046951 L112.154068,93.046951 L112.122573,93.046951 L112.122573,93.046951 L112.122573,93.046951 C112.122573,93.046951 112.122573,93.046951 112.122573,93.046951 L112.122573,93.046951 L112.122573,93.046951 L112.122573,93.046951 L112.122573,93.046951 L112.122573,93.046951 L112.122573,93.046951 L112.122573,93.046951 L112.122573,93.046951 L112.122573,93.046951 L112.122573,93.046951 L112.122573,93.046951 L112.122573,93.046951 L112.122573,93.046951 L112.091078,93.046951 L112.091078,93.046951 L112.091078,93.046951 L112.059583,93.046951 C112.059583,93.046951 112.059583,93.046951 112.059583,93.046951 L112.059583,93.046951 L112.059583,93.046951 L112.059583,93.046951 L112.028088,93.046951 L112.028088,93.046951 L112.028088,93.046951 L112.028088,93.046951 L112.028088,93.046951 L112.028088,93.046951 L112.028088,93.046951 C111.865852,93.1807447 111.780807,93.3868246 111.801323,93.5964437 L111.801323,109.348568 C111.808186,109.876169 112.065568,110.368859 112.494215,110.674929 L113.703627,111.376006 C113.851859,111.484491 114.053018,111.484491 114.20125,111.376006 L114.20125,111.376006 L114.232745,111.376006 L114.232745,111.376006 L114.232745,111.376006 L114.232745,111.376006 L114.232745,111.376006 L114.232745,111.376006 C114.232745,111.376006 114.232745,111.376006 114.232745,111.376006 L114.232745,111.376006 L114.232745,111.376006 L114.232745,111.376006 L114.232745,111.376006 L114.232745,111.376006 L114.232745,111.376006 L114.232745,111.376006 L114.232745,111.376006 L114.232745,111.376006 L114.232745,111.376006 L114.26424,111.376006 L114.26424,111.376006 L114.26424,111.376006 L114.295735,111.376006 L114.295735,111.376006 L114.295735,111.376006 L114.295735,111.376006 C114.295735,111.376006 114.295735,111.376006 114.295735,111.376006 L114.32723,111.376006 L114.32723,111.376006 L114.32723,111.376006 L114.32723,111.376006 L114.32723,111.376006 L114.32723,111.376006 L114.32723,111.376006 L114.32723,111.376006 L114.32723,111.376006 L114.32723,111.376006 L114.32723,111.376006 L114.32723,111.376006 L114.358726,111.376006 L114.358726,111.376006 L114.358726,111.376006 L114.390221,111.376006 L114.390221,111.376006 L114.421716,111.376006 L114.421716,111.376006 L114.421716,111.376006 L114.453211,111.376006 C114.453211,111.376006 114.453211,111.376006 114.453211,111.376006 L114.453211,111.376006 L114.453211,111.376006 C114.615447,111.242213 114.700492,111.036133 114.679976,110.826514 L114.679976,95.0743895 C114.65183,94.5290915 114.357223,94.0328164 113.892598,93.7480279 Z" id="Shape" fill="url(#radialGradient-14)" fill-rule="nonzero"></path>
                    <path d="M71.5883752,73.2462658 L70.3789632,72.5451889 C70.2307314,72.4367046 70.0295725,72.4367046 69.8813406,72.5451889 L69.8813406,72.5451889 L69.8813406,72.5451889 L69.8813406,72.5451889 L69.8813406,72.5451889 L69.8813406,72.5451889 L69.8813406,72.5451889 L69.8813406,72.5451889 L69.8813406,72.5451889 C69.8813406,72.5451889 69.8813406,72.5451889 69.8813406,72.5451889 L69.8498455,72.5451889 L69.8498455,72.5451889 L69.8498455,72.5451889 L69.8183504,72.5451889 L69.8183504,72.5451889 L69.7868553,72.5451889 C69.7868553,72.5451889 69.7868553,72.5451889 69.7868553,72.5451889 L69.7868553,72.5451889 L69.7553602,72.5451889 L69.7553602,72.5451889 L69.7553602,72.5451889 L69.7553602,72.5451889 L69.7553602,72.5451889 L69.7553602,72.5451889 L69.7553602,72.5451889 L69.7553602,72.5451889 L69.7553602,72.5451889 C69.7553602,72.5451889 69.7553602,72.5451889 69.7553602,72.5451889 L69.7553602,72.5451889 L69.7553602,72.5451889 L69.7238651,72.5451889 L69.7238651,72.5451889 L69.7238651,72.5451889 L69.69237,72.5451889 L69.69237,72.5451889 L69.6608749,72.5451889 L69.6608749,72.5451889 L69.6608749,72.5451889 L69.6293798,72.5451889 L69.6293798,72.5451889 L69.6293798,72.5451889 L69.6293798,72.5451889 L69.6293798,72.5451889 L69.6293798,72.5451889 L69.6293798,72.5451889 L69.6293798,72.5451889 L69.6293798,72.5451889 L69.6293798,72.5451889 L69.6293798,72.5451889 L69.6293798,72.5451889 L69.5978847,72.5451889 C69.4379908,72.6803072 69.3553915,72.8861793 69.377419,73.0946816 L69.377419,90.7795041 C69.3842818,91.3071052 69.6416635,91.7997954 70.0703112,92.1058658 L71.2797232,92.8069427 C71.4279551,92.915427 71.629114,92.915427 71.7773458,92.8069427 L71.7773458,92.8069427 L71.7773458,92.8069427 L71.8088409,92.8069427 L71.8088409,92.8069427 L71.840336,92.8069427 L71.840336,92.8069427 L71.840336,92.8069427 L71.8718311,92.8069427 L71.8718311,92.8069427 L71.8718311,92.8069427 C71.8718311,92.8069427 71.8718311,92.8069427 71.8718311,92.8069427 L71.8718311,92.8069427 L71.8718311,92.8069427 L71.8718311,92.8069427 L71.8718311,92.8069427 L71.8718311,92.8069427 L71.8718311,92.8069427 L71.8718311,92.8069427 L71.8718311,92.8069427 L71.9033262,92.8069427 L71.9033262,92.8069427 L71.9033262,92.8069427 L71.9348213,92.8069427 L71.9348213,92.8069427 L71.9663164,92.8069427 L71.9663164,92.8069427 L71.9663164,92.8069427 L71.9978116,92.8069427 C71.9978116,92.8069427 71.9978116,92.8069427 71.9978116,92.8069427 L71.9978116,92.8069427 L71.9978116,92.8069427 L71.9978116,92.8069427 L71.9978116,92.8069427 L71.9978116,92.8069427 L71.9978116,92.8069427 L71.9978116,92.8069427 L71.9978116,92.8069427 L71.9978116,92.8069427 L71.9978116,92.8069427 L72.0293067,92.8069427 L72.0293067,92.8069427 L72.0293067,92.8069427 L72.0293067,92.8069427 L72.0293067,92.8069427 L72.0608018,92.8069427 L72.0608018,92.8069427 C72.0608018,92.8069427 72.0608018,92.8069427 72.0608018,92.8069427 L72.0922969,92.8069427 L72.0922969,92.8069427 L72.0922969,92.8069427 C72.2545326,92.673149 72.3395777,92.4670691 72.3190616,92.25745 L72.3190616,74.5789435 C72.3034784,74.0427255 72.0315554,73.5467729 71.5883752,73.2462658 Z" id="Shape" fill="url(#radialGradient-15)" fill-rule="nonzero"></path>
                    <path d="M47.4190329,63.5511935 L46.2033219,62.8627486 C46.0550901,62.7542643 45.8539312,62.7542643 45.7056993,62.8627486 L45.7056993,62.8627486 L45.7056993,62.8627486 L45.7056993,62.8627486 L45.7056993,62.8627486 L45.7056993,62.8627486 L45.7056993,62.8627486 L45.6742042,62.8627486 L45.6742042,62.8627486 L45.6742042,62.8627486 L45.6427091,62.8627486 C45.6427091,62.8627486 45.6427091,62.8627486 45.6427091,62.8627486 L45.6427091,62.8627486 L45.6427091,62.8627486 L45.6427091,62.8627486 L45.611214,62.8627486 L45.611214,62.8627486 L45.611214,62.8627486 L45.611214,62.8627486 L45.611214,62.8627486 L45.611214,62.8627486 L45.611214,62.8627486 L45.611214,62.8627486 L45.611214,62.8627486 L45.611214,62.8627486 L45.611214,62.8627486 L45.611214,62.8627486 L45.5797189,62.8627486 L45.5797189,62.8627486 C45.5797189,62.8627486 45.5797189,62.8627486 45.5797189,62.8627486 L45.5482238,62.8627486 L45.5482238,62.8627486 L45.5167287,62.8627486 L45.5167287,62.8627486 L45.5167287,62.8627486 L45.4852336,62.8627486 L45.4852336,62.8627486 L45.4852336,62.8627486 L45.4852336,62.8627486 L45.4852336,62.8627486 L45.4852336,62.8627486 L45.4852336,62.8627486 L45.4852336,62.8627486 L45.4852336,62.8627486 L45.4852336,62.8627486 L45.4852336,62.8627486 L45.4852336,62.8627486 L45.4537385,62.8627486 L45.4537385,62.8627486 L45.4537385,62.8627486 L45.4222434,62.8627486 C45.2600076,62.9965423 45.1749625,63.2026222 45.1954786,63.4122413 L45.1954786,88.2783649 C45.2053454,88.8051994 45.4620621,89.2966167 45.8883709,89.6047266 L47.1040819,90.3058035 C47.2515783,90.4093475 47.4479091,90.4093475 47.5954055,90.3058035 L47.5954055,90.3058035 L47.5954055,90.3058035 L47.6269006,90.3058035 L47.6269006,90.3058035 L47.6269006,90.3058035 L47.6269006,90.3058035 C47.6269006,90.3058035 47.6269006,90.3058035 47.6269006,90.3058035 L47.6583957,90.3058035 L47.6583957,90.3058035 L47.6583957,90.3058035 L47.6898908,90.3058035 L47.6898908,90.3058035 L47.6898908,90.3058035 L47.6898908,90.3058035 L47.6898908,90.3058035 L47.6898908,90.3058035 L47.6898908,90.3058035 L47.6898908,90.3058035 L47.6898908,90.3058035 L47.6898908,90.3058035 L47.6898908,90.3058035 L47.6898908,90.3058035 L47.6898908,90.3058035 L47.6898908,90.3058035 C47.6898908,90.3058035 47.6898908,90.3058035 47.6898908,90.3058035 L47.6898908,90.3058035 L47.6898908,90.3058035 L47.7213859,90.3058035 L47.7213859,90.3058035 L47.7213859,90.3058035 L47.752881,90.3058035 L47.752881,90.3058035 L47.752881,90.3058035 L47.752881,90.3058035 L47.752881,90.3058035 L47.752881,90.3058035 L47.752881,90.3058035 L47.752881,90.3058035 L47.752881,90.3058035 L47.752881,90.3058035 L47.752881,90.3058035 L47.752881,90.3058035 L47.752881,90.3058035 L47.752881,90.3058035 L47.752881,90.3058035 L47.752881,90.3058035 C47.752881,90.3058035 47.752881,90.3058035 47.752881,90.3058035 L47.7843761,90.3058035 L47.7843761,90.3058035 L47.7843761,90.3058035 C47.9466119,90.1720098 48.031657,89.9659299 48.0111409,89.7563108 L48.0111409,64.8775552 C48.0282901,64.3675417 47.8098053,63.8781211 47.4190329,63.5511935 Z" id="Shape" fill="url(#radialGradient-16)" fill-rule="nonzero"></path>
                    <path d="M53.4597937,67.5492266 L52.2503818,66.8481497 C52.1021499,66.7396653 51.900991,66.7396653 51.7527591,66.8481497 L51.7527591,66.8481497 L51.7527591,66.8481497 L51.721264,66.8481497 L51.721264,66.8481497 L51.721264,66.8481497 L51.721264,66.8481497 L51.721264,66.8481497 L51.721264,66.8481497 L51.721264,66.8481497 L51.721264,66.8481497 L51.721264,66.8481497 L51.721264,66.8481497 L51.721264,66.8481497 L51.721264,66.8481497 L51.6897689,66.8481497 L51.6897689,66.8481497 L51.6897689,66.8481497 L51.6582738,66.8481497 L51.6582738,66.8481497 L51.6267787,66.8481497 L51.6267787,66.8481497 L51.6267787,66.8481497 L51.5952836,66.8481497 L51.5952836,66.8481497 L51.5952836,66.8481497 L51.5952836,66.8481497 L51.5952836,66.8481497 L51.5952836,66.8481497 C51.5952836,66.8481497 51.5952836,66.8481497 51.5952836,66.8481497 L51.5952836,66.8481497 L51.5952836,66.8481497 L51.5952836,66.8481497 L51.5952836,66.8481497 L51.5952836,66.8481497 L51.5637885,66.8481497 C51.5637885,66.8481497 51.5637885,66.8481497 51.5637885,66.8481497 L51.5637885,66.8481497 L51.5322934,66.8481497 L51.5322934,66.8481497 L51.5007983,66.8481497 L51.5007983,66.8481497 L51.5007983,66.8481497 L51.4693032,66.8481497 L51.4693032,66.8481497 L51.4693032,66.8481497 L51.4693032,66.8481497 C51.4693032,66.8481497 51.4693032,66.8481497 51.4693032,66.8481497 L51.4693032,66.8481497 L51.4693032,66.8481497 L51.4693032,66.8481497 C51.3094093,66.9832679 51.22681,67.18914 51.2488375,67.3976424 L51.2488375,103.398888 C51.2557003,103.926489 51.5130821,104.419179 51.9417298,104.72525 L53.1511417,105.426327 C53.3006038,105.53096 53.4993023,105.53096 53.6487644,105.426327 L53.6487644,105.426327 L53.6487644,105.426327 L53.6802595,105.426327 L53.6802595,105.426327 L53.6802595,105.426327 L53.6802595,105.426327 L53.6802595,105.426327 L53.6802595,105.426327 L53.6802595,105.426327 L53.6802595,105.426327 L53.6802595,105.426327 L53.7117546,105.426327 L53.7117546,105.426327 C53.7117546,105.426327 53.7117546,105.426327 53.7117546,105.426327 L53.7432497,105.426327 L53.7432497,105.426327 L53.7747448,105.426327 C53.7747448,105.426327 53.7747448,105.426327 53.7747448,105.426327 L53.7747448,105.426327 L53.8062399,105.426327 L53.8062399,105.426327 L53.8062399,105.426327 L53.8062399,105.426327 L53.8062399,105.426327 L53.8062399,105.426327 L53.8062399,105.426327 L53.8062399,105.426327 L53.8062399,105.426327 L53.8062399,105.426327 L53.8062399,105.426327 L53.8062399,105.426327 L53.837735,105.426327 L53.837735,105.426327 L53.837735,105.426327 L53.8692301,105.426327 C53.8692301,105.426327 53.8692301,105.426327 53.8692301,105.426327 L53.9007252,105.426327 L53.9007252,105.426327 L53.9007252,105.426327 L53.9322203,105.426327 L53.9322203,105.426327 L53.9322203,105.426327 L53.9322203,105.426327 L53.9322203,105.426327 L53.9322203,105.426327 L53.9322203,105.426327 L53.9322203,105.426327 L53.9322203,105.426327 L53.9322203,105.426327 L53.9322203,105.426327 C54.094456,105.292533 54.1795011,105.086453 54.158985,104.876834 L54.158985,68.8755883 C54.1496512,68.347107 53.8900398,67.8546257 53.4597937,67.5492266 Z" id="Shape" fill="url(#radialGradient-17)" fill-rule="nonzero"></path>
                    <path d="M59.5068536,71.0735591 L58.2911426,70.3724822 C58.1430782,70.2707607 57.9478834,70.2707607 57.799819,70.3724822 L57.799819,70.3724822 L57.799819,70.3724822 C57.799819,70.3724822 57.799819,70.3724822 57.799819,70.3724822 L57.799819,70.3724822 L57.799819,70.3724822 L57.7683239,70.3724822 L57.7683239,70.3724822 L57.7683239,70.3724822 L57.7683239,70.3724822 L57.7683239,70.3724822 L57.7368288,70.3724822 L57.7368288,70.3724822 L57.7368288,70.3724822 L57.7053337,70.3724822 L57.7053337,70.3724822 L57.7053337,70.3724822 L57.7053337,70.3724822 L57.7053337,70.3724822 L57.7053337,70.3724822 L57.7053337,70.3724822 L57.7053337,70.3724822 L57.7053337,70.3724822 L57.7053337,70.3724822 L57.7053337,70.3724822 L57.7053337,70.3724822 L57.7053337,70.3724822 L57.7053337,70.3724822 L57.7053337,70.3724822 L57.7053337,70.3724822 L57.7053337,70.3724822 L57.6738386,70.3724822 C57.6738386,70.3724822 57.6738386,70.3724822 57.6738386,70.3724822 L57.6738386,70.3724822 L57.6423435,70.3724822 L57.6423435,70.3724822 L57.6423435,70.3724822 L57.6423435,70.3724822 L57.6423435,70.3724822 L57.6423435,70.3724822 L57.6423435,70.3724822 L57.6423435,70.3724822 L57.6423435,70.3724822 L57.6423435,70.3724822 L57.6423435,70.3724822 L57.6423435,70.3724822 L57.6423435,70.3724822 L57.6423435,70.3724822 L57.6423435,70.3724822 L57.6423435,70.3724822 C57.6423435,70.3724822 57.6423435,70.3724822 57.6423435,70.3724822 C57.4801077,70.5062759 57.3950626,70.7123558 57.4155787,70.9219749 L57.4155787,91.3037328 C57.4224415,91.8313338 57.6798233,92.3240241 58.108471,92.6300944 L59.317883,93.3311713 C59.4661148,93.4396557 59.6672737,93.4396557 59.8155056,93.3311713 L59.8155056,93.3311713 L59.8155056,93.3311713 L59.8155056,93.3311713 L59.8470007,93.3311713 L59.8470007,93.3311713 L59.8470007,93.3311713 L59.8784958,93.3311713 L59.8784958,93.3311713 L59.8784958,93.3311713 L59.8784958,93.3311713 L59.8784958,93.3311713 L59.9099909,93.3311713 L59.9099909,93.3311713 L59.9099909,93.3311713 L59.9099909,93.3311713 L59.9099909,93.3311713 L59.9099909,93.3311713 C59.9099909,93.3311713 59.9099909,93.3311713 59.9099909,93.3311713 L59.9099909,93.3311713 L59.9099909,93.3311713 L59.9099909,93.3311713 L59.9099909,93.3311713 L59.9099909,93.3311713 L59.941486,93.3311713 L59.941486,93.3311713 L59.941486,93.3311713 L59.9729811,93.3311713 L59.9729811,93.3311713 L60.0044762,93.3311713 L60.0044762,93.3311713 L60.0044762,93.3311713 L60.0359713,93.3311713 L60.0359713,93.3311713 L60.0359713,93.3311713 L60.0359713,93.3311713 C60.0359713,93.3311713 60.0359713,93.3311713 60.0359713,93.3311713 L60.0359713,93.3311713 L60.0359713,93.3311713 L60.0359713,93.3311713 L60.0359713,93.3311713 L60.0359713,93.3311713 L60.0359713,93.3311713 L60.0359713,93.3311713 L60.0674664,93.3311713 L60.0674664,93.3311713 L60.0674664,93.3311713 L60.0989615,93.3311713 L60.0989615,93.3311713 L60.1304566,93.3311713 L60.1304566,93.3311713 C60.2926924,93.1973776 60.3777375,92.9912977 60.3572214,92.7816786 L60.3572214,72.3746567 C60.303145,71.8275721 59.9855428,71.3416276 59.5068536,71.0735591 Z" id="Shape" fill="url(#radialGradient-18)" fill-rule="nonzero"></path>
                    <path d="M65.5476144,65.5533681 L64.3382024,64.8522912 C64.1899706,64.7438068 63.9888117,64.7438068 63.8405798,64.8522912 C63.8405798,64.8522912 63.8405798,64.8522912 63.8405798,64.8522912 L63.8090847,64.8522912 L63.8090847,64.8522912 L63.8090847,64.8522912 C63.8090847,64.8522912 63.8090847,64.8522912 63.8090847,64.8522912 L63.8090847,64.8522912 L63.8090847,64.8522912 L63.8090847,64.8522912 L63.8090847,64.8522912 L63.8090847,64.8522912 L63.8090847,64.8522912 L63.8090847,64.8522912 L63.8090847,64.8522912 L63.8090847,64.8522912 L63.8090847,64.8522912 L63.8090847,64.8522912 L63.8090847,64.8522912 L63.8090847,64.8522912 L63.7775896,64.8522912 L63.7775896,64.8522912 L63.7775896,64.8522912 L63.7460945,64.8522912 C63.7460945,64.8522912 63.7460945,64.8522912 63.7460945,64.8522912 L63.7460945,64.8522912 L63.7460945,64.8522912 L63.7460945,64.8522912 L63.7145994,64.8522912 L63.7145994,64.8522912 L63.7145994,64.8522912 L63.6831043,64.8522912 L63.6831043,64.8522912 L63.6831043,64.8522912 L63.6831043,64.8522912 L63.6831043,64.8522912 L63.6831043,64.8522912 L63.6831043,64.8522912 L63.6831043,64.8522912 L63.6831043,64.8522912 L63.6831043,64.8522912 L63.6831043,64.8522912 C63.6831043,64.8522912 63.6831043,64.8522912 63.6831043,64.8522912 L63.6516092,64.8522912 L63.6516092,64.8522912 L63.6201141,64.8522912 L63.6201141,64.8522912 L63.6201141,64.8522912 L63.588619,64.8522912 L63.588619,64.8522912 L63.588619,64.8522912 L63.588619,64.8522912 C63.4263832,64.9860849 63.3413381,65.1921648 63.3618542,65.4017839 L63.3618542,90.4637037 C63.3717216,90.992273 63.6282212,91.4856128 64.0547465,91.7963814 L65.2704575,92.4974583 C65.4167135,92.6048749 65.6155251,92.6048749 65.7617811,92.4974583 L65.7617811,92.4974583 C65.7617811,92.4974583 65.7617811,92.4974583 65.7617811,92.4974583 L65.7617811,92.4974583 L65.7617811,92.4974583 L65.7617811,92.4974583 L65.7617811,92.4974583 L65.7617811,92.4974583 L65.7932762,92.4974583 L65.7932762,92.4974583 L65.7932762,92.4974583 L65.7932762,92.4974583 L65.7932762,92.4974583 L65.8247713,92.4974583 L65.8247713,92.4974583 L65.8247713,92.4974583 L65.8562664,92.4974583 L65.8562664,92.4974583 L65.8562664,92.4974583 L65.8562664,92.4974583 L65.8562664,92.4974583 L65.8562664,92.4974583 L65.8562664,92.4974583 L65.8562664,92.4974583 C65.8562664,92.4974583 65.8562664,92.4974583 65.8562664,92.4974583 L65.8562664,92.4974583 L65.8562664,92.4974583 L65.8562664,92.4974583 L65.8562664,92.4974583 L65.8562664,92.4974583 L65.8562664,92.4974583 L65.8562664,92.4974583 L65.8562664,92.4974583 L65.8877615,92.4974583 L65.8877615,92.4974583 L65.8877615,92.4974583 L65.9192566,92.4974583 L65.9192566,92.4974583 L65.9192566,92.4974583 L65.9192566,92.4974583 L65.9192566,92.4974583 L65.9192566,92.4974583 C65.9192566,92.4974583 65.9192566,92.4974583 65.9192566,92.4974583 L65.9192566,92.4974583 L65.9192566,92.4974583 L65.9192566,92.4974583 L65.9192566,92.4974583 L65.9192566,92.4974583 L65.9192566,92.4974583 L65.9192566,92.4974583 L65.9192566,92.4974583 C66.0814924,92.3636646 66.1665374,92.1575847 66.1460214,91.9479656 L66.1460214,66.8797297 C66.1616307,66.3686527 65.9407367,65.879044 65.5476144,65.5533681 Z" id="Shape" fill="url(#radialGradient-19)" fill-rule="nonzero"></path>
                    <path d="M22.0087835,67.7702869 L20.7993716,67.06921 C20.4151313,66.8481497 20.1064793,67.06921 20.1064793,67.5934386 L20.1064793,93.6785518 C20.1133421,94.2061528 20.3707239,94.6988431 20.7993716,95.0049135 L22.0087835,95.7059903 C22.3930238,95.9270506 22.7016758,95.7059903 22.7016758,95.1817617 L22.7016758,69.0966486 C22.694813,68.5690475 22.4374312,68.0763572 22.0087835,67.7702869 Z" id="Shape" fill="url(#radialGradient-20)" fill-rule="nonzero"></path>
                    <path d="M28.0558434,66.1723368 L26.8401324,65.4712599 C26.4558921,65.2501997 26.1472401,65.4712599 26.1472401,65.9954886 L26.1472401,83.4339868 C26.1561245,83.9628069 26.4128392,84.4565604 26.8401324,84.7666645 L28.0558434,85.4677413 C28.4337846,85.6888016 28.7487357,85.4677413 28.7487357,84.9371967 L28.7487357,67.5050145 C28.7408435,66.9759422 28.4839109,66.4817697 28.0558434,66.1723368 L28.0558434,66.1723368 Z" id="Shape" fill="url(#radialGradient-21)" fill-rule="nonzero"></path>
                    <path d="M34.0966042,64.4796467 L32.8871922,63.7785698 C32.502952,63.5511935 32.1880009,63.7785698 32.1880009,64.3027985 L32.1880009,77.8948477 C32.1973347,78.423329 32.4569461,78.9158103 32.8871922,79.2212094 L34.0966042,79.9222863 C34.4808445,80.1496626 34.7894965,79.9222863 34.7894965,79.3980576 L34.7894965,65.8060084 C34.7826336,65.2784073 34.5252519,64.785717 34.0966042,64.4796467 Z" id="Shape" fill="url(#radialGradient-22)" fill-rule="nonzero"></path>
                    <path d="M40.137365,60.9679462 L38.9279531,60.2668693 C38.5437128,60.0458091 38.2350608,60.2668693 38.2350608,60.797414 L38.2350608,77.6232594 C38.2419513,78.1525852 38.4991047,78.6471824 38.9279531,78.9559371 L40.137365,79.657014 C40.5216053,79.8780742 40.8302573,79.657014 40.8302573,79.1264693 L40.8302573,62.3132559 C40.8273691,61.7794625 40.5697755,61.2793225 40.137365,60.9679462 Z" id="Shape" fill="url(#radialGradient-23)" fill-rule="nonzero"></path>
                    <path d="M76.394528,89.1878701 L75.178817,88.4867932 C74.7945767,88.2594169 74.4859247,88.4867932 74.4859247,89.0110218 L74.4859247,104.118913 C74.4928153,104.648239 74.7499687,105.142836 75.178817,105.451591 L76.388229,106.152668 C76.7724692,106.373728 77.0811212,106.152668 77.0811212,105.622123 L77.0811212,90.5142317 C77.0757198,89.9877671 76.8207922,89.4952977 76.394528,89.1878701 Z" id="Shape" fill="url(#radialGradient-24)" fill-rule="nonzero"></path>
                    <path d="M82.4352888,101.857782 L81.2258768,101.156705 C80.8416366,100.935645 80.5329846,101.156705 80.5329846,101.680934 L80.5329846,114.414006 C80.5398474,114.941607 80.7972291,115.434297 81.2258768,115.740368 L82.4352888,116.441445 C82.8195291,116.662505 83.1344801,116.441445 83.1344801,115.917216 L83.1344801,103.184144 C83.1251463,102.655663 82.8655349,102.163181 82.4352888,101.857782 Z" id="Shape" fill="url(#radialGradient-25)" fill-rule="nonzero"></path>
                    <path d="M88.4823486,105.325271 L87.2729367,104.624194 C86.8886964,104.403133 86.5737454,104.624194 86.5737454,105.148422 L86.5737454,124.500671 C86.5831034,125.030874 86.8424862,125.525265 87.2729367,125.833349 L88.4823486,126.534425 C88.8665889,126.755486 89.1752409,126.534425 89.1752409,126.003881 L89.1752409,106.657948 C89.1693615,106.128367 88.9119844,105.63334 88.4823486,105.325271 Z" id="Shape" fill="url(#radialGradient-26)" fill-rule="nonzero"></path>
                    <path d="M94.5231095,106.38636 L93.3136975,105.685283 C92.9294572,105.464223 92.6208052,105.685283 92.6208052,106.209512 L92.6208052,121.108975 C92.6276681,121.636576 92.8850498,122.129266 93.3136975,122.435336 L94.5231095,123.136413 C94.9073497,123.357473 95.2160017,123.136413 95.2160017,122.612185 L95.2160017,107.706406 C95.207146,107.181043 94.9499849,106.691119 94.5231095,106.38636 L94.5231095,106.38636 Z" id="Shape" fill="url(#radialGradient-27)" fill-rule="nonzero"></path>
                    <path d="M100.56387,102.06621 L99.3544583,101.390398 C98.970218,101.169337 98.661566,101.390398 98.661566,101.914626 L98.661566,116.814089 C98.6684289,117.34169 98.9258106,117.83438 99.3544583,118.140451 L100.56387,118.841528 C100.948111,119.068904 101.263062,118.841528 101.263062,118.317299 L101.263062,103.392572 C101.253728,102.864091 100.994116,102.37161 100.56387,102.06621 Z" id="Shape" fill="url(#radialGradient-28)" fill-rule="nonzero"></path>
                    <path d="M106.61093,97.9734372 L105.414116,97.2723603 C105.029876,97.0513001 104.714925,97.2723603 104.714925,97.796589 L104.714925,112.696052 C104.724259,113.224533 104.98387,113.717015 105.414116,114.022414 L106.623528,114.72349 C107.007768,114.944551 107.31642,114.72349 107.31642,114.199262 L107.31642,99.2997989 C107.306651,98.7699092 107.044351,98.2767705 106.61093,97.9734372 L106.61093,97.9734372 Z" id="Shape" fill="url(#radialGradient-29)" fill-rule="nonzero"></path>
                    <path d="M112.651691,94.676481 L111.442279,93.9754041 C111.058039,93.7543439 110.749387,93.9754041 110.749387,94.5059488 L110.749387,109.399096 C110.756277,109.928422 111.013431,110.423019 111.442279,110.731773 L112.651691,111.43285 C113.035931,111.653911 113.344583,111.43285 113.344583,110.908622 L113.344583,96.0091587 C113.337693,95.4798329 113.080539,94.9852357 112.651691,94.676481 Z" id="Shape" fill="url(#radialGradient-30)" fill-rule="nonzero"></path>
                    <path d="M70.3537672,74.181035 L69.1443552,73.4799581 C68.7601149,73.2588978 68.4451639,73.4799581 68.4451639,74.0041868 L68.4451639,90.8363482 C68.4544977,91.3648295 68.7141091,91.8573107 69.1443552,92.1627098 L70.3537672,92.8637867 C70.7380074,93.084847 71.0466594,92.8637867 71.0466594,92.3395581 L71.0466594,75.4947647 C71.035822,74.9716424 70.7788801,74.4844784 70.3537672,74.181035 Z" id="Shape" fill="url(#radialGradient-31)" fill-rule="nonzero"></path>
                    <path d="M46.2033219,64.4796467 L44.9435178,63.7785698 C44.5592775,63.5575095 44.2506255,63.7785698 44.2506255,64.3091145 L44.2506255,89.175238 C44.2574884,89.7028391 44.5148701,90.1955294 44.9435178,90.5015997 L46.1592288,91.2026766 C46.53717,91.4237369 46.8521211,91.2026766 46.8521211,90.678448 L46.8521211,65.8123244 C46.8527113,65.2914711 46.6132355,64.7995714 46.2033219,64.4796467 L46.2033219,64.4796467 Z" id="Shape" fill="url(#radialGradient-32)" fill-rule="nonzero"></path>
                    <path d="M52.2251857,68.4776798 L51.0157737,67.7766029 C50.6315335,67.5555426 50.3165824,67.7766029 50.3165824,68.3008315 L50.3165824,104.302077 C50.3259162,104.830559 50.5855276,105.32304 51.0157737,105.628439 L52.2251857,106.329516 C52.6094259,106.550576 52.918078,106.329516 52.918078,105.805287 L52.918078,69.8103575 C52.9121985,69.2807767 52.6548214,68.7857491 52.2251857,68.4776798 L52.2251857,68.4776798 Z" id="Shape" fill="url(#radialGradient-33)" fill-rule="nonzero"></path>
                    <path d="M58.2659465,71.9767482 L57.0565345,71.2756713 C56.6722943,71.054611 56.3636423,71.2756713 56.3636423,71.7999 L56.3636423,92.1879739 C56.3705051,92.7155749 56.6278868,93.2082652 57.0565345,93.5143356 L58.2659465,94.2154124 C58.6501868,94.4364727 58.9588388,94.2154124 58.9588388,93.6911838 L58.9588388,73.3031099 C58.9519759,72.7755088 58.6945942,72.2828185 58.2659465,71.9767482 L58.2659465,71.9767482 Z" id="Shape" fill="url(#radialGradient-34)" fill-rule="nonzero"></path>
                    <path d="M64.3130063,69.9969092 L63.0972953,69.2958323 C62.7130551,69.068456 62.4044031,69.2958323 62.4044031,69.8200609 L62.4044031,94.8819808 C62.4112659,95.4095818 62.6686477,95.9022721 63.0972953,96.2083425 L64.3130063,96.9094193 C64.6909476,97.1367956 65.0058986,96.9094193 65.0058986,96.3851907 L65.0058986,71.3232709 C64.9960318,70.7964363 64.7393151,70.3050191 64.3130063,69.9969092 Z" id="Shape" fill="url(#radialGradient-35)" fill-rule="nonzero"></path>
                </g>
            </g>
        </g>
    </g>
</svg>