<?xml version="1.0" encoding="UTF-8"?>
<svg width="210px" height="161px" viewBox="0 0 210 161" version="1.1" xmlns="http://www.w3.org/2000/svg" xmlns:xlink="http://www.w3.org/1999/xlink">
    <!-- Generator: Sketch 54.1 (76490) - https://sketchapp.com -->
    <title>banner_3_cloud_back</title>
    <desc>Created with Sketch.</desc>
    <defs>
        <linearGradient x1="100%" y1="54.0861621%" x2="0%" y2="54.0861621%" id="linearGradient-1">
            <stop stop-color="#0028B4" offset="0%"></stop>
            <stop stop-color="#157EFF" offset="100%"></stop>
        </linearGradient>
        <linearGradient x1="100%" y1="79.7423868%" x2="0%" y2="20.2576132%" id="linearGradient-2">
            <stop stop-color="#533BF5" offset="0%"></stop>
            <stop stop-color="#14EAFB" offset="100%"></stop>
        </linearGradient>
    </defs>
    <g id="页面" stroke="none" stroke-width="1" fill="none" fill-rule="evenodd">
        <g id="banner_3" transform="translate(-173.000000, 0.000000)" fill-rule="nonzero">
            <g id="编组-3" transform="translate(243.000000, 97.000000) scale(-1, 1) translate(-243.000000, -97.000000) translate(103.000000, 0.000000)">
                <g id="banner_3_cloud_back">
                    <path d="M203.178504,18.8204407 L193.585572,13.3371931 C189.189997,10.1240195 182.759126,10.2045858 175.595265,14.3395327 C175.120837,14.6072972 174.663014,14.8916488 174.202819,15.1878484 C173.839881,15.5409184 173.341732,15.1404565 173.341732,15.1404565 L158.397252,6.22603238 L158.345065,6.25683714 C151.741028,2.84461738 142.819411,3.5578661 132.998753,9.22120306 C132.730701,9.37522687 132.465022,9.53635947 132.19697,9.69512247 L132.19697,9.69512247 C131.881475,9.47711954 123.612197,3.86828331 123.289586,3.66449796 C122.769296,3.34855169 122.237146,3.046823 121.693136,2.75931189 C120.583588,2.18566972 119.430282,1.70075434 118.244045,1.30911849 C117.029247,0.90861622 115.785861,0.600479435 114.52453,0.387345238 C106.834053,-0.915933142 97.6657332,1.03898443 87.8237259,6.71653897 C69.088567,17.5195319 52.7990841,38.9857117 44.4799904,61.5513844 C41.775185,62.4577765 39.1710602,63.6401286 36.7088609,65.0797144 C16.4341834,76.7713063 7.10542736e-14,105.206471 7.10542736e-14,128.584915 C7.10542736e-14,138.814466 3.14545716,146.385329 8.38314149,150.683778 C9.67121331,151.740618 19.0814913,157.339976 20.606777,157.993985 C21.7216827,158.467904 28.9709414,156.13622 29.898448,155.295013 C33.2194435,152.280886 29.0800598,154.152868 36.7088609,149.754896 L87.8284701,120.281847 L133.00587,94.2162798 L175.597637,69.6601455 C188.841292,62.0205646 199.577596,43.4452933 199.577596,28.1685011 C199.577596,27.304388 199.542805,26.4687102 199.473222,25.6614674 L203.178504,18.8204407 Z M131.514768,9.82853528 C131.105148,10.2136819 130.696313,10.6071497 130.288262,11.0089385 C129.330127,8.91559502 130.549571,9.35780046 131.514768,9.82853528 Z" id="Shape" fill="url(#linearGradient-1)"></path>
                    <path d="M185.534049,19.9892471 C182.942975,21.4971669 180.534122,23.2947956 178.354519,25.3470375 C173.959472,10.0133259 159.652904,5.13441764 142.681152,14.8685271 C141.866724,15.3426678 141.06025,15.8365645 140.261729,16.3502169 C131.731712,4.11975645 115.661876,1.79646681 97.2394245,12.3626933 C78.3898761,23.1731022 62.0122432,44.6469365 53.6444754,67.2207773 C50.9238445,68.1275926 48.3044832,69.310497 45.8278779,70.7507551 C25.4345754,82.450178 8.90423724,110.898623 8.90423724,134.285615 C8.90423724,157.672607 25.4345754,167.164905 45.8278779,155.467852 L97.2465826,125.98104 L142.68831,99.9032987 L185.534049,75.3238426 C198.855192,67.6830645 209.654313,49.0991181 209.654313,33.8151912 C209.654313,18.5312643 198.855192,12.3413569 185.534049,19.9892471 Z" id="Shape" fill="url(#linearGradient-2)"></path>
                </g>
            </g>
        </g>
    </g>
</svg>