<?xml version="1.0" encoding="UTF-8"?>
<svg width="147px" height="113px" viewBox="0 0 147 113" version="1.1" xmlns="http://www.w3.org/2000/svg" xmlns:xlink="http://www.w3.org/1999/xlink">
    <!-- Generator: Sketch 54.1 (76490) - https://sketchapp.com -->
    <title>banner_3_cloud_front</title>
    <desc>Created with Sketch.</desc>
    <defs>
        <linearGradient x1="100%" y1="54.0861621%" x2="0%" y2="54.0861621%" id="linearGradient-1">
            <stop stop-color="#0028B4" offset="0%"></stop>
            <stop stop-color="#157EFF" offset="100%"></stop>
        </linearGradient>
    </defs>
    <g id="页面" stroke="none" stroke-width="1" fill="none" fill-rule="evenodd">
        <g id="banner_3" transform="translate(-103.000000, -81.000000)" fill-rule="nonzero">
            <g id="编组-3" transform="translate(243.000000, 97.000000) scale(-1, 1) translate(-243.000000, -97.000000) translate(103.000000, 0.000000)">
                <g id="banner_3_cloud_front" transform="translate(133.000000, 81.000000)">
                    <path d="M143,13.2171951 L136.248354,9.36642698 C133.154684,7.10988352 128.628543,7.16646352 123.586513,10.0703487 C123.252604,10.258394 122.930381,10.4580881 122.606489,10.6661028 C122.351048,10.9140563 122.000444,10.6328205 122.000444,10.6328205 L111.4823,4.37241008 L111.44557,4.39404361 C106.797553,1.99771427 100.518388,2.49861366 93.6064657,6.47585472 C93.4178069,6.58402236 93.2308177,6.69718236 93.042159,6.80867824 L93.042159,6.80867824 C92.8201093,6.65557942 87.0000701,2.71661307 86.7730117,2.57349896 C86.4068245,2.35161661 86.0322896,2.13971897 85.6494069,1.93780603 C84.8684913,1.53494935 84.0567774,1.19440359 83.2218862,0.919366065 C82.3668936,0.63810184 81.4917808,0.421703932 80.6040373,0.27202432 C75.1913674,-0.643240358 68.73857,0.729656659 61.8116214,4.71688242 C48.6255429,12.3035945 37.1607668,27.3788358 31.3056671,43.2262277 C29.4019856,43.8627676 27.5691645,44.6931083 25.8362327,45.7040988 C11.5666184,53.914855 0,73.8842662 0,90.3024504 C0,97.4864461 2.21381871,102.803302 5.90017746,105.822011 C6.80674123,106.564208 13.4298323,110.496517 14.5033508,110.955814 C15.2880376,111.288637 20.3901719,109.651146 21.0429646,109.060384 C23.3803297,106.943626 20.466971,108.258279 25.8362327,105.169677 L61.8149605,84.4713823 L93.6114743,66.1660888 L123.588182,48.9208381 C132.909261,43.555723 140.465628,30.5107052 140.465628,19.782139 C140.465628,19.1752908 140.441142,18.588412 140.392168,18.0215026 L143,13.2171951 Z M92.5620155,6.90237122 C92.2737188,7.17285153 91.9859744,7.44917555 91.6987822,7.73134328 C91.024433,6.2612327 91.8826956,6.57178417 92.5620155,6.90237122 Z" id="Shape" fill="url(#linearGradient-1)"></path>
                    <path d="M130.05875,14.0983166 C128.238868,15.1598804 126.546972,16.425397 125.016093,17.8701594 C121.929162,7.07534541 111.880717,3.64063185 99.960338,10.4933694 C99.3883118,10.8271608 98.8218717,11.1748602 98.2610179,11.5364675 C92.269825,2.92631825 80.9829205,1.29074036 68.0436199,8.72928182 C54.8043406,16.3397259 43.3012504,31.4571386 37.4240159,47.3489474 C35.5131376,47.9873384 33.6733877,48.8200938 31.9339046,49.8340244 C17.6103452,58.0703273 6,78.0978116 6,94.5620727 C6,111.026334 17.6103452,117.708838 31.9339046,109.474204 L68.0486474,88.7157162 L99.9653656,70.3571889 L130.05875,53.0534425 C139.415066,47.674394 147,34.5914399 147,23.8316739 C147,13.071908 139.415066,8.71426121 130.05875,14.0983166 Z" id="Shape" fill="#D9F1FF"></path>
                </g>
            </g>
        </g>
    </g>
</svg>