<?xml version="1.0" encoding="UTF-8"?>
<svg width="100px" height="100px" viewBox="0 0 100 100" version="1.1" xmlns="http://www.w3.org/2000/svg" xmlns:xlink="http://www.w3.org/1999/xlink">
    <!-- Generator: Sketch 51.3 (57544) - http://www.bohemiancoding.com/sketch -->
    <title>Group 30</title>
    <desc>Created with Sketch.</desc>
    <defs></defs>
    <g id="页面" stroke="none" stroke-width="1" fill="none" fill-rule="evenodd">
        <g id="Artboard-2" transform="translate(-1445.000000, -398.000000)" fill-rule="nonzero">
            <g id="Group-30" transform="translate(1445.000000, 398.000000)">
                <circle id="Oval-4" fill="#3058E5" cx="50" cy="50" r="50"></circle>
                <path d="M50,82.0807144 L50,82.0826668 C32.4918031,81.9706051 18.3333333,67.7429131 18.3333333,50.2083333 C18.3333333,32.6042569 32.6042569,18.3333333 50.2083333,18.3333333 C67.7429131,18.3333333 81.9706051,32.4918031 82.0826668,50 L82.0807144,50 C82.0824569,50.0692328 82.0833333,50.1386807 82.0833333,50.2083333 C82.0833333,54.6956469 78.4456469,58.3333333 73.9583333,58.3333333 C69.4710197,58.3333333 65.8333333,54.6956469 65.8333333,50.2083333 C65.8333333,50.1386807 65.8342098,50.0692328 65.8359523,50 L65.8333333,50 C65.8333333,41.2554915 58.7445085,34.1666667 50,34.1666667 C41.2554915,34.1666667 34.1666667,41.2554915 34.1666667,50 C34.1666667,58.7445085 41.2554915,65.8333333 50,65.8333333 L50,65.8359523 C50.0692328,65.8342098 50.1386807,65.8333333 50.2083333,65.8333333 C54.6956469,65.8333333 58.3333333,69.4710197 58.3333333,73.9583333 C58.3333333,78.4456469 54.6956469,82.0833333 50.2083333,82.0833333 C50.1386807,82.0833333 50.0692328,82.0824569 50,82.0807144 Z M59.375,63.75 C56.9587542,63.75 55,61.7912458 55,59.375 C55,56.9587542 56.9587542,55 59.375,55 C61.7912458,55 63.75,56.9587542 63.75,59.375 C63.75,61.7912458 61.7912458,63.75 59.375,63.75 Z M73.75,81.6666667 C69.3777457,81.6666667 65.8333333,78.1222543 65.8333333,73.75 C65.8333333,69.3777457 69.3777457,65.8333333 73.75,65.8333333 C78.1222543,65.8333333 81.6666667,69.3777457 81.6666667,73.75 C81.6666667,78.1222543 78.1222543,81.6666667 73.75,81.6666667 Z" id="Combined-Shape" fill="#FFFFFF"></path>
            </g>
        </g>
    </g>
</svg>