<?xml version="1.0" encoding="UTF-8"?>
<svg width="68px" height="109px" viewBox="0 0 68 109" version="1.1" xmlns="http://www.w3.org/2000/svg" xmlns:xlink="http://www.w3.org/1999/xlink">
    <!-- Generator: Sketch 54.1 (76490) - https://sketchapp.com -->
    <title>banner_4_defense</title>
    <desc>Created with Sketch.</desc>
    <defs>
        <radialGradient cx="50%" cy="50.0022678%" fx="50%" fy="50.0022678%" r="66.117029%" gradientTransform="translate(0.500000,0.500023),scale(1.000000,0.623699),translate(-0.500000,-0.500023)" id="radialGradient-1">
            <stop stop-color="#BFA8FB" offset="0%"></stop>
            <stop stop-color="#9DCCFC" offset="100%"></stop>
        </radialGradient>
        <linearGradient x1="69.4500282%" y1="100%" x2="30.5499718%" y2="0%" id="linearGradient-2">
            <stop stop-color="#157EFF" offset="0%"></stop>
            <stop stop-color="#74CAFF" offset="100%"></stop>
        </linearGradient>
        <radialGradient cx="249.85126%" cy="42.2441785%" fx="249.85126%" fy="42.2441785%" r="278.049162%" gradientTransform="translate(2.498513,0.422442),scale(1.000000,0.360359),translate(-2.498513,-0.422442)" id="radialGradient-3">
            <stop stop-color="#BFA8FB" offset="0%"></stop>
            <stop stop-color="#9DCCFC" offset="100%"></stop>
        </radialGradient>
        <linearGradient x1="100%" y1="54.0861621%" x2="0%" y2="54.0861621%" id="linearGradient-4">
            <stop stop-color="#5736FC" offset="0%"></stop>
            <stop stop-color="#00A5FE" offset="100%"></stop>
        </linearGradient>
    </defs>
    <g id="页面" stroke="none" stroke-width="1" fill="none" fill-rule="evenodd">
        <g id="banner_4" transform="translate(-189.000000, -101.000000)" fill-rule="nonzero">
            <g id="编组-2" transform="translate(50.000000, 30.000000)">
                <g id="banner_4_defense" transform="translate(139.000000, 71.000000)">
                    <path d="M36.1899163,18.5005016 C36.1899163,18.5005016 20.6439269,26.1655684 4.61336138,0 C4.61336138,0.175574174 0.0741697971,3.51148348 0,3.39610617 L0,48.0872581 C0,78.1305075 31.5814996,107.897855 31.5814996,107.897855 C31.5814996,107.897855 45.9209937,111.178584 55.2663881,104.130535 L59.6621848,100.89997 C64.3002694,97.50888 67.7714159,91.649719 67.7714159,81.6871387 L67.7714159,36.9959867 C52.5962754,43.7681334 36.1899163,18.5005016 36.1899163,18.5005016 Z" id="Shape" fill="url(#radialGradient-1)"></path>
                    <path d="M36.1899163,18.5005016 C36.1899163,18.5005016 20.6439269,26.1655684 4.61336138,0 C4.61336138,0.175574174 0.0741697971,3.51148348 0,3.39610617 L0,48.0872581 C0,78.1305075 31.5814996,107.897855 31.5814996,107.897855 C31.5814996,107.897855 45.9209937,111.178584 55.2663881,104.130535 L59.6621848,100.89997 C64.3002694,97.50888 67.7714159,91.649719 67.7714159,81.6871387 L67.7714159,36.9959867 C52.5962754,43.7681334 36.1899163,18.5005016 36.1899163,18.5005016 Z" id="Shape" fill="url(#linearGradient-2)"></path>
                    <path d="M31.4937756,107.902029 C31.4937756,107.902029 0,78.3054711 0,48.4345941 L0,3.99486898 C15.9860374,30.010313 31.4937756,22.3892243 31.4937756,22.3892243 C31.4937756,22.3892243 47.8545628,47.5019085 62.9875513,40.7785921 L62.9875513,85.2133296 C62.9875513,115.089194 31.4937756,107.902029 31.4937756,107.902029 Z" id="Shape" fill="#D9F1FF"></path>
                    <path d="M31.892431,22.3712663 L31.892431,107.901871 C31.892431,107.901871 62.9875513,115.090532 62.9875513,85.2084489 L62.9875513,40.7644619 C48.0509881,47.4891779 31.892431,22.3712663 31.892431,22.3712663 Z" id="Shape" fill="url(#radialGradient-3)"></path>
                    <path d="M31.892431,22.3712663 L31.892431,107.901871 C31.892431,107.901871 62.9875513,115.090532 62.9875513,85.2084489 L62.9875513,40.7644619 C48.0509881,47.4891779 31.892431,22.3712663 31.892431,22.3712663 Z" id="Shape" fill="#D9F1FF" opacity="0.503371466"></path>
                    <path d="M48.1800034,46.4644829 C50.8104262,48.061122 53.6797792,49.2149873 56.6759757,49.8810049 L56.6759757,81.4825873 C56.6759757,91.208453 52.371284,97.2534527 43.855588,99.4380318 C39.0528735,100.67995 34.1416788,100.315853 31.5282921,99.9717075 C27.0608621,95.3288924 22.949722,90.3484617 19.2305816,85.0736762 C10.7346093,72.9637264 6.41019388,61.8912023 6.41019388,52.1553612 L6.41019388,20.8530363 C9.06643702,23.5377994 12.0488183,25.8706974 15.2858469,27.7958082 C22.2976129,31.8906471 28.0717183,32.1250654 31.710736,31.586402 C35.4878195,36.1899785 41.3063032,42.449446 48.1800034,46.4644829 Z M48.1109705,38.9980105 C38.781673,33.5515257 31.5085684,22.3892243 31.5085684,22.3892243 C31.5085684,22.3892243 24.6052827,25.7758207 15.2858469,20.3293359 C10.6211982,17.6011058 5.34511551,12.6683462 0,3.99486898 L0,48.4345941 C0,78.3054711 31.4937756,107.902029 31.4937756,107.902029 C31.4937756,107.902029 62.9875513,115.089194 62.9875513,85.2133296 L62.9875513,40.7785921 C57.9530836,43.018035 52.7756193,41.7212529 48.1109705,38.9980105 Z" id="Shape" fill="url(#linearGradient-4)"></path>
                </g>
            </g>
        </g>
    </g>
</svg>