<?xml version="1.0" encoding="UTF-8"?>
<svg width="500px" height="500px" viewBox="0 0 500 500" version="1.1" xmlns="http://www.w3.org/2000/svg" xmlns:xlink="http://www.w3.org/1999/xlink">
    <!-- Generator: Sketch 54.1 (76490) - https://sketchapp.com -->
    <title>banner_2</title>
    <desc>Created with Sketch.</desc>
    <defs>
        <linearGradient x1="100%" y1="77.7436485%" x2="0%" y2="22.2563515%" id="linearGradient-1">
            <stop stop-color="#533BF5" offset="0%"></stop>
            <stop stop-color="#14EAFB" offset="100%"></stop>
        </linearGradient>
        <radialGradient cx="50.0144999%" cy="50.0035002%" fx="50.0144999%" fy="50.0035002%" r="72.7546893%" gradientTransform="translate(0.500145,0.500035),scale(0.561224,1.000000),translate(-0.500145,-0.500035)" id="radialGradient-2">
            <stop stop-color="#BFA8FB" offset="0%"></stop>
            <stop stop-color="#9DCCFC" offset="100%"></stop>
        </radialGradient>
        <linearGradient x1="100%" y1="54.0861621%" x2="0%" y2="54.0861621%" id="linearGradient-3">
            <stop stop-color="#5736FC" offset="0%"></stop>
            <stop stop-color="#00A5FE" offset="100%"></stop>
        </linearGradient>
        <radialGradient cx="44.757801%" cy="52.8225019%" fx="44.757801%" fy="52.8225019%" r="119.692989%" gradientTransform="translate(0.447578,0.528225),scale(0.561224,1.000000),translate(-0.447578,-0.528225)" id="radialGradient-4">
            <stop stop-color="#BFA8FB" offset="0%"></stop>
            <stop stop-color="#9DCCFC" offset="100%"></stop>
        </radialGradient>
        <radialGradient cx="90.4930034%" cy="16.1416895%" fx="90.4930034%" fy="16.1416895%" r="160.336885%" gradientTransform="translate(0.904930,0.161417),scale(0.818182,1.000000),rotate(180.000000),translate(-0.904930,-0.161417)" id="radialGradient-5">
            <stop stop-color="#FFFFFF" offset="0%"></stop>
            <stop stop-color="#FFFFFF" stop-opacity="0" offset="78%"></stop>
            <stop stop-color="#FFFFFF" stop-opacity="0" offset="100%"></stop>
        </radialGradient>
        <radialGradient cx="9.51152607%" cy="16.1482379%" fx="9.51152607%" fy="16.1482379%" r="160.37607%" gradientTransform="translate(0.095115,0.161482),scale(0.818182,1.000000),translate(-0.095115,-0.161482)" id="radialGradient-6">
            <stop stop-color="#FFFFFF" offset="0%"></stop>
            <stop stop-color="#FFFFFF" stop-opacity="0" offset="78%"></stop>
            <stop stop-color="#FFFFFF" stop-opacity="0" offset="100%"></stop>
        </radialGradient>
        <radialGradient cx="9.51256945%" cy="16.3128043%" fx="9.51256945%" fy="16.3128043%" r="160.405534%" gradientTransform="translate(0.095126,0.163128),scale(0.818182,1.000000),translate(-0.095126,-0.163128)" id="radialGradient-7">
            <stop stop-color="#FFFFFF" offset="0%"></stop>
            <stop stop-color="#FFFFFF" stop-opacity="0" offset="78%"></stop>
            <stop stop-color="#FFFFFF" stop-opacity="0" offset="100%"></stop>
        </radialGradient>
        <radialGradient cx="49.930569%" cy="49.9029348%" fx="49.930569%" fy="49.9029348%" r="70.8730349%" gradientTransform="translate(0.499306,0.499029),scale(0.577487,1.000000),rotate(60.004556),translate(-0.499306,-0.499029)" id="radialGradient-8">
            <stop stop-color="#BFA8FB" offset="0%"></stop>
            <stop stop-color="#9DCCFC" offset="100%"></stop>
        </radialGradient>
        <radialGradient cx="49.9778875%" cy="49.9139797%" fx="49.9778875%" fy="49.9139797%" r="70.8730349%" gradientTransform="translate(0.499779,0.499140),scale(0.577487,1.000000),rotate(60.004556),translate(-0.499779,-0.499140)" id="radialGradient-9">
            <stop stop-color="#BFA8FB" offset="0%"></stop>
            <stop stop-color="#9DCCFC" offset="100%"></stop>
        </radialGradient>
        <radialGradient cx="49.991986%" cy="50.0677188%" fx="49.991986%" fy="50.0677188%" r="70.8730349%" gradientTransform="translate(0.499920,0.500677),scale(1.000000,0.577487),rotate(29.995444),translate(-0.499920,-0.500677)" id="radialGradient-10">
            <stop stop-color="#BFA8FB" offset="0%"></stop>
            <stop stop-color="#9DCCFC" offset="100%"></stop>
        </radialGradient>
        <radialGradient cx="50.1281335%" cy="49.9544812%" fx="50.1281335%" fy="49.9544812%" r="70.8730127%" gradientTransform="translate(0.501281,0.499545),scale(1.000000,0.577488),rotate(29.995412),translate(-0.501281,-0.499545)" id="radialGradient-11">
            <stop stop-color="#BFA8FB" offset="0%"></stop>
            <stop stop-color="#9DCCFC" offset="100%"></stop>
        </radialGradient>
        <linearGradient x1="100%" y1="54.0861621%" x2="0%" y2="54.0861621%" id="linearGradient-12">
            <stop stop-color="#5736FC" offset="0%"></stop>
            <stop stop-color="#00A5FE" offset="100%"></stop>
        </linearGradient>
        <linearGradient x1="17.1987826%" y1="61.0783463%" x2="67.2867096%" y2="43.4141597%" id="linearGradient-13">
            <stop stop-color="#FFFFFF" stop-opacity="0.23" offset="0%"></stop>
            <stop stop-color="#FFFFFF" stop-opacity="0" offset="100%"></stop>
        </linearGradient>
        <linearGradient x1="17.201833%" y1="61.0783463%" x2="67.2837544%" y2="43.4141597%" id="linearGradient-14">
            <stop stop-color="#FFFFFF" stop-opacity="0.23" offset="0%"></stop>
            <stop stop-color="#FFFFFF" stop-opacity="0" offset="100%"></stop>
        </linearGradient>
        <linearGradient x1="100%" y1="77.2900227%" x2="0%" y2="22.7099773%" id="linearGradient-15">
            <stop stop-color="#533BF5" offset="0%"></stop>
            <stop stop-color="#14EAFB" offset="100%"></stop>
        </linearGradient>
        <radialGradient cx="9.5089389%" cy="16.151702%" fx="9.5089389%" fy="16.151702%" r="143.496476%" gradientTransform="translate(0.095089,0.161517),scale(0.914244,1.000000),translate(-0.095089,-0.161517)" id="radialGradient-16">
            <stop stop-color="#FFFFFF" offset="0%"></stop>
            <stop stop-color="#FFFFFF" stop-opacity="0" offset="78%"></stop>
            <stop stop-color="#FFFFFF" stop-opacity="0" offset="100%"></stop>
        </radialGradient>
        <radialGradient cx="9.5089389%" cy="16.151702%" fx="9.5089389%" fy="16.151702%" r="175.384581%" gradientTransform="translate(0.095089,0.161517),scale(0.748018,1.000000),translate(-0.095089,-0.161517)" id="radialGradient-17">
            <stop stop-color="#FFFFFF" offset="0%"></stop>
            <stop stop-color="#FFFFFF" stop-opacity="0" offset="78%"></stop>
            <stop stop-color="#FFFFFF" stop-opacity="0" offset="100%"></stop>
        </radialGradient>
        <radialGradient cx="90.4912759%" cy="16.1158966%" fx="90.4912759%" fy="16.1158966%" r="189.981611%" gradientTransform="translate(0.904913,0.161159),scale(0.690478,1.000000),rotate(180.000000),translate(-0.904913,-0.161159)" id="radialGradient-18">
            <stop stop-color="#FFFFFF" offset="0%"></stop>
            <stop stop-color="#FFFFFF" stop-opacity="0" offset="78%"></stop>
            <stop stop-color="#FFFFFF" stop-opacity="0" offset="100%"></stop>
        </radialGradient>
        <radialGradient cx="90.4883767%" cy="16.1482492%" fx="90.4883767%" fy="16.1482492%" r="143.526362%" gradientTransform="translate(0.904884,0.161482),scale(0.914244,1.000000),rotate(180.000000),translate(-0.904884,-0.161482)" id="radialGradient-19">
            <stop stop-color="#FFFFFF" offset="0%"></stop>
            <stop stop-color="#FFFFFF" stop-opacity="0" offset="78%"></stop>
            <stop stop-color="#FFFFFF" stop-opacity="0" offset="100%"></stop>
        </radialGradient>
    </defs>
    <g id="banner_2" stroke="none" stroke-width="1" fill="none" fill-rule="evenodd">
        <g id="编组-7" transform="translate(22.000000, 0.000000)">
            <path d="M455.982925,133.078971 C456.023993,132.249491 455.567784,131.4735 454.817716,131.097003 L410.212957,105.681998 C408.44146,104.672315 405.34371,104.798526 403.302227,105.962465 L359.687421,130.811861 C358.436953,131.527053 358.024867,132.396501 358.024867,133.312694 C357.991711,133.499672 357.991711,149.724702 358.024867,149.907005 C357.983799,150.736486 358.440008,151.512477 359.190076,151.888974 L403.794835,177.318002 C405.566332,178.327685 408.664082,178.201474 410.710302,177.037535 L454.320371,152.188139 C455.570839,151.472947 455.982925,150.589475 455.982925,149.687306 C456.016081,149.486304 455.992398,133.448253 455.982925,133.078971 Z" id="Shape" fill="url(#linearGradient-1)" fill-rule="nonzero"></path>
            <path d="M403.807509,160.332178 L359.197896,135.301964 C357.426395,134.307569 357.649016,132.567378 359.671559,131.421061 L403.286479,106.947893 C405.332705,105.801576 408.425727,105.677277 410.197228,106.671672 L454.802104,131.701886 C456.573605,132.696281 456.350984,134.431869 454.328441,135.578185 L410.718257,160.051354 C408.672032,161.19767 405.57901,161.32197 403.807509,160.332178 Z" id="Shape" fill="url(#radialGradient-2)" fill-rule="nonzero"></path>
            <path d="M403.807509,160.332178 L359.197896,135.301964 C357.426395,134.307569 357.649016,132.567378 359.671559,131.421061 L403.286479,106.947893 C405.332705,105.801576 408.425727,105.677277 410.197228,106.671672 L454.802104,131.701886 C456.573605,132.696281 456.350984,134.431869 454.328441,135.578185 L410.718257,160.051354 C408.672032,161.19767 405.57901,161.32197 403.807509,160.332178 Z" id="Shape" fill="#D9F1FF" fill-rule="nonzero"></path>
            <path d="M97.9803218,133.084366 C98.0213887,132.254727 97.5651919,131.478586 96.815144,131.102017 L52.2115696,105.682129 C50.4401205,104.672253 47.3424527,104.798487 45.3010233,105.96265 L1.68737638,130.816821 C0.436941673,131.53215 0.0248665993,132.401765 0.0248665993,133.318134 C-0.00828886643,133.505148 -0.00828886643,149.733295 0.0248665993,149.915634 C-0.0162002799,150.745273 0.439996511,151.521414 1.19004439,151.897983 L45.7936188,177.317871 C47.5650679,178.327747 50.6627357,178.201513 52.7089016,177.03735 L96.327285,152.183179 C97.5777197,151.46785 97.9897948,150.584209 97.9897948,149.681866 C98.0134773,149.494852 97.9897948,133.453719 97.9803218,133.084366 Z" id="Shape" fill="url(#linearGradient-3)" fill-rule="nonzero"></path>
            <path d="M45.7996909,159.330328 L1.19553896,134.300966 C-0.57574505,133.306605 -0.353150536,131.571076 1.69282458,130.420195 L45.3024053,105.94786 C47.3483804,104.801583 50.4410233,104.677288 52.2123074,105.671649 L96.8022511,130.70101 C98.5735351,131.695372 98.3509406,133.4309 96.3286458,134.577178 L52.709593,159.049513 C50.6636179,160.19579 47.5709749,160.324689 45.7996909,159.330328 Z" id="Shape" fill="url(#radialGradient-4)" fill-rule="nonzero"></path>
            <path d="M45.7996909,159.330328 L1.19553896,134.300966 C-0.57574505,133.306605 -0.353150536,131.571076 1.69282458,130.420195 L45.3024053,105.94786 C47.3483804,104.801583 50.4410233,104.677288 52.2123074,105.671649 L96.8022511,130.70101 C98.5735351,131.695372 98.3509406,133.4309 96.3286458,134.577178 L52.709593,159.049513 C50.6636179,160.19579 47.5709749,160.324689 45.7996909,159.330328 Z" id="Shape" fill="#D9F1FF" fill-rule="nonzero"></path>
            <path d="M276.984858,28.0915631 C277.025923,27.2617106 276.569749,26.4853715 275.819739,26.1087058 L231.218412,0.682303345 C229.447052,-0.327831461 226.34954,-0.20156461 224.303477,0.962896347 L180.687291,25.8047301 C179.43692,26.5202422 179.024865,27.3900805 179.024865,28.3066844 C178.991712,28.4937464 178.991712,44.7260515 179.024865,44.9084369 C178.983801,45.7382894 179.439974,46.5146285 180.189984,46.8912942 L224.791312,72.3176967 C226.562672,73.3278315 229.660183,73.2015646 231.70151,72.0371037 L275.31296,47.1765637 C276.563331,46.4610516 276.975386,45.5771836 276.975386,44.6746094 C277.018012,44.5109302 276.994331,28.4610105 276.984858,28.0915631 Z" id="Shape" fill="url(#linearGradient-1)" fill-rule="nonzero"></path>
            <path d="M224.784858,55.3303278 L180.197923,30.3009664 C178.426382,29.3066051 178.649008,27.566473 180.671597,26.4201954 L224.287501,1.94786042 C226.329036,0.801582883 229.426864,0.677287728 231.198405,1.67164897 L275.804288,26.7010104 C277.575829,27.6953716 277.353202,29.4309003 275.30693,30.5771778 L231.695763,55.0495128 C229.654227,56.1957904 226.556399,56.324689 224.784858,55.3303278 Z" id="Shape" fill="#D9F1FF" fill-rule="nonzero"></path>
            <path d="M224.784858,55.3303278 L180.197923,30.3009664 C178.426382,29.3066051 178.649008,27.566473 180.671597,26.4201954 L224.287501,1.94786042 C226.329036,0.801582883 229.426864,0.677287728 231.198405,1.67164897 L275.804288,26.7010104 C277.575829,27.6953716 277.353202,29.4309003 275.30693,30.5771778 L231.695763,55.0495128 C229.654227,56.1957904 226.556399,56.324689 224.784858,55.3303278 Z" id="Shape" stroke="#FFFFFF" stroke-width="0.5" opacity="0.22" style="mix-blend-mode: overlay;"></path>
            <path d="M178.579659,48.7789181 C178.631918,48.7386255 178.689063,48.7068181 178.749375,48.684453 C178.803714,48.6450889 178.862219,48.6133596 178.923557,48.5899879 C178.975816,48.5496953 179.032961,48.5178879 179.093273,48.4955228 C179.145224,48.4558625 179.202512,48.425654 179.262989,48.4060296 C179.316583,48.3662548 186.730489,44.3191708 186.793016,44.3042552 C186.845334,44.2610542 186.904392,44.2290246 186.967198,44.2097901 C187.017039,44.1651329 187.074917,44.1329176 187.136914,44.115325 C187.384899,43.9465584 187.700471,43.9643207 187.931899,44.1600717 C188.558547,44.6136695 188.953374,45.3726854 188.994857,46.203501 C189.02998,46.5282929 188.882906,46.8439071 188.624162,46.9989967 C188.576224,47.0461738 188.52198,47.0847534 188.463378,47.1133492 C188.416605,47.1622188 188.362086,47.2009937 188.302595,47.2277017 C188.257025,47.2782668 188.202179,47.3172743 188.141811,47.3420542 C188.096427,47.3917698 188.043507,47.4321657 187.985494,47.4613785 C187.937556,47.5085556 187.883312,47.5471352 187.82471,47.575731 C187.777937,47.6246006 187.723419,47.6633755 187.663927,47.6900835 C187.617737,47.7410157 187.563142,47.781533 187.503143,47.8094078 C187.457579,47.8575964 187.40464,47.8963237 187.346826,47.9237603 C187.239778,47.9998987 187.132598,48.0761897 187.025395,48.1524343 C186.978382,48.2022318 186.923986,48.2426016 186.864612,48.2717587 C186.819949,48.3214771 182.29568,51.5979247 182.233153,51.6277558 C182.191906,51.671355 182.145286,51.7081857 182.094701,51.7371365 C182.043888,51.7875767 181.986708,51.8294538 181.924985,51.8614327 C181.877047,51.9086098 181.822803,51.9471894 181.764201,51.9757852 C181.718817,52.0255008 181.665898,52.0658967 181.607884,52.0951095 C181.558851,52.1406447 181.504825,52.1790691 181.447101,52.209462 C181.399163,52.2566391 181.344919,52.2952187 181.286317,52.3238145 C181.23975,52.3719083 181.187081,52.4121136 181.13,52.4431389 C181.080966,52.488674 181.02694,52.5270984 180.969216,52.5574914 C180.920183,52.6030265 180.866157,52.6414509 180.808433,52.6718438 C180.761352,52.7178594 180.70874,52.756347 180.652116,52.7861963 C180.307399,53.0712679 179.835618,53.0712679 179.490901,52.7861963 C178.616357,52.1529977 178.066824,51.0921425 178.012586,49.9323558 C177.941717,49.4486203 178.175448,48.9732064 178.579659,48.7789181 L178.579659,48.7789181 Z" id="Shape" fill="url(#radialGradient-5)" fill-rule="nonzero" opacity="0.9" style="mix-blend-mode: soft-light;"></path>
            <path d="M251.423131,62.7832237 C251.370341,62.7438694 251.313304,62.7120948 251.253373,62.6886531 C251.200964,62.6498189 251.143785,62.6196416 251.083616,62.5990598 C251.030267,62.5577112 250.971497,62.5258102 250.909391,62.5044892 C250.857119,62.4641515 250.79996,62.4323086 250.739634,62.4099185 C250.686844,62.3705642 250.629807,62.3387896 250.569876,62.3153479 C250.517467,62.2765137 250.460288,62.2463364 250.400119,62.2257546 C250.34677,62.184406 250.288,62.152505 250.225894,62.131184 C250.173104,62.0918296 250.116068,62.0600551 250.056137,62.0366134 C250.001201,61.9952172 249.940953,61.9633319 249.877445,61.9420427 C249.827476,61.9059489 249.773385,61.8774896 249.716622,61.8574269 C249.664658,61.8177222 249.607356,61.78748 249.546865,61.7678336 C249.494534,61.7245843 249.435461,61.692519 249.37264,61.673263 C249.321406,61.6310071 249.263963,61.5990063 249.202882,61.5786923 C249.150092,61.5393379 249.093056,61.5075634 249.033125,61.4841217 C248.978773,61.4447135 248.920253,61.4129487 248.8589,61.389551 C248.807441,61.3488771 248.749988,61.3185549 248.689143,61.2999578 C248.638433,61.2567591 248.580829,61.2246684 248.519386,61.2053871 C248.467055,61.1621378 248.407982,61.1300725 248.345161,61.1108165 C248.292889,61.0704788 248.23573,61.0386359 248.175403,61.0162458 C248.122613,60.9768915 248.065577,60.9451169 248.005646,60.9216752 C247.952124,60.881862 247.893337,60.8516314 247.831421,60.8320819 C247.781568,60.7873748 247.723676,60.7551235 247.661664,60.7375113 C247.61043,60.6952554 247.552987,60.6632546 247.491907,60.6429406 C247.437554,60.6035325 247.379035,60.5717677 247.317682,60.54837 C247.26541,60.5080323 247.208251,60.4761894 247.147924,60.4537993 C247.095515,60.4149651 247.038336,60.3847878 246.978167,60.3642061 C246.925837,60.3209568 246.866764,60.2888914 246.803942,60.2696354 C246.754089,60.2249283 246.696197,60.192677 246.634185,60.1750648 C246.581913,60.1347271 246.524754,60.1028842 246.464428,60.0804941 C246.410075,60.041086 246.351556,60.0093212 246.290203,59.9859235 C246.238744,59.9452495 246.18129,59.9149274 246.120445,59.8963302 C246.068115,59.8530809 246.009042,59.8210156 245.946221,59.8017596 C245.896368,59.7570525 245.838476,59.7248011 245.776463,59.7071889 C245.724712,59.6658802 245.667417,59.6339614 245.606706,59.6126183 C245.552354,59.5732102 245.493834,59.5414454 245.432481,59.5180476 C245.381022,59.4773737 245.323569,59.4470515 245.262724,59.4284544 C245.212014,59.3852557 245.15441,59.3531651 245.092966,59.3338837 C245.040636,59.2906344 244.981563,59.2585691 244.918742,59.2393131 C244.867508,59.1970572 244.810065,59.1650564 244.748984,59.1447425 C244.697233,59.1034337 244.639938,59.0715149 244.579227,59.0501718 C244.525705,59.0103586 244.466918,58.9801281 244.405002,58.9605786 C244.355149,58.9158714 244.297257,58.8836201 244.235245,58.8660079 C244.184535,58.8228092 244.126931,58.7907186 244.065487,58.7714373 C244.012139,58.7300886 243.953369,58.6981876 243.891263,58.6768666 C243.840029,58.6346108 243.782586,58.6026099 243.721505,58.582296 C243.670559,58.5406539 243.61294,58.510244 243.551748,58.4927027 C243.499418,58.4494534 243.440345,58.4173881 243.377523,58.3981321 C243.32767,58.3534249 243.269778,58.3211736 243.207766,58.3035614 C243.157056,58.2603627 243.099452,58.2282721 243.038008,58.2089908 C242.98466,58.1676422 242.925889,58.1357411 242.863784,58.1144201 C242.615418,57.9468733 242.300535,57.9646123 242.068604,58.1592167 C241.441653,58.6154778 241.046908,59.3768442 241.005387,60.2099066 C240.96906,60.5353013 241.118921,60.8513571 241.38064,61.0013136 C241.424922,61.0513423 241.478209,61.0903579 241.536996,61.1157939 C241.584768,61.1645946 241.639014,61.2048881 241.697818,61.2352515 C241.745768,61.2824813 241.800025,61.3211041 241.858641,61.3497318 C241.904222,61.4003534 241.959081,61.4394045 242.019464,61.4642121 C242.063746,61.5142407 242.117033,61.5532563 242.17582,61.5786923 C242.223592,61.627493 242.277838,61.6677865 242.336642,61.69815 C242.384592,61.7453798 242.438849,61.7840025 242.497465,61.8126302 C242.543046,61.8632519 242.597905,61.9023029 242.658288,61.9271105 C242.703683,61.9768817 242.756616,62.0173227 242.814643,62.0465682 C242.862593,62.0937979 242.91685,62.1324207 242.975466,62.1610484 C243.082789,62.2374336 243.189889,62.3137115 243.297079,62.3900137 C243.342474,62.4397849 243.395406,62.480226 243.453434,62.5094714 C243.501383,62.5567012 243.555641,62.5953239 243.614257,62.6239517 C243.661041,62.6728759 243.715573,62.7116941 243.77508,62.7384319 C243.880341,62.8171905 243.98607,62.8951715 244.092258,62.9723698 C244.139042,63.021294 244.193574,63.0601123 244.253081,63.0868501 C244.300853,63.1356508 244.355099,63.1759443 244.413904,63.2063078 C244.462949,63.2518938 244.516988,63.2903611 244.574726,63.320788 C244.620301,63.3690304 244.673254,63.407801 244.731082,63.4352683 C244.777866,63.4841925 244.832398,63.5230107 244.891905,63.5497485 C244.939677,63.5985493 244.993923,63.6388427 245.052727,63.6692062 C245.101773,63.7147922 245.155812,63.7532596 245.21355,63.7836865 C245.258745,63.8324608 245.31179,63.8712998 245.369906,63.8981667 C245.417678,63.9469674 245.471924,63.9872609 245.530729,64.0176244 C245.579774,64.0632104 245.633813,64.1016777 245.691551,64.1321046 C245.739501,64.1793344 245.793758,64.2179572 245.852374,64.2465849 C245.899399,64.296438 245.953808,64.3368529 246.013197,64.3660426 C246.05991,64.4126621 246.11261,64.4512477 246.169552,64.4805228 C246.218598,64.5261088 246.272637,64.5645762 246.330375,64.5950031 C246.37716,64.6439273 246.431692,64.6827455 246.491198,64.7094833 C246.538223,64.7593364 246.592632,64.7997514 246.652021,64.828941 C246.698734,64.8755605 246.751434,64.9141462 246.808376,64.9434213 C246.856326,64.990651 246.910583,65.0292738 246.969199,65.0579015 C247.016972,65.1067022 247.071218,65.1469957 247.130022,65.1773592 C247.178378,65.2239841 247.23255,65.2625459 247.290845,65.2918394 C247.337558,65.338459 247.390258,65.3770446 247.4472,65.4063197 C247.493985,65.4552439 247.548517,65.4940621 247.608023,65.5208 C247.655796,65.5696007 247.710042,65.6098942 247.768846,65.6402576 C247.812835,65.6823648 247.860762,65.719077 247.911799,65.7497605 C247.961405,65.7996434 248.017043,65.8415296 248.07709,65.8741955 C248.126135,65.9197816 248.180174,65.9582489 248.237912,65.9886758 C248.286958,66.0342618 248.340997,66.0727292 248.398735,66.1031561 C248.44431,66.1513984 248.497263,66.190169 248.555091,66.2176363 C248.602863,66.266437 248.657109,66.3067305 248.715913,66.337094 C248.764959,66.38268 248.818998,66.4211473 248.876736,66.4515742 C248.923449,66.4981938 248.976149,66.5367794 249.033092,66.5660545 C249.08203,66.6131736 249.136055,66.653303 249.193915,66.6855122 C249.24296,66.7310982 249.296999,66.7695655 249.354737,66.7999924 C249.703499,67.0755941 250.172813,67.0654995 250.511768,66.7751054 C251.384903,66.1394873 251.93405,65.0784514 251.990444,63.9180763 C252.05101,63.4408757 251.819155,62.9770733 251.423131,62.7832237 L251.423131,62.7832237 Z" id="Shape" fill="url(#radialGradient-6)" fill-rule="nonzero" opacity="0.9" style="mix-blend-mode: soft-light;"></path>
            <path d="M275.424968,48.7977598 C275.371668,48.759375 275.314727,48.727662 275.255179,48.7031969 C275.201648,48.663387 275.14285,48.633159 275.080923,48.6136111 C275.029679,48.5713587 274.972226,48.5393605 274.911134,48.5190482 C274.858334,48.4796971 274.801288,48.4479252 274.741346,48.4244854 C274.688046,48.3861006 274.631105,48.3543876 274.571557,48.3299226 C274.517195,48.2905177 274.458665,48.2587555 274.3973,48.2353597 C274.344342,48.197602 274.287288,48.1674986 274.227512,48.1457739 C274.17523,48.1054395 274.11806,48.0735993 274.057723,48.051211 C273.997382,48.0157891 273.932622,47.9906254 273.865594,47.9765562 C273.817713,47.9395037 273.764956,47.9109605 273.70921,47.8919473 C273.65591,47.8535625 273.598969,47.8218495 273.539421,47.7973845 C273.485889,47.7575745 273.427092,47.7273465 273.365164,47.7077986 C273.314445,47.6646035 273.25683,47.6325155 273.195376,47.6132358 C273.142076,47.574851 273.085135,47.543138 273.025587,47.5186729 C272.971225,47.4792681 272.912695,47.4475059 272.851331,47.4241101 C272.798531,47.384759 272.741484,47.352987 272.681542,47.3295473 C272.62801,47.2897373 272.569213,47.2595093 272.507285,47.2399614 C272.457423,47.195258 272.39952,47.1630093 272.337497,47.1453986 C272.284697,47.1060474 272.22765,47.0742755 272.167708,47.0508357 C272.113346,47.0114309 272.054816,46.9796687 271.993451,46.9562729 C271.941983,46.9156023 271.884519,46.8852826 271.823663,46.866687 C271.772943,46.8234919 271.715329,46.7914039 271.653874,46.7721242 C271.601534,46.7288785 271.54245,46.6968158 271.479617,46.6775614 C271.428374,46.635309 271.370921,46.6033108 271.309829,46.5829985 C271.257029,46.5436474 271.199982,46.5118754 271.14004,46.4884357 C271.086509,46.4486257 271.027711,46.4183977 270.965784,46.3988498 C270.915921,46.3541464 270.858019,46.3218977 270.795995,46.304287 C270.745275,46.2610918 270.687661,46.2290039 270.626206,46.2097241 C270.572848,46.1683789 270.514067,46.1364805 270.45195,46.1151613 C270.404393,46.0633767 270.350182,46.019765 270.291097,45.9857595 C270.237798,45.9473747 270.180857,45.9156617 270.121309,45.8911967 C270.067777,45.8513867 270.008979,45.8211587 269.947052,45.8016108 C269.89719,45.7569074 269.839287,45.7246587 269.777263,45.707048 C269.724982,45.6667136 269.667812,45.6348734 269.607475,45.6124851 C269.554116,45.5711399 269.495335,45.5392415 269.433218,45.5179223 C269.381749,45.4772517 269.324286,45.4469321 269.26343,45.4283365 C269.21109,45.3850907 269.152006,45.353028 269.089173,45.3337736 C269.039311,45.2890702 268.981408,45.2568215 268.919384,45.2392108 C268.867624,45.1979054 268.810318,45.1659893 268.749596,45.1446479 C268.696237,45.1033027 268.637456,45.0714043 268.575339,45.0500851 C268.52387,45.0094145 268.466407,44.9790949 268.40555,44.9604992 C268.354831,44.9173041 268.297216,44.8852161 268.235762,44.8659364 C268.183422,44.8226907 268.124338,44.790628 268.061505,44.7713736 C268.011643,44.7266701 267.95374,44.6944215 267.891716,44.6768107 C267.839956,44.6355053 267.78265,44.6035893 267.721928,44.5822479 C267.669409,44.5404606 267.610292,44.5100686 267.547671,44.492662 C267.497809,44.4479586 267.439906,44.4157099 267.377883,44.3980992 C267.327163,44.354904 267.269549,44.3228161 267.208094,44.3035364 C267.155754,44.2602906 267.09667,44.2282279 267.033837,44.2089735 C266.982594,44.1667211 266.925141,44.134723 266.864049,44.1144107 C266.615638,43.9468777 266.300697,43.9646152 266.068723,44.1592036 C265.441656,44.6154269 265.04684,45.3767305 265.005311,46.2097241 C264.969511,46.5336723 265.117088,46.8485774 265.376165,47.0010658 C265.483262,47.077446 265.590683,47.1537681 265.697983,47.2301283 C265.743133,47.2825422 265.798035,47.3233123 265.858836,47.3495761 C265.904419,47.3978145 265.957381,47.4365819 266.01522,47.4640469 C266.062013,47.5129671 266.116555,47.5517821 266.176072,47.5785177 C266.223853,47.6273144 266.27811,47.6676046 266.336925,47.6979655 C266.383382,47.7473638 266.438011,47.7862406 266.497777,47.8124363 C266.542067,47.8624609 266.595364,47.9014732 266.654161,47.9269071 C266.701942,47.9757038 266.756198,48.015994 266.815014,48.0463549 C266.862972,48.0935808 266.917239,48.1322004 266.975866,48.1608257 C267.023079,48.2091415 267.077517,48.2478827 267.136718,48.2752966 C267.181008,48.3253211 267.234305,48.3643335 267.293102,48.3897674 C267.340884,48.438564 267.39514,48.4788542 267.453955,48.5092152 C267.501913,48.556441 267.55618,48.5950606 267.614807,48.623686 C267.6616,48.6726061 267.716142,48.7114212 267.775659,48.7381568 C267.821063,48.7879238 267.874005,48.8283616 267.932044,48.8576046 C267.981098,48.9031868 268.035147,48.941651 268.092896,48.9720754 C268.140854,49.0193013 268.195122,49.0579208 268.253748,49.0865462 C268.359029,49.1652982 268.464777,49.2432728 268.570985,49.3204648 C268.618943,49.3676907 268.673211,49.4063102 268.731837,49.4349356 C268.77863,49.4838558 268.833172,49.5226708 268.89269,49.5494064 C268.99797,49.6281584 269.103718,49.706133 269.209926,49.783325 C269.257884,49.8305509 269.312152,49.8691705 269.370779,49.8977958 C269.41856,49.9465925 269.472816,49.9868827 269.531631,50.0172436 C269.580686,50.0628259 269.634735,50.10129 269.692483,50.1317144 C269.73881,50.1788983 269.791603,50.2175415 269.848868,50.2461852 C269.89566,50.2951054 269.950203,50.3339204 270.00972,50.360656 C270.057501,50.4094527 270.111757,50.4497429 270.170572,50.4801038 C270.219627,50.5256861 270.273676,50.5641502 270.331425,50.5945746 C270.377752,50.6417585 270.430544,50.6804017 270.487809,50.7090454 C270.53559,50.7578421 270.589846,50.7981323 270.648661,50.8284932 C270.697716,50.8740755 270.751765,50.9125397 270.809513,50.9429641 C270.858568,50.9885463 270.912617,51.0270105 270.970366,51.0574349 C271.017399,51.1072838 271.071819,51.1476954 271.131218,51.1768827 C271.17794,51.2234983 271.230649,51.2620808 271.287602,51.2913535 C271.336657,51.3369357 271.390706,51.3753999 271.448455,51.4058243 C271.495248,51.4547444 271.54979,51.4935595 271.609307,51.5202951 C271.65634,51.5701441 271.71076,51.6105557 271.770159,51.6397429 C271.812579,51.6817974 271.85903,51.7185169 271.908671,51.7492367 C271.960641,51.798059 272.017637,51.839827 272.07846,51.8736615 C272.127514,51.9192437 272.181563,51.9577079 272.239312,51.9881323 C272.286034,52.034748 272.338743,52.0733304 272.395696,52.1026031 C272.443654,52.149829 272.497922,52.1884486 272.556549,52.2170739 C272.661829,52.2958259 272.767577,52.3738005 272.873785,52.4509925 C272.92284,52.4965748 272.976889,52.5350389 273.034638,52.5654633 C273.082596,52.6126892 273.136863,52.6513088 273.19549,52.6799341 C273.24249,52.727499 273.295105,52.7676867 273.351874,52.7993819 C273.702099,53.0757961 274.17316,53.0657055 274.513586,52.774497 C275.386881,52.1389313 275.936129,51.0779831 275.992534,49.9177038 C276.045259,49.4459325 275.814829,48.9912381 275.424968,48.7977598 Z" id="Shape" fill="url(#radialGradient-7)" fill-rule="nonzero" opacity="0.9" style="mix-blend-mode: soft-light;"></path>
            <ellipse id="Oval" fill="url(#radialGradient-8)" fill-rule="nonzero" transform="translate(265.689490, 46.207609) rotate(-60.000000) translate(-265.689490, -46.207609) " cx="265.68949" cy="46.2076086" rx="1.58880894" ry="1"></ellipse>
            <ellipse id="Oval" stroke="#FFFFFF" stroke-width="0.5" opacity="0.22" style="mix-blend-mode: overlay;" transform="translate(265.689490, 46.207609) rotate(-60.000000) translate(-265.689490, -46.207609) " cx="265.68949" cy="46.2076086" rx="1.58880894" ry="1"></ellipse>
            <ellipse id="Oval" fill="url(#radialGradient-9)" fill-rule="nonzero" transform="translate(242.019564, 59.611750) rotate(-60.000000) translate(-242.019564, -59.611750) " cx="242.019564" cy="59.6117505" rx="1.58880894" ry="1"></ellipse>
            <ellipse id="Oval" stroke="#FFFFFF" stroke-width="0.5" opacity="0.22" style="mix-blend-mode: overlay;" transform="translate(242.019564, 59.611750) rotate(-60.000000) translate(-242.019564, -59.611750) " cx="242.019564" cy="59.6117505" rx="1.58880894" ry="1"></ellipse>
            <ellipse id="Oval" fill="url(#radialGradient-10)" fill-rule="nonzero" transform="translate(188.892471, 45.560221) rotate(-30.000000) translate(-188.892471, -45.560221) " cx="188.892471" cy="45.5602211" rx="1" ry="1.58880894"></ellipse>
            <ellipse id="Oval" stroke="#FFFFFF" stroke-width="0.5" opacity="0.22" style="mix-blend-mode: overlay;" transform="translate(188.892471, 45.560221) rotate(-30.000000) translate(-188.892471, -45.560221) " cx="188.892471" cy="45.5602211" rx="1" ry="1.58880894"></ellipse>
            <ellipse id="Oval" fill="url(#radialGradient-11)" fill-rule="nonzero" transform="translate(214.755242, 60.451644) rotate(-29.886527) translate(-214.755242, -60.451644) " cx="214.755242" cy="60.4516437" rx="1" ry="1.5942799"></ellipse>
            <ellipse id="Oval" stroke="#FFFFFF" stroke-width="0.501722035" opacity="0.22" style="mix-blend-mode: overlay;" transform="translate(214.755242, 60.451644) rotate(-29.886527) translate(-214.755242, -60.451644) " cx="214.755242" cy="60.4516437" rx="1" ry="1.5942799"></ellipse>
            <path d="M265,47 L393,120" id="Shape" stroke="#FFFFFF" opacity="0.199907" style="mix-blend-mode: overlay;"></path>
            <path d="M242,60 L370,133" id="Shape" stroke="#FFFFFF" opacity="0.199907" style="mix-blend-mode: overlay;"></path>
            <path d="M86,133 L214,60" id="Shape" stroke="#FFFFFF" opacity="0.199907" style="mix-blend-mode: overlay;"></path>
            <path d="M61,120 L189,47" id="Shape" stroke="#FFFFFF" opacity="0.199907" style="mix-blend-mode: overlay;"></path>
            <path d="M97.9974115,112.089764 C98.0388326,111.25861 97.5802753,110.481424 96.8275551,110.107033 L52.2261884,84.6822596 C50.4548269,83.6721895 47.3620487,83.7984483 45.3159841,84.9628347 L1.69028708,109.807753 C0.435178004,110.52322 0.0231233261,111.393002 0.0231233261,112.309547 C-0.00529423791,112.496597 -0.0100304986,128.727863 0.0231233261,128.910236 C-0.0182977098,129.74139 0.440259518,130.518576 1.19297971,130.892967 L45.7943464,156.31774 C47.5657079,157.32781 50.6584861,157.201552 52.7045507,156.037165 L96.316039,131.178218 C97.5664118,130.462752 97.9784665,129.57894 97.9784665,128.676424 C97.9974115,128.512755 97.9974115,112.459187 97.9974115,112.089764 Z" id="Shape" fill="url(#linearGradient-1)" fill-rule="nonzero"></path>
            <path d="M45.7917346,138.327315 L1.19384983,113.300827 C-0.574931603,112.304932 -0.352651583,110.571336 1.69043285,109.42329 L45.2951516,84.9500776 C47.3429654,83.8020313 50.4359682,83.6775444 52.2047497,84.6688293 L96.8026345,109.699927 C98.5761453,110.695823 98.3538653,112.429419 96.3060515,113.577465 L52.7013327,138.050677 C50.6393308,139.198723 47.546328,139.32321 45.7917346,138.327315 Z" id="Shape" fill="url(#linearGradient-12)" fill-rule="nonzero"></path>
            <path d="M45.7917346,138.327315 L1.19384983,113.300827 C-0.574931603,112.304932 -0.352651583,110.571336 1.69043285,109.42329 L45.2951516,84.9500776 C47.3429654,83.8020313 50.4359682,83.6775444 52.2047497,84.6688293 L96.8026345,109.699927 C98.5761453,110.695823 98.3538653,112.429419 96.3060515,113.577465 L52.7013327,138.050677 C50.6393308,139.198723 47.546328,139.32321 45.7917346,138.327315 Z" id="Shape" stroke="#FFFFFF" stroke-width="0.5" opacity="0.22" style="mix-blend-mode: overlay;"></path>
            <path d="M69,100.69355 L42.0377418,85 L1.6963944,108.141988 C-0.353895257,109.337001 -0.576959178,111.141519 1.19806011,112.178158 L24.9282645,126 L69,100.69355 Z" id="Shape" fill="url(#linearGradient-13)" fill-rule="nonzero"></path>
            <ellipse id="Oval" fill="#FFFFFF" fill-rule="nonzero" style="mix-blend-mode: overlay;" cx="50.5" cy="111" rx="17.5" ry="10"></ellipse>
            <path d="M455.986249,112.089764 C456.027673,111.25861 455.569087,110.481424 454.816321,110.107033 L410.212204,84.6822596 C408.440734,83.6721895 405.347765,83.7984483 403.301574,84.9628347 L359.687397,109.807753 C358.436947,110.52322 358.024867,111.393002 358.024867,112.309547 C357.991711,112.496597 357.991711,128.727863 358.024867,128.910236 C357.9838,129.740036 358.440002,130.516325 359.190059,130.892967 L403.798912,156.31774 C405.570383,157.32781 408.663352,157.201552 410.709542,156.037165 L454.318983,131.178218 C455.574169,130.462752 455.986249,129.57894 455.986249,128.676424 C456.014669,128.512755 455.990986,112.459187 455.986249,112.089764 Z" id="Shape" fill="url(#linearGradient-1)" fill-rule="nonzero"></path>
            <path d="M403.806448,138.327315 L359.199809,113.300827 C357.425951,112.304932 357.648274,110.571336 359.672838,109.42329 L403.286116,84.9500776 C405.329601,83.8020313 408.423211,83.6775444 410.19707,84.6688293 L454.803709,109.699927 C456.572837,110.695823 456.350514,112.429419 454.33068,113.577465 L410.717402,138.050677 C408.673917,139.198723 405.575576,139.32321 403.806448,138.327315 Z" id="Shape" fill="url(#linearGradient-12)" fill-rule="nonzero"></path>
            <path d="M403.806448,138.327315 L359.199809,113.300827 C357.425951,112.304932 357.648274,110.571336 359.672838,109.42329 L403.286116,84.9500776 C405.329601,83.8020313 408.423211,83.6775444 410.19707,84.6688293 L454.803709,109.699927 C456.572837,110.695823 456.350514,112.429419 454.33068,113.577465 L410.717402,138.050677 C408.673917,139.198723 405.575576,139.32321 403.806448,138.327315 Z" id="Shape" stroke="#FFFFFF" stroke-width="0.5" opacity="0.22" style="mix-blend-mode: overlay;"></path>
            <path d="M427,100.69355 L400.036229,85 L359.699719,108.141988 C357.644929,109.337001 357.421892,111.141519 359.201444,112.178158 L382.928803,126 L427,100.69355 Z" id="Shape" fill="url(#linearGradient-14)" fill-rule="nonzero"></path>
            <ellipse id="Oval" fill="#FFFFFF" fill-rule="nonzero" style="mix-blend-mode: overlay;" cx="406.5" cy="111" rx="17.5" ry="10"></ellipse>
            <path d="M276.325439,243.223301 C276.366716,242.396228 275.908189,241.622488 275.15431,241.247084 L230.322925,215.905825 C228.542428,214.899073 225.428939,215.024917 223.372322,216.185478 L179.531159,240.96277 C178.274338,241.675886 177.860158,242.542811 177.860158,243.456346 C177.826834,243.642781 177.826834,259.82073 177.860158,260.002505 C177.818882,260.829579 178.277409,261.603318 179.031287,261.978723 L223.862673,287.319981 C225.64317,288.326734 228.756659,288.20089 230.808515,287.040328 L274.644917,262.263037 C275.901738,261.549921 276.315918,260.669012 276.315918,259.769461 C276.358764,259.583025 276.334961,243.591512 276.325439,243.223301 Z" id="Shape" fill="url(#linearGradient-15)" fill-rule="nonzero"></path>
            <path d="M223.856187,270.040487 L179.039266,244.78799 C177.258588,243.784764 177.482363,242.033763 179.515384,240.872622 L223.356263,216.182117 C225.408329,215.02562 228.522136,214.900217 230.302815,215.903443 L275.138779,241.15594 C276.919458,242.159166 276.695683,243.910167 274.638856,245.066664 L230.802738,269.757168 C228.750672,270.913665 225.636865,271.043713 223.856187,270.040487 Z" id="Shape" fill="#D9F1FF" fill-rule="nonzero"></path>
            <path d="M223.856187,270.040487 L179.039266,244.78799 C177.258588,243.784764 177.482363,242.033763 179.515384,240.872622 L223.356263,216.182117 C225.408329,215.02562 228.522136,214.900217 230.302815,215.903443 L275.138779,241.15594 C276.919458,242.159166 276.695683,243.910167 274.638856,245.066664 L230.802738,269.757168 C228.750672,270.913665 225.636865,271.043713 223.856187,270.040487 Z" id="Shape" stroke="#FFFFFF" stroke-width="0.5" opacity="0.22" style="mix-blend-mode: overlay;"></path>
            <path d="M72.3689364,165.953217 C72.316799,165.910097 72.2599173,165.876589 72.2000604,165.853736 C72.1469887,165.807824 72.0885235,165.772403 72.0267402,165.748729 C71.9747395,165.703939 71.9178773,165.668582 71.8578642,165.643721 C71.8053483,165.600024 71.748608,165.564742 71.6889882,165.538714 C71.6368509,165.495594 71.5799691,165.462086 71.5201122,165.439233 C71.4670406,165.393321 71.4085753,165.357899 71.3467921,165.334225 C71.2942761,165.290528 71.2375359,165.255246 71.1779161,165.229218 C71.1249029,165.186593 71.0682679,165.151377 71.00904,165.12421 C70.9528181,165.078185 70.8914124,165.042797 70.8268317,165.019203 C70.7780748,164.981955 70.7258395,164.952259 70.671288,164.930775 C70.6203199,164.883856 70.5631756,164.848324 70.502412,164.825768 C70.4483418,164.782011 70.3901263,164.74674 70.3290919,164.72076 C70.2765759,164.677063 70.2198357,164.641781 70.1602159,164.615753 C70.1061457,164.571995 70.0479302,164.536725 69.9868957,164.510745 C69.9357036,164.465582 69.8785488,164.431914 69.8180197,164.411264 C69.7675727,164.363298 69.7102681,164.327666 69.6491437,164.306257 C69.5950735,164.2625 69.536858,164.227229 69.4758236,164.201249 C69.4238229,164.15646 69.3669606,164.121103 69.3069476,164.096242 C69.2544316,164.052544 69.1976914,164.017263 69.1380716,163.991234 C69.0848275,163.947027 69.0263459,163.91346 68.9647514,163.891753 C68.9151572,163.842112 68.8575656,163.806302 68.7958754,163.786746 C68.7443929,163.740878 68.6873952,163.705437 68.6269994,163.681738 C68.5729292,163.637981 68.5147137,163.602711 68.4536793,163.576731 C68.4016785,163.531942 68.3448163,163.496584 68.2848033,163.471723 C68.2326659,163.428603 68.1757842,163.395096 68.1159273,163.372243 C68.0638687,163.32422 68.0051024,163.288616 67.9426071,163.267235 C67.891639,163.220316 67.8344947,163.184783 67.7737311,163.162228 C67.720718,163.119603 67.6640829,163.084387 67.6048551,163.05722 C67.5507849,163.013463 67.4925694,162.978192 67.431535,162.952212 C67.3803429,162.90705 67.3231881,162.873381 67.262659,162.852732 C67.2116908,162.805812 67.1545466,162.77028 67.093783,162.747724 C67.0417244,162.699702 66.9829581,162.664098 66.9204628,162.642717 C66.8694947,162.595797 66.8123504,162.560265 66.7515868,162.537709 C66.6975166,162.493952 66.6393011,162.458682 66.5782667,162.432702 C66.5270746,162.387539 66.4699198,162.35387 66.4093907,162.333221 C66.3589437,162.285255 66.3016391,162.249622 66.2405147,162.228213 C66.1884561,162.180191 66.1296898,162.144587 66.0671945,162.123206 C66.0162264,162.076287 65.9590821,162.040754 65.8983185,162.018198 C65.846836,161.972331 65.7898383,161.936889 65.7294425,161.913191 C65.6761985,161.868984 65.6177169,161.835417 65.5561224,161.81371 C65.5065281,161.764069 65.4489366,161.728258 65.3872464,161.708702 C65.3367994,161.660736 65.2794948,161.625104 65.2183704,161.603695 C65.1652987,161.557783 65.1068335,161.522361 65.0450502,161.498687 C64.9940821,161.451768 64.9369378,161.416236 64.8761742,161.39368 C64.82448,161.349593 64.7674757,161.316014 64.7072982,161.294199 C64.6552396,161.246177 64.5964733,161.210573 64.5339781,161.189191 C64.4843838,161.13955 64.4267923,161.10374 64.3651021,161.084184 C64.3136195,161.038316 64.2566219,161.002875 64.1962261,160.979176 C64.1431544,160.933265 64.0846892,160.897843 64.0229059,160.874169 C63.9729194,160.826499 63.915355,160.79259 63.8540299,160.774688 C63.6078486,160.587047 63.2946326,160.604554 63.0629791,160.818902 C62.4376708,161.323616 62.0444589,162.17012 62.005282,163.095907 C61.969675,163.455636 62.1164588,163.805323 62.3741427,163.974654 C62.4206842,164.028978 62.4749332,164.07208 62.5341305,164.101769 C62.5804942,164.157769 62.6347196,164.202725 62.6941183,164.23441 C62.7394624,164.290618 62.7940368,164.333979 62.8541061,164.361524 C62.8981582,164.417074 62.9511685,164.460395 63.0096498,164.488638 C63.0571742,164.542825 63.1111387,164.587565 63.1696377,164.621279 C63.217338,164.673722 63.2713138,164.716607 63.3296255,164.748394 C63.3749695,164.804602 63.4295439,164.847963 63.4896133,164.875508 C63.5347729,164.930772 63.5874305,164.975676 63.645157,165.008149 C63.6928573,165.060591 63.7468331,165.103477 63.8051448,165.135264 C63.8516862,165.189587 63.9059352,165.232689 63.9651326,165.262378 C64.0104766,165.318586 64.065051,165.361947 64.1251204,165.389492 C64.17028,165.444756 64.2229376,165.48966 64.2806641,165.522133 C64.3283644,165.574576 64.3823403,165.617461 64.4406519,165.649248 C64.4871933,165.703571 64.5414423,165.746674 64.6006397,165.776362 C64.6474202,165.831717 64.7015473,165.876592 64.7606275,165.909003 C64.807098,165.960768 64.8595241,166.003612 64.9161712,166.036118 C64.9627126,166.090441 65.0169616,166.133543 65.076159,166.163232 C65.1236834,166.217418 65.1776478,166.262159 65.2361468,166.295873 C65.2849377,166.34649 65.3386964,166.389203 65.3961346,166.422987 C65.441473,166.476554 65.4941504,166.519603 65.5516783,166.550102 C65.5982197,166.604425 65.6524688,166.647528 65.7116661,166.677216 C65.7591905,166.731403 65.8131549,166.776143 65.8716539,166.809857 C65.9204448,166.860474 65.9742035,166.903187 66.0316417,166.936972 C66.0756937,166.992521 66.128704,167.035843 66.1871854,167.064086 C66.2347098,167.118272 66.2886742,167.163013 66.3471732,167.196727 C66.3959641,167.247344 66.4497228,167.290057 66.507161,167.323841 C66.5548613,167.376283 66.6088372,167.419169 66.6671488,167.450956 C66.7121086,167.505113 66.7648789,167.548238 66.8226925,167.57807 C66.8702169,167.632257 66.9241814,167.676997 66.9826803,167.710711 C67.0314712,167.761328 67.0852299,167.804041 67.1426681,167.837826 C67.1892095,167.892149 67.2434586,167.935251 67.3026559,167.96494 C67.3486032,168.019003 67.4010899,168.063762 67.4581996,168.097581 C67.5069905,168.148198 67.5607492,168.190911 67.6181874,168.224695 C67.6658877,168.277137 67.7198636,168.320023 67.7781752,168.35181 C67.8256996,168.405996 67.8796641,168.450736 67.938163,168.484451 C67.9853999,168.534964 68.0376792,168.577688 68.0937067,168.611565 C68.1424976,168.662182 68.1962563,168.704895 68.2536945,168.73868 C68.300236,168.793003 68.354485,168.836105 68.4136823,168.865794 C68.4612067,168.91998 68.5151712,168.964721 68.5736701,168.998435 C68.620907,169.048948 68.6731863,169.091672 68.7292138,169.125549 C68.7726293,169.172858 68.8203596,169.213667 68.8714252,169.247137 C68.9219867,169.303206 68.9788834,169.349757 69.0403012,169.385305 C69.0882669,169.434603 69.140425,169.477228 69.1958449,169.512419 C69.2435453,169.564861 69.2975211,169.607746 69.3558327,169.639534 C69.4033571,169.69372 69.4573216,169.73846 69.5158205,169.772175 C69.5646115,169.822792 69.6183701,169.865504 69.6758083,169.899289 C69.7222789,169.951054 69.7747049,169.993897 69.831352,170.026403 C69.8800361,170.078723 69.9337808,170.123281 69.9913398,170.159044 C70.0401308,170.209661 70.0938894,170.252374 70.1513277,170.286159 C70.1977982,170.337923 70.2502243,170.380767 70.3068713,170.413273 C70.6479975,170.731059 71.1167686,170.731059 71.4578947,170.413273 C72.3287265,169.709371 72.8769401,168.530664 72.9333378,167.240941 C73.0011398,166.702336 72.7696721,166.174225 72.3689364,165.953217 Z" id="Shape" fill="url(#radialGradient-16)" fill-rule="nonzero" opacity="0.9" style="mix-blend-mode: soft-light;"></path>
            <path d="M95.1711342,152.252632 C95.1180105,152.219161 95.0613643,152.191859 95.0022582,152.171239 C94.9491865,152.133674 94.8907213,152.104693 94.828938,152.085323 C94.7769373,152.048678 94.7200751,152.019749 94.660062,151.999408 C94.6075461,151.963656 94.5508058,151.934789 94.491186,151.913493 C94.4390487,151.878213 94.3821669,151.850798 94.32231,151.8321 C94.2692384,151.794535 94.2107732,151.765554 94.1489899,151.746184 C94.0964739,151.710432 94.0397337,151.681565 93.9801139,151.660269 C93.9271007,151.625394 93.8704657,151.596582 93.8112378,151.574354 C93.7550159,151.536697 93.6936102,151.507743 93.6290295,151.488439 C93.5802726,151.457963 93.5280373,151.433667 93.4734858,151.416089 C93.4214272,151.376798 93.3626609,151.347667 93.3001657,151.330174 C93.248165,151.293528 93.1913027,151.264599 93.1312897,151.244258 C93.0787737,151.208506 93.0220335,151.179639 92.9624137,151.158343 C92.9083435,151.122542 92.850128,151.093684 92.7890935,151.072428 C92.7379014,151.035477 92.6807466,151.00793 92.6202175,150.991034 C92.5697705,150.951789 92.5124659,150.922636 92.4513415,150.905119 C92.3972713,150.869318 92.3390558,150.84046 92.2780214,150.819204 C92.2260207,150.782558 92.1691584,150.75363 92.1091454,150.733289 C92.0566294,150.697536 91.9998892,150.66867 91.9402694,150.647374 C91.8870253,150.611204 91.8285437,150.58374 91.7669492,150.56598 C91.717355,150.525365 91.6597634,150.496065 91.5980732,150.480065 C91.5450601,150.44519 91.488425,150.416377 91.4291972,150.39415 C91.375127,150.358348 91.3169115,150.329491 91.2558771,150.308234 C91.2038764,150.271589 91.1470141,150.24266 91.0870011,150.222319 C91.0348637,150.187039 90.977982,150.159624 90.9181251,150.140926 C90.8660665,150.101635 90.8073002,150.072504 90.7448049,150.055011 C90.6938368,150.016622 90.6366925,149.98755 90.5759289,149.969095 C90.5229158,149.934221 90.4662807,149.905408 90.4070529,149.88318 C90.3538089,149.847011 90.2953272,149.819547 90.2337328,149.801787 C90.1841385,149.761171 90.126547,149.731872 90.0648568,149.715871 C90.0127982,149.67658 89.9540319,149.64745 89.8915366,149.629956 C89.8405685,149.591568 89.7834242,149.562496 89.7226606,149.544041 C89.6711781,149.506513 89.6141804,149.477515 89.5537846,149.458126 C89.5005406,149.421956 89.442059,149.394493 89.3804645,149.376732 C89.3308703,149.336117 89.2732787,149.306817 89.2115885,149.290817 C89.1611415,149.251572 89.1038369,149.222418 89.0427125,149.204902 C88.9896408,149.167338 88.9311756,149.138356 88.8693923,149.118987 C88.8184242,149.080598 88.7612799,149.051526 88.7005163,149.033071 C88.6480004,148.997319 88.5912601,148.968452 88.5316403,148.947156 C88.4783963,148.910987 88.4199147,148.883523 88.3583202,148.865763 C88.308726,148.825147 88.2511344,148.795848 88.1894442,148.779847 C88.1379616,148.742319 88.080964,148.713322 88.0205682,148.693932 C87.9674965,148.656368 87.9090313,148.627387 87.847248,148.608017 C87.7972615,148.569015 87.7396971,148.54127 87.678372,148.526624 C87.627925,148.487378 87.5706204,148.458225 87.509496,148.440708 C87.4574374,148.401417 87.3986711,148.372287 87.3361759,148.354793 C87.2865816,148.314178 87.2289901,148.284878 87.1672999,148.268878 C87.1158173,148.23135 87.0588197,148.202352 86.9984239,148.182963 C86.9461871,148.144997 86.8873883,148.117384 86.8251037,148.101569 C86.7755095,148.060954 86.7179179,148.031654 86.6562277,148.015654 C86.4100464,147.86213 86.0968304,147.876453 85.8651769,148.051829 C85.2409453,148.465816 84.8480794,149.157801 84.8074798,149.914833 C84.7718728,150.209157 84.9186566,150.495264 85.1763405,150.633808 C85.2238649,150.678142 85.2778294,150.714748 85.3363283,150.742332 C85.3840287,150.78524 85.4380045,150.820328 85.4963161,150.846335 C85.5416602,150.892324 85.5962346,150.927801 85.656304,150.950338 C85.700356,150.995788 85.7533663,151.031232 85.8118477,151.05434 C85.8582113,151.100159 85.9124367,151.136941 85.9718355,151.162865 C86.0195358,151.205772 86.0735116,151.24086 86.1318233,151.266868 C86.1771673,151.312856 86.2317417,151.348333 86.2918111,151.37087 C86.3369707,151.416086 86.3896283,151.452826 86.4473548,151.479395 C86.4950551,151.522302 86.5490309,151.55739 86.6073426,151.583397 C86.653884,151.627844 86.708133,151.663109 86.7673304,151.6874 C86.8126744,151.733389 86.8672488,151.768866 86.9273182,151.791403 C86.9724778,151.836619 87.0251354,151.873359 87.0828619,151.899927 C87.1305622,151.942835 87.1845381,151.977922 87.2428497,152.00393 C87.2893911,152.048377 87.3436401,152.083642 87.4028375,152.107933 C87.449618,152.153223 87.5037451,152.189939 87.5628253,152.216457 C87.6081637,152.260284 87.6608411,152.295506 87.718369,152.32046 C87.7649104,152.364906 87.8191594,152.400172 87.8783568,152.424463 C87.9258812,152.468797 87.9798456,152.505403 88.0383446,152.532987 C88.08645,152.575345 88.1403405,152.610377 88.1983324,152.63699 C88.2436708,152.680817 88.2963482,152.716039 88.3538761,152.740992 C88.4004175,152.785439 88.4546666,152.820704 88.5138639,152.844995 C88.5613883,152.889329 88.6153527,152.925935 88.6738517,152.95352 C88.721552,152.996427 88.7755279,153.031515 88.8338395,153.057522 C88.8778915,153.102972 88.9309018,153.138417 88.9893832,153.161525 C89.0369076,153.205859 89.0908721,153.242465 89.149371,153.270049 C89.1981619,153.311463 89.2519206,153.34641 89.3093588,153.374052 C89.3570591,153.416959 89.411035,153.452047 89.4693466,153.478055 C89.5145063,153.523271 89.5671639,153.56001 89.6248903,153.586579 C89.6736812,153.627993 89.7274399,153.66294 89.7848781,153.690582 C89.833669,153.731996 89.8874277,153.766942 89.9448659,153.794585 C89.9914073,153.839031 90.0456564,153.874297 90.1048537,153.898587 C90.150801,153.942821 90.2032877,153.979441 90.2603974,154.007112 C90.3091883,154.048526 90.362947,154.083472 90.4203852,154.111114 C90.4680856,154.154022 90.5220614,154.189109 90.580373,154.215117 C90.6278974,154.259451 90.6818619,154.296057 90.7403608,154.323642 C90.7875977,154.36497 90.839877,154.399927 90.8959045,154.427644 C90.9446955,154.469058 90.9984541,154.504005 91.0558923,154.531647 C91.1034167,154.575981 91.1573812,154.612587 91.2158801,154.640171 C91.2646711,154.681585 91.3184297,154.716532 91.3758679,154.744174 C91.4231048,154.785503 91.4753841,154.820459 91.5314116,154.848177 C91.5748271,154.886884 91.6225574,154.920273 91.673623,154.947658 C91.7241845,154.993533 91.7810812,155.031619 91.842499,155.060704 C91.8893473,155.102555 91.9416986,155.137559 91.9980427,155.164707 C92.0467268,155.207513 92.1004715,155.24397 92.1580305,155.273231 C92.2068215,155.314645 92.2605801,155.349592 92.3180183,155.377234 C92.3668093,155.418648 92.4205679,155.453594 92.4780061,155.481236 C92.5233446,155.525064 92.576022,155.560286 92.6335498,155.585239 C92.6822339,155.628046 92.7359786,155.664502 92.7935376,155.693764 C92.8423286,155.735178 92.8960872,155.770124 92.9535255,155.797766 C92.999996,155.840119 93.0524221,155.875173 93.1090692,155.901769 C93.4501953,156.161776 93.9189664,156.161776 94.2600925,155.901769 C95.1309243,155.325849 95.6791379,154.361452 95.7355356,153.306224 C95.8033376,152.865548 95.5718699,152.433457 95.1711342,152.252632 L95.1711342,152.252632 Z" id="Shape" fill="url(#radialGradient-17)" fill-rule="nonzero" opacity="0.9" style="mix-blend-mode: soft-light;"></path>
            <path d="M85.7142857,149.729032 L214.318681,223.412903" id="Shape" stroke="#FFFFFF" opacity="0.199907" style="mix-blend-mode: overlay;"></path>
            <path d="M62.9120879,162.464516 L191.516484,237.058065" id="Shape" stroke="#FFFFFF" opacity="0.199907" style="mix-blend-mode: overlay;"></path>
            <path d="M265.395604,235.23871 L391.263736,161.554839" id="Shape" stroke="#FFFFFF" opacity="0.199907" style="mix-blend-mode: overlay;"></path>
            <path d="M241.681319,221.593548 L369.373626,148.819355" id="Shape" stroke="#FFFFFF" opacity="0.199907" style="mix-blend-mode: overlay;"></path>
            <path d="M359.053701,151.343845 C359.109698,151.307782 359.171447,151.280314 359.236633,151.26247 C359.292961,151.225833 359.354556,151.196911 359.419564,151.176575 C359.478135,151.140782 359.541195,151.111931 359.607309,151.090679 C359.663638,151.054042 359.725233,151.02512 359.790241,151.004784 C359.848009,150.968618 367.83922,147.293201 367.906616,147.275117 C367.962383,147.237598 368.024125,147.208607 368.089547,147.189222 C368.146131,147.151265 368.209824,147.123659 368.277292,147.107847 C368.543249,146.951784 368.884204,146.966175 369.134181,147.144014 C369.809787,147.558421 370.235166,148.249944 370.279909,149.006587 C370.319056,149.302132 370.157565,149.589195 369.875535,149.725395 C369.827816,149.770835 369.770394,149.806271 369.707045,149.829374 C369.656823,149.875182 369.598084,149.911956 369.533742,149.937873 C369.482072,149.980771 369.423603,150.01585 369.360439,150.041852 C369.311321,150.08783 369.252204,150.123299 369.187135,150.145831 C369.138217,150.191036 369.081177,150.227767 369.018646,150.25433 C368.966975,150.297227 368.908507,150.332307 368.845342,150.358308 C368.794927,150.402745 368.736163,150.438002 368.672039,150.462287 C368.622252,150.508599 368.563406,150.54544 368.498736,150.570786 C368.448397,150.613129 368.391608,150.648175 368.330246,150.674765 C368.278576,150.717662 368.220108,150.752742 368.156943,150.778744 C368.106528,150.82318 368.047764,150.858437 367.983639,150.882722 C367.930686,150.92793 363.054121,153.911664 362.991539,153.938788 C362.945359,153.9785 362.893512,154.011975 362.837492,154.038246 C362.784037,154.083553 362.724081,154.121597 362.659375,154.151266 C362.606523,154.192671 362.54829,154.227609 362.486071,154.255245 C362.434401,154.298142 362.375933,154.333222 362.312768,154.359224 C362.26385,154.404429 362.206809,154.44116 362.144278,154.467723 C362.091427,154.509127 362.033194,154.544066 361.970975,154.571702 C361.918123,154.613106 361.85989,154.648044 361.797672,154.67568 C361.74856,154.719497 361.691498,154.754711 361.629182,154.779659 C361.577702,154.823983 361.519247,154.86058 361.455879,154.888158 C361.403027,154.929562 361.344794,154.964501 361.282575,154.992137 C360.913058,155.252083 360.405272,155.252083 360.035754,154.992137 C359.094859,154.414826 358.503096,153.451123 358.442326,152.397193 C358.365354,151.95605 358.617193,151.522153 359.053701,151.343845 L359.053701,151.343845 Z" id="Shape" fill="url(#radialGradient-18)" fill-rule="nonzero" opacity="0.9" style="mix-blend-mode: soft-light;"></path>
            <path d="M383.628827,165.053609 C383.681354,165.009854 383.738106,164.974526 383.797738,164.948463 C383.849886,164.905286 383.90678,164.871734 383.966649,164.848851 C384.019732,164.802878 384.078209,164.76741 384.140006,164.743704 C384.192017,164.698856 384.248891,164.663452 384.308917,164.638558 C384.362257,164.594286 391.741009,160.095128 391.803239,160.072992 C391.854733,160.027064 391.911742,159.991576 391.972151,159.967846 C392.025233,159.921873 392.083711,159.886405 392.145507,159.862699 C392.392634,159.676416 392.705948,159.696139 392.936722,159.912506 C393.560549,160.41979 393.953325,161.266299 393.99464,162.192522 C394.030786,162.554305 393.881672,162.905705 393.621257,163.072431 C393.577196,163.128054 393.524175,163.171433 393.465681,163.199713 C393.418147,163.253971 393.364171,163.298771 393.30566,163.332529 C393.25795,163.385041 393.203963,163.427983 393.145639,163.459812 C393.100285,163.516095 393.0457,163.559513 392.985618,163.587094 C392.941557,163.642718 392.888535,163.686096 392.830042,163.714377 C392.783668,163.770451 392.729432,163.815467 392.670021,163.847193 C392.62231,163.899705 392.568323,163.942647 392.509999,163.974476 C392.464228,164.030107 392.409761,164.073431 392.349978,164.101758 C392.304809,164.157095 392.252141,164.202059 392.194402,164.234575 C392.146692,164.287086 392.092705,164.330028 392.034381,164.361857 C391.98783,164.416252 391.93357,164.459412 391.87436,164.48914 C391.825465,164.54448 387.322648,168.196932 387.264863,168.230136 C387.221093,168.276952 387.173405,168.31777 387.122622,168.351885 C387.073263,168.407346 387.017902,168.453916 386.958155,168.490235 C386.851537,168.575107 386.74492,168.659943 386.638254,168.744786 C386.591908,168.798318 386.539488,168.843069 386.482678,168.877602 C386.375978,168.962472 386.26932,169.047331 386.162646,169.13218 C386.117298,169.185817 386.06461,169.228923 386.00707,169.259462 C385.958376,169.311851 385.90462,169.356468 385.847049,169.392279 C385.798248,169.442963 385.744478,169.485732 385.687028,169.519561 C385.340004,169.825983 384.87303,169.81476 384.535765,169.491891 C383.666982,168.785193 383.120572,167.605503 383.064459,166.315364 C383.00418,165.784838 383.234826,165.269185 383.628827,165.053609 Z" id="Shape" fill="url(#radialGradient-19)" fill-rule="nonzero" opacity="0.9" style="mix-blend-mode: soft-light;"></path>
        </g>
    </g>
</svg>