<?xml version="1.0" encoding="UTF-8"?>
<svg width="82px" height="109px" viewBox="0 0 82 109" version="1.1" xmlns="http://www.w3.org/2000/svg" xmlns:xlink="http://www.w3.org/1999/xlink">
    <!-- Generator: Sketch 54.1 (76490) - https://sketchapp.com -->
    <title>banner_4_graph</title>
    <desc>Created with Sketch.</desc>
    <defs>
        <linearGradient x1="100%" y1="54.0861621%" x2="0%" y2="54.0861621%" id="linearGradient-1">
            <stop stop-color="#5736FC" offset="0%"></stop>
            <stop stop-color="#00A5FE" offset="100%"></stop>
        </linearGradient>
        <linearGradient x1="100%" y1="79.0176236%" x2="0%" y2="20.9823764%" id="linearGradient-2">
            <stop stop-color="#533BF5" offset="0%"></stop>
            <stop stop-color="#14EAFB" offset="100%"></stop>
        </linearGradient>
        <linearGradient x1="100%" y1="73.7835365%" x2="0%" y2="26.2164635%" id="linearGradient-3">
            <stop stop-color="#533BF5" offset="0%"></stop>
            <stop stop-color="#14EAFB" offset="100%"></stop>
        </linearGradient>
        <linearGradient x1="100%" y1="54.0861621%" x2="0%" y2="54.0861621%" id="linearGradient-4">
            <stop stop-color="#0028B4" offset="0%"></stop>
            <stop stop-color="#157EFF" offset="100%"></stop>
        </linearGradient>
    </defs>
    <g id="页面" stroke="none" stroke-width="1" fill="none" fill-rule="evenodd">
        <g id="banner_4" transform="translate(-241.000000, -30.000000)">
            <g id="编组-2" transform="translate(50.000000, 30.000000)">
                <g id="banner_4_graph" transform="translate(192.000000, 0.000000)">
                    <g id="Group">
                        <path d="M75.6770597,41.2036006 L41.0643953,21.1805946 L6.45173089,1.15758857 C5.87431008,0.802089786 5.22423089,0.581839401 4.54999603,0.513270402 C4.01256168,0.461092213 3.47249456,0.581566863 3.00790156,0.857270778 L2.96430879,0.884572395 L2.92616511,0.884572395 L2.22868069,1.32139827 L1.53119627,1.75822414 L1.48760349,1.78552576 L1.44945981,1.78552576 C0.988400703,2.05709597 0.62283748,2.46538609 0.403233181,2.95403497 C0.136244983,3.57024274 0.00609568759,4.23723475 0.0217963882,4.90883076 L0.0217963882,59.2772711 C0.207887124,62.6604736 1.99059764,65.7526808 4.82245088,67.6042643 L39.4296662,87.6272703 L74.0423306,107.650276 C74.6197514,108.005775 75.2698306,108.226025 75.9440654,108.294594 C76.4832371,108.346808 77.0250459,108.22637 77.491609,107.950594 L77.5297527,107.950594 L77.5678963,107.950594 L77.60604,107.950594 L77.6441837,107.950594 L77.6823274,107.950594 L77.7204711,107.950594 L77.7586147,107.950594 L77.8022075,107.923292 L77.8403512,107.923292 L77.8784949,107.923292 L77.9166385,107.923292 L77.9547822,107.923292 L77.9929259,107.923292 L78.0310696,107.895991 L78.0746624,107.895991 L78.112806,107.895991 L78.1509497,107.868689 L78.1890934,107.868689 L78.2272371,107.841388 L78.2653808,107.841388 L78.3035244,107.841388 L78.3416681,107.841388 L78.3852609,107.841388 L78.4234046,107.841388 L78.4615482,107.841388 L78.4996919,107.841388 L78.5378356,107.841388 L78.5759793,107.814086 L78.614123,107.814086 L78.6522666,107.814086 L78.6958594,107.814086 L78.7340031,107.814086 L78.7721468,107.814086 L78.8102905,107.814086 L78.8484341,107.814086 L78.8865778,107.786784 L78.9247215,107.786784 L78.9628652,107.786784 L79.011907,107.022339 L79.0500507,107.022339 C79.5111098,106.750769 79.8766731,106.342479 80.0962774,105.85383 C80.363875,105.23589 80.4940336,104.566987 80.4777142,103.893574 L80.4777142,49.5305938 C80.2911289,46.1489185 78.5109762,43.0576391 75.6825088,41.2036006 L75.6770597,41.2036006 Z" id="Shape" fill="#D9F1FF" fill-rule="nonzero"></path>
                        <path d="M75.6770597,41.2036006 L41.0643953,21.1805946 L6.45173089,1.15758857 C5.87431008,0.802089786 5.22423089,0.581839401 4.54999603,0.513270402 C4.01256168,0.461092213 3.47249456,0.581566863 3.00790156,0.857270778 L2.96430879,0.884572395 L2.92616511,0.884572395 L2.22868069,1.32139827 L1.53119627,1.75822414 L1.48760349,1.78552576 L1.44945981,1.78552576 C0.988400703,2.05709597 0.62283748,2.46538609 0.403233181,2.95403497 C0.136244983,3.57024274 0.00609568759,4.23723475 0.0217963882,4.90883076 L0.0217963882,59.2772711 C0.207887124,62.6604736 1.99059764,65.7526808 4.82245088,67.6042643 L39.4296662,87.6272703 L74.0423306,107.650276 C74.6197514,108.005775 75.2698306,108.226025 75.9440654,108.294594 C76.4832371,108.346808 77.0250459,108.22637 77.491609,107.950594 L77.5297527,107.950594 L77.5678963,107.950594 L77.60604,107.950594 L77.6441837,107.950594 L77.6823274,107.950594 L77.7204711,107.950594 L77.7586147,107.950594 L77.8022075,107.923292 L77.8403512,107.923292 L77.8784949,107.923292 L77.9166385,107.923292 L77.9547822,107.923292 L77.9929259,107.923292 L78.0310696,107.895991 L78.0746624,107.895991 L78.112806,107.895991 L78.1509497,107.868689 L78.1890934,107.868689 L78.2272371,107.841388 L78.2653808,107.841388 L78.3035244,107.841388 L78.3416681,107.841388 L78.3852609,107.841388 L78.4234046,107.841388 L78.4615482,107.841388 L78.4996919,107.841388 L78.5378356,107.841388 L78.5759793,107.814086 L78.614123,107.814086 L78.6522666,107.814086 L78.6958594,107.814086 L78.7340031,107.814086 L78.7721468,107.814086 L78.8102905,107.814086 L78.8484341,107.814086 L78.8865778,107.786784 L78.9247215,107.786784 L78.9628652,107.786784 L79.011907,107.022339 L79.0500507,107.022339 C79.5111098,106.750769 79.8766731,106.342479 80.0962774,105.85383 C80.363875,105.23589 80.4940336,104.566987 80.4777142,103.893574 L80.4777142,49.5305938 C80.2911289,46.1489185 78.5109762,43.0576391 75.6825088,41.2036006 L75.6770597,41.2036006 Z" id="Shape" stroke="#FFFFFF" stroke-width="0.5" opacity="0.22" style="mix-blend-mode: overlay;"></path>
                        <path d="M74.0423306,107.693959 L4.83879817,67.6424866 C2.18508791,66.1081357 0.0381436793,62.3841951 0.0381436793,59.3154934 L0.0381436793,4.95251335 C0.0381436793,1.8892719 2.18508791,0.644318164 4.83879817,2.17866905 L74.0423306,42.224681 C76.6905917,43.7590319 78.842985,47.4884328 78.842985,50.5516743 L78.842985,104.914654 C78.842985,107.983356 76.6905917,109.206468 74.0423306,107.693959 Z" id="Shape" fill="url(#linearGradient-1)" fill-rule="nonzero"></path>
                        <path d="M74.0423306,107.693959 L4.83879817,67.6424866 C2.18508791,66.1081357 0.0381436793,62.3841951 0.0381436793,59.3154934 L0.0381436793,4.95251335 C0.0381436793,1.8892719 2.18508791,0.644318164 4.83879817,2.17866905 L74.0423306,42.224681 C76.6905917,43.7590319 78.842985,47.4884328 78.842985,50.5516743 L78.842985,104.914654 C78.842985,107.983356 76.6905917,109.206468 74.0423306,107.693959 Z" id="Shape" stroke="#000000" opacity="0.5" style="mix-blend-mode: overlay;"></path>
                    </g>
                    <path d="M7.98292716,59.8724463 C7.98292716,59.8724463 11.7972951,47.6850045 16.0857345,50.158531 C20.3741738,52.6320575 20.9899218,57.8466664 24.1885418,59.714097 C27.3871617,61.5815276 29.0164417,47.0952895 32.2858999,48.9845614 C35.5553582,50.8738333 37.6205659,61.4013369 40.3887072,63.0012117 C43.1568485,64.6010864 45.2928946,48.1873542 48.4860654,50.0384039 C51.6792363,51.8894535 52.8453431,62.1384806 56.5888727,64.289848 C60.3324024,66.4412154 61.7164731,64.5519435 64.69168,66.2774057 C67.666887,68.0028679 68.0755693,94.8403576 69.4269454,95.6266441 C70.7783214,96.4129307 7.98292716,59.8724463 7.98292716,59.8724463 Z" id="Shape" fill="url(#linearGradient-2)" fill-rule="nonzero"></path>
                    <path d="M7.98292716,59.8724463 C7.98292716,59.8724463 11.7972951,47.6850045 16.0857345,50.158531 C20.3741738,52.6320575 20.9899218,57.8466664 24.1885418,59.714097 C27.3871617,61.5815276 29.0164417,47.0952895 32.2858999,48.9845614 C35.5553582,50.8738333 37.6205659,61.4013369 40.3887072,63.0012117 C43.1568485,64.6010864 45.2928946,48.1873542 48.4860654,50.0384039 C51.6792363,51.8894535 52.8453431,62.1384806 56.5888727,64.289848 C60.3324024,66.4412154 61.7164731,64.5519435 64.69168,66.2774057 C67.666887,68.0028679 68.0755693,94.8403576 69.4269454,95.6266441 C70.7783214,96.4129307 7.98292716,59.8724463 7.98292716,59.8724463 Z" id="Shape" stroke="#FFFFFF" stroke-width="0.5" opacity="0.22" style="mix-blend-mode: overlay;"></path>
                    <path d="M7.98292716,59.8724463 C7.98292716,59.8724463 10.0753804,48.6023388 14.3529216,51.0813256 C18.6304628,53.5603125 19.2298634,58.769461 22.4502798,60.6314313 C25.6706961,62.4934016 27.2836289,48.0126239 30.5530871,49.9018958 C33.8225453,51.7911677 35.8877531,62.3241316 38.6558944,63.9240063 C41.4240357,65.5238811 43.5600817,49.1101489 46.7532526,50.9611985 C49.9464234,52.8122482 51.1397757,63.0612752 54.8560599,65.2071823 C58.5723441,67.3530894 59.9782111,65.4747382 62.9588672,67.1947401 C65.9395233,68.9147419 68.0755693,94.8403576 69.4269454,95.6266441 C70.7783214,96.4129307 7.98292716,59.8724463 7.98292716,59.8724463 Z" id="Shape" fill="#D9F1FF" fill-rule="nonzero"></path>
                    <path d="M7.98292716,59.8724463 C7.98292716,59.8724463 10.0753804,48.6023388 14.3529216,51.0813256 C18.6304628,53.5603125 19.2298634,58.769461 22.4502798,60.6314313 C25.6706961,62.4934016 27.2836289,48.0126239 30.5530871,49.9018958 C33.8225453,51.7911677 35.8877531,62.3241316 38.6558944,63.9240063 C41.4240357,65.5238811 43.5600817,49.1101489 46.7532526,50.9611985 C49.9464234,52.8122482 51.1397757,63.0612752 54.8560599,65.2071823 C58.5723441,67.3530894 59.9782111,65.4747382 62.9588672,67.1947401 C65.9395233,68.9147419 68.0755693,94.8403576 69.4269454,95.6266441 C70.7783214,96.4129307 7.98292716,59.8724463 7.98292716,59.8724463 Z" id="Shape" stroke="#FFFFFF" stroke-width="0.5" opacity="0.22" style="mix-blend-mode: overlay;"></path>
                    <path d="M7.68867592,59.9598115 C7.68867592,59.9598115 11.5030438,51.1686908 15.7914832,53.6422173 C20.0799226,56.1157438 20.6684251,61.707115 23.8942905,63.5690853 C27.120156,65.4310556 28.7221905,67.1619781 31.9916487,69.0294087 C35.2611069,70.8968393 37.3317638,64.1751812 40.094456,65.7532147 C42.8571482,67.3312481 44.9986433,63.9840699 48.1972633,65.8351195 C51.3958833,67.6861692 52.5565409,74.0911285 56.2946215,76.2370356 C60.0327021,78.3829428 61.4222218,74.014684 64.3974288,75.7401462 C67.3726358,77.4656084 67.7813181,94.796675 69.1326941,95.5829615 C70.4840702,96.3692481 7.68867592,59.9598115 7.68867592,59.9598115 Z" id="Shape" fill="url(#linearGradient-3)" fill-rule="nonzero"></path>
                    <path d="M7.12741893,59.7905415 C7.12741893,59.7905415 10.1353205,51.8512312 14.4128617,54.3302181 C18.6904028,56.8092049 19.2898035,62.3951158 22.515669,64.2570861 C25.7415344,66.1190563 27.349018,67.8499789 30.6184763,69.7174095 C33.8879345,71.5848401 35.9531423,64.863182 38.7158345,66.4412154 C41.4785267,68.0192489 43.6200218,64.6720706 46.8186417,66.5231203 C50.0172617,68.3741699 51.2215122,74.8064309 54.921449,76.9905603 C58.6213859,79.1746896 60.0436003,74.7682086 63.0188072,76.4882105 C65.9940142,78.2082124 67.6287433,94.8676592 68.9801194,95.6539457 L7.12741893,59.7905415 Z" id="Shape" fill="url(#linearGradient-4)" fill-rule="nonzero"></path>
                </g>
            </g>
        </g>
    </g>
</svg>