<?xml version="1.0" encoding="UTF-8"?>
<svg width="153px" height="90px" viewBox="0 0 153 90" version="1.1" xmlns="http://www.w3.org/2000/svg" xmlns:xlink="http://www.w3.org/1999/xlink">
    <!-- Generator: Sketch 54.1 (76490) - https://sketchapp.com -->
    <title>banner_2_right</title>
    <desc>Created with Sketch.</desc>
    <defs>
        <radialGradient cx="9.51152607%" cy="16.1482379%" fx="9.51152607%" fy="16.1482379%" r="160.37607%" gradientTransform="translate(0.095115,0.161482),scale(0.818182,1.000000),translate(-0.095115,-0.161482)" id="radialGradient-1">
            <stop stop-color="#FFFFFF" offset="0%"></stop>
            <stop stop-color="#FFFFFF" stop-opacity="0" offset="78%"></stop>
            <stop stop-color="#FFFFFF" stop-opacity="0" offset="100%"></stop>
        </radialGradient>
        <radialGradient cx="9.51256945%" cy="16.3128043%" fx="9.51256945%" fy="16.3128043%" r="160.405534%" gradientTransform="translate(0.095126,0.163128),scale(0.818182,1.000000),translate(-0.095126,-0.163128)" id="radialGradient-2">
            <stop stop-color="#FFFFFF" offset="0%"></stop>
            <stop stop-color="#FFFFFF" stop-opacity="0" offset="78%"></stop>
            <stop stop-color="#FFFFFF" stop-opacity="0" offset="100%"></stop>
        </radialGradient>
        <radialGradient cx="49.930569%" cy="49.9029348%" fx="49.930569%" fy="49.9029348%" r="70.8730349%" gradientTransform="translate(0.499306,0.499029),scale(0.577487,1.000000),rotate(60.004556),translate(-0.499306,-0.499029)" id="radialGradient-3">
            <stop stop-color="#BFA8FB" offset="0%"></stop>
            <stop stop-color="#9DCCFC" offset="100%"></stop>
        </radialGradient>
        <radialGradient cx="49.9778875%" cy="49.9139797%" fx="49.9778875%" fy="49.9139797%" r="70.8730349%" gradientTransform="translate(0.499779,0.499140),scale(0.577487,1.000000),rotate(60.004556),translate(-0.499779,-0.499140)" id="radialGradient-4">
            <stop stop-color="#BFA8FB" offset="0%"></stop>
            <stop stop-color="#9DCCFC" offset="100%"></stop>
        </radialGradient>
    </defs>
    <g id="页面" stroke="none" stroke-width="1" fill="none" fill-rule="evenodd">
        <g id="banner_2" transform="translate(-262.000000, -44.000000)">
            <g id="编组-7" transform="translate(22.000000, 0.000000)">
                <g id="banner_2_right" transform="translate(240.430755, 44.000000)">
                    <path d="M10.9923753,18.7832237 C10.9395853,18.7438694 10.8825489,18.7120948 10.8226179,18.6886531 C10.7702085,18.6498189 10.7130298,18.6196416 10.6528605,18.5990598 C10.5995119,18.5577112 10.5407416,18.5258102 10.4786358,18.5044892 C10.4263637,18.4641515 10.3692047,18.4323086 10.3088784,18.4099185 C10.2560884,18.3705642 10.199052,18.3387896 10.139121,18.3153479 C10.0867116,18.2765137 10.0295329,18.2463364 9.96936362,18.2257546 C9.916015,18.184406 9.85724465,18.152505 9.79513892,18.131184 C9.74234888,18.0918296 9.6853125,18.0600551 9.62538152,18.0366134 C9.57044525,17.9952172 9.51019781,17.9633319 9.44668952,17.9420427 C9.39672049,17.9059489 9.34263017,17.8774896 9.28586672,17.8574269 C9.23390266,17.8177222 9.17660093,17.78748 9.11610932,17.7678336 C9.06377904,17.7245843 9.00470601,17.692519 8.94188462,17.673263 C8.89065047,17.6310071 8.83320796,17.5990063 8.77212722,17.5786923 C8.71933717,17.5393379 8.66230079,17.5075634 8.60236982,17.4841217 C8.54801742,17.4447135 8.48949808,17.4129487 8.42814512,17.389551 C8.37668582,17.3488771 8.31923274,17.3185549 8.25838772,17.2999578 C8.20767744,17.2567591 8.15007372,17.2246684 8.08863032,17.2053871 C8.03630004,17.1621378 7.97722701,17.1300725 7.91440562,17.1108165 C7.86213348,17.0704788 7.80497449,17.0386359 7.74464822,17.0162458 C7.69185817,16.9768915 7.63482179,16.9451169 7.57489082,16.9216752 C7.52136889,16.881862 7.46258205,16.8516314 7.40066612,16.8320819 C7.35081303,16.7873748 7.29292087,16.7551235 7.23090872,16.7375113 C7.17967457,16.6952554 7.12223206,16.6632546 7.06115132,16.6429406 C7.00679892,16.6035325 6.94827958,16.5717677 6.88692661,16.54837 C6.83465448,16.5080323 6.77749549,16.4761894 6.71716921,16.4537993 C6.66475976,16.4149651 6.60758113,16.3847878 6.54741181,16.3642061 C6.49508153,16.3209568 6.4360085,16.2888914 6.37318711,16.2696354 C6.32333403,16.2249283 6.26544187,16.192677 6.20342971,16.1750648 C6.15115758,16.1347271 6.09399858,16.1028842 6.03367231,16.0804941 C5.97931992,16.041086 5.92080058,16.0093212 5.85944761,15.9859235 C5.80798831,15.9452495 5.75053523,15.9149274 5.68969021,15.8963302 C5.63735993,15.8530809 5.5782869,15.8210156 5.51546551,15.8017596 C5.46561243,15.7570525 5.40772027,15.7248011 5.34570811,15.7071889 C5.29395686,15.6658802 5.23666172,15.6339614 5.17595071,15.6126183 C5.12159831,15.5732102 5.06307898,15.5414454 5.00172601,15.5180476 C4.95026671,15.4773737 4.89281363,15.4470515 4.83196861,15.4284544 C4.78125834,15.3852557 4.72365462,15.3531651 4.66221121,15.3338837 C4.60988093,15.2906344 4.5508079,15.2585691 4.48798651,15.2393131 C4.43675237,15.1970572 4.37930985,15.1650564 4.31822911,15.1447425 C4.26647786,15.1034337 4.20918272,15.0715149 4.14847171,15.0501718 C4.09494979,15.0103586 4.03616294,14.9801281 3.97424701,14.9605786 C3.92439393,14.9158714 3.86650177,14.8836201 3.80448961,14.8660079 C3.75377934,14.8228092 3.69617561,14.7907186 3.63473221,14.7714373 C3.58138359,14.7300886 3.52261324,14.6981876 3.46050751,14.6768666 C3.40927337,14.6346108 3.35183085,14.6026099 3.29075011,14.582296 C3.23980421,14.5406539 3.18218481,14.510244 3.12099271,14.4927027 C3.06866243,14.4494534 3.0095894,14.4173881 2.94676801,14.3981321 C2.89691493,14.3534249 2.83902277,14.3211736 2.77701061,14.3035614 C2.72630034,14.2603627 2.66869661,14.2282721 2.60725321,14.2089908 C2.55390459,14.1676422 2.49513424,14.1357411 2.43302851,14.1144201 C2.18466305,13.9468733 1.86978012,13.9646123 1.63784911,14.1592167 C1.0108974,14.6154778 0.616153173,15.3768442 0.574631706,16.2099066 C0.538304498,16.5353013 0.688165394,16.8513571 0.949884907,17.0013136 C0.994166844,17.0513423 1.0474538,17.0903579 1.10624041,17.1157939 C1.15401284,17.1645946 1.20825894,17.2048881 1.26706321,17.2352515 C1.31501249,17.2824813 1.36927005,17.3211041 1.42788601,17.3497318 C1.47346673,17.4003534 1.52832597,17.4394045 1.58870881,17.4642121 C1.63299075,17.5142407 1.68627771,17.5532563 1.74506431,17.5786923 C1.79283674,17.627493 1.84708284,17.6677865 1.90588711,17.69815 C1.95383639,17.7453798 2.00809396,17.7840025 2.06670991,17.8126302 C2.11229063,17.8632519 2.16714987,17.9023029 2.22753271,17.9271105 C2.27292805,17.9768817 2.3258605,18.0173227 2.38388821,18.0465682 C2.43183749,18.0937979 2.48609506,18.1324207 2.54471101,18.1610484 C2.65203344,18.2374336 2.75913329,18.3137115 2.86632331,18.3900137 C2.91171864,18.4397849 2.9646511,18.480226 3.02267881,18.5094714 C3.07062809,18.5567012 3.12488565,18.5953239 3.18350161,18.6239517 C3.23028594,18.6728759 3.28481811,18.7116941 3.34432441,18.7384319 C3.44958588,18.8171905 3.5553143,18.8951715 3.66150271,18.9723698 C3.70828704,19.021294 3.76281921,19.0601123 3.82232551,19.0868501 C3.87009794,19.1356508 3.92434404,19.1759443 3.98314831,19.2063078 C4.03219387,19.2518938 4.08623311,19.2903611 4.14397111,19.320788 C4.18954615,19.3690304 4.2424985,19.407801 4.30032661,19.4352683 C4.34711094,19.4841925 4.40164311,19.5230107 4.46114941,19.5497485 C4.50892184,19.5985493 4.56316794,19.6388427 4.62197221,19.6692062 C4.67101777,19.7147922 4.72505701,19.7532596 4.78279501,19.7836865 C4.82798942,19.8324608 4.88103515,19.8712998 4.93915051,19.8981667 C4.98692294,19.9469674 5.04116904,19.9872609 5.09997331,20.0176244 C5.14901888,20.0632104 5.20305811,20.1016777 5.26079611,20.1321046 C5.30874539,20.1793344 5.36300296,20.2179572 5.42161891,20.2465849 C5.46864358,20.296438 5.52305318,20.3368529 5.58244171,20.3660426 C5.62915477,20.4126621 5.68185447,20.4512477 5.73879721,20.4805228 C5.78784278,20.5261088 5.84188201,20.5645762 5.89962001,20.5950031 C5.94640434,20.6439273 6.00093651,20.6827455 6.06044281,20.7094833 C6.10746748,20.7593364 6.16187708,20.7997514 6.22126561,20.828941 C6.26797867,20.8755605 6.32067837,20.9141462 6.37762111,20.9434213 C6.42557039,20.990651 6.47982796,21.0292738 6.53844391,21.0579015 C6.58621634,21.1067022 6.64046245,21.1469957 6.69926671,21.1773592 C6.74762319,21.2239841 6.80179499,21.2625459 6.86008951,21.2918394 C6.90680257,21.338459 6.95950227,21.3770446 7.01644501,21.4063197 C7.06322934,21.4552439 7.11776151,21.4940621 7.17726781,21.5208 C7.22504025,21.5696007 7.27928635,21.6098942 7.33809061,21.6402576 C7.38207946,21.6823648 7.43000643,21.719077 7.48104421,21.7497605 C7.53064962,21.7996434 7.58628805,21.8415296 7.64633431,21.8741955 C7.69537988,21.9197816 7.74941911,21.9582489 7.80715711,21.9886758 C7.85620268,22.0342618 7.91024191,22.0727292 7.96797991,22.1031561 C8.01355495,22.1513984 8.0665073,22.190169 8.12433541,22.2176363 C8.17210785,22.266437 8.22635395,22.3067305 8.28515821,22.337094 C8.33420378,22.38268 8.38824301,22.4211473 8.44598101,22.4515742 C8.49269407,22.4981938 8.54539377,22.5367794 8.60233651,22.5660545 C8.6512747,22.6131736 8.70529986,22.653303 8.76315931,22.6855122 C8.81220488,22.7310982 8.86624411,22.7695655 8.92398211,22.7999924 C9.27274399,23.0755941 9.7420577,23.0654995 10.0810128,22.7751054 C10.9541481,22.1394873 11.503295,21.0784514 11.5596891,19.9180763 C11.6202545,19.4408757 11.3883993,18.9770733 10.9923753,18.7832237 L10.9923753,18.7832237 Z" id="Shape" fill="url(#radialGradient-1)" fill-rule="nonzero" opacity="0.9" style="mix-blend-mode: soft-light;"></path>
                    <path d="M34.9942128,4.79775978 C34.9409132,4.759375 34.8839721,4.72766196 34.8244242,4.70319694 C34.7708924,4.66338701 34.7120948,4.63315898 34.6501675,4.61361109 C34.5989239,4.57135872 34.5414709,4.53936055 34.4803789,4.51904825 C34.4275792,4.47969713 34.3705323,4.44792519 34.3105903,4.42448541 C34.2572907,4.38610063 34.2003496,4.35438759 34.1408017,4.32992257 C34.0864393,4.2905177 34.0279092,4.25875553 33.966545,4.23535973 C33.9135866,4.197602 33.8565329,4.16749862 33.7967564,4.14577388 C33.7444747,4.10543952 33.6873052,4.07359928 33.6269678,4.05121104 C33.5666269,4.01578909 33.5018666,3.99062544 33.4348386,3.97655616 C33.3869581,3.93950373 33.3342011,3.91096051 33.2784544,3.89194731 C33.2251548,3.85356252 33.1682137,3.82184948 33.1086658,3.79738447 C33.0551341,3.75757453 32.9963364,3.72734651 32.9344091,3.70779862 C32.8836895,3.66460347 32.8260752,3.63251549 32.7646205,3.61323578 C32.7113209,3.57485099 32.6543798,3.54313795 32.5948319,3.51867294 C32.5404696,3.47926807 32.4819395,3.4475059 32.4205752,3.42411009 C32.3677755,3.38475897 32.3107286,3.35298703 32.2507867,3.32954725 C32.1972549,3.28973732 32.1384573,3.25950929 32.0765299,3.2399614 C32.0266677,3.19525796 31.9687649,3.16300931 31.9067414,3.14539856 C31.8539416,3.10604744 31.7968948,3.0742755 31.7369528,3.05083572 C31.6825904,3.01143086 31.6240603,2.97966868 31.5626961,2.95627288 C31.5112273,2.91560228 31.4537637,2.88528264 31.3929075,2.86668703 C31.3421879,2.82349189 31.2845736,2.79140391 31.2231189,2.77212419 C31.170779,2.72887846 31.1116951,2.69681576 31.0488622,2.67756135 C30.9976186,2.63530899 30.9401656,2.60331081 30.8790736,2.58299851 C30.8262739,2.54364739 30.769227,2.51187545 30.709285,2.48843567 C30.6557532,2.44862574 30.5969556,2.41839771 30.5350283,2.39884982 C30.4851661,2.35414638 30.4272633,2.32189773 30.3652397,2.30428698 C30.3145201,2.26109183 30.2569058,2.22900386 30.1954511,2.20972414 C30.1420927,2.16837894 30.0833116,2.13648053 30.0211944,2.1151613 C29.9736377,2.06337674 29.9194263,2.01976501 29.8603421,1.98575952 C29.8070425,1.94737474 29.7501014,1.91566169 29.6905535,1.89119668 C29.6370217,1.85138674 29.5782241,1.82115872 29.5162968,1.80161083 C29.4664345,1.75690738 29.4085317,1.72465873 29.3465082,1.70704799 C29.2942264,1.66671363 29.237057,1.63487338 29.1767196,1.61248515 C29.1233612,1.57113995 29.06458,1.53924154 29.0024629,1.51792231 C28.9509941,1.47725171 28.8935305,1.44693207 28.8326743,1.42833646 C28.7803344,1.38509072 28.7212505,1.35302803 28.6584176,1.33377362 C28.6085554,1.28907017 28.5506526,1.25682152 28.488629,1.23921078 C28.4368682,1.19790539 28.3795626,1.16598931 28.3188404,1.14464793 C28.265482,1.10330274 28.2067008,1.07140432 28.1445837,1.05008509 C28.093115,1.00941449 28.0356513,0.979094856 27.9747951,0.960499245 C27.9240755,0.917304098 27.8664612,0.88521612 27.8050065,0.865936405 C27.7526666,0.82269067 27.6935828,0.790627975 27.6307498,0.771373564 C27.5808876,0.726670119 27.5229848,0.694421468 27.4609612,0.676810723 C27.4092005,0.635505342 27.3518948,0.603589259 27.2911727,0.582247883 C27.2386536,0.540460552 27.1795371,0.510068569 27.1169159,0.492662033 C27.0670537,0.447958589 27.0091509,0.415709937 26.9471274,0.398099193 C26.8964078,0.354904046 26.8387935,0.322816068 26.7773388,0.303536352 C26.7249989,0.260290617 26.665915,0.228227923 26.6030821,0.208973511 C26.5518385,0.166721145 26.4943854,0.134722969 26.4332935,0.114410671 C26.1848824,-0.0531223441 25.8699416,-0.0353848032 25.637968,0.159203595 C25.0109011,0.615426948 24.6160843,1.37673047 24.5745553,2.20972414 C24.5387558,2.53367228 24.6863328,2.8485774 24.9454093,3.00106581 C25.0525069,3.077446 25.1599281,3.15376809 25.2672281,3.23012831 C25.3123776,3.28254223 25.36728,3.32331232 25.4280804,3.34957611 C25.4736639,3.39781449 25.5266259,3.4365819 25.5844647,3.46404692 C25.6312576,3.51296708 25.6857998,3.55178211 25.745317,3.57851772 C25.7930982,3.62731441 25.8473543,3.66760458 25.9061694,3.69796552 C25.952627,3.74736376 26.007256,3.78624056 26.0670217,3.81243633 C26.1113118,3.86246086 26.1646085,3.90147324 26.2234059,3.92690714 C26.2711871,3.97570383 26.3254432,4.01599399 26.3842583,4.04635494 C26.4322164,4.09358082 26.4864839,4.13220039 26.5451106,4.16082574 C26.5923233,4.20914155 26.6467617,4.24788268 26.705963,4.27529655 C26.750253,4.32532108 26.8035498,4.36433346 26.8623472,4.38976736 C26.9101284,4.43856405 26.9643845,4.47885421 27.0231995,4.50921516 C27.0711576,4.55644104 27.1254252,4.59506061 27.1840519,4.62368596 C27.2308448,4.67260613 27.285387,4.71142116 27.3449042,4.73815677 C27.3903079,4.78792382 27.4432501,4.82836158 27.5012885,4.85760457 C27.550343,4.90318682 27.6043922,4.94165098 27.6621408,4.97207538 C27.7100989,5.01930126 27.7643664,5.05792083 27.8229931,5.08654618 C27.928274,5.16529821 28.0340218,5.24327279 28.1402297,5.32046479 C28.1881878,5.36769067 28.2424553,5.40631024 28.3010821,5.4349356 C28.347875,5.48385576 28.4024172,5.52267079 28.4619344,5.5494064 C28.5672152,5.62815843 28.6729631,5.70613301 28.779171,5.78332501 C28.8271291,5.83055089 28.8813966,5.86917046 28.9400233,5.89779582 C28.9878045,5.9465925 29.0420606,5.98688267 29.1008757,6.01724362 C29.1499303,6.06282586 29.2039794,6.10129003 29.261728,6.13171442 C29.308055,6.17889829 29.3608474,6.2175415 29.4181122,6.24618523 C29.4649052,6.29510539 29.5194474,6.33392043 29.5789646,6.36065604 C29.6267458,6.40945272 29.6810019,6.44974289 29.7398169,6.48010384 C29.7888715,6.52568608 29.8429207,6.56415025 29.9006693,6.59457464 C29.9469963,6.64175851 29.9997887,6.68040172 30.0570535,6.70904545 C30.1048347,6.75784214 30.1590908,6.7981323 30.2179059,6.82849325 C30.2669604,6.8740755 30.3210096,6.91253966 30.3787582,6.94296406 C30.4278128,6.9885463 30.4818619,7.02701047 30.5396105,7.05743486 C30.5866439,7.10728384 30.6410635,7.14769544 30.7004629,7.17688266 C30.7471845,7.22349834 30.7998939,7.26208078 30.8568471,7.29135347 C30.9059017,7.33693572 30.9599509,7.37539988 31.0176995,7.40582428 C31.0644924,7.45474444 31.1190346,7.49355947 31.1785518,7.52029508 C31.2255851,7.57014406 31.2800047,7.61055566 31.3394042,7.63974288 C31.3818238,7.68179739 31.4282747,7.71851693 31.4779159,7.7492367 C31.529886,7.79805904 31.5868821,7.83982701 31.6477045,7.87366149 C31.6967591,7.91924374 31.7508082,7.9577079 31.8085568,7.98813229 C31.8552785,8.03474798 31.9079879,8.07333042 31.9649411,8.1026031 C32.0128991,8.14982899 32.0671667,8.18844856 32.1257934,8.21707391 C32.2310742,8.29582594 32.3368221,8.37380052 32.44303,8.45099251 C32.4920846,8.49657476 32.5461337,8.53503893 32.6038823,8.56546332 C32.6518404,8.61268921 32.7061079,8.65130878 32.7647347,8.67993413 C32.8117347,8.72749903 32.8643495,8.76768673 32.9211189,8.79938193 C33.2713439,9.07579611 33.742405,9.06570553 34.0828303,8.77449697 C34.956126,8.1389313 35.5053737,7.07798307 35.5617782,5.91770378 C35.6145041,5.44593247 35.3840739,4.99123806 34.9942128,4.79775978 Z" id="Shape" fill="url(#radialGradient-2)" fill-rule="nonzero" opacity="0.9" style="mix-blend-mode: soft-light;"></path>
                    <ellipse id="Oval" fill="url(#radialGradient-3)" fill-rule="nonzero" transform="translate(25.258735, 2.207609) rotate(-60.000000) translate(-25.258735, -2.207609) " cx="25.2587352" cy="2.20760857" rx="1.58880894" ry="1"></ellipse>
                    <ellipse id="Oval" stroke="#FFFFFF" stroke-width="0.5" opacity="0.22" style="mix-blend-mode: overlay;" transform="translate(25.258735, 2.207609) rotate(-60.000000) translate(-25.258735, -2.207609) " cx="25.2587352" cy="2.20760857" rx="1.58880894" ry="1"></ellipse>
                    <ellipse id="Oval" fill="url(#radialGradient-4)" fill-rule="nonzero" transform="translate(1.588809, 15.611750) rotate(-60.000000) translate(-1.588809, -15.611750) " cx="1.58880894" cy="15.6117505" rx="1.58880894" ry="1"></ellipse>
                    <ellipse id="Oval" stroke="#FFFFFF" stroke-width="0.5" opacity="0.22" style="mix-blend-mode: overlay;" transform="translate(1.588809, 15.611750) rotate(-60.000000) translate(-1.588809, -15.611750) " cx="1.58880894" cy="15.6117505" rx="1.58880894" ry="1"></ellipse>
                    <path d="M24.5692447,3 L152.569245,76" id="Shape" stroke="#FFFFFF" opacity="0.199907" style="mix-blend-mode: overlay;"></path>
                    <path d="M1.56924474,16 L129.569245,89" id="Shape" stroke="#FFFFFF" opacity="0.199907" style="mix-blend-mode: overlay;"></path>
                </g>
            </g>
        </g>
    </g>
</svg>