<?xml version="1.0" encoding="UTF-8"?>
<svg width="391px" height="389px" viewBox="0 0 391 389" version="1.1" xmlns="http://www.w3.org/2000/svg" xmlns:xlink="http://www.w3.org/1999/xlink">
    <!-- Generator: Sketch 51.3 (57544) - http://www.bohemiancoding.com/sketch -->
    <title>bg_particle</title>
    <desc>Created with Sketch.</desc>
    <defs>
        <linearGradient x1="97.0669256%" y1="50.1198502%" x2="0%" y2="54.0861621%" id="linearGradient-1">
            <stop stop-color="#0028B4" stop-opacity="0.5" offset="0%"></stop>
            <stop stop-color="#157EFF" stop-opacity="0.497820426" offset="100%"></stop>
        </linearGradient>
        <linearGradient x1="100%" y1="54.0861621%" x2="0%" y2="54.0861621%" id="linearGradient-2">
            <stop stop-color="#0028B4" offset="0%"></stop>
            <stop stop-color="#157EFF" offset="100%"></stop>
        </linearGradient>
    </defs>
    <g id="页面" stroke="none" stroke-width="1" fill="none" fill-rule="evenodd">
        <g id="Artboard-2" transform="translate(-1223.000000, -3787.000000)" fill-rule="nonzero">
            <g id="bg_particle" transform="translate(1223.000000, 3787.000000)">
                <path d="M137.213096,51.0069726 L113.369431,37.6879777 L112.748995,37.9596179 L84.3490159,75.61763 L79.2272557,53.244978 L27.1242872,151.390759 L27.1124127,151.51264 L84.3490159,75.61763 L87.0599279,87.4593185 L60.9195092,133.705535 L83.9538626,120.966008 L81.8867795,128.524074 L47.617465,157.732601 L81.8249706,128.750072 L72.7343782,161.98884 L100.912029,147.96747 L99.0576167,139.867105 L47.6064206,158.2296 L125.617179,255.883438 L108.490766,181.07258 L72.0743496,165.349757 L83.2429106,266.85767 L74.230618,265.631063 L62.1476637,225.120086 L62.14152,225.092754 L62.1822844,225.045537 L62.0890621,224.859381 L47.0964346,158.160572 L60.9195092,133.705535 L27.0213493,152.453469 L26.8575407,154.505561 L62.0890621,224.859381 L62.14152,225.092754 L32.0945427,259.896181 L74.230618,265.631063 L87.4574233,309.977071 L88.0381847,309.578682 L89.3621848,310.094922 L88.2431927,310.034966 L111.984303,339.040444 L119.480642,321.838393 L142.79752,330.929865 L155.123727,384.772667 L227.162005,364.610824 L232.843851,363.438085 L226.980638,362.783703 L226.445837,363.484491 L226.728603,362.755573 L225.209403,362.586018 L225.943316,363.349196 L142.79752,330.929865 L131.140756,280.011289 L139.211172,274.475166 L140.069745,274.592021 L119.480642,321.838393 L89.3621848,310.094922 L179.368873,314.91755 L224.550907,361.901263 L220.269371,317.109031 L179.368873,314.91755 L140.429188,274.425106 L140.031392,273.927145 L211.599509,226.407344 L211.518007,225.554692 L108.490766,181.07258 L100.912029,147.96747 L141.498208,127.771541 L119.247544,96.9095603 L125.893402,91.2255899 L158.970005,118.484883 L99.0576167,139.867105 L94.126559,118.327471 L102.51648,111.219057 L119.247544,96.9095603 L119.145314,96.7677653 L94.0814206,118.1303 L93.5194659,115.675594 L101.429598,111.300766 L116.332599,92.8664903 L99.419445,69.4077106 L98.3057493,68.4898849 L89.82017,99.5164889 L87.0599279,87.4593185 L97.966703,68.163641 L98.0732139,68.1556113 L137.213096,51.0069726 Z M157.107582,42.4298524 L182.898032,42.4298524 L191.361661,35.2161062 L188.088853,6.31809849 L226.410783,41.9085893 L227.763808,42.4298524 L226.972051,42.4298524 L227.777794,43.1781652 L227.951848,42.7130785 L229.145163,43.232912 L250.658152,40.9859769 L188.652757,5.40575515 L187.619881,5.17952845 L187.004359,5.44901728 L157.107582,42.4298524 Z M182.946745,42.4298524 L192.178645,42.4298524 L191.363392,35.2313878 L182.946745,42.4298524 Z M120.951645,87.1529588 L116.332599,92.8664903 L119.145314,96.7677653 L125.768509,91.1226629 L120.951645,87.1529588 Z M373.733416,241.556411 L374.936652,238.605519 L374.936652,168.906536 L359.496715,189.13857 L370.872652,237.106394 L373.733416,241.556411 Z M159.431632,118.865321 L158.516494,119.30314 L141.498208,127.771541 L211.444758,224.788379 L205.882685,166.599518 L159.927244,119.273768 L159.431632,118.865321 Z M336.647513,301.263519 L307.986439,347.367423 L306.99184,348.13386 L232.843851,363.438085 L282.300817,368.957883 L307.100423,348.79266 L307.986439,347.367423 L346.892679,317.386339 L349.291184,314.284201 L336.647513,301.263519 Z M348.933847,202.979839 L359.496715,189.13857 L356.035548,174.544197 L335.310896,181.788875 L348.933847,202.979839 Z M301.528961,265.097794 L285.583336,248.676699 L260.954508,274.527885 L226.728603,362.755573 L226.980638,362.783703 L301.528961,265.097794 Z M262.338265,224.738502 L212.824597,226.702236 L212.329874,226.016048 L212.03214,226.120086 L211.599509,226.407344 L220.269371,317.109031 L220.381085,317.115016 L260.954508,274.527885 L275.150672,237.932952 L262.338265,224.738502 Z M250.594857,212.644927 L238.650197,200.344099 L213.594156,225.574263 L250.594857,212.644927 Z M223.161116,55.51431 L236.998589,68.8372004 L335.523954,89.6840631 L334.726084,89.2262257 L229.145163,43.232912 L227.969014,43.3557555 L227.777794,43.1781652 L223.161116,55.51431 Z M304.466445,133.809283 L312.628812,146.506122 L335.922892,90.2761492 L304.466445,133.809283 Z M346.892679,317.386339 L305.055142,371.49745 L282.300817,368.957883 L267.72433,380.810413 L155.167957,384.965874 L155.123727,384.772667 L153.27098,385.291208 L59.541366,327.309168 L31.0998248,259.2515 L20.5024691,234.117932 L26.8575407,154.505561 L26.1843605,153.161288 L26.3684161,152.814585 L25.9603352,153.040281 L26.9339771,151.749244 L27.1242872,151.390759 L31.0998248,110.585105 L79.3873565,52.566063 L112.748995,37.9596179 L113.077032,37.5246447 L113.369431,37.6879777 L187.004359,5.44901728 L187.550619,4.77332117 L188.652757,5.40575515 L306.99184,31.3250993 L336.390972,90.5236235 L383.362093,124.218331 L390.480218,200.485523 L374.936652,238.605519 L374.936652,241.048395 L374.936652,300.083141 L349.969593,315.015273 L346.892679,317.386339 Z M356.035548,174.544197 L374.850836,167.966972 L336.390972,90.5236235 L336.05171,90.2802544 L356.035548,174.544197 Z M336.019146,90.1429421 L336.108394,90.0194292 L335.971181,89.9406926 L336.019146,90.1429421 Z M335.930731,89.7701325 L336.016151,89.7882064 L335.899118,89.7372244 L335.928483,89.7606521 Z M27.0213493,152.453469 L27.0240611,152.419498 L27.1124127,151.51264 L26.9339771,151.749244 L26.3684161,152.814585 L27.0213493,152.453469 Z M374.850836,167.966972 L374.936652,168.139773 L374.936652,168.906536 L375.94577,167.584218 L374.850836,167.966972 Z M125.617179,255.883438 L131.140756,280.011289 L88.0381847,309.578682 L87.9391037,309.54005 L83.2429106,266.85767 L139.211172,274.475166 L139.366236,274.368795 L140.031392,273.927145 L125.617179,255.883438 Z M89.82017,99.5164889 L93.5194659,115.675594 L83.9538626,120.966008 L89.82017,99.5164889 Z M94.126559,118.327471 L81.8249706,128.750072 L81.8867795,128.524074 L94.0814206,118.1303 L94.126559,118.327471 Z M72.0743496,165.349757 L68.8113596,163.940958 L72.7343782,161.98884 L72,164.674015 L72.0743496,165.349757 Z M336.05171,90.2802544 L336.019146,90.1429421 L335.964916,90.2179922 L336.05171,90.2802544 Z M335.971181,89.9406926 L335.930731,89.7701325 L335.523954,89.6840631 L335.971181,89.9406926 Z M335.899118,89.7372244 L272,38.7569166 L250.658152,40.9859769 L334.726084,89.2262257 L335.899118,89.7372244 Z M211.444758,224.788379 L211.518007,225.554692 L212.213852,225.855123 L212.329874,226.016048 L212.47175,225.966471 L212.213852,225.855123 L211.444758,224.788379 Z M191.363392,35.2313878 L197.058898,30.3602194 L191.361661,35.2161062 L191.363392,35.2313878 Z M224.550907,361.901263 L224.609965,362.519116 L225.209403,362.586018 L224.550907,361.901263 Z M213.594156,225.574263 L212.47175,225.966471 L212.984712,226.187943 L213.594156,225.574263 Z M335.964916,90.2179922 L335.951092,90.2080761 L335.922892,90.2761492 L335.964916,90.2179922 Z M137.213096,51.0069726 L158.516494,62.9069821 L158.718792,63.0383764 L158.017056,63.6364828 L138.791547,65.0858818 L157.107582,42.4298524 L156.78943,42.4298524 L137.213096,51.0069726 Z M226.972051,42.4298524 L192.178645,42.4298524 L194.150953,59.8447986 L159.425586,63.4974431 L197.354652,88.1325945 L198.707198,100.075213 L160.233554,118.481668 L159.809372,118.18532 L158.970005,118.484883 L159.431632,118.865321 L160.233554,118.481668 L204.220737,149.212678 L205.882685,166.599518 L238.650197,200.344099 L254.526144,184.357824 L204.220737,149.212678 L203.9423,146.299753 L198.707198,100.075213 L208.260735,95.504636 L268.618285,170.167752 L254.526144,184.357824 L280.205118,202.298068 L250.594857,212.644927 L262.338265,224.738502 L280.549339,224.016243 L275.150672,237.932952 L285.583336,248.676699 L310.327708,222.704233 L291.138832,198.477446 L291.42341,198.378005 L291.236113,198.146316 L291.696452,197.035096 L335.310896,181.788875 L312.628812,146.506122 L291.696452,197.035096 L290.909313,197.310255 L290.796122,197.602041 L268.618285,170.167752 L303.773579,134.768152 L304.466445,133.809283 L304.444185,133.774657 L236.998589,68.8372004 L194.383539,59.8203336 L194.150953,59.8447986 L197.354652,88.1325945 L208.294815,95.2382949 L223.161116,55.51431 L197.435976,30.745826 L226.410783,41.9085893 L226.972051,42.4298524 Z M182.898032,42.4298524 L158.718792,63.0383764 L158.793754,63.0870644 L182.946745,42.4298524 L182.898032,42.4298524 Z M99.419445,69.4077106 L120.951645,87.1529588 L138.791547,65.0858818 L98.4938516,68.1238996 L99.419445,69.4077106 Z M125.768509,91.1226629 L125.893402,91.2255899 L158.164342,63.625379 L158.017056,63.6364828 L125.768509,91.1226629 Z M373.733416,241.556411 L373.672847,241.704954 L341.339952,293.715312 L319.293777,241.819307 L329.26215,228.757047 L372,241.859977 L370.872652,237.106394 L348.933847,202.979839 L329.26215,228.757047 L311.421058,223.287175 L319.293777,241.819307 L301.528961,265.097794 L336.647513,301.263519 L341.339952,293.715312 L349.798936,313.627495 L349.291184,314.284201 L349.799841,314.808025 L374.263682,242.381258 L373.733416,241.556411 Z M98.0732139,68.1556113 L97.9602144,68.2051205 L98.3057493,68.4898849 L98.4039912,68.1306742 L98.0732139,68.1556113 Z M158.164342,63.625379 L158.323089,63.6134111 L159.425586,63.4974431 L158.793754,63.0870644 L158.164342,63.625379 Z M98.4938516,68.1238996 L98.4300474,68.0354024 L98.4039912,68.1306742 L98.4938516,68.1238996 Z M291.138832,198.477446 L290.349535,198.753254 L290.796122,197.602041 L291.236113,198.146316 L291.112638,198.444375 L291.138832,198.477446 Z M208.294815,95.2382949 L208.516494,95.3822767 L208.260735,95.504636 L208.215897,95.4491704 L208.294815,95.2382949 Z M290.349535,198.753254 L287.10453,207.118242 L280.205118,202.298068 L290.349535,198.753254 Z M280.549339,224.016243 L287.10453,207.118242 L309.640233,222.862485 L280.549339,224.016243 Z" id="Combined-Shape" stroke="url(#linearGradient-1)"></path>
                <path d="M188,10 C185.238576,10 183,7.76142375 183,5 C183,2.23857625 185.238576,0 188,0 C190.761424,0 193,2.23857625 193,5 C193,7.76142375 190.761424,10 188,10 Z M197.5,33 C196.119288,33 195,31.8807119 195,30.5 C195,29.1192881 196.119288,28 197.5,28 C198.880712,28 200,29.1192881 200,30.5 C200,31.8807119 198.880712,33 197.5,33 Z M208.5,101 C205.462434,101 203,98.5375661 203,95.5 C203,92.4624339 205.462434,90 208.5,90 C211.537566,90 214,92.4624339 214,95.5 C214,98.5375661 211.537566,101 208.5,101 Z M228.5,48 C226.014719,48 224,45.9852814 224,43.5 C224,41.0147186 226.014719,39 228.5,39 C230.985281,39 233,41.0147186 233,43.5 C233,45.9852814 230.985281,48 228.5,48 Z M79.5,58 C77.0147186,58 75,55.9852814 75,53.5 C75,51.0147186 77.0147186,49 79.5,49 C81.9852814,49 84,51.0147186 84,53.5 C84,55.9852814 81.9852814,58 79.5,58 Z M98,71 C96.3431458,71 95,69.6568542 95,68 C95,66.3431458 96.3431458,65 98,65 C99.6568542,65 101,66.3431458 101,68 C101,69.6568542 99.6568542,71 98,71 Z M71,168 C68.790861,168 67,166.209139 67,164 C67,161.790861 68.790861,160 71,160 C73.209139,160 75,161.790861 75,164 C75,166.209139 73.209139,168 71,168 Z M27.5,157 C25.5670034,157 24,155.432997 24,153.5 C24,151.567003 25.5670034,150 27.5,150 C29.4329966,150 31,151.567003 31,153.5 C31,155.432997 29.4329966,157 27.5,157 Z M212,229 C210.343146,229 209,227.656854 209,226 C209,224.343146 210.343146,223 212,223 C213.656854,223 215,224.343146 215,226 C215,227.656854 213.656854,229 212,229 Z M62,228 C60.3431458,228 59,226.656854 59,225 C59,223.343146 60.3431458,222 62,222 C63.6568542,222 65,223.343146 65,225 C65,226.656854 63.6568542,228 62,228 Z M139.5,278 C137.567003,278 136,276.432997 136,274.5 C136,272.567003 137.567003,271 139.5,271 C141.432997,271 143,272.567003 143,274.5 C143,276.432997 141.432997,278 139.5,278 Z M220.5,321 C218.014719,321 216,318.985281 216,316.5 C216,314.014719 218.014719,312 220.5,312 C222.985281,312 225,314.014719 225,316.5 C225,318.985281 222.985281,321 220.5,321 Z M310.5,227 C308.014719,227 306,224.985281 306,222.5 C306,220.014719 308.014719,218 310.5,218 C312.985281,218 315,220.014719 315,222.5 C315,224.985281 312.985281,227 310.5,227 Z M350.5,320 C348.014719,320 346,317.985281 346,315.5 C346,313.014719 348.014719,311 350.5,311 C352.985281,311 355,313.014719 355,315.5 C355,317.985281 352.985281,320 350.5,320 Z M307.5,352 C305.567003,352 304,350.432997 304,348.5 C304,346.567003 305.567003,345 307.5,345 C309.432997,345 311,346.567003 311,348.5 C311,350.432997 309.432997,352 307.5,352 Z M304.5,137 C302.567003,137 301,135.432997 301,133.5 C301,131.567003 302.567003,130 304.5,130 C306.432997,130 308,131.567003 308,133.5 C308,135.432997 306.432997,137 304.5,137 Z M272,42 C270.343146,42 269,40.6568542 269,39 C269,37.3431458 270.343146,36 272,36 C273.656854,36 275,37.3431458 275,39 C275,40.6568542 273.656854,42 272,42 Z M158.5,66 C157.119288,66 156,64.8807119 156,63.5 C156,62.1192881 157.119288,61 158.5,61 C159.880712,61 161,62.1192881 161,63.5 C161,64.8807119 159.880712,66 158.5,66 Z M291.5,202 C289.567003,202 288,200.432997 288,198.5 C288,196.567003 289.567003,195 291.5,195 C293.432997,195 295,196.567003 295,198.5 C295,200.432997 293.432997,202 291.5,202 Z M383.5,127 C381.567003,127 380,125.432997 380,123.5 C380,121.567003 381.567003,120 383.5,120 C385.432997,120 387,121.567003 387,123.5 C387,125.432997 385.432997,127 383.5,127 Z M373.5,245 C371.567003,245 370,243.432997 370,241.5 C370,239.567003 371.567003,238 373.5,238 C375.432997,238 377,239.567003 377,241.5 C377,243.432997 375.432997,245 373.5,245 Z M375,170 C373.343146,170 372,168.656854 372,167 C372,165.343146 373.343146,164 375,164 C376.656854,164 378,165.343146 378,167 C378,168.656854 376.656854,170 375,170 Z M155,389 C152.790861,389 151,387.209139 151,385 C151,382.790861 152.790861,381 155,381 C157.209139,381 159,382.790861 159,385 C159,387.209139 157.209139,389 155,389 Z M88.5,314 C86.0147186,314 84,311.985281 84,309.5 C84,307.014719 86.0147186,305 88.5,305 C90.9852814,305 93,307.014719 93,309.5 C93,311.985281 90.9852814,314 88.5,314 Z M160.5,125 C157.462434,125 155,122.537566 155,119.5 C155,116.462434 157.462434,114 160.5,114 C163.537566,114 166,116.462434 166,119.5 C166,122.537566 163.537566,125 160.5,125 Z" id="Combined-Shape" fill="url(#linearGradient-2)"></path>
                <g id="Group-22" transform="translate(0.957871, 230.427938)" fill="#FFE46F">
                    <circle id="Oval-4" opacity="0.395424107" cx="28.4368071" cy="28.4368071" r="28.4368071"></circle>
                    <circle id="Oval-4" cx="28.9356984" cy="28.9356984" r="19.9556541"></circle>
                </g>
                <g id="Group-22" transform="translate(169.583149, 121.669623)" fill="#FFE46F">
                    <circle id="Oval-4" opacity="0.395424107" cx="28.4368071" cy="28.4368071" r="28.4368071"></circle>
                    <circle id="Oval-4" cx="28.9356984" cy="28.9356984" r="19.9556541"></circle>
                </g>
                <g id="Group-22" transform="translate(316.257206, 66.791574)" fill="#FFE46F">
                    <circle id="Oval-4" opacity="0.395424107" cx="21.9512195" cy="21.9512195" r="21.9512195"></circle>
                    <circle id="Oval-4" cx="22.4501109" cy="22.4501109" r="15.4656319"></circle>
                </g>
                <g id="Group-22" transform="translate(207.498891, 343.177384)" fill="#FFE46F">
                    <circle id="Oval-4" opacity="0.395424107" cx="18.9578714" cy="18.9578714" r="18.9578714"></circle>
                    <circle id="Oval-4" cx="19.4567627" cy="19.4567627" r="13.4700665"></circle>
                </g>
            </g>
        </g>
    </g>
</svg>