<?xml version="1.0" encoding="UTF-8"?>
<svg width="100px" height="100px" viewBox="0 0 100 100" version="1.1" xmlns="http://www.w3.org/2000/svg" xmlns:xlink="http://www.w3.org/1999/xlink">
    <!-- Generator: Sketch 51.3 (57544) - http://www.bohemiancoding.com/sketch -->
    <title>icon_component</title>
    <desc>Created with Sketch.</desc>
    <defs></defs>
    <g id="icon_component" stroke="none" stroke-width="1" fill="none" fill-rule="evenodd">
        <g id="开发工具插件" transform="translate(5.000000, 5.000000)" fill-rule="nonzero">
            <circle id="Oval-5" fill="#D9F1FF" cx="45" cy="45" r="30"></circle>
            <g id="Group-3" opacity="0.899999976">
                <path d="M88.2310363,43.2612564 C89.2020149,43.2612564 89.9889242,44.0484063 89.9891,45.0190723 C89.9883968,56.7343882 85.5048069,67.8290192 77.3639172,76.2596802 C69.0159276,84.9047947 57.8008876,89.781855 45.7841707,89.992793 C45.5136047,89.9975391 45.2432145,90 44.9731759,90 C33.2562088,90 22.1934172,85.5353233 13.7418776,77.3765964 C5.9079458,69.8141207 1.08557709,59.6813666 0.162945266,48.8453102 C-0.749841404,38.1245666 2.19386044,27.4398583 8.45151236,18.7550171 C7.55665794,17.5336866 7.02660173,16.0291719 7.02660173,14.4024891 C7.02660173,10.3315631 10.3387937,7.01983793 14.4102934,7.01983793 C18.4817931,7.01983793 21.7939851,10.3315631 21.7939851,14.4024891 C21.7939851,18.473415 18.4816173,21.7851402 14.4102934,21.7851402 C13.2415327,21.7851402 12.1358864,21.5110967 11.1526014,21.0255879 C-0.626776945,37.5973977 1.51173173,60.6833216 16.1840039,74.8474509 C23.9745115,82.3682663 34.1742697,86.4840166 44.9747582,86.4843681 C45.2244032,86.4845439 45.4722902,86.4822588 45.7224627,86.4778642 C56.8001978,86.2834498 67.138843,81.787484 74.8344152,73.8178981 C82.3390616,66.0462423 86.4722694,55.8185661 86.4729726,45.0188965 C86.4729726,44.0482306 87.2600577,43.2612564 88.2310363,43.2612564 Z M76.9182481,43.3132877 C77.8890508,43.3132877 78.6761359,44.1004377 78.6761359,45.0711037 C78.6761359,61.3330104 67.0878591,75.287608 51.1216521,78.2521646 C51.0131795,78.2722037 50.9050586,78.2820474 50.7986958,78.2820474 C49.9680107,78.2820474 49.2292723,77.6908939 49.0721014,76.8448571 C48.8947128,75.8903631 49.5249786,74.9729589 50.4796072,74.7955953 C64.2018217,72.2476411 74.3136767,60.6348059 75.1095521,46.8289196 L44.9223679,46.8289196 C43.9513893,46.8289196 43.1643042,46.0417696 43.1643042,45.0711037 L43.1643042,14.8879978 C27.3063939,15.8017106 14.6845514,28.9906035 14.6845514,45.0711037 C14.6845514,59.1336311 24.6346645,71.5469757 38.3438693,74.5871183 C39.2916415,74.7975289 39.8897347,75.7360268 39.6794703,76.6838412 C39.4692059,77.6318313 38.5305757,78.2298403 37.5824519,78.0194297 C30.2033312,76.3829031 23.5005376,72.2328755 18.7085834,66.3336452 C13.8463066,60.3477546 11.1685998,52.7967047 11.1685998,45.0711037 C11.1685998,26.4619853 26.3104508,11.3220924 44.9223679,11.3219166 C45.8933464,11.3219166 46.6804316,12.1090666 46.6804316,13.0797326 L46.6804316,43.3132877 L76.9182481,43.3132877 Z M44.9965582,75.3046588 C45.9675367,75.3046588 46.7546219,76.0918088 46.7546219,77.0624747 C46.7546219,78.0331407 45.9675367,78.8202907 44.9965582,78.8202907 L44.9223679,78.8202907 C43.9513893,78.8202907 43.1643042,78.0331407 43.1643042,77.0624747 C43.1643042,76.0918088 43.9513893,75.3046588 44.9223679,75.3046588 L44.9965582,75.3046588 Z M83.6716739,16.4849736 C87.8166607,22.6341653 89.9998242,29.7796871 90,37.2627095 C90,38.2333755 89.2129149,39.0205254 88.2419363,39.0205254 L52.7320384,39.0205254 C51.7610598,39.0205254 50.9739747,38.2335512 50.9739747,37.2627095 L50.9739747,1.75781593 C50.9739747,0.787149975 51.7610598,0 52.7320384,0 C57.1145396,0 61.4066763,0.753927254 65.4892518,2.24068797 C66.401511,2.57291518 66.8716173,3.58190153 66.5393432,4.49403221 C66.2068934,5.4061629 65.1984681,5.87673023 64.2856814,5.54397567 C61.1373409,4.39735234 57.849586,3.73219479 54.4899263,3.56028039 L54.4899263,28.4738056 L66.2686014,28.4738056 C67.23958,28.4738056 68.0266651,29.2609556 68.0266651,30.2316215 C68.0266651,31.2022875 67.23958,31.9894375 66.2686014,31.9894375 L54.4899263,31.9894375 L54.4899263,35.5048936 L86.4395694,35.5048936 C86.1231179,29.2781822 84.1243753,23.3582097 80.6022705,18.22152 C79.9695434,18.398532 79.3037647,18.4952119 78.6153069,18.4952119 C74.5438072,18.4952119 71.2316152,15.1834867 71.2316152,11.1125608 C71.2316152,7.04163485 74.5438072,3.72990963 78.6153069,3.72990963 C82.6868066,3.72990963 85.9989986,7.04181063 85.9989986,11.1125608 C85.9989986,13.2284438 85.1027378,15.1376077 83.6716739,16.4849736 Z M74.0162123,28.9890215 C74.3432122,29.3159752 74.531325,29.7694917 74.531325,30.2317973 C74.531325,30.6941029 74.3432122,31.1476194 74.0162123,31.4743974 C73.6892125,31.8013512 73.235632,31.9894375 72.7732613,31.9896133 C72.3108905,31.9896133 71.8573101,31.8013512 71.5303103,31.4743974 C71.2033104,31.1476194 71.0151976,30.6941029 71.0151976,30.2317973 C71.0151976,29.7694917 71.2033104,29.3159752 71.5303103,28.9890215 C71.8573101,28.6618919 72.3108905,28.4739814 72.7732613,28.4739814 C73.235632,28.4739814 73.6892125,28.6620677 74.0162123,28.9890215 Z" id="analytics" fill="#0028B4"></path>
                <path d="M14.4104692,10.5354698 C16.5431763,10.5354698 18.2780336,12.2702583 18.2780336,14.4024891 C18.2780336,16.5348956 16.5430005,18.2695083 14.4104692,18.2695083 C12.2777622,18.2695083 10.5429049,16.5347198 10.5429049,14.4024891 C10.5429049,12.2702583 12.2777622,10.5354698 14.4104692,10.5354698 Z" id="Shape" fill="#74CAFF"></path>
                <path d="M78.6151311,14.9799316 C76.4824241,14.9799316 74.7475668,13.2451431 74.7475668,11.1129123 C74.7475668,8.98050582 76.4825999,7.24589306 78.6151311,7.24589306 C80.7476624,7.24589306 82.4826955,8.9806816 82.4826955,11.1129123 C82.4828713,13.2451431 80.7478382,14.9799316 78.6151311,14.9799316 Z" id="Shape" fill="#74CAFF"></path>
            </g>
        </g>
    </g>
</svg>