<svg width="100px" height="100px" viewBox="0 0 100 100" version="1.1" xmlns="http://www.w3.org/2000/svg" xmlns:xlink="http://www.w3.org/1999/xlink">
    <!-- Generator: Sketch 51.3 (57544) - http://www.bohemiancoding.com/sketch -->
    <title>icon_cloud</title>
    <desc>Created with Sketch.</desc>
    <defs></defs>
    <g id="icon_cloud" stroke="none" stroke-width="1" fill="none" fill-rule="evenodd">
        <g id="云转换" fill-rule="nonzero">
            <circle id="Oval-5" fill="#D9F1FF" cx="30" cy="30" r="30"></circle>
            <path d="M81.497279,62.296626 C81.8242692,62.6229787 82.0123764,63.0756616 82.0123764,63.5369419 C82.0123764,63.9982222 81.8240934,64.4509051 81.497279,64.7772579 C81.1702888,65.1036106 80.7167218,65.2913512 80.2545406,65.2913512 C79.7923593,65.2913512 79.3387923,65.1036106 79.0118021,64.7772579 C78.684812,64.4509051 78.4967047,63.9982222 78.4967047,63.5369419 C78.4967047,63.0756616 78.6849878,62.6229787 79.0118021,62.296626 C79.3387923,61.9702732 79.7923593,61.7825327 80.2545406,61.7825327 C80.7167218,61.7825327 81.1702888,61.9702732 81.497279,62.296626 Z M93.3911068,41.5855079 C97.4478945,43.7764578 100,47.9893912 100,52.673606 C100,59.6314118 94.3253142,65.2918776 87.3500514,65.2918776 C86.3792773,65.2918776 85.5922155,64.50635 85.5922155,63.5374683 C85.5922155,62.5685866 86.3794531,61.783059 87.3500514,61.783059 C92.3867547,61.783059 96.4843283,57.6966312 96.4843283,52.673606 C96.4843283,48.9466926 94.2458521,45.6328085 90.7809869,44.2307198 C89.9844318,43.9082271 89.5380727,43.0577799 89.7265315,42.2204921 C89.8754351,41.55761 89.9512054,40.8833231 89.9512054,40.2157036 C89.9512054,35.1926784 85.8536319,31.1062506 80.8169285,31.1062506 C80.5064636,31.1062506 80.1789461,31.1241474 79.8433416,31.15959 C79.0430947,31.244161 78.2864465,30.7742832 78.0085049,30.0199872 C74.3722336,20.1441316 64.8431072,13.5088185 54.2967953,13.5088185 C43.0131734,13.5088185 33.0964055,21.070026 30.0234011,31.7410593 C35.4667326,32.7402953 40.1667767,36.3586 42.4636189,41.5202373 C42.8575893,42.4057762 42.4578175,43.4423849 41.570549,43.8357628 C41.3388431,43.9385814 41.0964133,43.9871834 40.8582027,43.9871834 C40.1843568,43.9871834 39.5416278,43.5987184 39.250501,42.9446092 C37.2020659,38.3412807 32.7419903,35.2879524 27.7444906,34.9959895 C27.74326,34.9959895 27.7411504,34.9959895 27.7411504,34.9959895 C27.6034981,34.9880938 27.4748116,34.9823037 27.352454,34.9780927 C27.2209547,34.9742326 27.0894554,34.9708989 26.9574288,34.9708989 C19.5456517,34.9708989 13.5156717,40.9847381 13.5156717,48.376979 C13.5156717,55.7692199 19.5456517,61.783059 26.9574288,61.783059 L30.4934934,61.783059 C31.4642674,61.783059 32.2513293,62.5684112 32.2513293,63.5374683 C32.2513293,64.5065254 31.4640916,65.2918776 30.4934934,65.2918776 L26.9574288,65.2918776 C17.6069164,65.2918776 10,57.703825 10,48.376979 C10,39.2185731 17.3346004,31.7368483 26.4521762,31.4694496 C27.9709225,25.6549313 31.3278457,20.3978445 36.0108372,16.5456538 C41.1419458,12.3244738 47.6360408,10 54.2967953,10 C60.3033937,10 66.0578933,11.8289791 70.9388368,15.2891957 C75.3546105,18.4195503 78.7542534,22.6558196 80.8308168,27.5974321 C87.799575,27.6049768 93.4667013,33.2626352 93.4667013,40.2157036 C93.4667013,40.6717201 93.4413859,41.1291404 93.3911068,41.5855079 Z M30.7422521,89.6019999 C32.7880502,90.326117 34.2577479,92.2761625 34.2577479,94.5634391 C34.2577479,97.4656977 31.8919917,99.8266669 28.9842404,99.8266669 C26.0763133,99.8266669 23.7107329,97.4655222 23.7107329,94.5634391 C23.7107329,92.2761625 25.1804306,90.3262924 27.2264046,89.6019999 L27.2264046,80.8875039 C27.2264046,80.4223635 27.411699,79.9759971 27.7413262,79.6470125 L29.3258221,78.0656053 C30.0121498,77.38044 31.125147,77.38044 31.8118263,78.0656053 C32.4983299,78.7505952 32.4983299,79.8614228 31.8118263,80.5465881 L30.7422521,81.6140774 L30.7422521,89.6019999 Z M35.8273007,74.0563792 C36.1544667,74.3825565 36.3423982,74.8352394 36.3423982,75.2984497 C36.3423982,75.7599055 36.1542909,76.2106583 35.8273007,76.5387657 C35.5003106,76.8651184 35.0470952,77.0511044 34.5845623,77.0511044 C34.1222052,77.0511044 33.668814,76.8651184 33.3419997,76.5387657 C33.0148337,76.2124129 32.8267265,75.7599055 32.8267265,75.2984497 C32.8267265,74.8354148 33.0150095,74.382732 33.3419997,74.0563792 C33.668814,73.7300264 34.1222052,73.5422859 34.5845623,73.5422859 C35.0470952,73.5422859 35.5003106,73.7300264 35.8273007,74.0563792 Z M82.7844951,89.6019999 C84.8304691,90.326117 86.3001668,92.2761625 86.3003426,94.56379 C86.3003426,97.4660486 83.9345863,99.8270178 81.0268351,99.8270178 C78.118908,99.8270178 75.7533275,97.4658732 75.7533275,94.56379 C75.7533275,92.2765134 77.2230253,90.3266434 79.2689992,89.6023508 L79.2689992,81.6144284 L71.3953924,73.7563452 C68.2677139,78.7372603 62.9265229,82.1976523 56.7578358,82.7552594 L56.7578358,89.6105973 C58.8038098,90.3348899 60.2735075,92.2849354 60.2735075,94.5720366 C60.2735075,97.4742952 57.9077513,99.8352644 55,99.8352644 C52.0920729,99.8352644 49.7264925,97.4741197 49.7264925,94.5720366 C49.7264925,92.2847599 51.1961902,90.3348899 53.2421642,89.6105973 L53.2421642,82.7552594 C43.4009907,81.8656849 35.6639815,73.5870278 35.6639815,63.5374683 C35.6639815,52.8962629 44.3380109,44.2391418 54.9998242,44.2391418 C65.6618133,44.2391418 74.3358427,52.8964383 74.3358427,63.5374683 C74.3358427,65.9717791 73.8806935,68.3016922 73.0530216,70.4484266 L82.2695735,79.6470125 C82.5992007,79.9759971 82.7844951,80.422188 82.7844951,80.8875039 L82.7844951,89.6019999 Z M70.722074,61.783059 C70.4476484,59.3169902 69.6030996,57.0202388 68.3211575,55.0287851 C67.5615206,55.4123373 66.7623285,55.7046512 65.9364147,55.9004628 L65.9364147,61.783059 L70.722074,61.783059 Z M56.7578358,47.9679853 L56.7578358,52.6872918 L61.9931945,52.6872918 C61.162534,50.3565015 59.1940884,48.5610349 56.7578358,47.9679853 Z M53.2421642,47.9679853 C50.8059116,48.5608595 48.8376418,50.3565015 48.0068055,52.6872918 L53.2421642,52.6872918 L53.2421642,47.9679853 Z M47.5790812,56.1959349 L47.5790812,61.7827081 L53.2421642,61.7827081 L53.2421642,56.1959349 L47.5790812,56.1959349 Z M41.6786667,55.0282588 C40.3969004,57.0200633 39.5523516,59.3168147 39.2777502,61.7827081 L44.0634095,61.7827081 L44.0634095,55.9001119 C43.2374957,55.7043002 42.4383036,55.4121619 41.6786667,55.0282588 Z M39.277926,65.2917021 C39.5523516,67.7577709 40.3969004,70.0543469 41.6788425,72.045976 C42.4384794,71.6624238 43.2376715,71.37011 44.0635853,71.1742983 L44.0635853,65.2917021 L39.277926,65.2917021 Z M43.9872876,74.8612072 C44.2072149,75.0743893 44.4327678,75.2817812 44.6646495,75.4818038 C44.5769247,75.2289682 44.4967594,74.9724479 44.4274937,74.7113657 C44.2792934,74.7568094 44.1324994,74.8066396 43.9872876,74.8612072 Z M44.4296034,52.3637464 C44.4993964,52.101436 44.5799133,51.843512 44.6683413,51.5894481 C44.4350532,51.7905236 44.2084455,51.9989682 43.9872876,52.213203 C44.1332026,52.2681215 44.280524,52.3183026 44.4296034,52.3637464 Z M47.5790812,65.2917021 L47.5790812,70.8784753 L53.2421642,70.8784753 L53.2421642,65.2917021 L47.5790812,65.2917021 Z M48.0041684,74.3872939 C48.8332467,76.7217689 50.8032746,78.52092 53.24234,79.114496 L53.24234,74.3872939 L48.0041684,74.3872939 Z M56.7578358,79.114496 C59.1967254,78.52092 61.1667533,76.7217689 61.9960074,74.3872939 L56.7578358,74.3872939 L56.7578358,79.114496 Z M62.4209188,70.8786508 L62.4209188,65.2918776 L56.7578358,65.2918776 L56.7578358,70.8786508 L62.4209188,70.8786508 Z M62.4209188,61.783059 L62.4209188,56.1962858 L56.7578358,56.1962858 L56.7578358,61.783059 L62.4209188,61.783059 Z M66.0125366,52.213203 C65.7915545,51.9989682 65.564771,51.7905236 65.3314829,51.5892727 C65.4200867,51.843512 65.5006036,52.101436 65.5703966,52.3637464 C65.719476,52.3183026 65.8667974,52.2681215 66.0125366,52.213203 Z M65.3351747,75.4819793 C65.5670564,75.2817812 65.7926093,75.0743893 66.0125366,74.8613827 C65.8675006,74.8068151 65.7207066,74.7568094 65.5725063,74.7115411 C65.5032406,74.9726233 65.4230753,75.2289682 65.3351747,75.4819793 Z M68.3213333,72.0463269 C69.6030996,70.0545223 70.4478242,67.7577709 70.7222498,65.2918776 L65.9365905,65.2918776 L65.9365905,71.1744738 C66.7625043,71.37011 67.5613448,71.6624238 68.3213333,72.0463269 Z" id="cloud-computing-2" fill="#0028B4"></path>
            <path d="M28.9844162,96.3176729 C28.0152244,96.3176729 27.2265804,95.5307417 27.2265804,94.5632636 C27.2265804,93.5959611 28.0152244,92.8088544 28.9844162,92.8088544 C29.953608,92.8088544 30.7422521,93.5957856 30.7422521,94.5632636 C30.7422521,95.5307417 29.953608,96.3176729 28.9844162,96.3176729 Z" id="Shape" fill="#74CAFF"></path>
            <path d="M55,96.3259195 C54.0308082,96.3259195 53.2421642,95.5388128 53.2421642,94.5715102 C53.2421642,93.6042076 54.0306324,92.8171009 55,92.8171009 C55.9693676,92.8171009 56.7578358,93.6040322 56.7578358,94.5715102 C56.7578358,95.5389882 55.9691918,96.3259195 55,96.3259195 Z" id="Shape" fill="#74CAFF"></path>
            <path d="M81.0266593,96.3176729 C80.0574674,96.3176729 79.2688234,95.5307417 79.2688234,94.5632636 C79.2688234,93.5959611 80.0572916,92.8088544 81.0266593,92.8088544 C81.9958511,92.8088544 82.7844951,93.5957856 82.7844951,94.5632636 C82.7844951,95.5307417 81.9958511,96.3176729 81.0266593,96.3176729 Z" id="Shape" fill="#74CAFF"></path>
        </g>
    </g>
</svg>