<?xml version="1.0" encoding="UTF-8"?>
<svg width="100px" height="100px" viewBox="0 0 100 100" version="1.1" xmlns="http://www.w3.org/2000/svg" xmlns:xlink="http://www.w3.org/1999/xlink">
    <!-- Generator: Sketch 51.3 (57544) - http://www.bohemiancoding.com/sketch -->
    <title>icon_process</title>
    <desc>Created with Sketch.</desc>
    <defs></defs>
    <g id="icon_process" stroke="none" stroke-width="1" fill="none" fill-rule="evenodd">
        <g id="开发工具插件" fill-rule="nonzero">
            <circle id="Oval-5" fill="#D9F1FF" cx="50" cy="50" r="30"></circle>
            <path d="M90.2160156,0.0025390625 L12.5466797,0.0025390625 C12.5302734,0.0021484375 12.5142578,0 12.4976563,0 C12.4810547,0 12.4650391,0.0021484375 12.4486328,0.0025390625 L9.76367188,0.0025390625 C4.38007813,0.0025390625 0,4.38242188 0,9.76621094 L0,55.0695313 C0,60.453125 4.37988281,64.8332031 9.76367188,64.8332031 L42.5759766,64.8332031 L42.5759766,70.2763672 C40.303125,71.0824219 38.6705078,73.2529297 38.6705078,75.7986328 C38.6705078,79.0289063 41.2984375,81.6568359 44.5287109,81.6568359 C47.7589844,81.6568359 50.3869141,79.0289063 50.3869141,75.7986328 C50.3869141,73.253125 48.7542969,71.0824219 46.4814453,70.2763672 L46.4814453,64.8332031 L55.8494141,64.8332031 L55.8494141,85.421875 C52.7023437,86.2814453 50.3818359,89.1638672 50.3818359,92.5796875 C50.3818359,96.6712891 53.7107422,100 57.8021484,100 C61.8935547,100 65.2224609,96.6710937 65.2224609,92.5796875 C65.2224609,89.1640625 62.9017578,86.2816406 59.7548828,85.421875 L59.7548828,64.8332031 L90.2160156,64.8332031 C95.5996094,64.8332031 99.9796875,60.4533203 99.9796875,55.0695313 L99.9796875,9.76621094 C99.9796875,4.38222656 95.5998047,0.0025390625 90.2160156,0.0025390625 Z M96.0742187,55.0695313 C96.0742187,58.2998047 93.4462891,60.9277344 90.2160156,60.9277344 L89.4349609,60.9277344 L89.4349609,16.1099609 C89.4349609,15.0316406 88.5605469,14.1572266 87.4822266,14.1572266 C86.4039062,14.1572266 85.5294922,15.0316406 85.5294922,16.1099609 L85.5294922,60.9277344 L59.7548828,60.9277344 L59.7548828,43.8402344 L70.4626953,43.8402344 C71.26875,46.1130859 73.4394531,47.7457031 75.9849609,47.7457031 C79.2152344,47.7457031 81.8431641,45.1177734 81.8431641,41.8875 C81.8431641,38.6572266 79.2152344,36.0292969 75.9849609,36.0292969 C73.4394531,36.0292969 71.26875,37.6619141 70.4626953,39.9347656 L59.7548828,39.9347656 L59.7548828,27.2894531 L66.6138672,27.2894531 C67.4199219,29.5623047 69.5904297,31.1949219 72.1361328,31.1949219 C75.3664062,31.1949219 77.9943359,28.5669922 77.9943359,25.3367188 C77.9943359,22.1064453 75.3664062,19.4785156 72.1361328,19.4785156 C69.590625,19.4785156 67.4199219,21.1111328 66.6138672,23.3839844 L57.8021484,23.3839844 C56.7238281,23.3839844 55.8494141,24.2583984 55.8494141,25.3367188 L55.8494141,60.9277344 L46.4814453,60.9277344 L46.4814453,25.1253906 C49.6285156,24.2658203 51.9490234,21.3833984 51.9490234,17.9675781 C51.9490234,13.8759766 48.6201172,10.5472656 44.5287109,10.5472656 C40.4371094,10.5472656 37.1083984,13.8761719 37.1083984,17.9675781 C37.1083984,21.3832031 39.4291016,24.265625 42.5759766,25.1253906 L42.5759766,32.4402344 L35.8583984,32.4402344 C35.0523438,30.1673828 32.8818359,28.5347656 30.3361328,28.5347656 C27.1058594,28.5347656 24.4779297,31.1626953 24.4779297,34.3929688 C24.4779297,37.6232422 27.1058594,40.2511719 30.3361328,40.2511719 C32.8816406,40.2511719 35.0523438,38.6185547 35.8583984,36.3457031 L42.5759766,36.3457031 L42.5759766,48.0396484 L29.2441406,48.0396484 C28.4380859,45.7667969 26.2675781,44.1341797 23.721875,44.1341797 C20.4916016,44.1341797 17.8636719,46.7621094 17.8636719,49.9923828 C17.8636719,53.2226562 20.4916016,55.8505859 23.721875,55.8505859 C26.2673828,55.8505859 28.4380859,54.2179687 29.2441406,51.9451172 L42.5759766,51.9451172 L42.5759766,60.9277344 L9.76367187,60.9277344 C6.53339844,60.9277344 3.90546875,58.2998047 3.90546875,55.0695312 L3.90546875,9.76621094 C3.90546875,6.5359375 6.53339844,3.90800781 9.76367187,3.90800781 L10.5449219,3.90800781 L10.5447266,48.7205078 C10.5447266,49.7988281 11.4191406,50.6732422 12.4974609,50.6732422 C13.5757812,50.6732422 14.4501953,49.7988281 14.4501953,48.7205078 L14.4503906,3.90800781 L90.2160156,3.90800781 C93.4462891,3.90800781 96.0742187,6.5359375 96.0742187,9.76621094 L96.0742187,55.0695313 Z M88.8621094,7.79785156 C88.4990234,7.43261719 87.9970703,7.22578125 87.4816406,7.22578125 C86.9679687,7.22578125 86.4640625,7.4328125 86.1009766,7.79785156 C85.7376953,8.16113281 85.5289062,8.66464844 85.5289062,9.17851562 C85.5289062,9.69199219 85.7376953,10.1958984 86.1009766,10.5589844 C86.4640625,10.9222656 86.9677734,11.13125 87.4816406,11.13125 C87.9970703,11.13125 88.4990234,10.9222656 88.8621094,10.5589844 C89.2273437,10.19375 89.4361328,9.6921875 89.4361328,9.17851562 C89.4361328,8.66464844 89.2271484,8.1609375 88.8621094,7.79785156 Z M13.8773437,54.2728516 C13.5142578,53.909375 13.0123047,53.7007813 12.496875,53.7007813 C11.9832031,53.7007813 11.4794922,53.9095703 11.1162109,54.2728516 C10.7529297,54.6363281 10.5441406,55.1396484 10.5441406,55.6535156 C10.5441406,56.1669922 10.7529297,56.66875 11.1162109,57.0339844 C11.4794922,57.3972656 11.9830078,57.60625 12.496875,57.60625 C13.0103516,57.60625 13.5142578,57.3972656 13.8773437,57.0339844 C14.2425781,56.66875 14.4496094,56.1671875 14.4496094,55.6535156 C14.4496094,55.1396484 14.2423828,54.6359375 13.8773437,54.2728516 Z" id="smartphone-1" fill="#0028B4"></path>
            <path d="M44.5287109,77.7513672 C43.4519531,77.7513672 42.5759766,76.8753906 42.5759766,75.7986328 C42.5759766,74.721875 43.4519531,73.8458984 44.5287109,73.8458984 C45.6054687,73.8458984 46.4814453,74.721875 46.4814453,75.7986328 C46.4814453,76.8753906 45.6054687,77.7513672 44.5287109,77.7513672 Z" id="Shape" fill="#74CAFF"></path>
            <path d="M41.0136719,17.9675781 C41.0136719,16.0294922 42.5904297,14.4527344 44.5285156,14.4527344 C46.4666016,14.4527344 48.0433594,16.0294922 48.0433594,17.9675781 C48.0433594,19.9056641 46.4666016,21.4824219 44.5285156,21.4824219 C42.5904297,21.4824219 41.0136719,19.9056641 41.0136719,17.9675781 Z" id="Shape" fill="#74CAFF"></path>
            <path d="M61.3169922,92.5796875 C61.3169922,94.5177734 59.7402344,96.0945312 57.8021484,96.0945312 C55.8640625,96.0945312 54.2873047,94.5177734 54.2873047,92.5796875 C54.2873047,90.6416016 55.8640625,89.0648437 57.8021484,89.0648437 C59.7402344,89.0648437 61.3169922,90.6416016 61.3169922,92.5796875 Z" id="Shape" fill="#74CAFF"></path>
            <path d="M74.0322266,41.8873047 C74.0322266,40.8105469 74.9082031,39.9345703 75.9849609,39.9345703 C77.0617187,39.9345703 77.9376953,40.8105469 77.9376953,41.8873047 C77.9376953,42.9640625 77.0617187,43.8400391 75.9849609,43.8400391 C74.9082031,43.8400391 74.0322266,42.9640625 74.0322266,41.8873047 Z" id="Shape" fill="#74CAFF"></path>
            <path d="M70.1832031,25.3367187 C70.1832031,24.2599609 71.0591797,23.3839844 72.1359375,23.3839844 C73.2126953,23.3839844 74.0886719,24.2599609 74.0886719,25.3367187 C74.0886719,26.4134766 73.2126953,27.2894531 72.1359375,27.2894531 C71.0591797,27.2894531 70.1832031,26.4134766 70.1832031,25.3367187 Z" id="Shape" fill="#74CAFF"></path>
            <path d="M32.2886719,34.3929688 C32.2886719,35.4697266 31.4126953,36.3457031 30.3359375,36.3457031 C29.2591797,36.3457031 28.3832031,35.4697266 28.3832031,34.3929688 C28.3832031,33.3162109 29.2591797,32.4402344 30.3359375,32.4402344 C31.4126953,32.4402344 32.2886719,33.3162109 32.2886719,34.3929688 Z" id="Shape" fill="#74CAFF"></path>
            <path d="M25.6744141,49.9923828 C25.6744141,51.0691406 24.7984375,51.9451172 23.7216797,51.9451172 C22.6449219,51.9451172 21.7689453,51.0691406 21.7689453,49.9923828 C21.7689453,48.915625 22.6449219,48.0396484 23.7216797,48.0396484 C24.7984375,48.0396484 25.6744141,48.915625 25.6744141,49.9923828 Z" id="Shape" fill="#74CAFF"></path>
        </g>
    </g>
</svg>