<?xml version="1.0" encoding="UTF-8"?>
<svg width="100px" height="100px" viewBox="0 0 100 100" version="1.1" xmlns="http://www.w3.org/2000/svg" xmlns:xlink="http://www.w3.org/1999/xlink">
    <!-- Generator: Sketch 51.3 (57544) - http://www.bohemiancoding.com/sketch -->
    <title>icon_npm</title>
    <desc>Created with Sketch.</desc>
    <defs></defs>
    <g id="icon_npm" stroke="none" stroke-width="1" fill="none" fill-rule="evenodd">
        <circle id="Oval-5" fill="#D9F1FF" fill-rule="nonzero" cx="50" cy="70" r="30"></circle>
        <path d="M59.3339844,37.8535156 C59.6503906,38.1875 59.84375,38.6269531 59.84375,39.1015625 C59.84375,39.5761719 59.6679688,40.015625 59.3339844,40.3496094 C59,40.6660156 58.5605469,40.859375 58.0859375,40.859375 C57.6113281,40.859375 57.171875,40.6835938 56.8378906,40.3496094 C56.5214844,40.015625 56.328125,39.5761719 56.328125,39.1015625 C56.328125,38.6269531 56.5039062,38.1875 56.8378906,37.8535156 C57.171875,37.5371094 57.6113281,37.34375 58.0859375,37.34375 C58.5605469,37.34375 59.0175781,37.5195312 59.3339844,37.8535156 Z M58.0859375,22.2089844 C61.7773438,22.2089844 64.765625,25.1972656 64.765625,28.8886719 C64.765625,32.5800781 61.7773438,35.5683594 58.0859375,35.5683594 C54.3945312,35.5683594 51.40625,32.5800781 51.40625,28.8886719 C51.40625,25.1972656 54.3945312,22.2089844 58.0859375,22.2089844 Z M82.9765625,37.6425781 C85.2617188,39.9277344 85.2617188,43.6542969 82.9765625,45.9394531 C81.8339844,47.0820312 80.3222656,47.6621094 78.828125,47.6621094 C77.3339844,47.6621094 75.8222656,47.0820312 74.6796875,45.9394531 C74.5214844,45.7988281 74.3808594,45.6230469 74.2402344,45.4648437 L66.5234375,49.3671875 L66.5234375,69.3183594 C66.5234375,70.2851562 65.7324219,71.0761719 64.765625,71.0761719 C63.7988281,71.0761719 63.0078125,70.2851562 63.0078125,69.3183594 L63.0078125,48.2773437 C63.0078125,47.609375 63.3769531,47.0117187 63.9921875,46.6953125 L72.9746094,42.1601562 C72.8691406,40.5429687 73.4492188,38.8730469 74.6796875,37.6425781 C76.9648438,35.3574219 80.6914062,35.3574219 82.9765625,37.6425781 Z M93.9804688,21.3300781 C94.5957031,21.6113281 95,22.2441406 95,22.9296875 L95,72.3565419 C95,72.6786356 94.8448633,72.9810128 94.583228,73.1688727 L94.5832026,73.1688374 C81.1481333,82.815514 69.228472,90.0398338 58.8242188,94.8417969 C58.5957031,94.9472656 58.3320312,95 58.0859375,95 C57.921875,95 57.6757813,94.9472656 57.3476562,94.8417969 L50.0616794,89.562339 C49.8021081,89.3742523 49.6484375,89.0731292 49.6484375,88.7525767 L49.6484375,75.3125 L45.1835938,72.3945312 C44.1113281,73.2910156 42.7753906,73.7304688 41.4570312,73.7304688 C39.9628906,73.7304688 38.4511719,73.1503906 37.3085938,72.0078125 C35.0234375,69.7226562 35.0234375,65.9960938 37.3085938,63.7109375 C39.59375,61.4257812 43.3203125,61.4257812 45.6054688,63.7109375 C47.1523438,65.2578125 47.6445312,67.4726562 47.0996094,69.4414062 L52.3730469,72.8691406 C52.8652344,73.203125 53.1640625,73.7480469 53.1640625,74.3457031 L53.1640625,87.6695604 C53.1640625,87.9620382 53.2921064,88.239856 53.5144755,88.4298435 C54.7263331,89.4652642 55.6642163,90.1435976 56.328125,90.4648438 L56.328125,45.1308594 C56.328125,44.1640625 57.1191406,43.3730469 58.0859375,43.3730469 C59.0527344,43.3730469 59.84375,44.1640625 59.84375,45.1308594 L59.84375,90.4648438 C68.9609375,86.0820312 79.5078125,79.7304687 91.484375,71.4101562 L91.484375,24.0546875 L58.0859375,8.69140625 L24.6875,24.0546875 L24.6875,28.3613281 C25.53125,28.203125 26.375,28.1328125 27.2539062,28.1328125 C34.8828125,28.1328125 41.2285156,33.828125 42.2304688,41.1933594 C42.5292969,41.1582031 42.8457031,41.140625 43.1445312,41.140625 C47.890625,41.140625 51.7578125,45.0078125 51.7578125,49.7539062 C51.7578125,54.5 47.890625,58.3671875 43.1445312,58.3671875 L13.6132813,58.3671875 C13.2792969,58.3671875 12.9453125,58.3496094 12.6113281,58.3144531 L12.6113281,71.4101562 C13.4902344,71.6914062 14.3164063,72.1660156 15.0195313,72.8691406 C17.3046875,75.1542969 17.3046875,78.8808594 15.0195313,81.1660156 C13.8769531,82.3085937 12.3652344,82.8886719 10.8710938,82.8886719 C9.37695312,82.8886719 7.86523438,82.3085937 6.72265625,81.1660156 C4.4375,78.8808594 4.4375,75.1542969 6.72265625,72.8691406 C7.40820312,72.1835938 8.234375,71.7089844 9.09570312,71.4277344 L9.09570312,57.0839844 C6.63476562,55.5546875 5,52.8476562 5,49.7539062 C5,45.4648438 8.1640625,41.8964844 12.2597656,41.2460938 C12.6992188,37.90625 14.2460938,34.8300781 16.6894531,32.4394531 C18.0078125,31.15625 19.5371094,30.1367188 21.171875,29.4160156 L21.171875,22.9296875 C21.171875,22.2441406 21.5761719,21.6113281 22.1914063,21.3300781 L57.3476562,5.15820312 C57.8222656,4.94726562 58.3496094,4.94726562 58.8242188,5.15820312 L93.9804688,21.3300781 Z M27.2714844,31.6484375 C20.7148438,31.5605469 16.4257812,37.3964844 15.8105469,41.421875 C17.2695312,41.8085938 18.6230469,42.5644531 19.7128906,43.6542969 C20.3984375,44.3398438 20.3984375,45.4472656 19.7128906,46.1328125 C19.3613281,46.4667969 18.921875,46.6425781 18.4648438,46.6425781 C18.0078125,46.6425781 17.5683594,46.484375 17.2167969,46.1328125 C16.3554688,45.2714844 15.2128906,44.7441406 14,44.65625 C13.9648438,44.6386719 13.9472656,44.6386719 13.9121094,44.6386719 C13.8945312,44.6386719 13.859375,44.6386719 13.8242188,44.6386719 C13.7539062,44.6386719 13.6835938,44.6386719 13.6132812,44.6386719 C10.8007812,44.6386719 8.515625,46.9238281 8.515625,49.7363281 C8.515625,52.5488281 10.8007812,54.8339844 13.6132812,54.8339844 L43.1445313,54.8339844 C45.9570313,54.8339844 48.2421875,52.5488281 48.2421875,49.7363281 C48.2421875,46.9238281 45.9570313,44.6386719 43.1445313,44.6386719 C42.4941406,44.6386719 41.8613281,44.7441406 41.2636719,44.9902344 C41.2460938,44.9902344 41.2285156,45.0078125 41.2109375,45.0078125 C41.1933594,45.0078125 41.1933594,45.0253906 41.1757813,45.0253906 C40.5605469,45.2890625 40.015625,45.6582031 39.5410156,46.1328125 C38.9785156,46.6777344 38.5742188,47.328125 38.328125,48.0488281 C38.0820313,48.7695313 37.3964844,49.2265625 36.6757812,49.2265625 C36.4824219,49.2265625 36.2890625,49.1914063 36.0957031,49.1210938 C35.1816406,48.8046875 34.7070312,47.8027344 35.0234375,46.8886719 C35.4628906,45.6582031 36.1484375,44.5683594 37.0625,43.6542969 C37.5898438,43.1269531 38.1875,42.6699219 38.8203125,42.3007813 C38.328125,36.3417969 33.3359375,31.6484375 27.2714844,31.6484375 Z M24.1601562,62.09375 C24.4765625,62.4277344 24.6699219,62.8671875 24.6699219,63.3417969 C24.6699219,63.8164062 24.4941406,64.2558594 24.1601562,64.5898437 C23.8261719,64.90625 23.3691406,65.0996094 22.9121094,65.0996094 C22.4375,65.0996094 21.9980469,64.9238281 21.6640625,64.5898437 C21.3476562,64.2558594 21.1542969,63.8164062 21.1542969,63.3417969 C21.1542969,62.8671875 21.3300781,62.4101562 21.6640625,62.09375 C21.9980469,61.7773437 22.4375,61.5839844 22.9121094,61.5839844 C23.3867187,61.5839844 23.8261719,61.7597656 24.1601562,62.09375 Z M27.078125,84.8398437 C29.3632812,87.125 29.3632812,90.8515625 27.078125,93.1367187 C25.9355469,94.2792969 24.4238281,94.859375 22.9296875,94.859375 C21.4355469,94.859375 19.9238281,94.2792969 18.78125,93.1367187 C16.4960937,90.8515625 16.4960937,87.125 18.78125,84.8398437 C19.4667969,84.1542969 20.2929687,83.6796875 21.1542969,83.3984375 L21.1542969,70.2851562 C21.1542969,69.3183594 21.9453125,68.5273437 22.9121094,68.5273437 C23.8789062,68.5273437 24.6699219,69.3183594 24.6699219,70.2851562 L24.6699219,83.3984375 C25.5488281,83.6621094 26.375,84.1542969 27.078125,84.8398437 Z" id="protection" fill="#0028B4" fill-rule="nonzero"></path>
        <path d="M58.0859375,32.0527344 C56.3457031,32.0527344 54.921875,30.6289062 54.921875,28.8886719 C54.921875,27.1484375 56.3457031,25.7246094 58.0859375,25.7246094 C59.8261719,25.7246094 61.25,27.1484375 61.25,28.8886719 C61.25,30.6289062 59.8261719,32.0527344 58.0859375,32.0527344 Z" id="Shape" fill="#74CAFF" fill-rule="nonzero"></path>
        <path d="M80.4980469,43.4609375 C79.5839844,44.375 78.0898437,44.375 77.1757812,43.4609375 C76.2265625,42.546875 76.2265625,41.0527344 77.1582031,40.1386719 C77.6152344,39.6816406 78.2128906,39.453125 78.828125,39.453125 C79.4433594,39.453125 80.0410156,39.6816406 80.4980469,40.1386719 C81.4121094,41.0527344 81.4121094,42.546875 80.4980469,43.4609375 Z" id="Shape" fill="#74CAFF" fill-rule="nonzero"></path>
        <path d="M12.5410156,78.6699219 C11.6269531,79.5839844 10.1328125,79.5839844 9.21875,78.6699219 C8.3046875,77.7558594 8.3046875,76.2617187 9.21875,75.3476562 C9.67578125,74.890625 10.2734375,74.6621094 10.8886719,74.6621094 C11.5039062,74.6621094 12.1015625,74.890625 12.5585938,75.3476562 C13.4550781,76.2617187 13.4550781,77.7558594 12.5410156,78.6699219 Z" id="Shape" fill="#74CAFF" fill-rule="nonzero"></path>
        <path d="M43.1269531,69.5292969 C42.1953125,70.4433594 40.7011719,70.4433594 39.7871094,69.5292969 C38.8730469,68.6152344 38.8730469,67.1210938 39.7871094,66.2070312 C40.2441406,65.75 40.8417969,65.5214844 41.4570312,65.5214844 C42.0722656,65.5214844 42.6699219,65.75 43.1269531,66.2070312 C44.0410156,67.1210937 44.0410156,68.6152344 43.1269531,69.5292969 Z" id="Shape" fill="#74CAFF" fill-rule="nonzero"></path>
        <path d="M24.5996094,90.6757812 C23.6855469,91.5898438 22.1914063,91.5898438 21.2773438,90.6757812 C20.3632812,89.7617188 20.3632812,88.2675781 21.2773438,87.3535156 C21.734375,86.8964844 22.3320312,86.6679688 22.9472656,86.6679688 C23.5625,86.6679688 24.1601562,86.8964844 24.6171875,87.3535156 C25.5136719,88.25 25.5136719,89.7441406 24.5996094,90.6757812 Z" id="Shape" fill="#74CAFF" fill-rule="nonzero"></path>
    </g>
</svg>