<?xml version="1.0" encoding="UTF-8"?>
<svg width="100px" height="100px" viewBox="0 0 100 100" version="1.1" xmlns="http://www.w3.org/2000/svg" xmlns:xlink="http://www.w3.org/1999/xlink">
    <!-- Generator: Sketch 51.3 (57544) - http://www.bohemiancoding.com/sketch -->
    <title>icon_ling</title>
    <desc>Created with Sketch.</desc>
    <defs></defs>
    <g id="icon_ling" stroke="none" stroke-width="1" fill="none" fill-rule="evenodd">
        <g id="玲珑组件库" fill-rule="nonzero">
            <circle id="Oval-5" fill="#D9F1FF" cx="50" cy="50" r="30"></circle>
            <g id="单色_图形" transform="translate(31.000000, 29.000000)" fill="#0028B4">
                <path d="M4.2872717,34.4913888 L1.06809923,32.662753 C0.407169815,32.2872393 0,31.5932272 0,30.8424183 L0,20.407988 L0.608534603,20.7535742 L2.90369357,22.0574957 C3.75710729,22.5422338 4.2872717,23.4457384 4.2872717,24.4149962 L4.2872717,26.0638485 L4.2872717,28.7649692 L4.2872717,34.4913888 Z M36.9321227,9.86171188 L31.9903599,7.05420658 L31.9903599,14.6488011 C31.9903599,16.6742594 30.8831866,18.561221 29.1004311,19.5735132 L26.8041621,20.8776531 L24.507893,22.18223 C23.6553674,22.6667497 23.125647,23.5693805 23.125647,24.537983 L23.125647,26.0634116 L23.125647,28.8890482 L23.125647,34.6628711 C23.125647,36.6868002 22.0191397,38.5731065 20.2372722,39.5849618 L16.7456912,41.5682594 L17.9319007,42.2421743 C18.5928301,42.6176879 19.4071698,42.6176879 20.0680992,42.2421743 L36.9319007,32.6620976 C37.5928301,32.286584 37.9999999,31.5925718 37.9999999,30.8417629 L37.9999999,11.6816097 C38.0002219,10.9310193 37.5930521,10.2372255 36.9321227,9.86171188 Z M12.6573421,39.2461476 C13.4412661,39.5622431 14.3426344,39.5091601 15.0868183,39.0864614 L18.7302555,37.0168765 C19.5821151,36.5327938 20.1113915,35.6308182 20.1113915,34.663308 L20.1113915,28.8894851 L20.1113915,26.0636301 L20.1113915,24.5382014 C20.1113915,22.5133985 21.2185648,20.6262185 23.0008763,19.6139262 L25.2971453,18.3093494 L27.5938584,17.0047725 C28.4463841,16.5206898 28.9761044,15.6180589 28.9761044,14.6490196 L28.9761044,5.34178563 L20.0687652,0.281635248 C19.4078358,-0.0938784159 18.5934962,-0.0938784159 17.9325668,0.281635248 L1.06832124,9.86171188 C0.407391827,10.2372255 0.000222011895,10.9312377 0.000222011895,11.6820466 L0.000222011895,16.9829277 L2.11599537,18.1846151 L4.41115433,19.4885366 C6.19435387,20.5012657 7.30197121,22.3891011 7.30197121,24.4147778 L7.30197121,26.0636301 L7.30197121,28.7647508 L7.30197121,34.6635265 C7.30197121,35.5091422 7.70603286,36.3042962 8.37628677,36.8141559 L12.6573421,39.2461476 Z" id="Shape"></path>
            </g>
            <path d="M68.7158203,3.62148437 C69.7158203,4.02558594 70.1992187,5.16386719 69.7951172,6.1640625 C69.3910156,7.1640625 68.253125,7.64746094 67.2525391,7.24335937 C61.7707031,5.02910156 55.9660156,3.90625 50,3.90625 C24.5837891,3.90625 3.90625,24.5837891 3.90625,50 C3.90625,60.0804687 7.23847656,69.9234375 13.3191406,77.9117187 C15.7587891,76.8261719 18.7232422,77.2806641 20.7214844,79.2787109 C23.3105469,81.8679687 23.3105469,86.0808594 20.7214844,88.6701172 C19.4267578,89.9646484 17.7263672,90.6117187 16.0257812,90.6117187 C14.3251953,90.6117187 12.6246094,89.9646484 11.3300781,88.6701172 C9.11386719,86.4537109 8.79648437,83.0486328 10.3742187,80.4896484 C3.67480469,71.7859375 0,61.0234375 0,50 C0,36.6445312 5.20097656,24.0884766 14.6447266,14.6447266 C24.0884766,5.20078125 36.6445312,0 50,0 C56.4697266,0 62.7666016,1.21855469 68.7158203,3.62148437 Z M89.6257812,19.5103516 C96.3253906,28.2140625 100,38.9763672 100,50 C100,63.3554687 94.7994141,75.9119141 85.3554687,85.3554687 C75.9115234,94.7990234 63.3554687,100 50,100 C43.5628906,100 37.2960938,98.7935547 31.3732422,96.4142578 C30.3722656,96.0121094 29.8867188,94.8748047 30.2888672,93.8738281 C30.6910156,92.8726562 31.8285156,92.3869141 32.8292969,92.7894531 C38.2871094,94.9820312 44.0640625,96.09375 50,96.09375 C75.4162109,96.09375 96.09375,75.4162109 96.09375,50 C96.09375,39.9197266 92.7615234,30.0765625 86.6808594,22.0882812 C85.821875,22.4705078 84.8982422,22.6632812 83.9742187,22.6632812 C82.2736328,22.6632812 80.5730469,22.0160156 79.2785156,20.7214844 C76.6894531,18.1322266 76.6894531,13.9193359 79.2785156,11.3300781 C81.8677734,8.74101562 86.0806641,8.74101562 88.6699219,11.3300781 C90.8861328,13.5462891 91.2035156,16.9513672 89.6257812,19.5103516 Z M74.9335938,75.4306641 C75.6400391,76.2458984 75.5517578,77.4794922 74.7365234,78.1857422 C67.9744141,84.0451172 59.3166016,87.271875 50.3583984,87.271875 C47.1851563,87.271875 44.0433594,86.8730469 41.0001953,86.0855469 C39.9263672,87.4519531 38.2607422,88.3322266 36.3921875,88.3322266 C33.1613281,88.3322266 30.5328125,85.7037109 30.5328125,82.4728516 C30.5328125,79.2419922 33.1613281,76.6134766 36.3921875,76.6134766 C39.5882813,76.6134766 42.1933594,79.1861328 42.2490234,82.3691406 C44.8884766,83.0285156 47.6091797,83.365625 50.3583984,83.365625 C58.3771484,83.365625 66.1265625,80.4777344 72.1787109,75.2335937 C72.9941406,74.5275391 74.2275391,74.6154297 74.9335938,75.4306641 Z M79.5953125,69.9033203 C80.45,70.5605469 80.6042969,71.7941406 79.9480469,72.6494141 C79.5617187,73.1527344 78.9761719,73.4185547 78.3853516,73.4185547 C77.9722656,73.4185547 77.5566406,73.2886719 77.2044922,73.01875 C76.3486328,72.3630859 76.1921875,71.1296875 76.8472656,70.2734375 C76.8486328,70.271875 76.85,70.2701172 76.8511719,70.2685547 C77.5087891,69.4142578 78.7404297,69.2462891 79.5953125,69.9033203 Z M19.4423828,62.5275391 C19.8470703,63.5273437 19.3644531,64.6660156 18.3646484,65.0707031 C18.1246094,65.1677734 17.8763672,65.2138672 17.6324219,65.2138672 C16.8601563,65.2138672 16.1289063,64.7529297 15.8212891,63.9929687 L15.8115234,63.9689453 C15.4068359,62.9691406 15.8894531,61.8304687 16.8892578,61.4257812 C17.8892578,61.0212891 19.0277344,61.5033203 19.4326172,62.5035156 L19.4423828,62.5275391 Z M32.1013672,13.6335938 C35.3322266,13.6335938 37.9607422,16.2621094 37.9607422,19.4929688 C37.9607422,22.7238281 35.3322266,25.3523437 32.1013672,25.3523437 C30.9542969,25.3523437 29.8839844,25.0197266 28.9794922,24.4478516 C21.359375,30.8060547 17.0201172,40.0367187 17.0203125,50.0269531 C17.0203125,52.1125 17.2138672,54.1996094 17.5958984,56.2300781 C17.7953125,57.2902344 17.0976563,58.3111328 16.0375,58.5105469 C15.9154297,58.5335937 15.7939453,58.5447266 15.6742188,58.5447266 C14.7533203,58.5447266 13.9333984,57.8904297 13.7570313,56.9523437 C13.3302734,54.6841797 13.1140625,52.3542969 13.1140625,50.0271484 C13.1140625,44.0912109 14.4695313,38.4169922 17.1429688,33.1617187 C19.4308594,28.6638672 22.6675781,24.6240234 26.5570313,21.384375 C26.3539063,20.790625 26.2419922,20.1546875 26.2419922,19.4929687 C26.2419922,16.2621094 28.8705078,13.6335938 32.1013672,13.6335938 Z M86.6769531,41.7578125 C89.2796875,42.3539062 91.2277344,44.6869141 91.2277344,47.4679687 C91.2277344,50.6988281 88.5992187,53.3273437 85.3683594,53.3273437 C82.1375,53.3273437 79.5089844,50.6988281 79.5089844,47.4681641 C79.5089844,45.1677734 80.8421875,43.1736328 82.7759766,42.2154297 C80.1910156,31.4787109 72.2541016,22.5355469 61.8324219,18.7154297 C60.8195313,18.3441406 60.2994141,17.2220703 60.6707031,16.209375 C61.0419922,15.1964844 62.1644531,14.6769531 63.1767578,15.0476562 C69.0808594,17.2117187 74.3880859,20.8806641 78.5246094,25.6576172 C82.5251953,30.2775391 85.33125,35.8300781 86.6769531,41.7578125 Z M57.1673828,13.6306641 C58.0220703,14.2876953 58.1763672,15.5214844 57.5199219,16.3767578 C57.1335937,16.8800781 56.5480469,17.1458984 55.9572266,17.1458984 C55.5441406,17.1458984 55.1285156,17.0160156 54.7763672,16.7460938 C53.9205078,16.0904297 53.7640625,14.8570313 54.4191406,14.0007813 C54.4205078,13.9992188 54.421875,13.9974609 54.4230469,13.9958984 C54.859375,13.4292969 55.5478516,13.1666016 56.2117187,13.2443359 C56.5488281,13.2837891 56.8794922,13.409375 57.1673828,13.6306641 Z" id="cells" fill="#0028B4"></path>
            <path d="M14.0923828,82.0408203 C14.1009766,82.0322266 14.1103516,82.0251953 14.1189453,82.0167969 C14.1197266,82.0162109 14.1205078,82.015625 14.1212891,82.0150391 C14.1378906,82.0013672 14.1523437,81.9861328 14.1683594,81.9720703 C14.6914062,81.4867187 15.3576172,81.2412109 16.0257812,81.2412109 C16.7259766,81.2412109 17.4261719,81.5076172 17.9591797,82.0408203 C19.0253906,83.1068359 19.0253906,84.8417969 17.959375,85.9078125 C16.8931641,86.9740234 15.1585937,86.9742187 14.0923828,85.9078125 C13.0263672,84.8417969 13.0263672,83.1068359 14.0923828,82.0408203 Z" id="Shape" fill="#74CAFF"></path>
            <path d="M85.9076172,17.9591797 C85.8992187,17.9675781 85.8900391,17.9744141 85.8816406,17.9826172 C85.8806641,17.9833984 85.8796875,17.9839844 85.8787109,17.9847656 C85.8564453,18.003125 85.8365234,18.0234375 85.8152344,18.0425781 C84.7439453,19.0214844 83.0771484,18.9957031 82.0408203,17.9591797 C80.9746094,16.8931641 80.9746094,15.1583984 82.0408203,14.0921875 C82.5738281,13.5591797 83.2740234,13.2925781 83.9742187,13.2925781 C84.6744141,13.2925781 85.3746094,13.5591797 85.9076172,14.0921875 C86.9738281,15.1582031 86.9738281,16.8929688 85.9076172,17.9591797 Z" id="Shape" fill="#74CAFF"></path>
            <path d="M36.3923828,84.4259766 C35.3154297,84.4259766 34.4392578,83.5498047 34.4392578,82.4728516 C34.4392578,81.3958984 35.3154297,80.5197266 36.3923828,80.5197266 C37.4693359,80.5197266 38.3455078,81.3958984 38.3455078,82.4728516 C38.3455078,83.5498047 37.4693359,84.4259766 36.3923828,84.4259766 Z" id="Shape" fill="#74CAFF"></path>
            <path d="M32.1011719,21.4460937 C31.0242188,21.4460937 30.1480469,20.5699219 30.1480469,19.4929687 C30.1480469,18.4160156 31.0242188,17.5398437 32.1011719,17.5398437 C33.178125,17.5398437 34.0542969,18.4160156 34.0542969,19.4929687 C34.0542969,20.5699219 33.178125,21.4460937 32.1011719,21.4460937 Z" id="Shape" fill="#74CAFF"></path>
            <path d="M85.3683594,49.4210938 C84.2914063,49.4210938 83.4152344,48.5449219 83.4152344,47.4679688 C83.4152344,46.3910156 84.2914063,45.5148438 85.3683594,45.5148438 C86.4453125,45.5148438 87.3214844,46.3910156 87.3214844,47.4679688 C87.3214844,48.5449219 86.4453125,49.4210938 85.3683594,49.4210938 Z" id="Shape" fill="#74CAFF"></path>
        </g>
    </g>
</svg>