<?xml version="1.0" encoding="UTF-8"?>
<svg width="100px" height="100px" viewBox="0 0 100 100" version="1.1" xmlns="http://www.w3.org/2000/svg" xmlns:xlink="http://www.w3.org/1999/xlink">
    <!-- Generator: Sketch 51.3 (57544) - http://www.bohemiancoding.com/sketch -->
    <title>icon_share</title>
    <desc>Created with Sketch.</desc>
    <defs></defs>
    <g id="icon_share" stroke="none" stroke-width="1" fill="none" fill-rule="evenodd">
        <g id="分享" transform="translate(5.000000, 0.000000)" fill-rule="nonzero">
            <circle id="Oval-5" fill="#D9F1FF" cx="45" cy="30" r="30"></circle>
            <path d="M76.986705,68.9864362 C74.0330472,68.9864362 71.3079054,69.9776685 69.1220615,71.6426716 L55.3471141,57.8677243 C57.0121172,55.6818804 58.0037011,52.9562113 58.0037011,50.0027292 C58.0037011,48.5926094 57.775185,47.2353999 57.3580554,45.9629171 L71.5358941,39.0889786 C73.389335,41.6516981 76.4018797,43.3237325 79.7992102,43.3237325 C85.4203534,43.3237325 89.9936626,38.7504232 89.9936626,33.12928 C89.9936626,27.5081368 85.4203534,22.9348276 79.7992102,22.9348276 C74.178067,22.9348276 69.6047577,27.5081368 69.6047577,33.12928 C69.6047577,34.0999459 69.7439767,35.0379164 69.9985084,35.9278985 L55.8215486,42.8014854 C53.7961933,39.7671439 50.5303474,37.6308704 46.754735,37.1182913 L46.754735,32.4454897 C49.194759,31.6929688 50.9731412,29.4171247 50.9731412,26.7336432 C50.9731412,23.438266 48.2922964,20.757597 44.997095,20.757597 C41.7018936,20.757597 39.0210488,23.4384418 39.0210488,26.7336432 C39.0210488,29.4174763 40.799431,31.6933203 43.239455,32.4454897 L43.239455,37.1182913 C40.9653688,37.4269638 38.8765563,38.3238014 37.1321,39.6527101 L25.7699305,28.2905406 C28.5404239,24.7385223 29.5197031,20.0326738 28.3196423,15.6228414 C28.0645832,14.6859256 27.0984876,14.1330925 26.1620992,14.3885032 C25.2253592,14.6433864 24.6728777,15.6093062 24.927761,16.5460462 C25.9490519,20.2988071 24.8848703,24.334752 22.1514668,27.0917103 C22.140041,27.1026087 22.127912,27.1119251 22.116662,27.1231752 C22.1068183,27.1330189 22.0983807,27.1439174 22.0888885,27.1539369 C17.8376111,31.3732221 10.9466218,31.3640815 6.70782491,27.1251088 C2.45883268,22.8762923 2.45883268,15.9626272 6.70782491,11.7136349 C9.39499786,9.02628621 13.2112159,7.94153811 16.9165157,8.81130534 C17.8609901,9.03279013 18.8073981,8.44708592 19.0294102,7.50190839 C19.2512466,6.55690664 18.665015,5.61102598 17.7200133,5.38901385 C12.8213323,4.23905079 7.77534642,5.67378 4.22157031,9.22738033 C-1.39799087,14.8469415 -1.39799087,23.9907475 4.22157031,29.6104845 C7.03143879,32.4203529 10.7221487,33.8251993 14.4130345,33.8251993 C17.5509114,33.8251993 20.6863273,32.8058419 23.282797,30.7750374 L34.6458454,42.1380858 C32.9810181,44.3239297 31.9897858,47.0492472 31.9897858,50.0023777 C31.9897858,57.1744417 37.8245036,63.0091595 44.9965676,63.0091595 C47.9500497,63.0091595 50.6751914,62.0179272 52.8608595,60.3530999 L66.6359827,74.1280473 C64.9709796,76.3138912 63.9797473,79.0393845 63.9797473,81.9926908 C63.9797473,89.1647548 69.8144651,94.9994727 76.9865292,94.9994727 C84.1585932,94.9994727 89.9933111,89.1647548 89.9933111,81.9926908 C89.9934869,74.8209783 84.1585932,68.9864362 76.986705,68.9864362 Z M79.7988586,26.449756 C83.4816584,26.449756 86.4780311,29.4461287 86.4780311,33.1289285 C86.4780311,36.8117283 83.4816584,39.808101 79.7988586,39.808101 C76.1160588,39.808101 73.1196861,36.8117283 73.1196861,33.1289285 C73.1196861,29.4459529 76.1160588,26.449756 79.7988586,26.449756 Z M42.5358014,26.7329401 C42.5358014,25.3760821 43.6395339,24.2721738 44.9965676,24.2721738 C46.3534256,24.2721738 47.4573339,25.3759063 47.4573339,26.7329401 C47.4573339,28.089798 46.3536014,29.1937063 44.9965676,29.1937063 C43.6397097,29.1937063 42.5358014,28.0899738 42.5358014,26.7329401 Z M76.986705,91.4847201 C71.7529844,91.4847201 67.495203,87.2269387 67.495203,81.9932181 C67.495203,76.7594975 71.7529844,72.5017162 76.986705,72.5017162 C82.2204256,72.5017162 86.4782069,76.7594975 86.4782069,81.9932181 C86.4780311,87.2269387 82.2202498,91.4847201 76.986705,91.4847201 Z M24.664616,9.28784919 C25.3478789,9.97761609 25.3426055,11.0904892 24.6526628,11.7735764 C24.3100645,12.1131865 23.8628762,12.2826399 23.4158636,12.2826399 C22.9634019,12.2826399 22.5109401,12.1089677 22.1671113,11.7619749 L22.1217597,11.7160959 C21.4335748,11.0312509 21.4309381,9.91855348 22.1157831,9.23036862 C22.8008039,8.54218375 23.9135013,8.53972281 24.6015104,9.22439204 L24.664616,9.28784919 Z M29.1459914,65.8531297 C29.8324185,66.5395567 29.8324185,67.6526056 29.1459914,68.3390327 L18.5331788,78.9518453 C19.7005443,80.6098171 20.3889049,82.6281412 20.3889049,84.8055475 C20.3889049,90.4266908 15.8155957,95 10.1944525,95 C4.57330924,95 -9.5931741e-16,90.4266908 0,84.8055475 C0,79.1844043 4.57330924,74.6110951 10.1944525,74.6110951 C12.3715073,74.6110951 14.3894798,75.2992799 16.0472758,76.466118 L26.6602642,65.8531297 C27.3466912,65.1667026 28.4595644,65.1667026 29.1459914,65.8531297 Z M10.1944525,91.4847201 C13.8772522,91.4847201 16.873625,88.4883473 16.873625,84.8055475 C16.873625,81.1227478 13.8772522,78.126375 10.1944525,78.126375 C6.51165268,78.126375 3.51527994,81.1227478 3.51527994,84.8055475 C3.51527994,88.4883473 6.51165268,91.4847201 10.1944525,91.4847201 Z M33.3204523,61.6788446 C33.6472302,62.0056225 33.8354923,62.4593148 33.8354923,62.9214445 C33.8354923,63.3835743 33.647406,63.8370908 33.3204523,64.1640445 C32.9936743,64.4909982 32.5401579,64.6790845 32.0778523,64.6790845 C31.6157226,64.6790845 31.1622061,64.4909982 30.8352524,64.1640445 C30.5082986,63.8372665 30.3202124,63.3835743 30.3202124,62.9214445 C30.3202124,62.4593148 30.5082986,62.0057983 30.8352524,61.6788446 C31.1620303,61.3518909 31.6157226,61.1638046 32.0778523,61.1638046 C32.5399821,61.1638046 32.9934986,61.3518909 33.3204523,61.6788446 Z" id="network" fill="#0028B4"></path>
            <path d="M44.9965676,59.4940554 C39.762847,59.4940554 35.5050657,55.2362741 35.5050657,50.0025534 C35.5050657,44.7688328 39.762847,40.5110515 44.9965676,40.5110515 C50.2302883,40.5110515 54.4880696,44.7688328 54.4880696,50.0025534 C54.4880696,55.2360983 50.2302883,59.4940554 44.9965676,59.4940554 Z" id="Shape" fill="#74CAFF"></path>
        </g>
    </g>
</svg>