<?xml version="1.0" encoding="UTF-8"?>
<svg width="100px" height="100px" viewBox="0 0 100 100" version="1.1" xmlns="http://www.w3.org/2000/svg" xmlns:xlink="http://www.w3.org/1999/xlink">
    <!-- Generator: Sketch 51.3 (57544) - http://www.bohemiancoding.com/sketch -->
    <title>icon_template</title>
    <desc>Created with Sketch.</desc>
    <defs></defs>
    <g id="icon_template" stroke="none" stroke-width="1" fill="none" fill-rule="evenodd">
        <g id="电商模版" fill-rule="nonzero">
            <circle id="Oval-5" fill="#D9F1FF" cx="30" cy="30" r="30"></circle>
            <path d="M89.078125,88.9734375 L84.4470703,88.9734375 C83.6292969,85.8503906 82.3943359,82.8703125 80.7619141,80.0808594 L84.0228516,76.8201172 C84.3892578,76.4537109 84.5949219,75.9568359 84.5949219,75.4386719 C84.5947266,74.9205078 84.3888672,74.4236328 84.0222656,74.0574219 L82.4363281,72.4726563 L82.4363281,9.765625 C82.4363281,4.38085938 78.0554688,0 72.6707031,0 L27.3582031,0 C21.9734375,0 17.5925781,4.38085938 17.5925781,9.765625 L17.5925781,72.4708984 L16.0048828,74.0574219 C15.6382812,74.4236328 15.4322266,74.9205078 15.4322266,75.4386719 C15.4322266,75.9568359 15.6378906,76.4537109 16.0042969,76.8201172 L19.2652344,80.0808594 C17.6328125,82.8703125 16.3976562,85.8503906 15.5800781,88.9734375 L10.9570312,88.9734375 C9.87871094,88.9734375 9.00449219,89.8472656 9.00390625,90.9255859 L9,98.0458984 C9,98.0460937 9,98.0462891 9,98.0464844 C9,98.0466797 9,98.046875 9,98.0470703 C9,99.0357422 9.77363281,99.8925781 10.7580078,99.9904297 C10.8226562,99.9966797 10.8876953,100 10.953125,100 L33.6316406,100 L66.3955078,100 L85.3828125,100 L89.078125,100 C90.1566406,100 91.03125,99.1255859 91.03125,98.046875 L91.03125,90.9265625 C91.03125,89.8478516 90.1566406,88.9734375 89.078125,88.9734375 Z M21.4986328,9.765625 C21.4988281,6.53476563 24.1273437,3.90625 27.3582031,3.90625 L72.6707031,3.90625 C75.9015625,3.90625 78.5300781,6.53476563 78.5300781,9.765625 L78.5300781,10.546875 L33.7033203,10.546875 C32.6248047,10.546875 31.7501953,11.4212891 31.7501953,12.5 C31.7501953,13.5787109 32.6248047,14.453125 33.7033203,14.453125 L78.5300781,14.453125 L78.5300781,68.5693359 L73.9777344,64.0205078 C73.2150391,63.2582031 71.9789062,63.2585937 71.2160156,64.0210938 L67.9587891,67.2783203 C65.1693359,65.6458984 62.1892578,64.4109375 59.0664062,63.5933594 L59.0664062,58.9863281 C59.0664062,57.9076172 58.1917969,57.0332031 57.1132812,57.0332031 L42.9136719,57.0332031 C41.8351563,57.0332031 40.9605469,57.9076172 40.9605469,58.9863281 L40.9605469,63.5929688 C37.8376953,64.4107422 34.8576172,65.6455078 32.0681641,67.2779297 L28.8109375,64.0207031 C28.0484375,63.2580078 26.8123047,63.2578125 26.0492188,64.0201172 L21.4986328,68.5673828 L21.4986328,9.765625 Z M48.0863281,96.09375 L35.7207031,96.09375 C36.5916016,89.6894531 41.6783203,84.6105469 48.0863281,83.7507812 L48.0863281,96.09375 Z M51.9923828,96.09375 L51.9923828,83.7572266 C58.3761719,84.6371094 63.4378906,89.7064453 64.3066406,96.09375 L51.9923828,96.09375 Z M28.1511719,11.1191406 C28.5146484,11.4824219 28.7236328,11.9863281 28.7236328,12.5 C28.7236328,13.0136719 28.5144531,13.5175781 28.1511719,13.8808594 C27.7878906,14.2441406 27.2839844,14.453125 26.7705078,14.453125 C26.2566406,14.453125 25.7527344,14.2441406 25.3896484,13.8808594 C25.0261719,13.5175781 24.8173828,13.0136719 24.8173828,12.5 C24.8173828,11.9863281 25.0263672,11.4824219 25.3896484,11.1191406 C25.7527344,10.7558594 26.2566406,10.546875 26.7705078,10.546875 C27.2841797,10.546875 27.7880859,10.7558594 28.1511719,11.1191406 Z M60.2333984,24.8615234 C60.9960938,25.6242188 60.9960938,26.8609375 60.2333984,27.6236328 L31.9240234,55.9330078 C31.5425781,56.3144531 31.0427734,56.5050781 30.5429688,56.5050781 C30.0431641,56.5050781 29.5433594,56.3144531 29.1619141,55.9330078 C28.3990234,55.1703125 28.3990234,53.9335938 29.1619141,53.1707031 L57.4710938,24.8615234 C58.2339844,24.0988281 59.4707031,24.0988281 60.2333984,24.8615234 Z M65.5064453,19.5878906 C65.8699219,19.9511719 66.0789062,20.4550781 66.0789062,20.96875 C66.0789062,21.4824219 65.8697266,21.9863281 65.5064453,22.3496094 C65.1433594,22.7128906 64.6414062,22.921875 64.1257812,22.921875 C63.6121094,22.921875 63.1082031,22.7128906 62.7449219,22.3496094 C62.3814453,21.9863281 62.1726562,21.484375 62.1726562,20.96875 C62.1726562,20.4550781 62.3816406,19.9511719 62.7449219,19.5878906 C63.1082031,19.2246094 63.6121094,19.015625 64.1257812,19.015625 C64.6394531,19.015625 65.1433594,19.2246094 65.5064453,19.5878906 Z M69.2392578,34.8660156 C70.0019531,35.6289063 70.0019531,36.865625 69.2392578,37.6283203 L53.4410156,53.4265625 C53.0595703,53.8080078 52.5597656,53.9986328 52.0599609,53.9986328 C51.5601562,53.9986328 51.0603516,53.8080078 50.6789062,53.4265625 C49.9160156,52.6638672 49.9160156,51.4271484 50.6787109,50.6642578 L66.4769531,34.8660156 C67.2400391,34.1033203 68.4763672,34.1033203 69.2392578,34.8660156 Z" id="setup" fill="#0028B4"></path>
            <path d="M87.125,96.09375 L85.3828125,96.09375 L68.2453125,96.09375 C67.2691406,86.9142578 59.4904297,79.7375 50.0619141,79.7130859 C50.0542969,79.7130859 50.046875,79.7119141 50.0392578,79.7119141 C50.0365234,79.7119141 50.0337891,79.7123047 50.0310547,79.7123047 C50.0251953,79.7123047 50.0195313,79.7119141 50.0136719,79.7119141 C40.5632813,79.7119141 32.7597656,86.8986328 31.7818359,96.09375 L12.9072266,96.09375 L12.9091797,92.8796875 L17.1222656,92.8796875 C18.0427734,92.8796875 18.8384766,92.2369141 19.0318359,91.3369141 C19.8351563,87.596875 21.2974609,84.06875 23.3771484,80.8505859 C23.8769531,80.0775391 23.7689453,79.0603516 23.1179688,78.409375 L20.1480469,75.4396484 L27.4292969,68.1638672 L30.3962891,71.1308594 C31.0474609,71.7818359 32.0642578,71.8898437 32.8375,71.3902344 C36.0560547,69.3103516 39.5841797,67.8484375 43.3238281,67.0449219 C44.2238281,66.8515625 44.8666016,66.0560547 44.8666016,65.1353516 L44.8666016,60.9394531 L55.1599609,60.9394531 L55.1599609,65.1351562 C55.1599609,66.0556641 55.8027344,66.8513672 56.7027344,67.0447266 C60.4423828,67.8482422 63.9707031,69.3101562 67.1890625,71.3900391 C67.9625,71.8898437 68.9792969,71.7818359 69.6302734,71.1306641 L72.5972656,68.1636719 L79.8785156,75.4394531 L76.9085937,78.4091797 C76.2576172,79.0601563 76.1496094,80.0773437 76.6494141,80.8503906 C78.7291016,84.06875 80.1914062,87.596875 80.9947266,91.3367188 C81.1880859,92.2367188 81.9837891,92.8794922 82.9042969,92.8794922 L87.125,92.8794922 L87.125,96.09375 Z" id="Shape" fill="#74CAFF"></path>
        </g>
    </g>
</svg>