<?xml version="1.0" encoding="UTF-8"?>
<svg width="100px" height="100px" viewBox="0 0 100 100" version="1.1" xmlns="http://www.w3.org/2000/svg" xmlns:xlink="http://www.w3.org/1999/xlink">
    <!-- Generator: Sketch 51.3 (57544) - http://www.bohemiancoding.com/sketch -->
    <title>icon_github_taro</title>
    <desc>Created with Sketch.</desc>
    <defs></defs>
    <g id="icon_github_taro" stroke="none" stroke-width="1" fill="none" fill-rule="evenodd">
        <g id="githubStar" fill-rule="nonzero">
            <circle id="Oval-5" fill="#D9F1FF" cx="70" cy="30" r="30"></circle>
            <path d="M24.5843502,97.850185 C24.478416,96.3126195 24.4252966,95.0762123 24.4252966,94.1359039 C24.4252966,93.1763274 24.4804041,92.1083064 24.5901455,90.9304494 C20.2943751,91.0942665 17.4665794,90.6415789 15.9506216,89.4095701 C14.9369004,88.5857257 14.1487334,87.4330006 13.1250825,85.5394804 C12.9823392,85.2754378 12.3836486,84.1434397 12.2319261,83.864778 C11.9254588,83.3019039 11.6895378,82.9057883 11.4795392,82.6086303 C11.3995791,82.4954829 11.2247171,82.3213253 10.9584318,82.1001788 C10.7721507,81.9454748 10.568907,81.7886754 10.2359241,81.5397809 C9.30534831,80.8442042 9.10710637,80.6893217 8.75769934,80.3491817 C7.99605375,79.6077366 7.59691322,78.8464362 7.93602979,77.8618693 C8.71962811,75.5868258 11.2679278,75.9809773 14.5835741,77.6833555 C15.7554814,78.285057 16.4214446,79.0580841 17.3673304,80.5774966 C17.4122735,80.6496905 17.4710596,80.7445727 17.5722574,80.9078822 C17.6514669,81.0354829 17.7122822,81.1326238 17.7715718,81.2259287 C18.5851789,82.5063135 19.2207616,83.135724 20.2991444,83.559249 C21.5620581,84.0552467 23.1068754,84.0077094 24.9681114,83.3625545 C25.1840078,82.4024958 25.4464887,81.6294873 25.7706603,81.0297177 C25.7816773,81.0093345 25.7928387,80.9889309 25.8041444,80.9685065 C22.2506982,80.3956038 19.3472959,79.2097483 17.1110003,77.3907138 C13.5516825,74.4955144 11.8372461,69.7178625 11.215482,64.6020268 C10.7113662,60.4541945 11.9101059,56.3816015 14.7549111,52.4367793 C13.8632276,46.5349041 14.1320424,43.3150048 16.2750114,42.3391658 C18.1256204,41.4964581 21.3288377,42.594337 26.551859,45.4792041 C30.0699713,44.9297577 32.845683,44.6535938 34.8976911,44.6535938 C36.9541183,44.6535938 39.8774251,44.9312963 43.6902818,45.4842481 C48.9748231,42.5863313 52.0540362,41.5014277 53.7764296,42.3626637 C55.7020816,43.3255336 56.0049291,46.4729127 55.3836913,52.4815039 C58.2228777,57.2498509 59.3766524,61.7153299 58.783365,65.8602289 C57.9499383,71.6828195 55.2397134,76.0941099 50.6274589,78.5883812 C49.1247439,79.4010378 47.0691731,80.1120459 44.4463884,80.7359224 C45.3089416,82.2614229 45.8517583,84.244466 46.1036048,86.6703406 C46.4461623,89.9699755 46.357779,93.6483615 45.8423801,97.7076272 C59.2184739,93.1423212 68.5,80.4919997 68.5,66 C68.5,47.4984609 53.5015391,32.5 35,32.5 C16.4984609,32.5 1.5,47.4984609 1.5,66 C1.5,80.6521612 10.9868302,93.4134194 24.5843502,97.850185 Z M52.3478785,45.0065152 C52.3633006,45.0096221 52.3911968,45.0241483 52.4347399,45.0459208 C52.4264827,45.041792 52.4172387,45.0381666 52.4070153,45.0350456 Z M17.5456768,45.0583956 C17.5360731,45.0618009 17.5269404,45.0654754 17.5182806,45.0694188 C17.5336564,45.0624172 17.5460126,45.0567343 17.5555521,45.0530987 Z" id="Combined-Shape" stroke="#0028B4" stroke-width="3"></path>
        </g>
        <g id="Group" transform="translate(53.000000, 7.000000)" fill="#74CAFF" fill-rule="nonzero" stroke="#0028B4" stroke-width="3">
            <path d="M38.9271785,12.5 L42.0200756,1.5 L30.935109,1.5 C29.8125467,1.5 28.8276241,2.24824276 28.5266442,3.32970343 L27.087706,8.5 L19.57117,8.5 L21.0081772,3.5 L6.85459621,3.5 C5.72574949,3.5 4.73694547,4.25648337 4.44164922,5.34602228 L1.96065915,14.5 L17.8076915,14.5 L13.9669328,28.5 L26.3221459,28.5 L30.8752996,12.5 L38.9271785,12.5 Z" id="Combined-Shape"></path>
        </g>
    </g>
</svg>