<?xml version="1.0" encoding="UTF-8"?>
<svg width="100px" height="100px" viewBox="0 0 100 100" version="1.1" xmlns="http://www.w3.org/2000/svg" xmlns:xlink="http://www.w3.org/1999/xlink">
    <!-- Generator: Sketch 51.3 (57544) - http://www.bohemiancoding.com/sketch -->
    <title>icon_doctor</title>
    <desc>Created with Sketch.</desc>
    <defs></defs>
    <g id="icon_doctor" stroke="none" stroke-width="1" fill="none" fill-rule="evenodd">
        <g id="TaroDoctor" fill-rule="nonzero">
            <circle id="Oval-5" fill="#D9F1FF" cx="30" cy="30" r="30"></circle>
            <path d="M99.4847869,96.9991158 C99.8119147,97.3260678 100,97.7795819 100,98.241885 C100,98.7041881 99.8117389,99.1577021 99.4847869,99.4844784 C99.1580107,99.8116062 98.7044966,99.9996914 98.2421935,99.9996914 C97.7798904,99.9996914 97.3263764,99.8114304 96.9994243,99.4844784 C96.6722966,99.1577021 96.4843871,98.7041881 96.4843871,98.241885 C96.4843871,97.7795819 96.6724723,97.3262436 96.9994243,96.9991158 C97.3263764,96.671988 97.7798904,96.4840785 98.2421935,96.4840785 C98.7044966,96.4840785 99.1580107,96.6721638 99.4847869,96.9991158 Z M68.7110448,10 C85.9639153,10 100,24.0362605 99.9998242,41.2889552 L99.9998242,91.3864397 C99.9998242,92.3571005 99.2126785,93.1442462 98.2420177,93.1442462 C97.271357,93.1442462 96.4842113,92.3571005 96.4842113,91.3864397 L96.4842113,41.2889552 C96.4842113,38.8605456 96.1699155,36.5043818 95.5815776,34.2577293 L53.5937333,34.2577293 L53.5937333,43.9551961 L85.4100305,43.9551961 C86.3806912,43.9551961 87.167837,44.742166 87.167837,45.7130026 C87.167837,46.6838391 86.3806912,47.470809 85.4100305,47.470809 L52.2173708,47.470809 L40.0936038,52.9926065 L37.4646285,65.8982459 L44.8024158,65.8982459 C45.7730765,65.8982459 46.5602223,66.6853916 46.5602223,67.6560523 L46.5602223,70.2036413 C46.5602223,73.7109925 47.6301991,77.0703365 49.6543132,79.9181587 C49.8278087,80.1621423 50.0095659,80.4038407 50.1943114,80.6362227 C50.5924545,81.1377249 51.023996,81.621649 51.4773343,82.0748115 L51.5515138,82.1486394 C54.7108193,85.2708552 58.90143,86.9920993 63.3483288,86.9920993 L64.4921335,86.9920993 C65.4627942,86.9920993 66.2499399,87.7792451 66.2499399,88.7499058 L66.2499399,98.2420608 C66.2499399,99.2127215 65.4627942,99.9998672 64.4921335,99.9998672 C63.5214727,99.9998672 62.734327,99.2127215 62.734327,98.2420608 L62.734327,90.4985717 C57.585536,90.3463456 52.7563143,88.2818019 49.0770496,84.6461308 L48.9914444,84.5608772 C48.4438877,84.0131447 47.9223465,83.4284983 47.4415864,82.8229339 C47.2185208,82.5422122 46.9989708,82.2502406 46.7892645,81.9552807 C44.3394096,78.5085737 43.0447851,74.4450525 43.0447851,70.2036413 L43.0447851,69.4138588 L35.3128976,69.4138588 C34.785204,69.4138588 34.2852839,69.1767307 33.9514764,68.7680407 C33.617669,68.3593507 33.4849546,67.822165 33.590423,67.3051942 L36.1390666,54.7938308 L33.5563215,55.9701549 C33.1928072,56.1355645 32.8060897,56.217654 32.4213059,56.217654 C31.9057413,56.217654 31.3929891,56.0707014 30.9429907,55.7811907 C30.8078153,55.6941793 30.6826595,55.5960937 30.5669959,55.4895706 L12.4867258,63.7241908 C12.2504766,63.8317686 12.0028017,63.882745 11.7591697,63.882745 C11.0915548,63.882745 10.4532953,63.500422 10.1585111,62.8530219 C9.75614923,61.9697242 10.1462065,60.9271692 11.02968,60.5248073 L29.6879168,52.0270434 L29.6879168,26.1862336 L11.02968,17.688294 C10.1462065,17.2859321 9.75614923,16.2435528 10.1585111,15.3599035 C10.560873,14.4762542 11.6036038,14.0863727 12.4867258,14.4887346 L30.5671716,22.7237064 C30.6828353,22.6171833 30.8079911,22.5190977 30.9431664,22.4320863 C31.7292575,21.9265411 32.7064221,21.8557015 33.5566731,22.2432979 L41.4893022,25.8561175 C42.0368589,24.892488 42.6357435,23.9546983 43.2810343,23.0561076 C43.8473995,22.2677314 44.945677,22.0872047 45.7340532,22.6537457 C46.5226052,23.2201109 46.7027804,24.3183884 46.1364151,25.1069404 C45.6245419,25.8195551 45.1453638,26.5599432 44.7022208,27.3194914 L52.2175466,30.7422922 L94.4020895,30.7422922 C90.24101,20.6435182 80.2934074,13.5157887 68.7110448,13.5157887 C64.3430715,13.5157887 60.1633592,14.5001604 56.2879233,16.4418334 C55.4199185,16.8765389 54.3640041,16.5256808 53.928947,15.6576759 C53.4940657,14.7896711 53.8450996,13.7335809 54.7131045,13.2986996 C59.0819567,11.1097032 63.7914718,10 68.7110448,10 Z M50.8814379,17.684251 C51.5107326,18.4234086 51.4214361,19.5329361 50.6821027,20.162055 L50.6198763,20.2154923 C50.2876509,20.5027179 49.8784336,20.6433424 49.4713256,20.6433424 C48.9784366,20.6433424 48.4883602,20.4371517 48.1404903,20.0349656 C47.5055706,19.3003783 47.5862539,18.1903235 48.3208412,17.5555796 L48.4034581,17.4849157 C49.1429673,16.855621 50.2524948,16.9449176 50.8814379,17.684251 Z M92.980903,44.4705849 C93.3080308,44.797537 93.496116,45.251051 93.496116,45.7133541 C93.496116,46.1756572 93.307855,46.6291713 92.980903,46.9561233 C92.6541267,47.2830753 92.2006127,47.4711606 91.7383096,47.4711606 C91.2760065,47.4711606 90.8226682,47.2830753 90.4955404,46.9561233 C90.1684126,46.6291713 89.9805031,46.1756572 89.9805031,45.7133541 C89.9805031,45.251051 90.1685884,44.797537 90.4955404,44.4705849 C90.8224924,44.1436329 91.2760065,43.9555477 91.7383096,43.9555477 C92.2006127,43.9555477 92.6541267,44.1436329 92.980903,44.4705849 Z M69.6020769,37.8629904 C69.9292047,38.1899424 70.1172899,38.6434565 70.1172899,39.1057596 C70.1172899,39.5698205 69.9290289,40.0215768 69.6020769,40.3502866 C69.2753006,40.6772386 68.8217866,40.8635661 68.3594835,40.8635661 C67.8971804,40.8635661 67.4436663,40.6772386 67.1167143,40.3502866 C66.7895865,40.0215768 66.601677,39.5698205 66.601677,39.1057596 C66.601677,38.6434565 66.7897623,38.1899424 67.1167143,37.8629904 C67.4436663,37.5360384 67.8971804,37.3479531 68.3594835,37.3479531 C68.8217866,37.3479531 69.2753006,37.5360384 69.6020769,37.8629904 Z M78.7426705,37.8629904 C79.0697983,38.1917002 79.2578836,38.6434565 79.2578836,39.1057596 C79.2578836,39.5698205 79.0696225,40.0215768 78.7426705,40.3502866 C78.4158943,40.6772386 77.9623802,40.8635661 77.5000771,40.8635661 C77.037774,40.8635661 76.58426,40.6772386 76.257308,40.3502866 C75.9301802,40.0215768 75.7422707,39.5698205 75.7422707,39.1057596 C75.7422707,38.6434565 75.930356,38.1899424 76.257308,37.8629904 C76.58426,37.5360384 77.037774,37.3479531 77.5000771,37.3479531 C77.9623802,37.3479531 78.4158943,37.5360384 78.7426705,37.8629904 Z M87.8832642,37.8629904 C88.210392,38.1899424 88.3984773,38.6434565 88.3984773,39.1057596 C88.3984773,39.5698205 88.2102162,40.0215768 87.8832642,40.3502866 C87.556488,40.6772386 87.1029739,40.8635661 86.6406708,40.8635661 C86.1783677,40.8635661 85.7248536,40.6772386 85.3979016,40.3502866 C85.0707738,40.0215768 84.8828643,39.5698205 84.8828643,39.1057596 C84.8828643,38.6434565 85.0709496,38.1899424 85.3979016,37.8629904 C85.7248536,37.5360384 86.1783677,37.3479531 86.6406708,37.3479531 C87.1029739,37.3479531 87.556488,37.5360384 87.8832642,37.8629904 Z M20.3128318,37.3486562 C21.2834925,37.3486562 22.0706383,38.1356262 22.0706383,39.1064627 C22.0706383,40.0772992 21.2834925,40.8642692 20.3128318,40.8642692 L11.758115,40.8642692 C10.7874543,40.8642692 10.0003086,40.0772992 10.0003086,39.1064627 C10.0003086,38.1356262 10.7874543,37.3486562 11.758115,37.3486562 L20.3128318,37.3486562 Z" id="ar-glasses" fill="#0028B4"></path>
            <polygon id="Shape" fill="#74CAFF" points="50.0782962 44.5820299 33.203354 52.2678629 33.203354 25.9452383 50.0782962 33.6308955"></polygon>
        </g>
    </g>
</svg>