<?xml version="1.0" encoding="UTF-8"?>
<svg width="24px" height="24px" viewBox="0 0 24 24" version="1.1" xmlns="http://www.w3.org/2000/svg" xmlns:xlink="http://www.w3.org/1999/xlink">
    <!-- Generator: Sketch 51.3 (57544) - http://www.bohemiancoding.com/sketch -->
    <title>icon_bbs</title>
    <desc>Created with Sketch.</desc>
    <defs>
        <linearGradient x1="100%" y1="54.0861621%" x2="0%" y2="54.0861621%" id="linearGradient-1">
            <stop stop-color="#0028B4" offset="0%"></stop>
            <stop stop-color="#157EFF" offset="100%"></stop>
        </linearGradient>
    </defs>
    <g id="icon_bbs" stroke="none" stroke-width="1" fill="none" fill-rule="evenodd">
        <path d="M13.3008875,20.9066736 C14.9607062,19.4961059 15.8549961,16.860548 15.983757,13 L13,13 L13,20.9450712 C13.100807,20.9339276 13.2011122,20.921119 13.3008875,20.9066736 Z M16.1493384,19.9885177 C18.7512065,18.6343143 20.6083232,16.0462693 20.9450712,13 L17.9837451,13 C17.8789532,16.1396133 17.2674843,18.4691192 16.1493384,19.9885177 Z M13.3008875,3.09332637 C13.2011122,3.07888099 13.100807,3.06607242 13,3.05492878 L13,11 L15.983757,11 C15.8549961,7.13945199 14.9607062,4.50389412 13.3008875,3.09332637 Z M16.1493384,4.01148231 C17.2674843,5.53088079 17.8789532,7.86038669 17.9837451,11 L20.9450712,11 C20.6083232,7.95373074 18.7512065,5.36568574 16.1493384,4.01148231 Z M10.6991125,20.9066736 C10.7988878,20.921119 10.899193,20.9339276 11,20.9450712 L11,13 L8.01624305,13 C8.14500393,16.860548 9.03929376,19.4961059 10.6991125,20.9066736 Z M7.85066161,19.9885177 C6.73251567,18.4691192 6.12104677,16.1396133 6.01625493,13 L3.05492878,13 C3.39167676,16.0462693 5.24879347,18.6343143 7.85066161,19.9885177 Z M10.6991125,3.09332637 C9.03929376,4.50389412 8.14500393,7.13945199 8.01624305,11 L11,11 L11,3.05492878 C10.899193,3.06607242 10.7988878,3.07888099 10.6991125,3.09332637 Z M7.85066161,4.01148231 C5.24879347,5.36568574 3.39167676,7.95373074 3.05492878,11 L6.01625493,11 C6.12104677,7.86038669 6.73251567,5.53088079 7.85066161,4.01148231 Z M12,23 C5.92486775,23 1,18.0751322 1,12 C1,5.92486775 5.92486775,1 12,1 C18.0751322,1 23,5.92486775 23,12 C23,18.0751322 18.0751322,23 12,23 Z" id="Combined-Shape" fill="url(#linearGradient-1)" fill-rule="nonzero"></path>
    </g>
</svg>