<?xml version="1.0" encoding="UTF-8"?>
<svg width="100px" height="100px" viewBox="0 0 100 100" version="1.1" xmlns="http://www.w3.org/2000/svg" xmlns:xlink="http://www.w3.org/1999/xlink">
    <!-- Generator: Sketch 51.3 (57544) - http://www.bohemiancoding.com/sketch -->
    <title>icon_sdk</title>
    <desc>Created with Sketch.</desc>
    <defs></defs>
    <g id="icon_sdk" stroke="none" stroke-width="1" fill="none" fill-rule="evenodd">
        <g id="SDK" fill-rule="nonzero">
            <circle id="Oval-5" fill="#D9F1FF" cx="50" cy="50" r="30"></circle>
            <g>
                <path d="M39.7284195,67.0934261 C40.091189,67.4586619 40.2997668,67.960617 40.2997668,68.4742909 C40.2997668,68.9897226 40.090994,69.491873 39.7284195,69.8551557 C39.3640906,70.2203915 38.863114,70.4274235 38.3504414,70.4274235 C37.8356246,70.4274235 37.3348429,70.2203915 36.9703191,69.8551557 C36.6077446,69.491873 36.4011161,68.9899179 36.4011161,68.4742909 C36.4011161,67.960617 36.6077446,67.4586619 36.9703191,67.0934261 C37.3328936,66.7301435 37.8356246,66.5211583 38.3504414,66.5211583 C38.863114,66.5211583 39.3660399,66.7303388 39.7284195,67.0934261 Z M93.3779468,66.5701819 C97.032542,66.5701819 100.005458,69.5492951 100.005653,73.2110282 C100.005653,76.8727612 97.032542,79.8516791 93.3779468,79.8516791 C90.4015219,79.8516791 87.8775355,77.8756948 87.0432242,75.1641608 L83.3059777,75.1641608 C82.7890166,75.1641608 82.2933031,74.9583006 81.9276097,74.5920883 L72.2772796,64.9227145 L52.0522493,76.1504928 L52.0522493,87.012254 C54.7583028,87.8481947 56.7306302,90.3771108 56.7306302,93.3593491 C56.7306302,97.0210821 53.7575192,100 50.102924,100 C46.4483288,100 43.4752178,97.0210821 43.4752178,93.3593491 C43.4752178,90.3771108 45.4475452,87.8481947 48.1535986,87.012254 L48.1535986,76.1504928 L43.8198585,73.744624 C42.8781394,73.2217704 42.5377872,72.0330939 43.0596216,71.0895355 C43.5812611,70.1459771 44.7676205,69.8051555 45.7095345,70.3278138 L48.1537936,71.684655 L48.1537936,51.1505904 L29.5355922,40.8148079 L29.5355922,61.3492631 L32.2283902,62.8441908 C33.1701093,63.3670444 33.5104615,64.5557209 32.9886271,65.4992793 C32.4665978,66.4428377 31.2806282,66.7836593 30.3387142,66.261001 L27.9283734,64.9229099 L18.2780433,74.5920883 C17.9123499,74.9583006 17.4166365,75.1641608 16.8996754,75.1641608 L13.1624288,75.1641608 C12.3281176,77.8756948 9.80413108,79.8516791 6.8277062,79.8516791 C3.17311103,79.8516791 0.2,76.8727612 0.2,73.2110282 C0.2,69.5492951 3.17311103,66.5703772 6.8277062,66.5703772 C9.80413108,66.5703772 12.3281176,68.5463615 13.1624288,71.2578955 L16.0920699,71.2578955 L25.6367465,61.6945769 L25.6367465,38.3052278 L16.0920699,28.7419091 L13.1624288,28.7419091 C12.3281176,31.4534432 9.80413108,33.4294275 6.8277062,33.4294275 C3.17311103,33.4294275 0.2,30.4505096 0.2,26.7887765 C0.2,23.1270435 3.17311103,20.1481256 6.8277062,20.1481256 C9.80413108,20.1481256 12.3281176,22.1241099 13.1624288,24.8356439 L16.8996754,24.8356439 C17.4166365,24.8356439 17.9123499,25.0415041 18.2780433,25.4077164 L27.9285684,35.0770901 L48.1535986,23.8493119 L48.1535986,12.987746 C45.4475452,12.1518053 43.4752178,9.62288915 43.4752178,6.64065094 C43.4752178,2.97891789 46.4483288,7.10542736e-15 50.102924,7.10542736e-15 C53.7575192,7.10542736e-15 56.7306302,2.97891789 56.7306302,6.64065094 C56.7306302,9.62288915 54.7583028,12.1518053 52.0522493,12.987746 L52.0522493,23.8493119 L72.2772796,35.0770901 L81.9276097,25.4077164 C82.2933031,25.0415041 82.7890166,24.8356439 83.3059777,24.8356439 L87.0432242,24.8356439 C87.8775355,22.1241099 90.4015219,20.1481256 93.3779468,20.1481256 C97.032542,20.1481256 100.005653,23.1270435 100.005653,26.7887765 C100.005653,30.4505096 97.032542,33.4294275 93.3779468,33.4294275 C90.4015219,33.4294275 87.8775355,31.4534432 87.0432242,28.7419091 L84.1135831,28.7419091 L74.5689065,38.3052278 L74.5689065,61.6943816 L84.1135831,71.2577002 L87.0432242,71.2577002 C87.8775355,68.5461662 90.4015219,66.5701819 93.3779468,66.5701819 Z M66.0831034,40.5116817 C66.4476272,40.8769175 66.6544506,41.3808257 66.6544506,41.8925465 C66.6544506,42.4062203 66.4476272,42.9101286 66.0831034,43.2732159 C65.7207238,43.6384517 65.2177978,43.8456791 64.7051253,43.8456791 C64.1922578,43.8456791 63.6895268,43.6384517 63.3269522,43.2732159 C62.9641828,42.9101286 62.7557999,42.4081735 62.7557999,41.8925465 C62.7557999,41.3786773 62.9643777,40.8769175 63.3269522,40.5116817 C63.6895268,40.1482037 64.1922578,39.9394138 64.7051253,39.9394138 C65.2197472,39.9394138 65.7207238,40.1482037 66.0831034,40.5116817 Z M70.6702558,61.3492631 L70.6702558,38.6507369 L50.102729,27.2329189 L31.6081149,37.4999512 L50.102729,47.7667882 L56.7245873,44.0909925 C57.6668911,43.5683343 58.8526658,43.9093512 59.3745002,44.8527143 C59.8963346,45.7962726 59.5559823,46.9849492 58.6142633,47.5078028 L52.0522493,51.1505904 L52.0520544,51.1505904 L52.0520544,71.6848503 L70.6702558,61.3492631 Z" id="cube" fill="#0028B4"></path>
                <path d="M93.3779468,24.0545862 C94.882826,24.0545862 96.1070023,25.2811534 96.1070023,26.7889718 C96.1070023,28.2967902 94.882826,29.5233575 93.3779468,29.5233575 C91.8730676,29.5233575 90.6488913,28.2967902 90.6488913,26.7889718 C90.6488913,25.2811534 91.8730676,24.0545862 93.3779468,24.0545862 Z" id="Shape" fill="#74CAFF"></path>
                <path d="M6.82790113,29.5233575 C5.32302196,29.5233575 4.09884564,28.2967902 4.09884564,26.7889718 C4.09884564,25.2811534 5.32302196,24.0545862 6.82790113,24.0545862 C8.33278031,24.0545862 9.55695663,25.2811534 9.55695663,26.7889718 C9.55695663,28.2967902 8.33278031,29.5233575 6.82790113,29.5233575 Z" id="Shape" fill="#74CAFF"></path>
                <path d="M6.82790113,75.9452185 C5.32302196,75.9452185 4.09884564,74.7186512 4.09884564,73.2108329 C4.09884564,71.7030145 5.32302196,70.4764472 6.82790113,70.4764472 C8.33278031,70.4764472 9.55695663,71.7030145 9.55695663,73.2108329 C9.55695663,74.7186512 8.33278031,75.9452185 6.82790113,75.9452185 Z" id="Shape" fill="#74CAFF"></path>
                <path d="M47.3738685,6.64065094 C47.3738685,5.13283255 48.5980448,3.90626526 50.102924,3.90626526 C51.6078032,3.90626526 52.8319795,5.13283255 52.8319795,6.64065094 C52.8319795,8.14846933 51.6078032,9.37503662 50.102924,9.37503662 C48.5980448,9.37503662 47.3738685,8.14846933 47.3738685,6.64065094 Z" id="Shape" fill="#74CAFF"></path>
                <path d="M52.8319795,93.3591537 C52.8319795,94.8669721 51.6078032,96.0935394 50.102924,96.0935394 C48.5980448,96.0935394 47.3738685,94.8669721 47.3738685,93.3591537 C47.3738685,91.8513354 48.5980448,90.6247681 50.102924,90.6247681 C51.6078032,90.6247681 52.8319795,91.8513354 52.8319795,93.3591537 Z" id="Shape" fill="#74CAFF"></path>
                <path d="M93.3779468,75.9452185 C91.8730676,75.9452185 90.6488913,74.7186512 90.6488913,73.2108329 C90.6488913,71.7030145 91.8730676,70.4764472 93.3779468,70.4764472 C94.882826,70.4764472 96.1070023,71.7030145 96.1070023,73.2108329 C96.1070023,74.7186512 94.882826,75.9452185 93.3779468,75.9452185 Z" id="Shape" fill="#74CAFF"></path>
            </g>
        </g>
    </g>
</svg>