<?xml version="1.0" encoding="UTF-8"?>
<svg width="100px" height="100px" viewBox="0 0 100 100" version="1.1" xmlns="http://www.w3.org/2000/svg" xmlns:xlink="http://www.w3.org/1999/xlink">
    <!-- Generator: Sketch 51.3 (57544) - http://www.bohemiancoding.com/sketch -->
    <title>icon_hire</title>
    <desc>Created with Sketch.</desc>
    <defs></defs>
    <g id="icon_hire" stroke="none" stroke-width="1" fill="none" fill-rule="evenodd">
        <g id="招聘" transform="translate(11.000000, 5.000000)" fill-rule="nonzero">
            <circle id="Oval-5" fill="#D9F1FF" cx="39" cy="65" r="30"></circle>
            <path d="M39.1984305,25.575293 C46.8091059,25.575293 53.0008688,31.7392383 53.0008688,39.3161133 C53.0008688,46.8929883 46.8091059,53.0569336 39.1984305,53.0569336 C31.587755,53.0569336 25.3959922,46.8929883 25.3959922,39.3161133 C25.3959922,31.7392383 31.5879316,25.575293 39.1984305,25.575293 Z" id="Shape" fill="#74CAFF"></path>
            <path d="M76.6311659,30.4693945 C77.6063593,30.4693945 78.396861,31.2563672 78.3970376,32.2268555 L78.3970376,39.3157617 C78.3970376,39.3162891 78.3970376,39.3168164 78.3970376,39.3173437 L78.3970376,39.3277148 C78.3940359,40.2967969 77.6040639,41.0804297 76.6313425,41.0804297 C76.6295768,41.0804297 76.6278111,41.0804297 76.6260454,41.0804297 C75.650852,41.0776172 74.8626457,40.2881836 74.8654709,39.3175195 L74.8654709,39.2347266 L74.8654709,33.9848437 L70.7157343,33.9848437 C69.8833857,33.9848437 69.164218,33.4063477 68.9894142,32.5963477 C68.2167461,29.0163867 66.8108997,25.6389258 64.8107203,22.557832 C64.3590555,21.8619141 64.4566984,20.9466211 65.0452046,20.3607422 L67.9658408,17.4533203 L60.8391424,10.3635352 L57.9211547,13.2684961 C57.3326485,13.8541992 56.4132511,13.951582 55.7142124,13.5017578 C52.6196553,11.5108594 49.2270488,10.1112891 45.6306811,9.34207031 C44.8170488,9.16804687 44.2359585,8.45191406 44.2359585,7.62345703 L44.2359585,3.515625 L34.1607259,3.515625 L34.1607259,7.62345703 C34.1607259,8.45191406 33.5796357,9.16804687 32.7660034,9.34207031 C29.1698122,10.1112891 25.7772057,11.5108594 22.682472,13.5017578 C21.9836099,13.951582 21.0640359,13.8540234 20.4755297,13.2684961 L17.557542,10.3635352 L10.4308436,17.4533203 L13.3513033,20.360918 C13.9398094,20.9467969 14.0374524,21.8620898 13.5857876,22.5580078 C11.5856082,25.6391016 10.1797618,29.0165625 9.40709361,32.5965234 C9.2322898,33.4065234 8.51294563,33.9850195 7.68077354,33.9850195 L3.53686379,33.9850195 L3.53139013,39.2779687 L3.53139013,39.3229687 C3.53139013,40.2936328 2.74088845,41.0807812 1.76569507,41.0807812 C0.790501682,41.0807812 0,40.2936328 0,39.3229687 L0,39.3159375 C0,39.3154102 0,39.3148828 0,39.3143555 L0,39.2762109 L0,39.2350781 C0,39.234375 0,39.2338477 0,39.2333203 L0.00741591928,32.2250977 C0.00847533632,31.2551367 0.798623879,30.4692187 1.77311099,30.4692187 L6.28499159,30.4692187 C7.07266816,27.4447266 8.27334081,24.560332 9.86705717,21.8638477 L6.68456839,18.6957422 C6.35332399,18.3659766 6.1673963,17.9187891 6.1673963,17.4524414 C6.16757287,16.9862695 6.3538537,16.539082 6.68509809,16.2094922 L16.3099019,6.6346875 C16.9995824,5.94861328 18.1170908,5.94896484 18.8065947,6.63503906 L21.9855521,9.79998047 C24.6939518,8.21337891 27.5911043,7.01806641 30.6295123,6.23390625 L30.6295123,1.7578125 C30.6295123,0.787148437 31.420014,0 32.3952074,0 L46.0016536,0 C46.976847,0 47.7673487,0.787148437 47.7673487,1.7578125 L47.7673487,6.23408203 C50.8057567,7.01824219 53.7029092,8.21355469 56.4113089,9.80015625 L59.5902663,6.63521484 C60.2797702,5.94914062 61.3974552,5.94878906 62.0869591,6.63486328 L71.7117629,16.209668 C72.0431839,16.5392578 72.2294647,16.9864453 72.2294647,17.4526172 C72.2294647,17.9189648 72.0433604,18.3661523 71.7122926,18.695918 L68.5298038,21.8640234 C70.1235202,24.5605078 71.3241928,27.4449023 72.1118694,30.4693945 L76.6311659,30.4693945 Z M39.3096693,12.9491016 C40.2825673,12.9578906 41.069361,13.7487305 41.0631811,14.7176367 C41.0573543,15.6846094 40.2717965,16.4647266 39.3015471,16.4647266 C39.286009,16.4649023 39.2702943,16.4645508 39.254403,16.4640234 C38.2972197,16.4431055 37.5226093,15.6638672 37.5229624,14.7062109 C37.523139,13.7267578 38.3286491,12.9338086 39.3096693,12.9491016 Z M65.6827971,39.204668 C65.6838565,39.2419336 65.6838565,39.2788477 65.6838565,39.3162891 C65.6838565,39.3554883 65.6836799,39.3948633 65.6822674,39.4351172 C65.6268246,51.866543 56.8864574,62.2938867 45.2017937,64.9998633 L45.2017937,84.0234375 C45.2017937,87.3189844 42.5087556,90 39.1984305,90 C35.8881054,90 33.1950673,87.3189844 33.1950673,84.0234375 L33.1950673,64.9996875 C21.512699,62.2942383 12.7733913,51.8702344 12.7145936,39.4419727 C12.7130045,39.3996094 12.7130045,39.358125 12.7130045,39.3159375 C12.7130045,39.280957 12.7130045,39.2459766 12.7140639,39.210293 C12.7615611,27.4085156 20.7525673,17.0034961 32.180852,13.8846094 C33.1207315,13.6281445 34.0927466,14.1788672 34.3505381,15.1152539 C34.6085062,16.0514648 34.0551373,17.0186133 33.1145516,17.2752539 C25.1117152,19.4593359 19.0546749,25.7674219 17.0024075,33.5058398 C17.994375,32.4706641 19.1931054,31.3052344 20.5669927,30.1264453 C24.750454,26.5369922 31.2413257,22.2772852 38.637116,22.0695117 C38.8235734,22.0635352 39.0105605,22.0594922 39.1986071,22.0594922 C39.3875364,22.0594922 39.575583,22.0637109 39.7632763,22.0696875 C47.1481194,22.2799219 53.6430521,26.5589648 57.8323402,30.1647656 C59.2069339,31.3479492 60.4109613,32.5211133 61.4082259,33.5634961 C59.3764406,25.8342188 53.3464154,19.5122461 45.3753615,17.3007422 C44.4360118,17.0402344 43.886704,16.0708008 44.1485566,15.1356445 C44.4104092,14.2006641 45.3833072,13.6543359 46.3233632,13.9143164 C57.6866704,17.0667773 65.6328279,27.4566797 65.6827971,39.204668 Z M39.1984305,25.575293 C31.5879316,25.575293 25.3959922,31.7392383 25.3959922,39.3161133 C25.3959922,46.8929883 31.587755,53.0569336 39.1984305,53.0569336 C46.8091059,53.0569336 53.0008688,46.8929883 53.0008688,39.3161133 C53.0008688,31.7392383 46.8091059,25.575293 39.1984305,25.575293 Z M23.311236,32.4189844 C20.0219226,35.1664453 17.6799047,37.9415039 16.633907,39.3022266 C17.7111575,40.6891406 20.0680073,43.4559375 23.287046,46.1583984 C22.3727691,44.0593945 21.8647786,41.7457617 21.8647786,39.3161133 C21.8647786,36.8651953 22.3817741,34.5325781 23.311236,32.4189844 Z M41.6704036,84.0234375 L41.6704036,65.5674609 C40.8562416,65.6428711 40.0320151,65.6833008 39.1984305,65.6833008 C38.3648459,65.6833008 37.5406194,65.6428711 36.7264574,65.5674609 L36.7264574,84.0234375 C36.7264574,85.3804687 37.8353139,86.484375 39.1984305,86.484375 C40.5615471,86.484375 41.6704036,85.3804687 41.6704036,84.0234375 Z M39.1984305,62.1676758 C49.8422169,62.1676758 58.816009,54.9181055 61.4018694,45.1188281 C60.4084893,46.1559375 59.207287,47.3241797 57.8300448,48.5057812 C53.6465835,52.0952344 47.1557119,56.3549414 39.7599215,56.5627148 C39.5734641,56.5686914 39.386477,56.5727344 39.1984305,56.5727344 C39.0095011,56.5727344 38.8214546,56.5685156 38.6337612,56.5625391 C31.2490947,56.3523047 24.7539854,52.0732617 20.5648739,48.4676367 C19.1853363,47.2802344 17.977954,46.1030273 16.9785706,45.0580078 C19.5432427,54.8882227 28.5327494,62.1676758 39.1984305,62.1676758 Z M55.0859781,46.213418 C58.3752915,43.4657812 60.7173094,40.6907227 61.7633072,39.33 C60.6860566,37.9432617 58.3292068,35.1764648 55.1101682,32.4740039 C56.0244451,34.5730078 56.5324355,36.8864648 56.5324355,39.3161133 C56.5324355,41.7670312 56.01544,44.0998242 55.0859781,46.213418 Z M44.8942096,44.3592773 C45.4534053,45.1546875 45.2591788,46.2506836 44.4605549,46.8075586 C42.9129232,47.8865039 41.0933744,48.4567383 39.1986071,48.4567383 C34.1358296,48.4567383 30.0169927,44.3562891 30.0169927,39.3161133 C30.0169927,34.2759375 34.1358296,30.1754883 39.1986071,30.1754883 C40.1738004,30.1754883 40.9643021,30.9626367 40.9643021,31.9333008 C40.9643021,32.9039648 40.1738004,33.6911133 39.1986071,33.6911133 C36.0830381,33.6911133 33.5483828,36.2144531 33.5483828,39.3161133 C33.5483828,42.4177734 36.0830381,44.9411133 39.1986071,44.9411133 C40.3648487,44.9411133 41.4839462,44.5906055 42.4349496,43.9277344 C43.2339266,43.3708594 44.3348374,43.5642188 44.8942096,44.3592773 Z M46.6143498,37.5583008 C47.5895432,37.5583008 48.3800448,38.3454492 48.3800448,39.3159375 L48.3796917,39.4052344 C48.368921,40.3693945 47.5805381,41.1435352 46.6145263,41.1435352 C46.6078167,41.1435352 46.6011071,41.1435352 46.5943974,41.1433594 C45.6193806,41.1328125 44.8377074,40.336875 44.8484781,39.3662109 L44.8486547,39.3161133 C44.8486547,38.3454492 45.6391564,37.5583008 46.6143498,37.5583008 Z M51.4368161,74.5025977 C51.713324,75.4335352 51.1799075,76.411582 50.244972,76.687207 L50.1499776,76.7148047 C49.9857679,76.7620898 49.8201457,76.7847656 49.6573487,76.7847656 C48.8915667,76.7847656 48.1863481,76.2848437 47.9622814,75.5159766 C47.6905409,74.5836328 48.2296076,73.6085742 49.1661323,73.3380469 L49.2424103,73.3158984 C50.1773459,73.0408008 51.1599552,73.5714844 51.4368161,74.5025977 Z M58.6973543,71.0973633 C59.1668526,71.9483203 58.8545011,73.0170703 57.9999047,73.4844727 L57.8459361,73.5681445 C57.5787864,73.7119336 57.2908016,73.7803125 57.0070544,73.7803125 C56.3797029,73.7803125 55.7723038,73.4468555 55.452713,72.8588672 C54.9885118,72.0049219 55.3075729,70.9382813 56.165171,70.4761523 L56.2995404,70.4032031 C57.1543133,69.9358008 58.2276794,70.246582 58.6973543,71.0973633 Z M65.0612724,66.230332 C65.7013369,66.9626367 65.6239994,68.0728711 64.8884109,68.7100781 L64.7584557,68.8220508 C64.4249159,69.1085742 64.0143918,69.2488477 63.6059865,69.2488477 C63.1101794,69.2488477 62.6173739,69.0421289 62.2681194,68.6390625 C61.6312332,67.9037695 61.7135146,66.7937109 62.4519283,66.1598438 L62.5698767,66.0582422 C63.3056418,65.4208594 64.4208548,65.4976758 65.0612724,66.230332 Z M76.1662584,45.3875977 C77.1193806,45.5918555 77.7258969,46.5270117 77.5208997,47.4758789 L77.4847029,47.6411133 C77.3038957,48.4625391 76.5730746,49.0229297 75.7617377,49.0229297 C75.6365499,49.0229297 75.5094198,49.0097461 75.3821132,48.9819727 C74.4295207,48.7741992 73.8265359,47.8369336 74.0354176,46.8885937 L74.0686127,46.7363672 C74.2737864,45.7871484 75.2126065,45.1838672 76.1662584,45.3875977 Z M70.2483548,60.135293 C71.0279092,60.7181836 71.1854092,61.8201563 70.6002578,62.5964063 L70.4990835,62.7303516 C70.1519479,63.1880859 69.6232988,63.4292578 69.0884697,63.4292578 C68.7178503,63.4292578 68.3444058,63.313418 68.0258744,63.0741797 C67.2475561,62.4891797 67.0928812,61.3868555 67.6805045,60.6120117 L67.7762052,60.4852734 C68.3617096,59.7090234 69.4686239,59.5524023 70.2483548,60.135293 Z M74.0046945,53.0769727 C74.8926626,53.4777539 75.2865891,54.5192578 74.8841872,55.4034375 L74.8109109,55.5626953 C74.5128615,56.2057031 73.8742096,56.5841602 73.2067769,56.5841602 C72.9590499,56.5841602 72.7074383,56.5321289 72.4678335,56.4219141 C71.5823374,56.0149805 71.1960034,54.9704883 71.6047618,54.0891211 L71.6676205,53.9525391 C72.0700224,53.0681836 73.1163733,52.676543 74.0046945,53.0769727 Z M6.84983744,54.212168 C7.26248038,55.0917773 6.88091368,56.1378516 5.99753643,56.5488281 C5.75581278,56.6611523 5.50137612,56.7144141 5.25117713,56.7144141 C4.58674608,56.7144141 3.95038957,56.3392969 3.65039798,55.700332 L3.5767685,55.5417773 C3.16889294,54.6598828 3.55610987,53.615918 4.44195908,53.2098633 C5.32745516,52.8032813 6.37627803,53.1891211 6.78433016,54.0711914 L6.84983744,54.212168 Z M4.3746861,46.9471289 C4.58674608,47.8947656 3.98693946,48.8339648 3.03522982,49.0452539 C2.90598094,49.0739062 2.77673206,49.0876172 2.64960202,49.0876172 C1.84056054,49.0876172 1.11115191,48.5305664 0.927872758,47.7116016 L0.890086883,47.5400391 C0.68367713,46.5911719 1.28913397,45.6554883 2.2420796,45.45 C3.19467209,45.2446875 4.13508128,45.8470898 4.34149103,46.795957 L4.3746861,46.9471289 Z M10.8422506,60.7760156 C11.435171,61.5469922 11.2880886,62.6503711 10.5138313,63.2404687 C10.1937108,63.4846289 9.81620516,63.6029297 9.44170123,63.6029297 C8.91075673,63.6029297 8.38616872,63.365625 8.03850336,62.9136914 L7.93220852,62.7746484 C7.34370235,62.000332 7.49678812,60.8980078 8.27440022,60.3121289 C9.05201233,59.72625 10.1594563,59.8786523 10.7479624,60.652793 L10.8422506,60.7760156 Z M22.5369787,70.63875 C23.3991676,71.0924414 23.7288229,72.1557422 23.2732735,73.0142578 C22.9566844,73.6105078 22.3439882,73.9511719 21.7104568,73.9511719 C21.4323599,73.9511719 21.1502018,73.8856055 20.8871132,73.7472656 L20.7317321,73.6648242 C19.8723683,73.2058594 19.5494226,72.1402734 20.0104456,71.2849219 C20.471292,70.4293945 21.541833,70.1078906 22.4010202,70.5666797 L22.5369787,70.63875 Z M16.1546973,66.3380859 C16.8991143,66.9650977 16.9921665,68.0742773 16.362343,68.8157227 C16.0132651,69.2266992 15.514986,69.4381641 15.0135286,69.4381641 C14.610597,69.4381641 14.2055465,69.3017578 13.873949,69.0224414 L13.7402859,68.9090625 C12.9995768,68.277832 12.9130577,67.1683008 13.5471188,66.4305469 C14.1811799,65.692793 15.2956867,65.6064844 16.0367489,66.2382422 L16.1546973,66.3380859 Z M29.6347197,73.4521289 C30.5740695,73.7136914 31.1223178,74.6834766 30.8595824,75.6182812 C30.6415191,76.3948828 29.9322393,76.9032422 29.1601009,76.9032422 C29.0027775,76.9032422 28.8428055,76.8821484 28.6837164,76.8378516 L28.5890751,76.8114844 C27.651491,76.5448242 27.1085398,75.571875 27.3763957,74.6384766 C27.6442517,73.7050781 28.6215639,73.1641992 29.559148,73.4312109 L29.6347197,73.4521289 Z" id="view" fill="#0028B4"></path>
        </g>
    </g>
</svg>