<?xml version="1.0" encoding="UTF-8"?>
<svg width="100px" height="100px" viewBox="0 0 100 100" version="1.1" xmlns="http://www.w3.org/2000/svg" xmlns:xlink="http://www.w3.org/1999/xlink">
    <!-- Generator: Sketch 51.3 (57544) - http://www.bohemiancoding.com/sketch -->
    <title>icon_app</title>
    <desc>Created with Sketch.</desc>
    <defs></defs>
    <g id="icon_app" stroke="none" stroke-width="1" fill="none" fill-rule="evenodd">
        <g id="百度小程序" transform="translate(10.000000, 5.000000)" fill-rule="nonzero">
            <circle id="Oval-5" fill="#D9F1FF" cx="40" cy="45" r="30"></circle>
            <path d="M72.8646288,31.7430953 C77.3504017,31.7430953 81,35.3704959 81,39.8289854 L81,63.0149237 C81,68.0729996 79.7416703,73.1092787 77.3608362,77.5797212 L71.2442751,89.0643219 C70.9269956,89.6600411 70.3138362,90 69.679631,90 C69.4005524,90 69.117583,89.9342582 68.853714,89.7953918 C67.9904803,89.3411757 67.6611747,88.2775296 68.1181703,87.4193706 L74.2347314,75.9347699 C76.3465677,71.9693439 77.4628821,67.5015381 77.4628821,63.014748 L77.4628821,39.8291612 C77.4628821,37.3090001 75.4002118,35.2588754 72.8646288,35.2588754 C70.3290459,35.2588754 68.2663755,37.3090001 68.2663755,39.8291612 L68.2663755,54.5785279 C68.2663755,55.1554385 67.9816376,55.6954354 67.5044803,56.0237928 L65.8896092,57.1350754 C59.5134236,61.5229012 55.7067773,68.74448 55.7067773,76.4527942 L55.7067773,88.2416705 C55.7067773,89.2123288 54.9148166,89.9994727 53.9382183,89.9994727 L19.8078603,89.9994727 C14.9319432,89.9994727 10.9650655,86.0567223 10.9650655,81.2104617 L10.9650655,74.4425716 L4.43802183,72.4493997 C1.78341485,71.6390529 0,69.2398287 0,66.4797277 C0,64.655129 0.773744541,62.9746701 2.13677293,61.7900872 C0.804871179,60.6339807 0,58.9443812 0,57.0911303 C0,55.2665316 0.773744541,53.5860727 2.13677293,52.4014898 C0.804871179,51.2453833 0,49.5557839 0,47.702533 C0,45.8779343 0.773744541,44.1974754 2.13677293,43.0128925 C0.804871179,41.856786 0,40.1671865 0,38.3139357 C0,36.311799 0.929200873,34.481048 2.54937773,33.2911917 C4.16937773,32.1013353 6.20304367,31.756103 8.12865066,32.3442636 L10.9650655,33.2103328 L10.9650655,8.789011 C10.9650655,3.94275034 14.9319432,0 19.8078603,0 L60.8384279,0 C65.714345,0 69.6812227,3.94275034 69.6812227,8.789011 L69.6812227,32.3883844 C70.6595895,31.9733673 71.7354039,31.7430953 72.8646288,31.7430953 Z M4.65131004,36.1186165 C3.94317904,36.6387502 3.5371179,37.4387259 3.5371179,38.3137599 C3.5371179,39.5203153 4.31652183,40.5686685 5.47669651,40.9228657 L11.0526092,42.6256487 L13.6817489,43.4284369 C14.5225218,43.6849003 15.4117533,43.5346082 16.1198843,43.0146503 C16.8280153,42.4945166 17.2342533,41.6945409 17.2342533,40.8193311 C17.2342533,39.6129515 16.4548493,38.5644225 15.2944978,38.2100496 L7.08997598,35.7046541 C6.82080131,35.6225647 6.54667467,35.5821353 6.27520087,35.5821353 C5.69812009,35.5821353 5.1330655,35.7649467 4.65131004,36.1186165 Z M4.65113319,45.507038 C3.94300218,46.0271717 3.53694105,46.8271475 3.53694105,47.7023572 C3.53694105,48.9089126 4.31634498,49.9572659 5.47651965,50.311463 L11.0524323,52.014246 L13.6815721,52.8170343 C14.522345,53.074025 15.4115764,52.9233813 16.1197074,52.4032476 C16.8278384,51.883114 17.2340764,51.0831382 17.2340764,50.2079285 C17.2340764,49.0015488 16.4546725,47.9530198 15.294321,47.5986469 L12.6439585,46.7893547 C12.6434279,46.789179 12.6430742,46.789179 12.6425437,46.7890032 L7.08767686,45.0927241 C6.81903275,45.0109863 6.54579039,44.9707326 6.27502402,44.9707326 C5.69812009,44.9707326 5.13288865,45.153544 4.65113319,45.507038 Z M17.2342533,59.5965258 C17.2342533,58.3901462 16.4548493,57.3416171 15.2944978,56.9872442 L12.6441354,56.1779521 C12.6436048,56.1777763 12.6432511,56.1777763 12.6427205,56.1776005 L7.08785371,54.4813214 C6.81920961,54.3995836 6.54596725,54.3593299 6.27520087,54.3593299 C5.69812009,54.3593299 5.1330655,54.5421414 4.65131004,54.8958112 C3.94317904,55.4159448 3.5371179,56.2159206 3.5371179,57.0911303 C3.5371179,58.2976858 4.31652183,59.346039 5.47669651,59.7002361 L11.0526092,61.4028433 L13.6817489,62.2056316 C14.5225218,62.4620949 15.4117533,62.3119786 16.1198843,61.791845 C16.8280153,61.2717113 17.2342533,60.4717355 17.2342533,59.5965258 Z M13.6815721,71.5942289 C14.5225218,71.8512196 15.4117533,71.700576 16.1198843,71.1804423 C16.8280153,70.6603086 17.2342533,69.8603328 17.2342533,68.9851231 C17.2342533,67.7787435 16.4548493,66.7302145 15.2944978,66.3758415 L12.6441354,65.5665494 C12.6436048,65.5663736 12.6432511,65.5663736 12.6427205,65.5661979 L7.08785371,63.8699187 C6.81920961,63.7881809 6.54596725,63.7479273 6.27520087,63.7479273 C5.69812009,63.7479273 5.1330655,63.9307387 4.65131004,64.2844085 C3.94317904,64.8045422 3.5371179,65.6045179 3.5371179,66.4797277 C3.5371179,67.6862831 4.31652183,68.7346363 5.47669651,69.0886577 L13.6815721,71.5942289 Z M52.1696594,86.4838683 L52.1696594,80.5073408 L14.5021834,80.5073408 L14.5021834,81.2104617 C14.5021834,84.1182181 16.88231,86.4838683 19.8078603,86.4838683 L52.1696594,86.4838683 Z M20.5257183,10.0071679 C20.8548472,10.3341191 21.044083,10.7876321 21.044083,11.2499341 C21.044083,11.7122361 20.8546703,12.165749 20.5257183,12.4925245 C20.1949978,12.8196514 19.740655,13.0077363 19.275524,13.0077363 C18.8102162,13.0077363 18.3541048,12.8194757 18.0251528,12.4925245 C17.696024,12.165749 17.5069651,11.7122361 17.5069651,11.2499341 C17.5069651,10.7876321 17.6962009,10.3342949 18.0251528,10.0071679 C18.3541048,9.68004094 18.8102162,9.49213188 19.275524,9.49213188 C19.740655,9.49213188 20.1949978,9.68004094 20.5257183,10.0071679 Z M41.5733384,71.1277082 C41.9024672,71.4564172 42.0917031,71.9081724 42.0917031,72.3704744 C42.0917031,72.8327764 41.9022904,73.2862893 41.5733384,73.6132405 C41.2445633,73.9417738 40.7882751,74.1282766 40.3231441,74.1282766 C39.8580131,74.1282766 39.4017249,73.9417738 39.0727729,73.6132405 C38.7436441,73.2862893 38.5545852,72.8345342 38.5545852,72.3704744 C38.5545852,71.9081724 38.743821,71.4546594 39.0727729,71.1277082 C39.4017249,70.800757 39.8580131,70.6126722 40.3231441,70.6126722 C40.7882751,70.6126722 41.2445633,70.800757 41.5733384,71.1277082 Z M60.1435611,29.0364314 C62.446048,31.3254415 62.446048,35.0493454 60.1435611,37.3380039 C59.452762,38.0246014 58.6316201,38.5036025 57.7588362,38.7781712 L57.7588362,44.4142124 C57.7588362,45.0732125 57.3881463,45.6764902 56.7986856,45.9777775 L42.0917031,53.4904483 L42.0917031,65.2898713 C42.0917031,66.2605297 41.2997424,67.0476735 40.3231441,67.0476735 C39.3465459,67.0476735 38.5545852,66.2605297 38.5545852,65.2898713 L38.5545852,60.1927723 L26.6985197,48.5188563 C26.3632009,48.1889169 26.1746725,47.7390953 26.1746725,47.2701137 L26.1746725,42.9803732 C23.7913624,42.2245182 22.0601201,40.0033594 22.0601201,37.3872223 C22.0601201,34.1504054 24.7094214,31.5172177 27.9660459,31.5172177 C31.2226703,31.5172177 33.8719716,34.1505811 33.8719716,37.3872223 C33.8719716,40.0200585 32.1187991,42.253522 29.7119672,42.9951387 L29.7119672,46.5369344 L38.554762,55.243856 L38.554762,30.9501507 C35.7045524,30.1763662 33.6027969,27.5816743 33.6027969,24.5069267 C33.6027969,20.8238038 36.6176594,17.8272784 40.323321,17.8272784 C44.0289825,17.8272784 47.043845,20.8238038 47.043845,24.5069267 C47.043845,27.5816743 44.9420895,30.1763662 42.0918799,30.9501507 L42.0918799,49.5376785 L54.2218952,43.3414257 L54.2218952,38.7929368 C53.3321332,38.520829 52.4945437,38.0367303 51.7915415,37.3381797 C49.4888777,35.0495212 49.4888777,31.3254415 51.7915415,29.0366072 C54.0943821,26.7479487 57.8408974,26.7479487 60.1435611,29.0364314 Z M64.7292576,39.8289854 C64.7292576,38.1230383 65.2649541,36.5399617 66.175762,35.2340904 C66.1557773,35.1279192 66.1441048,35.0189354 66.1441048,34.9071392 L66.1441048,13.0077363 L25.5533777,13.0077363 C24.5767795,13.0077363 23.7848188,12.2205925 23.7848188,11.2499341 C23.7848188,10.2792757 24.5767795,9.49213188 25.5533777,9.49213188 L66.1439279,9.49213188 L66.1439279,8.789011 C66.1439279,5.8812546 63.7638013,3.5156044 60.8382511,3.5156044 L19.8076834,3.5156044 C16.8821332,3.5156044 14.5020066,5.8812546 14.5020066,8.789011 L14.5020066,34.290678 L16.3331725,34.8498349 C18.9877795,35.6603575 20.7711943,38.0595817 20.7711943,40.8195069 C20.7711943,42.6441056 19.9974498,44.3245645 18.6344214,45.5091474 C19.9663231,46.6652539 20.7711943,48.3550292 20.7711943,50.2081042 C20.7711943,52.0327029 19.9974498,53.7131618 18.6344214,54.8977447 C19.9663231,56.0538512 20.7711943,57.7436265 20.7711943,59.5967016 C20.7711943,61.4213003 19.9974498,63.1017592 18.6344214,64.2863421 C19.9663231,65.4424486 20.7711943,67.1322238 20.7711943,68.9852989 C20.7711943,70.9874356 19.8419934,72.8181866 18.2218166,74.0080429 C17.1200044,74.8171593 15.8270109,75.235692 14.5067817,75.235692 C14.5053668,75.235692 14.5037751,75.2355162 14.5021834,75.2355162 L14.5020066,76.9917364 L52.1698362,76.9917364 L52.1698362,76.4527942 C52.1698362,67.5913618 56.5461354,59.2890862 63.8762817,54.2445454 L64.7292576,53.6574395 L64.7292576,39.8289854 Z" id="smartphone" fill="#0028B4"></path>
            <path d="M27.9660459,39.7416226 C26.6599651,39.7416226 25.597238,38.6853593 25.597238,37.3872223 C25.597238,36.0890854 26.6599651,35.0328221 27.9660459,35.0328221 C29.2721266,35.0328221 30.3348537,36.0890854 30.3348537,37.3872223 C30.3348537,38.6853593 29.2721266,39.7416226 27.9660459,39.7416226 Z" id="Shape" fill="#74CAFF"></path>
            <path d="M40.3231441,27.6709707 C38.5678493,27.6709707 37.139738,26.2515454 37.139738,24.5069267 C37.139738,22.762308 38.5678493,21.3428828 40.3231441,21.3428828 C42.0784389,21.3428828 43.5065502,22.762308 43.5065502,24.5069267 C43.5065502,26.2515454 42.0784389,27.6709707 40.3231441,27.6709707 Z" id="Shape" fill="#74CAFF"></path>
            <path d="M57.6424651,34.85212 C56.7187467,35.7702201 55.216179,35.7702201 54.2926376,34.85212 C53.3689192,33.9341957 53.3690961,32.4405912 54.2926376,31.5224911 L54.2926376,31.5226669 C55.2163559,30.6045668 56.7192773,30.6047426 57.6424651,31.5224911 C58.5658297,32.4405912 58.5660066,33.9341957 57.6424651,34.85212 Z" id="Shape" fill="#74CAFF"></path>
        </g>
    </g>
</svg>