<?xml version="1.0" encoding="UTF-8"?>
<svg width="100px" height="100px" viewBox="0 0 100 100" version="1.1" xmlns="http://www.w3.org/2000/svg" xmlns:xlink="http://www.w3.org/1999/xlink">
    <!-- Generator: Sketch 51.3 (57544) - http://www.bohemiancoding.com/sketch -->
    <title>icon_baidu</title>
    <desc>Created with Sketch.</desc>
    <defs></defs>
    <g id="icon_baidu" stroke="none" stroke-width="1" fill="none" fill-rule="evenodd">
        <g id="百度小程序" transform="translate(10.000000, 5.000000)" fill-rule="nonzero">
            <circle id="Oval-5" fill="#D9F1FF" cx="40" cy="45" r="30"></circle>
            <path d="M72.7209879,31.7430953 C77.1979179,31.7430953 80.8403215,35.3704959 80.8403215,39.8289854 L80.8403215,63.0149237 C80.8403215,68.0729996 79.5844724,73.1092787 77.2083318,77.5797212 L71.1038285,89.0643219 C70.7871745,89.6600411 70.1752238,90 69.5422688,90 C69.2637404,90 68.9813288,89.9342582 68.7179799,89.7953918 C67.856448,89.3411757 67.5277915,88.2775296 67.9838863,87.4193706 L74.0883896,75.9347699 C76.1960627,71.9693439 77.3101765,67.5015381 77.3101765,63.014748 L77.3101765,39.8291612 C77.3101765,37.3090001 75.2515724,35.2588754 72.7209879,35.2588754 C70.1904034,35.2588754 68.1317993,37.3090001 68.1317993,39.8291612 L68.1317993,54.5785279 C68.1317993,55.1554385 67.8476227,55.6954354 67.3714061,56.0237928 L65.7597184,57.1350754 C59.3961024,61.5229012 55.5969603,68.74448 55.5969603,76.4527942 L55.5969603,88.2416705 C55.5969603,89.2123288 54.8065609,89.9994727 53.8318878,89.9994727 L19.7688122,89.9994727 C14.9025073,89.9994727 10.9434496,86.0567223 10.9434496,81.2104617 L10.9434496,74.4425716 L4.42927299,72.4493997 C1.77989913,71.6390529 0,69.2398287 0,66.4797277 C0,64.655129 0.772219228,62.9746701 2.13256062,61.7900872 C0.803284505,60.6339807 0,58.9443812 0,57.0911303 C0,55.2665316 0.772219228,53.5860727 2.13256062,52.4014898 C0.803284505,51.2453833 0,49.5557839 0,47.702533 C0,45.8779343 0.772219228,44.1974754 2.13256062,43.0128925 C0.803284505,41.856786 0,40.1671865 0,38.3139357 C0,36.311799 0.927369103,34.481048 2.54435204,33.2911917 C4.16115847,32.1013353 6.19081536,31.756103 8.11262633,32.3442636 L10.9434496,33.2103328 L10.9434496,8.789011 C10.9434496,3.94275034 14.9025073,0 19.7688122,0 L60.7184948,0 C65.5847997,0 69.5438574,3.94275034 69.5438574,8.789011 L69.5438574,32.3883844 C70.5202955,31.9733673 71.5939891,31.7430953 72.7209879,31.7430953 Z M4.64214073,36.1186165 C3.9354057,36.6387502 3.53014504,37.4387259 3.53014504,38.3137599 C3.53014504,39.5203153 4.3080125,40.5686685 5.46590008,40.9228657 L11.0308207,42.6256487 L13.6547775,43.4284369 C14.493893,43.6849003 15.3813715,43.5346082 16.0881065,43.0146503 C16.7948416,42.4945166 17.2002787,41.6945409 17.2002787,40.8193311 C17.2002787,39.6129515 16.4224113,38.5644225 15.2643472,38.2100496 L7.07599923,35.7046541 C6.8073552,35.6225647 6.53376895,35.5821353 6.26283032,35.5821353 C5.68688716,35.5821353 5.12294649,35.7649467 4.64214073,36.1186165 Z M4.64196423,45.507038 C3.93522919,46.0271717 3.52996854,46.8271475 3.52996854,47.7023572 C3.52996854,48.9089126 4.307836,49.9572659 5.46572357,50.311463 L11.0306442,52.014246 L13.654601,52.8170343 C14.4937165,53.074025 15.381195,52.9233813 16.08793,52.4032476 C16.794665,51.883114 17.2001022,51.0831382 17.2001022,50.2079285 C17.2001022,49.0015488 16.4222347,47.9530198 15.2641707,47.5986469 L12.619033,46.7893547 C12.6185035,46.789179 12.6181504,46.789179 12.6176209,46.7890032 L7.07370464,45.0927241 C6.80559012,45.0109863 6.53288642,44.9707326 6.26265382,44.9707326 C5.68688716,44.9707326 5.12276998,45.153544 4.64196423,45.507038 Z M17.2002787,59.5965258 C17.2002787,58.3901462 16.4224113,57.3416171 15.2643472,56.9872442 L12.6192095,56.1779521 C12.61868,56.1777763 12.618327,56.1777763 12.6177974,56.1776005 L7.07388115,54.4813214 C6.80576663,54.3995836 6.53306293,54.3593299 6.26283032,54.3593299 C5.68688716,54.3593299 5.12294649,54.5421414 4.64214073,54.8958112 C3.9354057,55.4159448 3.53014504,56.2159206 3.53014504,57.0911303 C3.53014504,58.2976858 4.3080125,59.346039 5.46590008,59.7002361 L11.0308207,61.4028433 L13.6547775,62.2056316 C14.493893,62.4620949 15.3813715,62.3119786 16.0881065,61.791845 C16.7948416,61.2717113 17.2002787,60.4717355 17.2002787,59.5965258 Z M13.654601,71.5942289 C14.493893,71.8512196 15.3813715,71.700576 16.0881065,71.1804423 C16.7948416,70.6603086 17.2002787,69.8603328 17.2002787,68.9851231 C17.2002787,67.7787435 16.4224113,66.7302145 15.2643472,66.3758415 L12.6192095,65.5665494 C12.61868,65.5663736 12.618327,65.5663736 12.6177974,65.5661979 L7.07388115,63.8699187 C6.80576663,63.7881809 6.53306293,63.7479273 6.26283032,63.7479273 C5.68688716,63.7479273 5.12294649,63.9307387 4.64214073,64.2844085 C3.9354057,64.8045422 3.53014504,65.6045179 3.53014504,66.4797277 C3.53014504,67.6862831 4.3080125,68.7346363 5.46590008,69.0886577 L13.654601,71.5942289 Z M52.0668153,86.4838683 L52.0668153,80.5073408 L14.4735947,80.5073408 L14.4735947,81.2104617 C14.4735947,84.1182181 16.8490293,86.4838683 19.7688122,86.4838683 L52.0668153,86.4838683 Z M20.4852552,10.0071679 C20.8137352,10.3341191 21.0025979,10.7876321 21.0025979,11.2499341 C21.0025979,11.7122361 20.8135587,12.165749 20.4852552,12.4925245 C20.1551866,12.8196514 19.7017395,13.0077363 19.2375254,13.0077363 C18.7731348,13.0077363 18.3179226,12.8194757 17.9896191,12.4925245 C17.6611391,12.165749 17.4724529,11.7122361 17.4724529,11.2499341 C17.4724529,10.7876321 17.6613157,10.3342949 17.9896191,10.0071679 C18.3179226,9.68004094 18.7731348,9.49213188 19.2375254,9.49213188 C19.7017395,9.49213188 20.1551866,9.68004094 20.4852552,10.0071679 Z M64.6016543,39.8289854 C64.6016543,38.1230383 65.1362948,36.5399617 66.0453071,35.2340904 C66.0253618,35.1279192 66.0137123,35.0189354 66.0137123,34.9071392 L66.0137123,13.0077363 L25.5030033,13.0077363 C24.5283303,13.0077363 23.7379308,12.2205925 23.7379308,11.2499341 C23.7379308,10.2792757 24.5283303,9.49213188 25.5030033,9.49213188 L66.0135358,9.49213188 L66.0135358,8.789011 C66.0135358,5.8812546 63.6381012,3.5156044 60.7183182,3.5156044 L19.7686357,3.5156044 C16.8488528,3.5156044 14.4734182,5.8812546 14.4734182,8.789011 L14.4734182,34.290678 L16.3009743,34.8498349 C18.9503481,35.6603575 20.7302472,38.0595817 20.7302472,40.8195069 C20.7302472,42.6441056 19.958028,44.3245645 18.5976866,45.5091474 C19.9269627,46.6652539 20.7302472,48.3550292 20.7302472,50.2081042 C20.7302472,52.0327029 19.958028,53.7131618 18.5976866,54.8977447 C19.9269627,56.0538512 20.7302472,57.7436265 20.7302472,59.5967016 C20.7302472,61.4213003 19.958028,63.1017592 18.5976866,64.2863421 C19.9269627,65.4424486 20.7302472,67.1322238 20.7302472,68.9852989 C20.7302472,70.9874356 19.8028781,72.8181866 18.1858952,74.0080429 C17.086255,74.8171593 15.7958105,75.235692 14.4781839,75.235692 C14.4767718,75.235692 14.4751832,75.2355162 14.4735947,75.2355162 L14.4734182,76.9917364 L52.0669918,76.9917364 L52.0669918,76.4527942 C52.0669918,67.5913618 56.4346637,59.2890862 63.7503598,54.2445454 L64.6016543,53.6574395 L64.6016543,39.8289854 Z" id="smartphone" fill="#0028B4"></path>
            <path d="M45.3793103,24.8949072 L56.4717754,45 L45.3793103,65.1050928 L34.2868453,45 L45.3793103,24.8949072 Z" id="Polygon-2" stroke="#0028B4" stroke-width="3" fill="#74CAFF" stroke-linecap="round" stroke-linejoin="round"></path>
            <path d="M26.8664005,45 L36.4811851,61.6245134 L35.1827094,62.3754866 L25.1335995,45 L35.1827094,27.6245134 L36.4811851,28.3754866 L26.8664005,45 Z M26.8664005,45 L36.4811851,61.6245134 L35.1827094,62.3754866 L25.1335995,45 L35.1827094,27.6245134 L36.4811851,28.3754866 L26.8664005,45 Z" id="Polygon" stroke="#0028B4" stroke-width="1.5" stroke-linecap="round" stroke-linejoin="round"></path>
        </g>
    </g>
</svg>