<?xml version="1.0" encoding="UTF-8"?>
<svg width="100px" height="100px" viewBox="0 0 100 100" version="1.1" xmlns="http://www.w3.org/2000/svg" xmlns:xlink="http://www.w3.org/1999/xlink">
    <!-- Generator: Sketch 51.3 (57544) - http://www.bohemiancoding.com/sketch -->
    <title>icon_plugin</title>
    <desc>Created with Sketch.</desc>
    <defs></defs>
    <g id="icon_plugin" stroke="none" stroke-width="1" fill="none" fill-rule="evenodd">
        <g id="云转换" fill-rule="nonzero">
            <circle id="Oval-5" fill="#D9F1FF" cx="50" cy="63" r="30"></circle>
            <path d="M98.046875,85.1566406 L95.7025391,85.1566406 L95.7025391,46.1919922 C95.7025391,40.1070312 90.7519531,35.1566406 84.6669922,35.1566406 L82.1644531,35.1566406 L88.4390625,31.7162109 C89.0644531,31.3732422 89.453125,30.7167969 89.453125,30.0035156 L89.453125,25.0654297 C89.453125,23.9867187 88.5785156,23.1123047 87.5,23.1123047 C86.4214844,23.1123047 85.546875,23.9867187 85.546875,25.0654297 L85.546875,28.846875 L62.4398438,41.5167969 C61.8144531,41.8597656 61.4257812,42.5162109 61.4257812,43.2294922 L61.4257812,58.3921875 C60.3273437,57.9548828 59.2048828,57.5775391 58.0583984,57.2689453 L58.0583984,53.5175781 C58.0583984,52.4390625 57.1837891,51.5644531 56.1052734,51.5644531 L51.953125,51.5644531 L51.953125,39.6257812 L68.1949219,31.278125 C68.8458984,30.9435547 69.2552734,30.2730469 69.2552734,29.5410156 L69.2552734,23.2789062 C70.2191406,22.9736328 71.1259766,22.4414062 71.8888672,21.6787109 C74.4318359,19.1355469 74.4318359,14.9978516 71.8888672,12.4548828 C69.3457031,9.91191406 65.2082031,9.91191406 62.6648437,12.4548828 C60.121875,14.9980469 60.121875,19.1357422 62.6648437,21.6787109 C63.4412109,22.4548828 64.3662109,22.9927734 65.3488281,23.2951172 L65.3488281,28.3488281 L51.9529297,35.2337891 L51.9529297,27.5392578 C51.9529297,26.4605469 51.0783203,25.5861328 49.9998047,25.5861328 C48.9212891,25.5861328 48.0466797,26.4605469 48.0466797,27.5392578 L48.0466797,42.1707031 L34.7654297,31.7632812 L34.7654297,27.9642578 C37.4234375,27.1400391 39.3595703,24.6585937 39.3595703,21.7330078 C39.3595703,18.1367187 36.4337891,15.2107422 32.8373047,15.2107422 C29.2408203,15.2107422 26.3150391,18.1365234 26.3150391,21.7330078 C26.3150391,24.6398437 28.2269531,27.1078125 30.8589844,27.9476562 L30.8589844,32.7140625 C30.8589844,33.3142578 31.1349609,33.88125 31.6074219,34.2513672 L48.0464844,47.1333984 L48.0464844,51.5644531 L43.8931641,51.5644531 C42.8146484,51.5644531 41.9400391,52.4390625 41.9400391,53.5175781 L41.9400391,57.2689453 C41.4755859,57.3939453 41.0164062,57.5333984 40.5595703,57.6796875 L40.5595703,50.0003906 C40.5595703,49.3945312 40.2785156,48.8230469 39.7986328,48.4533203 L14.453125,28.9224609 L14.453125,20.0498047 C17.6007813,19.1900391 19.921875,16.3070312 19.921875,12.890625 C19.921875,8.79824219 16.5923828,5.46875 12.5,5.46875 C8.40761719,5.46875 5.078125,8.79824219 5.078125,12.890625 C5.078125,16.3070312 7.39921875,19.1900391 10.546875,20.0498047 L10.546875,29.8832031 C10.546875,30.4890625 10.8279297,31.0605469 11.3078125,31.4302734 L16.14375,35.1566406 L15.3316406,35.1566406 C9.246875,35.1566406 4.29628906,40.1070312 4.29628906,46.1919922 L4.29628906,85.1566406 L1.953125,85.1566406 C0.874609375,85.1566406 0,86.03125 0,87.1097656 L0,90.4300781 C0,95.7072266 4.29316406,100.000391 9.5703125,100.000391 L90.4296875,100.000391 C95.7068359,100.000391 100,95.7072266 100,90.4300781 L100,87.1097656 C100,86.0310547 99.1253906,85.1566406 98.046875,85.1566406 Z M75.0404297,39.0628906 L84.6671875,39.0628906 C88.5982422,39.0628906 91.7964844,42.2611328 91.7964844,46.1919922 L91.7964844,85.1566406 L85.5482422,85.1566406 L85.5482422,80.9861328 C85.5482422,79.9076172 84.6736328,79.0330078 83.5951172,79.0330078 L79.8228516,79.0330078 C79.1316406,76.4652344 78.1142578,74.0101562 76.7853516,71.7035156 L79.4410156,69.0480469 C79.8072266,68.6816406 80.0130859,68.1847656 80.0130859,67.6666016 C80.0130859,67.1486328 79.8070312,66.6517578 79.4404297,66.2855469 L70.8021484,57.6537109 C70.0396484,56.8916016 68.803125,56.8916016 68.0404297,57.6541016 L65.3880859,60.3066406 C65.3695312,60.2960937 65.3507812,60.2863281 65.3322266,60.2755859 L65.3322266,44.3861328 L65.3320312,44.3861328 L75.0404297,39.0628906 Z M39.4001953,62.2744141 C40.9759766,61.6007812 42.6142578,61.0783203 44.3039062,60.7152344 C45.2039063,60.521875 45.8466797,59.7261719 45.8466797,58.8056641 L45.8466797,55.4708984 L54.1519531,55.4708984 L54.1519531,58.8056641 C54.1519531,59.7261719 54.7947266,60.521875 55.6947266,60.7152344 C58.053125,61.221875 60.3121094,62.0369141 62.4388672,63.1447266 C62.4513672,63.1515625 62.4646484,63.1576172 62.4773438,63.1644531 C63.2083984,63.546875 63.9238281,63.9632813 64.6220703,64.4146484 C65.3953125,64.9140625 66.4121094,64.8060547 67.0632813,64.1552734 L69.4216797,61.796875 L75.2966797,67.6675781 L72.9359375,70.028125 C72.2849609,70.6791016 72.1769531,71.6960937 72.6767578,72.4693359 C74.4472656,75.2091797 75.6919922,78.2126953 76.3759766,81.3966797 C76.5693359,82.2966797 77.3650391,82.9394531 78.2855469,82.9394531 L81.6414063,82.9394531 L81.6414063,85.1568359 L65.9224609,85.1568359 C64.95625,77.2289062 58.1837891,71.0683594 49.9992188,71.0683594 C41.8146484,71.0683594 35.0421875,77.2289062 34.0759766,85.1568359 L18.3617188,85.1568359 L18.3628906,82.9394531 L21.7126953,82.9394531 C22.6332031,82.9394531 23.4289063,82.2966797 23.6220703,81.3966797 C24.30625,78.2130859 25.5507813,75.2095703 27.3216797,72.4693359 C27.8212891,71.6960937 27.7130859,70.6791016 27.0623047,70.028125 L24.7017578,67.6677734 L30.5767578,61.796875 L32.9351563,64.1552734 C33.5861328,64.80625 34.603125,64.9140625 35.3763672,64.4146484 C36.6429688,63.5960937 37.9666016,62.8914062 39.3376953,62.3011719 C39.3587891,62.2925781 39.3794922,62.2835937 39.4001953,62.2744141 Z M40.6234375,85.1566406 L38.0234375,85.1566406 C38.9605469,79.3908203 43.9730469,74.9744141 49.9994141,74.9744141 C56.0257812,74.9744141 61.0382812,79.3908203 61.9753906,85.1566406 L59.3765625,85.1566406 L40.6234375,85.1566406 Z M57.3255859,89.0628906 C57.0466797,89.9667969 56.2033203,90.6253906 55.2091797,90.6253906 L44.7908203,90.6253906 C43.7966797,90.6253906 42.9533203,89.9667969 42.6744141,89.0628906 L57.3255859,89.0628906 Z M8.20253906,46.1919922 C8.20253906,42.2609375 11.4005859,39.0628906 15.3316406,39.0628906 L21.2130859,39.0628906 L36.6537109,50.9611328 L36.6537109,59.2335937 C35.9615234,59.5660156 35.2792969,59.9214844 34.6109375,60.3066406 L31.9585937,57.6541016 C31.1958984,56.8919922 29.9597656,56.8912109 29.196875,57.6537109 L20.5585937,66.2855469 C20.1919922,66.6517578 19.9861328,67.1486328 19.9859375,67.6666016 C19.9857422,68.1847656 20.1916016,68.6816406 20.5580078,69.0480469 L23.2136719,71.7035156 C21.8845703,74.0105469 20.8671875,76.4654297 20.1759766,79.0330078 L16.4107422,79.0330078 C15.3324219,79.0330078 14.4582031,79.9068359 14.4576172,80.9849609 L14.4552734,85.1564453 L8.20253906,85.1564453 L8.20253906,46.1919922 Z M96.09375,90.4300781 C96.09375,93.553125 93.5527344,96.0941406 90.4296875,96.0941406 L9.5703125,96.0941406 C6.44726562,96.0941406 3.90625,93.553125 3.90625,90.4300781 L3.90625,89.0628906 L38.7054687,89.0628906 C39.0318359,92.1324219 41.6361328,94.5316406 44.7908203,94.5316406 L55.2091797,94.5316406 C58.3638672,94.5316406 60.9681641,92.1324219 61.2945312,89.0628906 L96.09375,89.0628906 L96.09375,90.4300781 Z M51.3806641,19.3226563 C51.7441406,19.6859375 51.953125,20.1898438 51.953125,20.7035156 C51.953125,21.2171875 51.7439453,21.7210938 51.3806641,22.084375 C51.0175781,22.4476563 50.5136719,22.6566406 50,22.6566406 C49.4863281,22.6566406 48.9826172,22.4476563 48.6191406,22.084375 C48.2556641,21.7210938 48.046875,21.2171875 48.046875,20.7035156 C48.046875,20.1898438 48.2558594,19.6859375 48.6191406,19.3226563 C48.9824219,18.959375 49.4841797,18.7503906 50,18.7503906 C50.5136719,18.7503906 51.0175781,18.959375 51.3806641,19.3226563 Z M50,-7.10542736e-15 C54.0923828,-7.10542736e-15 57.421875,3.32949219 57.421875,7.421875 C57.421875,11.5142578 54.0923828,14.84375 50,14.84375 C45.9076172,14.84375 42.578125,11.5142578 42.578125,7.421875 C42.578125,3.32949219 45.9076172,-7.10542736e-15 50,-7.10542736e-15 Z M88.8806641,16.5882813 C89.2441406,16.9515625 89.453125,17.4554688 89.453125,17.9691406 C89.453125,18.4828125 89.2439453,18.9867188 88.8806641,19.35 C88.5175781,19.7132813 88.0136719,19.9222656 87.5,19.9222656 C86.9863281,19.9222656 86.4826172,19.7132813 86.1191406,19.35 C85.7556641,18.9867188 85.546875,18.4828125 85.546875,17.9691406 C85.546875,17.4554688 85.7558594,16.9515625 86.1191406,16.5882813 C86.4824219,16.225 86.9863281,16.0160156 87.5,16.0160156 C88.0154297,16.0160156 88.5175781,16.225 88.8806641,16.5882813 Z M92.0865234,1.90800781 C94.6296875,4.45097656 94.6296875,8.58867188 92.0867188,11.1318359 C90.8152344,12.403125 89.1447266,13.0390625 87.4746094,13.0390625 C85.8042969,13.0390625 84.1345703,12.4035156 82.8626953,11.1318359 C80.3197266,8.58886719 80.3197266,4.45117188 82.8626953,1.90800781 C85.4056641,-0.634765625 89.5435547,-0.634960937 92.0865234,1.90800781 Z" id="laptop" fill="#0028B4"></path>
            <path d="M65.4271484,15.2171875 C65.9371094,14.7072266 66.6070313,14.4521484 67.2769531,14.4521484 C67.946875,14.4521484 68.6166016,14.7072266 69.1267578,15.2171875 C70.146875,16.2371094 70.146875,17.8966797 69.1267578,18.9166016 C68.1066406,19.9367187 66.4472656,19.9367187 65.4273438,18.9166016 C64.4072266,17.8966797 64.4072266,16.2371094 65.4271484,15.2171875 Z" id="Shape" fill="#74CAFF"></path>
            <path d="M32.8376953,24.3494141 C31.3953125,24.3494141 30.2216797,23.1759766 30.2216797,21.7333984 C30.2216797,20.2908203 31.3953125,19.1173828 32.8376953,19.1173828 C34.2800781,19.1173828 35.4537109,20.2908203 35.4537109,21.7333984 C35.4537109,23.1759766 34.2800781,24.3494141 32.8376953,24.3494141 Z" id="Shape" fill="#74CAFF"></path>
            <path d="M8.984375,12.890625 C8.984375,10.9521484 10.5615234,9.375 12.5,9.375 C14.4384766,9.375 16.015625,10.9521484 16.015625,12.890625 C16.015625,14.8291016 14.4384766,16.40625 12.5,16.40625 C10.5615234,16.40625 8.984375,14.8291016 8.984375,12.890625 Z" id="Shape" fill="#74CAFF"></path>
            <path d="M50,10.9375 C48.0615234,10.9375 46.484375,9.36035156 46.484375,7.421875 C46.484375,5.48339844 48.0615234,3.90625 50,3.90625 C51.9384766,3.90625 53.515625,5.48339844 53.515625,7.421875 C53.515625,9.36035156 51.9384766,10.9375 50,10.9375 Z" id="Shape" fill="#74CAFF"></path>
            <path d="M89.3248047,8.36972656 C88.3042969,9.38984375 86.6447266,9.38964844 85.6251953,8.36972656 C84.6050781,7.34980469 84.6050781,5.69023437 85.625,4.6703125 C86.1347656,4.16035156 86.8048828,3.90527344 87.4748047,3.90527344 C88.1447266,3.90527344 88.8144531,4.16015625 89.3246094,4.6703125 C90.3447266,5.69023437 90.3447266,7.34980469 89.3248047,8.36972656 Z" id="Shape" fill="#74CAFF"></path>
        </g>
    </g>
</svg>