<?xml version="1.0" encoding="UTF-8"?>
<svg width="100px" height="100px" viewBox="0 0 100 100" version="1.1" xmlns="http://www.w3.org/2000/svg" xmlns:xlink="http://www.w3.org/1999/xlink">
    <!-- Generator: Sketch 51.3 (57544) - http://www.bohemiancoding.com/sketch -->
    <title>icon_ide</title>
    <desc>Created with Sketch.</desc>
    <defs></defs>
    <g id="icon_ide" stroke="none" stroke-width="1" fill="none" fill-rule="evenodd">
        <g id="IDE" transform="translate(5.000000, 0.000000)" fill-rule="nonzero">
            <ellipse id="Oval-5" fill="#D9F1FF" cx="48" cy="29.7029703" rx="30" ry="29.7029703"></ellipse>
            <path d="M83.4033203,14.8514851 C87.0354004,14.8514851 89.9902344,17.7898388 89.9902344,21.4016613 L89.9902344,25.5000419 C89.9902344,26.5189172 89.1593555,27.3451619 88.1347656,27.3451619 C87.1101758,27.3451619 86.2792969,26.5189172 86.2792969,25.5000419 L86.2792969,21.4016613 C86.2792969,19.8246372 84.9891895,18.5417252 83.4033203,18.5417252 L55.1050098,18.5417252 C54.0804199,18.5417252 53.249541,17.7154805 53.249541,16.6966052 C53.249541,15.6777299 54.0804199,14.8514851 55.1050098,14.8514851 L83.4033203,14.8514851 Z M48.8116309,15.3921053 C49.1569336,15.7352976 49.3554687,16.2113386 49.3554687,16.6966052 C49.3554687,17.1818718 49.1569336,17.6579127 48.8116309,18.0009205 C48.4666992,18.3442974 47.9879883,18.5417252 47.5,18.5417252 C47.0120117,18.5417252 46.5333008,18.3442974 46.1881836,18.0009205 C45.8428809,17.6579127 45.6445312,17.1818718 45.6445312,16.6966052 C45.6445312,16.2113386 45.8430664,15.7354822 46.1881836,15.3921053 C46.5333008,15.0487285 47.0120117,14.8514851 47.5,14.8514851 C47.9879883,14.8514851 48.4666992,15.0487285 48.8116309,15.3921053 Z M39.890166,14.8514851 C40.9147559,14.8514851 41.7456348,15.6777299 41.7456348,16.6966052 C41.7456348,17.7154805 40.9147559,18.5417252 39.890166,18.5417252 L11.5966797,18.5417252 C10.0108105,18.5417252 8.72070312,19.8246372 8.72070312,21.4016613 L8.72070312,42.4146263 C11.6074414,43.2218663 13.7304687,45.861126 13.7304687,48.9862058 C13.7304687,52.7506197 10.6507617,55.8131499 6.86523437,55.8131499 C3.07970703,55.8131499 0,52.7506197 0,48.9862058 C0,45.861126 2.12302734,43.2218663 5.00976562,42.4146263 L5.00976562,21.4016613 C5.00976562,17.7898388 7.96459961,14.8514851 11.5966797,14.8514851 L39.890166,14.8514851 Z M88.1347656,32.5646375 C91.920293,32.5646375 95,35.6271677 95,39.3915816 C95,42.5166614 92.8769727,45.1559211 89.9902344,45.9631611 L89.9902344,73.9875822 C89.9902344,77.5994047 87.0354004,80.5377583 83.4033203,80.5377583 L56.40625,80.5377583 L56.40625,95.6677426 L62.6964746,95.6677426 C63.7210645,95.6677426 64.5519434,96.4939874 64.5519434,97.5128626 C64.5519434,98.5317379 63.7210645,99.3579827 62.6964746,99.3579827 L54.5507812,99.3579827 L40.4492187,99.3579827 L32.3031543,99.3579827 C31.2785645,99.3579827 30.4476855,98.5317379 30.4476855,97.5128626 C30.4476855,96.4939874 31.2785645,95.6677426 32.3031543,95.6677426 L38.59375,95.6677426 L38.59375,80.5377583 L11.5966797,80.5377583 C7.96459961,80.5377583 5.00976562,77.5994047 5.00976562,73.9875822 L5.00976562,63.009118 C5.00976562,61.9902427 5.84064453,61.163998 6.86523437,61.163998 C7.88982422,61.163998 8.72070312,61.9902427 8.72070312,63.009118 L8.72070312,64.7319066 L86.2792969,64.7319066 L86.2792969,45.9631611 C83.3925586,45.1559211 81.2695312,42.5166614 81.2695312,39.3915816 C81.2695312,35.6271677 84.3492383,32.5646375 88.1347656,32.5646375 Z M52.6953125,95.6677426 L52.6953125,80.5377583 L42.3046875,80.5377583 L42.3046875,95.6677426 L52.6953125,95.6677426 Z M47.6566016,70.5359162 C48.6811914,70.5359162 49.5198633,71.3621609 49.5198633,72.3810362 C49.5198633,73.3999115 48.6967773,74.2261562 47.6721875,74.2261562 L47.6566016,74.2261562 C46.6320117,74.2261562 45.8011328,73.3999115 45.8011328,72.3810362 C45.8011328,71.3621609 46.6320117,70.5359162 47.6566016,70.5359162 Z M86.2792969,73.9875822 L86.2792969,68.4221467 L8.72070313,68.4221467 L8.72070313,73.9875822 C8.72070313,75.5646063 10.0108105,76.8475183 11.5966797,76.8475183 L40.4492187,76.8475183 L54.5507812,76.8475183 L83.4033203,76.8475183 C84.9891895,76.8475183 86.2792969,75.5646063 86.2792969,73.9875822 Z" id="monitor" fill="#0028B4"></path>
            <g transform="translate(27.000000, 34.653465)" id="Combined-Shape" stroke="#0028B4" stroke-width="3">
                <path d="M29.5,11.3712871 L29.5,11.4009901 L41.5148515,11.4009901 C41.5066492,11.4009901 41.5,11.3943409 41.5,11.3861386 C41.5,11.3779364 41.5066492,11.3712871 41.5148515,11.3712871 L29.5000004,11.3712871 L29.5,1.5 L29.5,21.2722772 L29.4851485,21.2722772 C29.4933508,21.2722772 29.5,21.2789265 29.5,21.2871287 L29.5,21.3019802 L41.5148515,21.3019802 C41.5066492,21.3019802 41.5,21.295331 41.5,21.2871287 C41.5,21.2789265 41.5066492,21.2722772 41.5148515,21.2722772 L29.5000007,21.2722772 L29.5000004,11.3712871 Z M29.5,1.49999448 C29.5000168,1.49423495 29.5000168,1.49423495 29.5000034,1.48765169 L29.5,1.48514851 C29.5,1.49335076 29.4933508,1.5 29.4851485,1.5 L29.5,1.5 Z M29.5,1.5 L41.5148515,1.5 C41.5066492,1.5 41.5,1.49335076 41.5,1.48514851 C41.5,1.47694627 41.5066492,1.47029703 41.5148515,1.47029703 L29.5,1.47029703 L29.5,1.5 Z M1.5,1.5 L1.5,21.2722772 L1.5,1.5 Z M10,1.5 C9.72385763,1.5 9.5,1.72385763 9.5,2 L9.5,20.7722772 C9.5,21.0484196 9.72385763,21.2722772 10,21.2722772 L15.5,21.2722772 C18.8137085,21.2722772 21.5,18.5859857 21.5,15.2722772 L21.5,7.5 C21.5,4.1862915 18.8137085,1.5 15.5,1.5 L10,1.5 Z"></path>
            </g>
            <path d="M10.0195312,48.9862058 C10.0195312,50.7158213 8.60455078,52.1229098 6.86523437,52.1229098 C5.12591797,52.1229098 3.7109375,50.7158213 3.7109375,48.9862058 C3.7109375,47.2565902 5.12591797,45.8495017 6.86523437,45.8495017 C8.60455078,45.8495017 10.0195312,47.2565902 10.0195312,48.9862058 Z" id="Shape" fill="#74CAFF"></path>
            <path d="M88.1347656,42.5282856 C86.3954492,42.5282856 84.9804688,41.1211971 84.9804688,39.3915816 C84.9804688,37.6619661 86.3954492,36.2548775 88.1347656,36.2548775 C89.874082,36.2548775 91.2890625,37.6619661 91.2890625,39.3915816 C91.2890625,41.1211971 89.874082,42.5282856 88.1347656,42.5282856 Z" id="Shape" fill="#74CAFF"></path>
        </g>
    </g>
</svg>