<?xml version="1.0" encoding="UTF-8"?>
<svg width="100px" height="100px" viewBox="0 0 100 100" version="1.1" xmlns="http://www.w3.org/2000/svg" xmlns:xlink="http://www.w3.org/1999/xlink">
    <!-- Generator: Sketch 51.3 (57544) - http://www.bohemiancoding.com/sketch -->
    <title>icon_community</title>
    <desc>Created with Sketch.</desc>
    <defs></defs>
    <g id="icon_community" stroke="none" stroke-width="1" fill="none" fill-rule="evenodd">
        <g id="社区" fill-rule="nonzero">
            <circle id="Oval-5" fill="#D9F1FF" cx="30" cy="30" r="30"></circle>
            <path d="M98.8275703,71.898258 C98.3159294,69.9936719 97.0920421,68.4016242 95.3811714,67.4158449 C94.7663217,67.0614706 94.1148382,66.8023695 93.443981,66.6371355 L93.443981,61.5055635 C93.443981,60.5350771 92.6554728,59.7479302 91.6829148,59.7479302 C90.7103568,59.7479302 89.9218486,60.5350771 89.9218486,61.5055635 L89.9218486,66.6411784 C89.8707726,66.6536589 89.8195205,66.6645573 89.7686206,66.6782682 C88.4409961,67.0333456 87.2657192,67.7331294 86.3403625,68.7009791 L78.4665527,64.1637223 C79.7880128,61.3839231 80.5289674,58.2780502 80.5289674,55.0020215 C80.5289674,51.724938 79.7874844,48.6176589 78.4647914,45.8371566 L86.3447656,41.29656 C87.3314135,42.3241751 88.5792537,43.0253652 89.9216725,43.354427 L89.9216725,49.025998 C89.9216725,49.9968359 90.7101807,50.7836313 91.6827387,50.7836313 C92.6554728,50.7836313 93.4438048,49.9966602 93.4438048,49.025998 L93.4438048,43.35847 C94.1077932,43.1964 94.7599812,42.9418693 95.3809952,42.5841551 C97.0920421,41.5982 98.3161055,40.0063281 98.827218,38.101742 C99.3386828,36.1971559 99.0762577,34.2076676 98.0882008,32.4999561 C96.0490344,28.9748458 91.5164774,27.7624848 87.984306,29.797852 C87.363292,30.1557419 86.8157217,30.5918543 86.3430043,31.0845682 L66.1419075,19.4441808 C66.3331784,18.7892211 66.4377962,18.0978748 66.4377962,17.382095 C66.4377962,13.3115365 63.1196158,10 59.0412831,10 C54.9629505,10 51.64477,13.3115365 51.64477,17.382095 C51.64477,18.0978748 51.7493878,18.7892211 51.9406587,19.4441808 L31.7422038,31.0831619 C31.2634981,30.5858778 30.7127577,30.1522263 30.0980841,29.7980277 C26.5659127,27.7624848 22.0333557,28.9748458 19.9941894,32.5001318 C19.0063086,34.2076676 18.7438835,36.1971559 19.2551721,38.1019178 C19.7664607,40.0065039 20.990348,41.5985516 22.7013949,42.5843309 C23.322585,42.9422208 23.9747731,43.1965758 24.6385853,43.3588216 L24.6385853,48.6747877 C24.6385853,49.6456257 25.4270934,50.432421 26.3996514,50.432421 C27.3722094,50.432421 28.1607176,49.6454499 28.1607176,48.6747877 L28.1607176,43.354427 C29.5031365,43.0251894 30.7508005,42.3239994 31.7374484,41.29656 L39.6212973,45.8394417 C38.2993088,48.6195925 37.5581781,51.7259927 37.5581781,55.002373 C37.5581781,58.2773471 38.2987805,61.3826926 39.6197122,64.1617887 L31.7422038,68.7011549 C30.8168471,67.733481 29.6415701,67.0336972 28.3141218,66.6786198 C28.2632219,66.6649089 28.2119697,66.6541862 28.1608937,66.64153 L28.1608937,61.8571253 C28.1608937,60.8864631 27.3723855,60.099492 26.3998276,60.099492 C25.4272696,60.099492 24.6387614,60.8866389 24.6387614,61.8571253 L24.6387614,66.6373113 C23.9679042,66.8023695 23.3164207,67.0616464 22.701571,67.4160207 C20.9905241,68.4018 19.7664607,69.9938477 19.2553482,71.8984338 C18.7438835,73.8031957 19.0063086,75.7925082 19.9943655,77.5002197 C21.3628507,79.8658792 23.8539518,81.1896852 26.4123324,81.1896852 C27.6661608,81.1896852 28.9365448,80.871346 30.0982602,80.2019723 C30.7131099,79.8477737 31.2636743,79.4141222 31.7423799,78.9170138 L51.9406587,90.5558192 C51.7493878,91.2107789 51.64477,91.9021252 51.64477,92.617905 C51.64477,96.6884635 54.9627744,100 59.0412831,100 C63.1197919,100 66.4377962,96.6884635 66.4377962,92.617905 C66.4377962,91.9021252 66.3331784,91.2107789 66.1419075,90.5558192 L86.3398341,78.9164865 C86.8185397,79.4139465 87.3694563,79.8477737 87.9844821,80.2019723 C89.1463737,80.8716975 90.4164055,81.1896852 91.67041,81.1896852 C94.2284383,81.1895094 96.7200678,79.8657034 98.0883769,77.5002197 C99.0764338,75.7923324 99.339035,73.8030199 98.8275703,71.898258 Z M64.3771428,22.4864209 L84.5858129,34.1312029 C84.1999247,35.4564151 84.1831929,36.8865686 84.5815859,38.2534409 L76.6980893,42.7961469 C73.1294602,37.6703756 67.3807654,34.1654801 60.8023493,33.6309304 L60.8023493,24.5511435 C62.1877425,24.2120621 63.4200837,23.4823955 64.3771428,22.4864209 Z M59.0435727,64.5745223 C61.2141277,64.5745223 63.1883042,63.7242701 64.6534817,62.341929 L66.9744468,62.7739985 C68.7918727,63.1123767 70.1110431,64.6972174 70.1110431,66.5423896 L70.1110431,69.1135369 C67.0586341,71.5036299 63.214899,72.9302677 59.0433966,72.9302677 C54.8718943,72.9302677 51.0281591,71.5036299 47.975574,69.1137127 L47.975574,66.5425653 C47.975574,64.6973932 49.2947444,63.1123767 51.1121703,62.7741743 L53.4333116,62.3421048 C54.8990174,63.7244459 56.8731939,64.5745223 59.0435727,64.5745223 Z M54.3901945,56.4149484 L54.3901945,53.8541722 C54.3901945,51.2932201 56.4776188,49.2098648 59.0435727,49.2098648 C61.6095266,49.2098648 63.696951,51.2932201 63.696951,53.8541722 L63.696951,56.4149484 C63.696951,58.9757247 61.6095266,61.0592557 59.0435727,61.0592557 C56.4776188,61.0592557 54.3901945,58.9757247 54.3901945,56.4149484 Z M67.6202943,59.3184974 L66.7431956,59.155197 C67.0503563,58.2980893 67.2189072,57.3759426 67.2189072,56.4147726 L67.2189072,53.8539964 C67.2189072,49.3547083 63.5514724,45.6944225 59.0433966,45.6944225 C54.5353209,45.6944225 50.867886,49.3547083 50.867886,53.8539964 L50.867886,56.4147726 C50.867886,57.3759426 51.0364369,58.2980893 51.3435976,59.155197 L50.4664989,59.3184974 C47.3159887,59.9049025 44.9467656,62.445464 44.521954,65.5421962 C42.3587962,62.5816942 41.0801343,58.9384591 41.0801343,55.0020215 C41.0801343,45.1164549 49.1383461,37.073951 59.0432205,37.073951 C68.9480949,37.073951 77.0063067,45.1164549 77.0063067,55.0020215 C77.0063067,58.2532651 76.1343156,61.3051732 74.6120739,63.9371407 C74.6067902,63.9459298 74.6006259,63.9540157 74.5953421,63.9628048 C74.5919958,63.9686055 74.58953,63.9747579 74.5861837,63.9805586 C74.2728587,64.5198545 73.9311777,65.0406933 73.5648393,65.5421962 C73.1402038,62.445464 70.7709806,59.9049025 67.6202943,59.3184974 Z M33.50327,38.2548472 C33.8801758,36.971295 33.8999017,35.6054773 33.5443069,34.2804409 C33.5305692,34.2296402 33.5145419,34.1798942 33.4997475,34.1294451 L53.7052474,22.4864209 C54.6623064,23.4823955 55.8946477,24.2120621 57.2800408,24.5511435 L57.2800408,33.6314578 C50.7028576,34.1674137 44.9553957,37.672485 41.3878233,42.7980805 L33.50327,38.2548472 Z M53.7052474,87.5134033 L33.4997475,75.8705549 C33.5143658,75.8201058 33.5305692,75.7703598 33.5443069,75.7195591 C33.9000778,74.3945227 33.8803519,73.028705 33.50327,71.7451528 L41.3855337,67.20315 C44.9531061,72.3303275 50.7014486,75.8369808 57.2800408,76.372761 L57.2800408,85.4486808 C55.8946477,85.7877621 54.6623064,86.5172529 53.7052474,87.5134033 Z M64.3771428,87.5134033 C63.4200837,86.5172529 62.1877425,85.7877621 60.8023493,85.4486808 L60.8023493,76.3732883 C67.3819982,75.8387386 73.1317498,72.3326126 76.7002028,67.2049078 L84.5791202,71.7449771 C84.2022143,73.0285292 84.1824884,74.3943469 84.5382593,75.7193834 C84.5518209,75.7700083 84.5680243,75.8195785 84.5826427,75.869676 L64.3771428,87.5134033 Z M27.6450259,53.8914377 C27.9726169,54.2182144 28.1610698,54.6717292 28.1610698,55.1340329 C28.1610698,55.597743 27.9726169,56.0496757 27.6450259,56.3764524 C27.3176109,56.7051627 26.8632104,56.8916662 26.4000037,56.8916662 C25.9369731,56.8916662 25.4825726,56.7051627 25.1549815,56.3764524 C24.8273904,56.0498515 24.6389375,55.5980945 24.6389375,55.1340329 C24.6389375,54.6719049 24.8273904,54.2183902 25.1549815,53.8914377 C25.4823964,53.5644852 25.9350357,53.3763997 26.4000037,53.3763997 C26.8630343,53.3763997 27.3174348,53.5644852 27.6450259,53.8914377 Z M92.9286415,53.7594263 C93.2562325,54.086203 93.4429242,54.5397177 93.4429242,55.0020215 C93.4429242,55.4641495 93.2562325,55.9176642 92.9286415,56.2444409 C92.5994653,56.5715692 92.146826,56.7596548 91.6836193,56.7596548 C91.2188275,56.7596548 90.7661882,56.5713934 90.4368359,56.2444409 C90.1092448,55.91784 89.9225531,55.4643253 89.9225531,55.0020215 C89.9225531,54.5398935 90.1092448,54.0863787 90.4368359,53.7594263 C90.7642508,53.4324738 91.2186513,53.244564 91.6836193,53.2443882 C92.1466499,53.2443882 92.5992892,53.4324738 92.9286415,53.7594263 Z" id="user" fill="#0028B4"></path>
            <path d="M87.9404511,35.1901071 C88.208336,34.1925504 88.8494282,33.3588216 89.7455483,32.8422015 C91.5957333,31.7760903 93.9698879,32.4110109 95.0380814,34.2575893 C95.5555344,35.1521384 95.6930874,36.1941676 95.4252024,37.1919 C95.1573175,38.1894567 94.5162253,39.0233613 93.6201052,39.5398056 C91.7700963,40.6059168 89.3957656,39.9711719 88.3275721,38.1244177 C87.8101191,37.2298687 87.6727422,36.1876637 87.9404511,35.1901071 Z" id="Shape" fill="#74CAFF"></path>
            <path d="M29.7551702,38.1244177 C29.2375411,39.0189668 28.4020078,39.6588093 27.4025028,39.926172 C26.4028217,40.1935348 25.3587572,40.0562499 24.462461,39.5398056 C23.5661648,39.0233613 22.9252488,38.1894567 22.6573638,37.1919 C22.3894789,36.1943434 22.5270319,35.1521384 23.0444849,34.2575893 C23.7613105,33.0185097 25.0662149,32.3248783 26.4063442,32.3248783 C27.0631114,32.3248783 27.7283326,32.4915186 28.3370179,32.8422015 C29.2333141,33.3586458 29.8742302,34.1925504 30.1421152,35.1901071 C30.4101762,36.1878395 30.2727993,37.2300445 29.7551702,38.1244177 Z" id="Shape" fill="#74CAFF"></path>
            <path d="M30.1417629,74.8095414 C29.8742302,75.8074496 29.233138,76.6410027 28.3370179,77.157447 C26.4871852,78.2232066 24.1126783,77.5886375 23.0444849,75.7422349 C22.5270319,74.8476858 22.3894789,73.8054808 22.6573638,72.8079242 C22.9252488,71.810016 23.566341,70.9764629 24.462461,70.4600186 C25.0595222,70.1160154 25.7219254,69.9402345 26.393311,69.9402345 C26.7298844,69.9402345 27.0685713,69.9843555 27.4023267,70.0736522 C28.4020078,70.341015 29.237365,70.9810332 29.754818,71.8754065 C30.2720949,72.7699555 30.4096479,73.8121605 30.1417629,74.8095414 Z" id="Shape" fill="#74CAFF"></path>
            <path d="M59.0412831,13.5152666 C61.17767,13.5152666 62.9156639,15.2498726 62.9156639,17.382095 C62.9156639,19.5143174 61.1774939,21.2490991 59.0412831,21.2490991 C56.9050724,21.2490991 55.1669023,19.5144931 55.1669023,17.3822707 C55.1669023,15.2500483 56.9048962,13.5152666 59.0412831,13.5152666 Z" id="Shape" fill="#74CAFF"></path>
            <path d="M59.0412831,96.4845576 C56.9048962,96.4845576 55.1669023,94.7499517 55.1669023,92.6177293 C55.1669023,90.4855069 56.9048962,88.7509009 59.0412831,88.7509009 C61.17767,88.7509009 62.9156639,90.4855069 62.9156639,92.6177293 C62.9156639,94.7499517 61.1774939,96.4845576 59.0412831,96.4845576 Z" id="Shape" fill="#74CAFF"></path>
            <path d="M95.0380814,75.7424107 C93.970064,77.5888133 91.5960856,78.2237339 89.7455483,77.1576227 C88.8492521,76.6411784 88.208336,75.8074496 87.9404511,74.8097172 C87.6725661,73.8121605 87.8101191,72.7701313 88.3275721,71.8755823 C88.8450251,70.9810332 89.6805585,70.3413665 90.6802396,70.073828 C91.0032514,69.9875196 91.3308425,69.9442775 91.6566723,69.941465 C91.6654785,69.9416407 91.6741086,69.9428712 91.6830909,69.9428712 C91.6936584,69.9428712 91.7038736,69.941465 91.714441,69.9412892 C92.3771965,69.9456837 93.0306174,70.1205857 93.6202813,70.4601944 C94.5165775,70.9766387 95.1574936,71.8103676 95.4253785,72.8081 C95.6930874,73.8056566 95.5555344,74.8478616 95.0380814,75.7424107 Z" id="Shape" fill="#74CAFF"></path>
        </g>
    </g>
</svg>