<?xml version="1.0" encoding="UTF-8"?>
<svg width="100px" height="100px" viewBox="0 0 100 100" version="1.1" xmlns="http://www.w3.org/2000/svg" xmlns:xlink="http://www.w3.org/1999/xlink">
    <!-- Generator: Sketch 51.3 (57544) - http://www.bohemiancoding.com/sketch -->
    <title>icon_w3c</title>
    <desc>Created with Sketch.</desc>
    <defs></defs>
    <g id="icon_w3c" stroke="none" stroke-width="1" fill="none" fill-rule="evenodd">
        <circle id="Oval-5" fill="#D9F1FF" fill-rule="nonzero" cx="50" cy="70" r="30"></circle>
        <path d="M28,40 L30.9611367,40 L35.1052632,54.2097526 L38.0657895,45.3289474 L36.8815789,40 L39.8421053,40 L43.9868421,54.2097526 L48.1315789,40 L59.9736842,40 L59.9736842,41.7763158 L55.8289474,48.8815789 C57.3902219,49.5091458 58.5744324,50.4959879 59.3815789,51.8421053 C61.118156,54.7382791 60.8153555,63.6842105 54.0526316,63.6842105 C51.7008849,63.6842105 49.7272007,62.1052632 48.1315789,58.9473684 L50.5,57.7631579 C51.2742718,60.2008266 52.6558507,61.1876687 54.6447368,60.7236842 C57.628066,60.0277074 57.4591872,54.8849562 56.4210526,53.0263158 C55.8568244,52.0161409 54.277877,51.6214041 51.6842105,51.8421053 L51.6842105,50.0657895 L55.8289474,42.9605263 L50.5,42.9605263 L43.9868421,63.6842105 L39.8421053,49.4736842 L35.1052632,63.6842105 L28,40 Z M64.1184211,41.7763158 C66.3398631,39.484483 68.5109157,40.0765882 70.6315789,43.5526316 L72.4078947,40 L73,42.9605263 L71.2236842,46.5131579 C69.0235352,43.620879 67.049851,42.8314053 65.3026316,44.1447368 C63.5554121,45.4580683 62.56857,48.6159631 62.3421053,53.6184211 C61.0864226,48.2408903 61.6785279,44.2935219 64.1184211,41.7763158 Z M60.5657895,56.5789474 C62.2009028,59.6658602 64.174587,61.2093166 66.4868421,61.2093166 C68.7990972,61.2093166 70.7727814,59.8632286 72.4078947,57.1710526 L72.9972334,59.5394737 C71.264145,62.5712665 69.0940146,63.9528454 66.4868421,63.6842105 C64.2194617,63.4505868 62.2457775,61.0821657 60.5657895,56.5789474 Z" id="Combined-Shape" fill="#0028B4" fill-rule="nonzero"></path>
        <path d="M28.1832031,62.7941406 C28.7332031,63.7201172 28.4320313,64.9201172 27.5074219,65.4722656 C27.1929688,65.6601563 26.8466797,65.7496094 26.5054688,65.7496094 C25.8435547,65.7496094 25.1990234,65.4130859 24.8333984,64.8037109 C24.2785156,63.8787109 24.5742188,62.6716797 25.4990234,62.1167969 C26.4236328,61.5619141 27.6193359,61.8542969 28.1744141,62.7794922 C28.1757813,62.7820313 28.1816406,62.7916016 28.1832031,62.7941406 Z M50.5384766,29.5464844 C51.6169922,29.5513672 52.4873047,30.4298828 52.4826172,31.5085938 C52.4777344,32.5841797 51.6041016,33.4527344 50.5296875,33.4527344 C50.5265625,33.4527344 50.5236328,33.4527344 50.5205078,33.4527344 L50.4677734,33.4527344 C49.3892578,33.4527344 48.5146484,32.5783203 48.5146484,31.4996094 C48.5146484,30.4208984 49.3892578,29.5464844 50.4677734,29.5464844 L50.5384766,29.5464844 Z M92.5134766,42.0460938 C96.6056641,42.0460938 99.9339844,45.3755859 99.9339844,49.4677734 C99.9339844,53.5599609 96.6046875,56.8894531 92.5123047,56.8894531 C89.0960937,56.8894531 86.2130859,54.5685547 85.3533203,51.4208984 L80.26875,51.4208984 C79.7501953,59.1189453 76.240625,66.4650391 70.4568359,71.8236328 C67.9751953,74.1230469 66.3869141,77.2162109 65.9400391,80.5154297 C67.7902344,80.7896484 69.2160156,82.3837891 69.2160156,84.3091797 L69.2160156,88.3480469 C69.2160156,89.0337891 69.0330078,89.6767578 68.7166016,90.2347656 C69.0330078,90.7925781 69.2160156,91.4355469 69.2160156,92.1214844 L69.2160156,96.1601562 C69.2160156,98.2773438 67.49375,100 65.3763672,100 L35.5568359,100 C33.4396484,100 31.7171875,98.2775391 31.7171875,96.1601562 L31.7171875,92.1214844 C31.7171875,91.4357422 31.9001953,90.7925781 32.2166016,90.2347656 C31.9001953,89.6769531 31.7171875,89.0339844 31.7171875,88.3480469 L31.7171875,84.3091797 C31.7171875,82.3773437 33.1529297,80.7785156 35.0126953,80.5126953 C34.6007812,77.2130859 33.0244141,74.1230469 30.5292969,71.8314453 C30.215625,71.5433594 29.9013672,71.2423828 29.5957031,70.9371094 C28.8324219,70.175 28.8316406,68.9382813 29.59375,68.175 C30.35625,67.4119141 31.5929688,67.4109375 32.3560547,68.1732422 C32.6232422,68.4402344 32.8976563,68.7029297 33.1714844,68.9542969 C36.4625,71.9767578 38.5066406,76.0919922 38.9431641,80.4693359 L62.0072266,80.4693359 C62.4822266,76.0996094 64.5355469,71.9855469 67.8029297,68.9582031 C73.2875,63.8769531 76.4330078,56.7607422 76.4330078,49.434375 C76.4330078,35.0660156 64.7814453,23.3765625 50.4599609,23.3765625 C36.1384766,23.3765625 24.4869141,35.0660156 24.4869141,49.434375 C24.4869141,52.0523437 24.8876953,54.6576172 25.6779297,57.1777344 C26.0005859,58.2070312 25.4279297,59.303125 24.3986328,59.6257812 C23.3693359,59.9484375 22.2734375,59.3757812 21.9505859,58.3464844 C21.2414063,56.0853516 20.8091797,53.7634766 20.6513672,51.4207031 L15.5806641,51.4207031 C14.7208984,54.5681641 11.8380859,56.8892578 8.42167969,56.8892578 C4.32949219,56.8892578 1,53.5599609 1,49.4675781 C1,45.3753906 4.32949219,42.0458984 8.42167969,42.0458984 C11.8378906,42.0458984 14.7208984,44.3667969 15.5806641,47.5144531 L20.6441406,47.5144531 C21.0740234,40.7294922 23.7648437,34.5509766 27.9689453,29.7308594 L24.4177734,26.1796875 C23.28125,26.8285156 22.0089844,27.1546875 20.7365234,27.1546875 C18.8359375,27.1546875 16.9357422,26.4314453 15.4886719,24.984375 C14.0869141,23.5826172 13.3148437,21.71875 13.3148437,19.7363281 C13.3148437,17.7541016 14.0869141,15.8902344 15.4886719,14.4884766 C18.3826172,11.5947266 23.0910156,11.5951172 25.9845703,14.4884766 C25.9847656,14.4884766 25.9847656,14.4884766 25.9847656,14.4884766 C28.4005859,16.9042969 28.7978516,20.5839844 27.1800781,23.4175781 L30.7220703,26.9595703 C35.5330078,22.7054688 41.7148437,19.9773438 48.5085937,19.5357422 L48.5085937,15.2683594 C48.5085937,15.0375 48.5507812,14.8169922 48.6242188,14.6113281 C45.4208984,13.7894531 43.0460938,10.8779297 43.0460938,7.42167969 C43.0460938,3.32949219 46.3755859,0 50.4677734,0 C54.5601563,0 57.8896484,3.32949219 57.8894531,7.421875 C57.8894531,10.8820312 55.5091797,13.7962891 52.3,14.6142578 C52.3728516,14.8191406 52.4146484,15.0388672 52.4146484,15.26875 L52.4146484,19.5363281 C59.2113281,19.9787109 65.3951172,22.709375 70.2064453,26.9669922 L73.7554687,23.4179688 C72.1376953,20.5841797 72.5349609,16.9044922 74.9507812,14.4886719 C77.8451172,11.5949219 82.5533203,11.5951172 85.446875,14.4886719 C86.8486328,15.8902344 87.6207031,17.7541016 87.6207031,19.7365234 C87.6207031,21.7189453 86.8486328,23.5828125 85.446875,24.9845703 C84.0001953,26.4314453 82.0994141,27.1548828 80.1990234,27.1548828 C78.9261719,27.1548828 77.6541016,26.8287109 76.5175781,26.1798828 L72.9585937,29.7388672 C77.1587891,34.5580078 79.8466797,40.7333984 80.2765625,47.5146484 L85.3544922,47.5146484 C86.2142578,44.3671875 89.0970703,42.0460938 92.5134766,42.0460938 Z M65.3109375,88.2818359 L65.3109375,84.3755859 L35.6240234,84.3755859 L35.6240234,88.2818359 L50.4599609,88.2818359 C51.5384766,88.2818359 52.4130859,89.15625 52.4130859,90.2349609 C52.4130859,91.3136719 51.5384766,92.1880859 50.4599609,92.1880859 L35.6240234,92.1880859 L35.6240234,96.0941406 L65.3109375,96.0941406 L65.3109375,92.1880859 L58.2820312,92.1880859 C57.2035156,92.1880859 56.3289062,91.3136719 56.3289062,90.2349609 C56.3289062,89.15625 57.2035156,88.2818359 58.2820312,88.2818359 L65.3109375,88.2818359 Z" id="idea" fill="#0028B4" fill-rule="nonzero"></path>
        <path d="M77.7123047,17.2509766 C78.3980469,16.565625 79.2980469,16.2228516 80.1984375,16.2228516 C81.0986328,16.2228516 81.9990234,16.565625 82.684375,17.2509766 C84.0552734,18.6216797 84.0552734,20.8521484 82.684375,22.2226562 C81.3136719,23.5935547 79.0832031,23.5935547 77.7126953,22.2226562 C76.3417969,20.8519531 76.3417969,18.6216797 77.7123047,17.2509766 Z" id="Shape" fill="#74CAFF" fill-rule="nonzero"></path>
        <path d="M23.2228516,22.2226562 C21.8513672,23.5931641 19.6212891,23.5933594 18.2507813,22.2226562 C16.8798828,20.8519531 16.8798828,18.6214844 18.2507813,17.2509766 C18.9361328,16.565625 19.8363281,16.2228516 20.7367188,16.2228516 C21.6371094,16.2228516 22.5375,16.565625 23.2228516,17.2509766 C24.5935547,18.6216797 24.5935547,20.8519531 23.2228516,22.2226562 Z" id="Shape" fill="#74CAFF" fill-rule="nonzero"></path>
        <path d="M8.42167969,52.9832031 C6.48320313,52.9832031 4.90605469,51.4060547 4.90605469,49.4675781 C4.90605469,47.5291016 6.48320313,45.9519531 8.42167969,45.9519531 C10.3601563,45.9519531 11.9373047,47.5291016 11.9373047,49.4675781 C11.9371094,51.4060547 10.3601563,52.9832031 8.42167969,52.9832031 Z" id="Shape" fill="#74CAFF" fill-rule="nonzero"></path>
        <path d="M46.9519531,7.421875 C46.9519531,5.48339844 48.5291016,3.90625 50.4675781,3.90625 C52.4060547,3.90625 53.9832031,5.48339844 53.9832031,7.421875 C53.9832031,9.36035156 52.4060547,10.9375 50.4675781,10.9375 C48.5291016,10.9375 46.9519531,9.36035156 46.9519531,7.421875 Z" id="Shape" fill="#74CAFF" fill-rule="nonzero"></path>
        <path d="M92.5134766,52.9832031 C90.575,52.9832031 88.9978516,51.4060547 88.9978516,49.4675781 C88.9978516,47.5291016 90.575,45.9519531 92.5134766,45.9519531 C94.4519531,45.9519531 96.0291016,47.5291016 96.0291016,49.4675781 C96.0291016,51.4060547 94.4517578,52.9832031 92.5134766,52.9832031 Z" id="Shape" fill="#74CAFF" fill-rule="nonzero"></path>
    </g>
</svg>