<?xml version="1.0" encoding="UTF-8"?>
<svg width="24px" height="24px" viewBox="0 0 24 24" version="1.1" xmlns="http://www.w3.org/2000/svg" xmlns:xlink="http://www.w3.org/1999/xlink">
    <!-- Generator: Sketch 52.2 (67145) - http://www.bohemiancoding.com/sketch -->
    <title>jd</title>
    <desc>Created with Sketch.</desc>
    <g id="Page-1" stroke="none" stroke-width="1" fill="none" fill-rule="evenodd">
        <g id="jd" transform="translate(0.000000, -2.000000)">
            <path d="M24,14 C24,20.6273231 18.6273231,26 12,26 C5.37267692,26 0,20.6273231 0,14 C0,7.37267692 5.37267692,2 12,2 C18.6273231,2 24,7.37267692 24,14" id="Fill-2备份" fill="#6190E8"></path>
            <g id="编组备份" transform="translate(0.600000, 0.000000)" fill="#FFFFFF">
                <g id="Group">
                    <g id="路径-4备份-2" transform="translate(1.673122, 0.000000)">
                        <g id="蒙版" transform="translate(10.277172, 11.222685) rotate(45.000000) translate(-10.277172, -11.222685) translate(3.218349, 4.163862)">
                            <path d="M12.2488209,1.41697841 C12.7969876,1.28427329 13.3499829,1.61681737 13.4839707,2.1597364 C13.5229306,2.3176019 13.5229306,2.4824386 13.4839707,2.64030412 L13.1531456,3.98080864 C13.0574401,4.36860793 12.6624434,4.60613942 12.2708958,4.51135005 C11.8793482,4.41656068 11.6395209,4.02534528 11.7352265,3.63754598 L11.8946891,2.99086506 L4.5782796,4.76197817 L2.79004777,12.0083477 L10.1063113,10.2372346 L10.4010242,9.04373888 C10.4967298,8.65593957 10.8917265,8.4184081 11.2832741,8.51319745 C11.6748217,8.60798682 11.914649,8.99920224 11.8189434,9.38700154 L11.4612653,10.8363151 C11.373874,11.1904249 11.1013329,11.4695829 10.7493408,11.5691024 L10.7113281,11.5790731 L2.43609847,13.5824152 C1.88793186,13.7151203 1.33493647,13.3825762 1.20094869,12.8396572 C1.16588482,12.6975783 1.16237843,12.5498526 1.19042953,12.4066444 L1.20094869,12.3590895 L3.22365418,4.16307854 C3.31104545,3.80896876 3.58358647,3.52981073 3.93557864,3.4302912 L3.9735913,3.42032056 L12.2488209,1.41697841 Z" id="path-1"></path>
                        </g>
                    </g>
                    <g id="路径-4备份-3" transform="translate(11.456290, 16.933217) rotate(180.000000) translate(-11.456290, -16.933217) translate(0.868055, 5.639099)">
                        <g id="蒙版" transform="translate(10.277172, 11.222685) rotate(45.000000) translate(-10.277172, -11.222685) translate(3.218349, 4.163862)">
                            <path d="M12.2488209,1.41697841 C12.7969876,1.28427329 13.3499829,1.61681737 13.4839707,2.1597364 C13.5229306,2.3176019 13.5229306,2.4824386 13.4839707,2.64030412 L13.1531456,3.98080864 C13.0574401,4.36860793 12.6624434,4.60613942 12.2708958,4.51135005 C11.8793482,4.41656068 11.6395209,4.02534528 11.7352265,3.63754598 L11.8946891,2.99086506 L4.5782796,4.76197817 L2.79004777,12.0083477 L10.1063113,10.2372346 L10.4010242,9.04373888 C10.4967298,8.65593957 10.8917265,8.4184081 11.2832741,8.51319745 C11.6748217,8.60798682 11.914649,8.99920224 11.8189434,9.38700154 L11.4612653,10.8363151 C11.373874,11.1904249 11.1013329,11.4695829 10.7493408,11.5691024 L10.7113281,11.5790731 L2.43609847,13.5824152 C1.88793186,13.7151203 1.33493647,13.3825762 1.20094869,12.8396572 C1.16588482,12.6975783 1.16237843,12.5498526 1.19042953,12.4066444 L1.20094869,12.3590895 L3.22365418,4.16307854 C3.31104545,3.80896876 3.58358647,3.52981073 3.93557864,3.4302912 L3.9735913,3.42032056 L12.2488209,1.41697841 Z" id="path-3"></path>
                        </g>
                    </g>
                </g>
            </g>
        </g>
    </g>
</svg>