<?xml version="1.0" encoding="UTF-8"?>
<svg width="24px" height="24px" viewBox="0 0 24 24" version="1.1" xmlns="http://www.w3.org/2000/svg" xmlns:xlink="http://www.w3.org/1999/xlink">
    <!-- Generator: Sketch 52.2 (67145) - http://www.bohemiancoding.com/sketch -->
    <title>qq</title>
    <desc>Created with Sketch.</desc>
    <g id="Page-1" stroke="none" stroke-width="1" fill="none" fill-rule="evenodd">
        <g id="qq">
            <path d="M12,24 C5.3728125,24 0,18.6271875 0,12 C0,5.3728125 5.3728125,0 12,0 C18.6271875,0 24,5.3728125 24,12 C24,18.6271875 18.6271875,24 12,24 Z" id="Path" fill="#6190E8"></path>
            <path d="M17.4035828,16.5965765 L17.8903804,16.9413463 C18.2394869,17.2199811 18.3142955,17.726294 18.0595127,18.0959999 C17.9304951,18.281395 17.7385949,18.4049918 17.5174218,18.4451065 C17.2962488,18.4852212 17.0739915,18.4342647 16.8907648,18.3041629 L16.1578579,17.7837556 C16.6153826,17.4444067 17.0338768,17.0454278 17.4035828,16.5965765 Z M6.89027193,9.14065835 L16.4310717,15.9081211 C14.4882179,18.1892396 11.0871396,18.6250807 8.64230971,16.891474 C6.19639559,15.1556989 5.43855251,11.7697992 6.89027193,9.14065835 Z M7.56788555,8.15947383 C9.51073932,5.87618698 12.9118176,5.43926172 15.3588159,7.17395259 C17.8058142,8.90972763 18.5625731,12.2967115 17.1097695,14.9258524 L7.56788555,8.15947383 Z M6.14869159,7.15226895 C5.96546486,7.02216713 5.84295232,6.82701441 5.80392178,6.60367296 C5.76489123,6.37924733 5.8147636,6.15373752 5.94269705,5.96834243 C6.07171468,5.78294735 6.26361486,5.65826644 6.48478794,5.6192359 C6.5346603,5.61056244 6.58344849,5.60622572 6.63223667,5.60622572 C6.80245321,5.60622572 6.9694172,5.65826644 7.11144502,5.76017953 L7.84435191,6.28058679 C7.38465883,6.61993569 6.96508048,7.01999877 6.59537449,7.46993421 L6.14869159,7.15226895 Z M18.687254,16.0577382 L18.6926749,16.0501489 L18.5571522,15.9525725 C18.5484787,15.9460675 18.5408895,15.9395624 18.5311318,15.9319731 C18.5213742,15.925468 18.5116166,15.9189629 18.4888487,15.9048685 L18.0822806,15.6164762 C19.9123794,12.4354868 19.0233504,8.31125928 16.0375137,6.19385225 C13.9602214,4.72044919 11.2519353,4.49710774 8.95780661,5.60839408 L7.78905864,4.78007919 C6.87617757,4.13173848 5.61310578,4.35724829 4.97343853,5.28313954 C4.33377127,6.20903079 4.55711272,7.48728112 5.46999379,8.13453765 L5.91776087,8.45220292 C4.08983037,11.6331923 4.97885943,15.7563356 7.96361191,17.8726585 C10.0409042,19.3460616 12.7481062,19.5683188 15.0422348,18.4581167 L16.2109828,19.2864316 L16.3009699,19.3493141 L16.3031382,19.3471457 C16.6316453,19.5542245 17.0002671,19.6539692 17.3667206,19.6539692 C18.0053037,19.6539692 18.6352133,19.3493141 19.0266029,18.7833712 C19.6239871,17.9192783 19.4711174,16.7396885 18.687254,16.0577382 Z" id="Shape" fill="#FFFFFF" fill-rule="nonzero"></path>
        </g>
    </g>
</svg>